G04 #@! TF.FileFunction,Soldermask,Bot*
%FSLAX46Y46*%
G04 Gerber Fmt 4.6, Leading zero omitted, Abs format (unit mm)*
G04 Created by KiCad (PCBNEW (2015-10-16 BZR 6271)-product) date Sun 01 Nov 2015 17:02:17 NZDT*
%MOMM*%
G01*
G04 APERTURE LIST*
%ADD10C,0.100000*%
G04 APERTURE END LIST*
D10*
G36*
X5131668Y3608959D02*
X5136912Y3608922D01*
X5292071Y3591518D01*
X5440896Y3544308D01*
X5577716Y3469091D01*
X5697320Y3368731D01*
X5795153Y3247051D01*
X5867489Y3108685D01*
X5911572Y2958905D01*
X5911576Y2958866D01*
X5911578Y2958858D01*
X5925725Y2803417D01*
X5909410Y2648186D01*
X5909406Y2648172D01*
X5909402Y2648138D01*
X5863233Y2498988D01*
X5788972Y2361646D01*
X5689449Y2241343D01*
X5568455Y2142663D01*
X5430598Y2069363D01*
X5281129Y2024236D01*
X5125742Y2009000D01*
X3510223Y2009000D01*
X3504332Y2009041D01*
X3499088Y2009078D01*
X3343929Y2026482D01*
X3195104Y2073692D01*
X3058284Y2148909D01*
X2938680Y2249269D01*
X2840847Y2370949D01*
X2768511Y2509315D01*
X2724428Y2659095D01*
X2724424Y2659134D01*
X2724422Y2659142D01*
X2710275Y2814583D01*
X2726590Y2969814D01*
X2726594Y2969828D01*
X2726598Y2969862D01*
X2772767Y3119012D01*
X2847028Y3256354D01*
X2946551Y3376657D01*
X3067545Y3475337D01*
X3205402Y3548637D01*
X3354871Y3593764D01*
X3510258Y3609000D01*
X5125777Y3609000D01*
X5131668Y3608959D01*
X5131668Y3608959D01*
G37*
G36*
X30291646Y10530585D02*
X30411714Y10505939D01*
X30524703Y10458443D01*
X30626318Y10389903D01*
X30712686Y10302929D01*
X30780516Y10200838D01*
X30827220Y10087523D01*
X30850961Y9967628D01*
X30850961Y9967618D01*
X30851027Y9967284D01*
X30849072Y9827288D01*
X30848996Y9826954D01*
X30848996Y9826943D01*
X30821919Y9707765D01*
X30772066Y9595792D01*
X30701414Y9495636D01*
X30612648Y9411106D01*
X30509165Y9345433D01*
X30438387Y9317981D01*
X30426116Y9311099D01*
X30416248Y9301070D01*
X30409565Y9288689D01*
X30406596Y9274936D01*
X30407575Y9260901D01*
X30412426Y9247694D01*
X30420765Y9236361D01*
X30437092Y9225272D01*
X30524703Y9188443D01*
X30626318Y9119903D01*
X30712686Y9032929D01*
X30780516Y8930838D01*
X30827220Y8817523D01*
X30850961Y8697628D01*
X30850961Y8697618D01*
X30851027Y8697284D01*
X30849072Y8557288D01*
X30848996Y8556954D01*
X30848996Y8556943D01*
X30821919Y8437765D01*
X30772066Y8325792D01*
X30701414Y8225636D01*
X30612648Y8141106D01*
X30509165Y8075433D01*
X30438387Y8047981D01*
X30426116Y8041099D01*
X30416248Y8031070D01*
X30409565Y8018689D01*
X30406596Y8004936D01*
X30407575Y7990901D01*
X30412426Y7977694D01*
X30420765Y7966361D01*
X30437092Y7955272D01*
X30524703Y7918443D01*
X30626318Y7849903D01*
X30712686Y7762929D01*
X30780516Y7660838D01*
X30827220Y7547523D01*
X30850961Y7427628D01*
X30850961Y7427618D01*
X30851027Y7427284D01*
X30849072Y7287288D01*
X30848996Y7286954D01*
X30848996Y7286943D01*
X30821919Y7167765D01*
X30772066Y7055792D01*
X30701414Y6955636D01*
X30612648Y6871106D01*
X30509165Y6805433D01*
X30438387Y6777981D01*
X30426116Y6771099D01*
X30416248Y6761070D01*
X30409565Y6748689D01*
X30406596Y6734936D01*
X30407575Y6720901D01*
X30412426Y6707694D01*
X30420765Y6696361D01*
X30437092Y6685272D01*
X30524703Y6648443D01*
X30626318Y6579903D01*
X30712686Y6492929D01*
X30780516Y6390838D01*
X30827220Y6277523D01*
X30850961Y6157628D01*
X30850961Y6157618D01*
X30851027Y6157284D01*
X30849072Y6017288D01*
X30848996Y6016954D01*
X30848996Y6016943D01*
X30821919Y5897765D01*
X30772066Y5785792D01*
X30701414Y5685636D01*
X30612648Y5601106D01*
X30521429Y5543216D01*
X30510728Y5534081D01*
X30502996Y5522326D01*
X30498845Y5508883D01*
X30498604Y5494815D01*
X30502291Y5481238D01*
X30509615Y5469225D01*
X30519996Y5459728D01*
X30532612Y5453499D01*
X30548220Y5451000D01*
X30851000Y5451000D01*
X30851000Y4201000D01*
X29601000Y4201000D01*
X29601000Y4502770D01*
X29599020Y4516700D01*
X29593239Y4529526D01*
X29584112Y4540234D01*
X29572364Y4547976D01*
X29558924Y4552138D01*
X29544857Y4552391D01*
X29531276Y4548715D01*
X29519257Y4541401D01*
X29509751Y4531028D01*
X29505323Y4523107D01*
X29502066Y4515792D01*
X29431414Y4415636D01*
X29342648Y4331106D01*
X29239164Y4265433D01*
X29124889Y4221109D01*
X29004183Y4199825D01*
X28881642Y4202391D01*
X28761925Y4228713D01*
X28649612Y4277781D01*
X28548963Y4347734D01*
X28463818Y4435905D01*
X28397424Y4538928D01*
X28352303Y4652891D01*
X28330176Y4773451D01*
X28331888Y4896007D01*
X28357370Y5015894D01*
X28405657Y5128554D01*
X28474904Y5229687D01*
X28562478Y5315446D01*
X28665038Y5382560D01*
X28743219Y5414147D01*
X28755393Y5421200D01*
X28765120Y5431366D01*
X28771629Y5443839D01*
X28774406Y5457632D01*
X28773794Y5464936D01*
X29136596Y5464936D01*
X29137575Y5450901D01*
X29142426Y5437694D01*
X29150765Y5426361D01*
X29167092Y5415272D01*
X29254703Y5378443D01*
X29356318Y5309903D01*
X29442686Y5222929D01*
X29509354Y5122586D01*
X29518711Y5112080D01*
X29530625Y5104596D01*
X29544153Y5100727D01*
X29558222Y5100780D01*
X29571720Y5104751D01*
X29583577Y5112325D01*
X29592854Y5122903D01*
X29598818Y5135646D01*
X29601000Y5150256D01*
X29601000Y5451000D01*
X29901801Y5451000D01*
X29915731Y5452980D01*
X29928557Y5458761D01*
X29939265Y5467888D01*
X29947007Y5479636D01*
X29951169Y5493076D01*
X29951422Y5507143D01*
X29947746Y5520724D01*
X29940432Y5532743D01*
X29930059Y5542249D01*
X29921818Y5546819D01*
X29919608Y5547784D01*
X29818963Y5617734D01*
X29733818Y5705905D01*
X29667424Y5808928D01*
X29638226Y5882674D01*
X29631257Y5894897D01*
X29621160Y5904695D01*
X29608732Y5911291D01*
X29594959Y5914164D01*
X29580931Y5913086D01*
X29567758Y5908143D01*
X29556484Y5899726D01*
X29546060Y5884605D01*
X29502066Y5785792D01*
X29431414Y5685636D01*
X29342648Y5601106D01*
X29239165Y5535433D01*
X29168387Y5507981D01*
X29156116Y5501099D01*
X29146248Y5491070D01*
X29139565Y5478689D01*
X29136596Y5464936D01*
X28773794Y5464936D01*
X28773231Y5471653D01*
X28768196Y5484790D01*
X28759700Y5496005D01*
X28744506Y5506324D01*
X28649612Y5547782D01*
X28548963Y5617734D01*
X28463818Y5705905D01*
X28397424Y5808928D01*
X28352303Y5922891D01*
X28330176Y6043451D01*
X28331888Y6166007D01*
X28357370Y6285894D01*
X28405657Y6398554D01*
X28474904Y6499687D01*
X28562478Y6585446D01*
X28665038Y6652560D01*
X28743219Y6684147D01*
X28755393Y6691200D01*
X28765120Y6701366D01*
X28771629Y6713839D01*
X28774406Y6727632D01*
X28773794Y6734936D01*
X29136596Y6734936D01*
X29137575Y6720901D01*
X29142426Y6707694D01*
X29150765Y6696361D01*
X29167092Y6685272D01*
X29254703Y6648443D01*
X29356318Y6579903D01*
X29442686Y6492929D01*
X29510515Y6390839D01*
X29544525Y6308325D01*
X29551663Y6296201D01*
X29561897Y6286546D01*
X29574415Y6280123D01*
X29588227Y6277443D01*
X29602239Y6278716D01*
X29615341Y6283843D01*
X29626496Y6292417D01*
X29636709Y6307682D01*
X29675657Y6398554D01*
X29744904Y6499687D01*
X29832478Y6585446D01*
X29935038Y6652560D01*
X30013219Y6684147D01*
X30025393Y6691200D01*
X30035120Y6701366D01*
X30041629Y6713839D01*
X30044406Y6727632D01*
X30043231Y6741653D01*
X30038196Y6754790D01*
X30029700Y6766005D01*
X30014506Y6776324D01*
X29919612Y6817782D01*
X29818963Y6887734D01*
X29733818Y6975905D01*
X29667424Y7078928D01*
X29638226Y7152674D01*
X29631257Y7164897D01*
X29621160Y7174695D01*
X29608732Y7181291D01*
X29594959Y7184164D01*
X29580931Y7183086D01*
X29567758Y7178143D01*
X29556484Y7169726D01*
X29546060Y7154605D01*
X29502066Y7055792D01*
X29431414Y6955636D01*
X29342648Y6871106D01*
X29239165Y6805433D01*
X29168387Y6777981D01*
X29156116Y6771099D01*
X29146248Y6761070D01*
X29139565Y6748689D01*
X29136596Y6734936D01*
X28773794Y6734936D01*
X28773231Y6741653D01*
X28768196Y6754790D01*
X28759700Y6766005D01*
X28744506Y6776324D01*
X28649612Y6817782D01*
X28548963Y6887734D01*
X28463818Y6975905D01*
X28397424Y7078928D01*
X28352303Y7192891D01*
X28330176Y7313451D01*
X28331888Y7436007D01*
X28357370Y7555894D01*
X28405657Y7668554D01*
X28474904Y7769687D01*
X28562478Y7855446D01*
X28665038Y7922560D01*
X28743219Y7954147D01*
X28755393Y7961200D01*
X28765120Y7971366D01*
X28771629Y7983839D01*
X28774406Y7997632D01*
X28773794Y8004936D01*
X29136596Y8004936D01*
X29137575Y7990901D01*
X29142426Y7977694D01*
X29150765Y7966361D01*
X29167092Y7955272D01*
X29254703Y7918443D01*
X29356318Y7849903D01*
X29442686Y7762929D01*
X29510515Y7660839D01*
X29544525Y7578325D01*
X29551663Y7566201D01*
X29561897Y7556546D01*
X29574415Y7550123D01*
X29588227Y7547443D01*
X29602239Y7548716D01*
X29615341Y7553843D01*
X29626496Y7562417D01*
X29636709Y7577682D01*
X29675657Y7668554D01*
X29744904Y7769687D01*
X29832478Y7855446D01*
X29935038Y7922560D01*
X30013219Y7954147D01*
X30025393Y7961200D01*
X30035120Y7971366D01*
X30041629Y7983839D01*
X30044406Y7997632D01*
X30043231Y8011653D01*
X30038196Y8024790D01*
X30029700Y8036005D01*
X30014506Y8046324D01*
X29919612Y8087782D01*
X29818963Y8157734D01*
X29733818Y8245905D01*
X29667424Y8348928D01*
X29638226Y8422674D01*
X29631257Y8434897D01*
X29621160Y8444695D01*
X29608732Y8451291D01*
X29594959Y8454164D01*
X29580931Y8453086D01*
X29567758Y8448143D01*
X29556484Y8439726D01*
X29546060Y8424605D01*
X29502066Y8325792D01*
X29431414Y8225636D01*
X29342648Y8141106D01*
X29239165Y8075433D01*
X29168387Y8047981D01*
X29156116Y8041099D01*
X29146248Y8031070D01*
X29139565Y8018689D01*
X29136596Y8004936D01*
X28773794Y8004936D01*
X28773231Y8011653D01*
X28768196Y8024790D01*
X28759700Y8036005D01*
X28744506Y8046324D01*
X28649612Y8087782D01*
X28548963Y8157734D01*
X28463818Y8245905D01*
X28397424Y8348928D01*
X28352303Y8462891D01*
X28330176Y8583451D01*
X28331888Y8706007D01*
X28357370Y8825894D01*
X28405657Y8938554D01*
X28474904Y9039687D01*
X28562478Y9125446D01*
X28665038Y9192560D01*
X28743219Y9224147D01*
X28755393Y9231200D01*
X28765120Y9241366D01*
X28771629Y9253839D01*
X28774406Y9267632D01*
X28773794Y9274936D01*
X29136596Y9274936D01*
X29137575Y9260901D01*
X29142426Y9247694D01*
X29150765Y9236361D01*
X29167092Y9225272D01*
X29254703Y9188443D01*
X29356318Y9119903D01*
X29442686Y9032929D01*
X29510515Y8930839D01*
X29544525Y8848325D01*
X29551663Y8836201D01*
X29561897Y8826546D01*
X29574415Y8820123D01*
X29588227Y8817443D01*
X29602239Y8818716D01*
X29615341Y8823843D01*
X29626496Y8832417D01*
X29636709Y8847682D01*
X29675657Y8938554D01*
X29744904Y9039687D01*
X29832478Y9125446D01*
X29935038Y9192560D01*
X30013219Y9224147D01*
X30025393Y9231200D01*
X30035120Y9241366D01*
X30041629Y9253839D01*
X30044406Y9267632D01*
X30043231Y9281653D01*
X30038196Y9294790D01*
X30029700Y9306005D01*
X30014506Y9316324D01*
X29919612Y9357782D01*
X29818963Y9427734D01*
X29733818Y9515905D01*
X29667424Y9618928D01*
X29638226Y9692674D01*
X29631257Y9704897D01*
X29621160Y9714695D01*
X29608732Y9721291D01*
X29594959Y9724164D01*
X29580931Y9723086D01*
X29567758Y9718143D01*
X29556484Y9709726D01*
X29546060Y9694605D01*
X29502066Y9595792D01*
X29431414Y9495636D01*
X29342648Y9411106D01*
X29239165Y9345433D01*
X29168387Y9317981D01*
X29156116Y9311099D01*
X29146248Y9301070D01*
X29139565Y9288689D01*
X29136596Y9274936D01*
X28773794Y9274936D01*
X28773231Y9281653D01*
X28768196Y9294790D01*
X28759700Y9306005D01*
X28744506Y9316324D01*
X28649612Y9357782D01*
X28548963Y9427734D01*
X28463818Y9515905D01*
X28397424Y9618928D01*
X28352303Y9732891D01*
X28330176Y9853451D01*
X28331888Y9976007D01*
X28357370Y10095894D01*
X28405657Y10208554D01*
X28474904Y10309687D01*
X28562478Y10395446D01*
X28665038Y10462560D01*
X28778682Y10508475D01*
X28899077Y10531442D01*
X29021646Y10530585D01*
X29141714Y10505939D01*
X29254703Y10458443D01*
X29356318Y10389903D01*
X29442686Y10302929D01*
X29510515Y10200839D01*
X29544525Y10118325D01*
X29551663Y10106201D01*
X29561897Y10096546D01*
X29574415Y10090123D01*
X29588227Y10087443D01*
X29602239Y10088716D01*
X29615341Y10093843D01*
X29626496Y10102417D01*
X29636709Y10117682D01*
X29675657Y10208554D01*
X29744904Y10309687D01*
X29832478Y10395446D01*
X29935038Y10462560D01*
X30048682Y10508475D01*
X30169077Y10531442D01*
X30291646Y10530585D01*
X30291646Y10530585D01*
G37*
G36*
X61025646Y10530585D02*
X61145714Y10505939D01*
X61258703Y10458443D01*
X61360318Y10389903D01*
X61446686Y10302929D01*
X61514516Y10200838D01*
X61561220Y10087523D01*
X61584961Y9967628D01*
X61584961Y9967618D01*
X61585027Y9967284D01*
X61583072Y9827288D01*
X61582996Y9826954D01*
X61582996Y9826943D01*
X61555919Y9707765D01*
X61506066Y9595792D01*
X61435414Y9495636D01*
X61346648Y9411106D01*
X61243165Y9345433D01*
X61172387Y9317981D01*
X61160116Y9311099D01*
X61150248Y9301070D01*
X61143565Y9288689D01*
X61140596Y9274936D01*
X61141575Y9260901D01*
X61146426Y9247694D01*
X61154765Y9236361D01*
X61171092Y9225272D01*
X61258703Y9188443D01*
X61360318Y9119903D01*
X61446686Y9032929D01*
X61514516Y8930838D01*
X61561220Y8817523D01*
X61584961Y8697628D01*
X61584961Y8697618D01*
X61585027Y8697284D01*
X61583072Y8557288D01*
X61582996Y8556954D01*
X61582996Y8556943D01*
X61555919Y8437765D01*
X61506066Y8325792D01*
X61435414Y8225636D01*
X61346648Y8141106D01*
X61243165Y8075433D01*
X61172387Y8047981D01*
X61160116Y8041099D01*
X61150248Y8031070D01*
X61143565Y8018689D01*
X61140596Y8004936D01*
X61141575Y7990901D01*
X61146426Y7977694D01*
X61154765Y7966361D01*
X61171092Y7955272D01*
X61258703Y7918443D01*
X61360318Y7849903D01*
X61446686Y7762929D01*
X61514516Y7660838D01*
X61561220Y7547523D01*
X61584961Y7427628D01*
X61584961Y7427618D01*
X61585027Y7427284D01*
X61583072Y7287288D01*
X61582996Y7286954D01*
X61582996Y7286943D01*
X61555919Y7167765D01*
X61506066Y7055792D01*
X61435414Y6955636D01*
X61346648Y6871106D01*
X61243165Y6805433D01*
X61172387Y6777981D01*
X61160116Y6771099D01*
X61150248Y6761070D01*
X61143565Y6748689D01*
X61140596Y6734936D01*
X61141575Y6720901D01*
X61146426Y6707694D01*
X61154765Y6696361D01*
X61171092Y6685272D01*
X61258703Y6648443D01*
X61360318Y6579903D01*
X61446686Y6492929D01*
X61514516Y6390838D01*
X61561220Y6277523D01*
X61584961Y6157628D01*
X61584961Y6157618D01*
X61585027Y6157284D01*
X61583072Y6017288D01*
X61582996Y6016954D01*
X61582996Y6016943D01*
X61555919Y5897765D01*
X61506066Y5785792D01*
X61435414Y5685636D01*
X61346648Y5601106D01*
X61255429Y5543216D01*
X61244728Y5534081D01*
X61236996Y5522326D01*
X61232845Y5508883D01*
X61232604Y5494815D01*
X61236291Y5481238D01*
X61243615Y5469225D01*
X61253996Y5459728D01*
X61266612Y5453499D01*
X61282220Y5451000D01*
X61585000Y5451000D01*
X61585000Y4201000D01*
X60335000Y4201000D01*
X60335000Y4502770D01*
X60333020Y4516700D01*
X60327239Y4529526D01*
X60318112Y4540234D01*
X60306364Y4547976D01*
X60292924Y4552138D01*
X60278857Y4552391D01*
X60265276Y4548715D01*
X60253257Y4541401D01*
X60243751Y4531028D01*
X60239323Y4523107D01*
X60236066Y4515792D01*
X60165414Y4415636D01*
X60076648Y4331106D01*
X59973164Y4265433D01*
X59858889Y4221109D01*
X59738183Y4199825D01*
X59615642Y4202391D01*
X59495925Y4228713D01*
X59383612Y4277781D01*
X59282963Y4347734D01*
X59197818Y4435905D01*
X59131424Y4538928D01*
X59086303Y4652891D01*
X59064176Y4773451D01*
X59065888Y4896007D01*
X59091370Y5015894D01*
X59139657Y5128554D01*
X59208904Y5229687D01*
X59296478Y5315446D01*
X59399038Y5382560D01*
X59477219Y5414147D01*
X59489393Y5421200D01*
X59499120Y5431366D01*
X59505629Y5443839D01*
X59508406Y5457632D01*
X59507794Y5464936D01*
X59870596Y5464936D01*
X59871575Y5450901D01*
X59876426Y5437694D01*
X59884765Y5426361D01*
X59901092Y5415272D01*
X59988703Y5378443D01*
X60090318Y5309903D01*
X60176686Y5222929D01*
X60243354Y5122586D01*
X60252711Y5112080D01*
X60264625Y5104596D01*
X60278153Y5100727D01*
X60292222Y5100780D01*
X60305720Y5104751D01*
X60317577Y5112325D01*
X60326854Y5122903D01*
X60332818Y5135646D01*
X60335000Y5150256D01*
X60335000Y5451000D01*
X60635801Y5451000D01*
X60649731Y5452980D01*
X60662557Y5458761D01*
X60673265Y5467888D01*
X60681007Y5479636D01*
X60685169Y5493076D01*
X60685422Y5507143D01*
X60681746Y5520724D01*
X60674432Y5532743D01*
X60664059Y5542249D01*
X60655818Y5546819D01*
X60653608Y5547784D01*
X60552963Y5617734D01*
X60467818Y5705905D01*
X60401424Y5808928D01*
X60372226Y5882674D01*
X60365257Y5894897D01*
X60355160Y5904695D01*
X60342732Y5911291D01*
X60328959Y5914164D01*
X60314931Y5913086D01*
X60301758Y5908143D01*
X60290484Y5899726D01*
X60280060Y5884605D01*
X60236066Y5785792D01*
X60165414Y5685636D01*
X60076648Y5601106D01*
X59973165Y5535433D01*
X59902387Y5507981D01*
X59890116Y5501099D01*
X59880248Y5491070D01*
X59873565Y5478689D01*
X59870596Y5464936D01*
X59507794Y5464936D01*
X59507231Y5471653D01*
X59502196Y5484790D01*
X59493700Y5496005D01*
X59478506Y5506324D01*
X59383612Y5547782D01*
X59282963Y5617734D01*
X59197818Y5705905D01*
X59131424Y5808928D01*
X59086303Y5922891D01*
X59064176Y6043451D01*
X59065888Y6166007D01*
X59091370Y6285894D01*
X59139657Y6398554D01*
X59208904Y6499687D01*
X59296478Y6585446D01*
X59399038Y6652560D01*
X59477219Y6684147D01*
X59489393Y6691200D01*
X59499120Y6701366D01*
X59505629Y6713839D01*
X59508406Y6727632D01*
X59507794Y6734936D01*
X59870596Y6734936D01*
X59871575Y6720901D01*
X59876426Y6707694D01*
X59884765Y6696361D01*
X59901092Y6685272D01*
X59988703Y6648443D01*
X60090318Y6579903D01*
X60176686Y6492929D01*
X60244515Y6390839D01*
X60278525Y6308325D01*
X60285663Y6296201D01*
X60295897Y6286546D01*
X60308415Y6280123D01*
X60322227Y6277443D01*
X60336239Y6278716D01*
X60349341Y6283843D01*
X60360496Y6292417D01*
X60370709Y6307682D01*
X60409657Y6398554D01*
X60478904Y6499687D01*
X60566478Y6585446D01*
X60669038Y6652560D01*
X60747219Y6684147D01*
X60759393Y6691200D01*
X60769120Y6701366D01*
X60775629Y6713839D01*
X60778406Y6727632D01*
X60777231Y6741653D01*
X60772196Y6754790D01*
X60763700Y6766005D01*
X60748506Y6776324D01*
X60653612Y6817782D01*
X60552963Y6887734D01*
X60467818Y6975905D01*
X60401424Y7078928D01*
X60372226Y7152674D01*
X60365257Y7164897D01*
X60355160Y7174695D01*
X60342732Y7181291D01*
X60328959Y7184164D01*
X60314931Y7183086D01*
X60301758Y7178143D01*
X60290484Y7169726D01*
X60280060Y7154605D01*
X60236066Y7055792D01*
X60165414Y6955636D01*
X60076648Y6871106D01*
X59973165Y6805433D01*
X59902387Y6777981D01*
X59890116Y6771099D01*
X59880248Y6761070D01*
X59873565Y6748689D01*
X59870596Y6734936D01*
X59507794Y6734936D01*
X59507231Y6741653D01*
X59502196Y6754790D01*
X59493700Y6766005D01*
X59478506Y6776324D01*
X59383612Y6817782D01*
X59282963Y6887734D01*
X59197818Y6975905D01*
X59131424Y7078928D01*
X59086303Y7192891D01*
X59064176Y7313451D01*
X59065888Y7436007D01*
X59091370Y7555894D01*
X59139657Y7668554D01*
X59208904Y7769687D01*
X59296478Y7855446D01*
X59399038Y7922560D01*
X59477219Y7954147D01*
X59489393Y7961200D01*
X59499120Y7971366D01*
X59505629Y7983839D01*
X59508406Y7997632D01*
X59507794Y8004936D01*
X59870596Y8004936D01*
X59871575Y7990901D01*
X59876426Y7977694D01*
X59884765Y7966361D01*
X59901092Y7955272D01*
X59988703Y7918443D01*
X60090318Y7849903D01*
X60176686Y7762929D01*
X60244515Y7660839D01*
X60278525Y7578325D01*
X60285663Y7566201D01*
X60295897Y7556546D01*
X60308415Y7550123D01*
X60322227Y7547443D01*
X60336239Y7548716D01*
X60349341Y7553843D01*
X60360496Y7562417D01*
X60370709Y7577682D01*
X60409657Y7668554D01*
X60478904Y7769687D01*
X60566478Y7855446D01*
X60669038Y7922560D01*
X60747219Y7954147D01*
X60759393Y7961200D01*
X60769120Y7971366D01*
X60775629Y7983839D01*
X60778406Y7997632D01*
X60777231Y8011653D01*
X60772196Y8024790D01*
X60763700Y8036005D01*
X60748506Y8046324D01*
X60653612Y8087782D01*
X60552963Y8157734D01*
X60467818Y8245905D01*
X60401424Y8348928D01*
X60372226Y8422674D01*
X60365257Y8434897D01*
X60355160Y8444695D01*
X60342732Y8451291D01*
X60328959Y8454164D01*
X60314931Y8453086D01*
X60301758Y8448143D01*
X60290484Y8439726D01*
X60280060Y8424605D01*
X60236066Y8325792D01*
X60165414Y8225636D01*
X60076648Y8141106D01*
X59973165Y8075433D01*
X59902387Y8047981D01*
X59890116Y8041099D01*
X59880248Y8031070D01*
X59873565Y8018689D01*
X59870596Y8004936D01*
X59507794Y8004936D01*
X59507231Y8011653D01*
X59502196Y8024790D01*
X59493700Y8036005D01*
X59478506Y8046324D01*
X59383612Y8087782D01*
X59282963Y8157734D01*
X59197818Y8245905D01*
X59131424Y8348928D01*
X59086303Y8462891D01*
X59064176Y8583451D01*
X59065888Y8706007D01*
X59091370Y8825894D01*
X59139657Y8938554D01*
X59208904Y9039687D01*
X59296478Y9125446D01*
X59399038Y9192560D01*
X59477219Y9224147D01*
X59489393Y9231200D01*
X59499120Y9241366D01*
X59505629Y9253839D01*
X59508406Y9267632D01*
X59507794Y9274936D01*
X59870596Y9274936D01*
X59871575Y9260901D01*
X59876426Y9247694D01*
X59884765Y9236361D01*
X59901092Y9225272D01*
X59988703Y9188443D01*
X60090318Y9119903D01*
X60176686Y9032929D01*
X60244515Y8930839D01*
X60278525Y8848325D01*
X60285663Y8836201D01*
X60295897Y8826546D01*
X60308415Y8820123D01*
X60322227Y8817443D01*
X60336239Y8818716D01*
X60349341Y8823843D01*
X60360496Y8832417D01*
X60370709Y8847682D01*
X60409657Y8938554D01*
X60478904Y9039687D01*
X60566478Y9125446D01*
X60669038Y9192560D01*
X60747219Y9224147D01*
X60759393Y9231200D01*
X60769120Y9241366D01*
X60775629Y9253839D01*
X60778406Y9267632D01*
X60777231Y9281653D01*
X60772196Y9294790D01*
X60763700Y9306005D01*
X60748506Y9316324D01*
X60653612Y9357782D01*
X60552963Y9427734D01*
X60467818Y9515905D01*
X60401424Y9618928D01*
X60372226Y9692674D01*
X60365257Y9704897D01*
X60355160Y9714695D01*
X60342732Y9721291D01*
X60328959Y9724164D01*
X60314931Y9723086D01*
X60301758Y9718143D01*
X60290484Y9709726D01*
X60280060Y9694605D01*
X60236066Y9595792D01*
X60165414Y9495636D01*
X60076648Y9411106D01*
X59973165Y9345433D01*
X59902387Y9317981D01*
X59890116Y9311099D01*
X59880248Y9301070D01*
X59873565Y9288689D01*
X59870596Y9274936D01*
X59507794Y9274936D01*
X59507231Y9281653D01*
X59502196Y9294790D01*
X59493700Y9306005D01*
X59478506Y9316324D01*
X59383612Y9357782D01*
X59282963Y9427734D01*
X59197818Y9515905D01*
X59131424Y9618928D01*
X59086303Y9732891D01*
X59064176Y9853451D01*
X59065888Y9976007D01*
X59091370Y10095894D01*
X59139657Y10208554D01*
X59208904Y10309687D01*
X59296478Y10395446D01*
X59399038Y10462560D01*
X59512682Y10508475D01*
X59633077Y10531442D01*
X59755646Y10530585D01*
X59875714Y10505939D01*
X59988703Y10458443D01*
X60090318Y10389903D01*
X60176686Y10302929D01*
X60244515Y10200839D01*
X60278525Y10118325D01*
X60285663Y10106201D01*
X60295897Y10096546D01*
X60308415Y10090123D01*
X60322227Y10087443D01*
X60336239Y10088716D01*
X60349341Y10093843D01*
X60360496Y10102417D01*
X60370709Y10117682D01*
X60409657Y10208554D01*
X60478904Y10309687D01*
X60566478Y10395446D01*
X60669038Y10462560D01*
X60782682Y10508475D01*
X60903077Y10531442D01*
X61025646Y10530585D01*
X61025646Y10530585D01*
G37*
G36*
X67256551Y7446003D02*
X67544710Y7386852D01*
X67815888Y7272860D01*
X68059766Y7108362D01*
X68267042Y6899634D01*
X68429834Y6654613D01*
X68541928Y6382650D01*
X68598999Y6094426D01*
X68598999Y6094412D01*
X68599064Y6094083D01*
X68594373Y5758090D01*
X68594297Y5757756D01*
X68594297Y5757745D01*
X68529203Y5471236D01*
X68409554Y5202500D01*
X68239992Y4962128D01*
X68026959Y4759260D01*
X67778591Y4601642D01*
X67504332Y4495262D01*
X67214638Y4444182D01*
X66920537Y4450342D01*
X66633229Y4513511D01*
X66363672Y4631278D01*
X66122112Y4799166D01*
X65917768Y5010770D01*
X65758419Y5258032D01*
X65650129Y5531541D01*
X65597025Y5820879D01*
X65601133Y6115014D01*
X65662293Y6402748D01*
X65778178Y6673128D01*
X65944372Y6915848D01*
X66154547Y7121667D01*
X66400692Y7282740D01*
X66673438Y7392937D01*
X66962390Y7448057D01*
X67256551Y7446003D01*
X67256551Y7446003D01*
G37*
G36*
X4412531Y7108403D02*
X4585427Y7072912D01*
X4748132Y7004517D01*
X4894458Y6905820D01*
X5018828Y6780578D01*
X5116502Y6633567D01*
X5183757Y6470392D01*
X5217973Y6297593D01*
X5217973Y6297584D01*
X5218039Y6297250D01*
X5215224Y6095654D01*
X5215148Y6095320D01*
X5215148Y6095309D01*
X5176123Y5923541D01*
X5104334Y5762301D01*
X5002592Y5618073D01*
X4874778Y5496356D01*
X4725755Y5401784D01*
X4561199Y5337957D01*
X4387383Y5307308D01*
X4210923Y5311004D01*
X4038536Y5348906D01*
X3876800Y5419567D01*
X3731869Y5520297D01*
X3609260Y5647262D01*
X3513651Y5795618D01*
X3448676Y5959723D01*
X3416814Y6133328D01*
X3419279Y6309809D01*
X3455974Y6482448D01*
X3525506Y6644678D01*
X3625222Y6790309D01*
X3751328Y6913802D01*
X3899015Y7010445D01*
X4062663Y7076563D01*
X4236032Y7109635D01*
X4412531Y7108403D01*
X4412531Y7108403D01*
G37*
G36*
X64478339Y9867005D02*
X64641739Y9833463D01*
X64795508Y9768825D01*
X64933797Y9675548D01*
X65051336Y9557185D01*
X65143645Y9418250D01*
X65207208Y9264034D01*
X65239540Y9100746D01*
X65239540Y9100742D01*
X65239607Y9100403D01*
X65236947Y8909879D01*
X65228088Y8870888D01*
X65199992Y8747216D01*
X65132146Y8594835D01*
X65035995Y8458531D01*
X64915195Y8343495D01*
X64774360Y8254119D01*
X64618842Y8193796D01*
X64454573Y8164832D01*
X64287804Y8168325D01*
X64124885Y8204145D01*
X63972036Y8270923D01*
X63835058Y8366125D01*
X63719188Y8486113D01*
X63628827Y8626324D01*
X63567422Y8781414D01*
X63537310Y8945485D01*
X63539640Y9112273D01*
X63574319Y9275429D01*
X63640032Y9428749D01*
X63734272Y9566382D01*
X63853451Y9683092D01*
X63993027Y9774428D01*
X64147687Y9836914D01*
X64311534Y9868170D01*
X64478339Y9867005D01*
X64478339Y9867005D01*
G37*
G36*
X4412531Y11708403D02*
X4585427Y11672912D01*
X4748132Y11604517D01*
X4894458Y11505820D01*
X5018828Y11380578D01*
X5116502Y11233567D01*
X5183757Y11070392D01*
X5217973Y10897593D01*
X5217973Y10897584D01*
X5218039Y10897250D01*
X5215224Y10695654D01*
X5215148Y10695320D01*
X5215148Y10695309D01*
X5176123Y10523541D01*
X5104334Y10362301D01*
X5002592Y10218073D01*
X4874778Y10096356D01*
X4725755Y10001784D01*
X4561199Y9937957D01*
X4387383Y9907308D01*
X4210923Y9911004D01*
X4038536Y9948906D01*
X3876800Y10019567D01*
X3731869Y10120297D01*
X3609260Y10247262D01*
X3513651Y10395618D01*
X3448676Y10559723D01*
X3416814Y10733328D01*
X3419279Y10909809D01*
X3455974Y11082448D01*
X3525506Y11244678D01*
X3625222Y11390309D01*
X3751328Y11513802D01*
X3899015Y11610445D01*
X4062663Y11676563D01*
X4236032Y11709635D01*
X4412531Y11708403D01*
X4412531Y11708403D01*
G37*
G36*
X64478339Y12367005D02*
X64641739Y12333463D01*
X64795508Y12268825D01*
X64933797Y12175548D01*
X65051336Y12057185D01*
X65143645Y11918250D01*
X65207208Y11764034D01*
X65239540Y11600746D01*
X65239540Y11600742D01*
X65239607Y11600403D01*
X65236947Y11409879D01*
X65230290Y11380579D01*
X65199992Y11247216D01*
X65132146Y11094835D01*
X65035995Y10958531D01*
X64915195Y10843495D01*
X64774360Y10754119D01*
X64618842Y10693796D01*
X64454573Y10664832D01*
X64287804Y10668325D01*
X64124885Y10704145D01*
X63972036Y10770923D01*
X63835058Y10866125D01*
X63719188Y10986113D01*
X63628827Y11126324D01*
X63567422Y11281414D01*
X63537310Y11445485D01*
X63539640Y11612273D01*
X63574319Y11775429D01*
X63640032Y11928749D01*
X63734272Y12066382D01*
X63853451Y12183092D01*
X63993027Y12274428D01*
X64147687Y12336914D01*
X64311534Y12368170D01*
X64478339Y12367005D01*
X64478339Y12367005D01*
G37*
G36*
X64478339Y14367005D02*
X64641739Y14333463D01*
X64795508Y14268825D01*
X64933797Y14175548D01*
X65051336Y14057185D01*
X65143645Y13918250D01*
X65207208Y13764034D01*
X65239540Y13600746D01*
X65239540Y13600742D01*
X65239607Y13600403D01*
X65236947Y13409879D01*
X65236747Y13409000D01*
X65199992Y13247216D01*
X65132146Y13094835D01*
X65035995Y12958531D01*
X64915195Y12843495D01*
X64774360Y12754119D01*
X64618842Y12693796D01*
X64454573Y12664832D01*
X64287804Y12668325D01*
X64124885Y12704145D01*
X63972036Y12770923D01*
X63835058Y12866125D01*
X63719188Y12986113D01*
X63628827Y13126324D01*
X63567422Y13281414D01*
X63537310Y13445485D01*
X63539640Y13612273D01*
X63574319Y13775429D01*
X63640032Y13928749D01*
X63734272Y14066382D01*
X63853451Y14183092D01*
X63993027Y14274428D01*
X64147687Y14336914D01*
X64311534Y14368170D01*
X64478339Y14367005D01*
X64478339Y14367005D01*
G37*
G36*
X5131668Y15008959D02*
X5136912Y15008922D01*
X5292071Y14991518D01*
X5440896Y14944308D01*
X5577716Y14869091D01*
X5697320Y14768731D01*
X5795153Y14647051D01*
X5867489Y14508685D01*
X5911572Y14358905D01*
X5911576Y14358866D01*
X5911578Y14358858D01*
X5925725Y14203417D01*
X5909410Y14048186D01*
X5909406Y14048172D01*
X5909402Y14048138D01*
X5863233Y13898988D01*
X5788972Y13761646D01*
X5689449Y13641343D01*
X5568455Y13542663D01*
X5430598Y13469363D01*
X5281129Y13424236D01*
X5125742Y13409000D01*
X3510223Y13409000D01*
X3504332Y13409041D01*
X3499088Y13409078D01*
X3343929Y13426482D01*
X3195104Y13473692D01*
X3058284Y13548909D01*
X2938680Y13649269D01*
X2840847Y13770949D01*
X2768511Y13909315D01*
X2724428Y14059095D01*
X2724424Y14059134D01*
X2724422Y14059142D01*
X2710275Y14214583D01*
X2726590Y14369814D01*
X2726594Y14369828D01*
X2726598Y14369862D01*
X2772767Y14519012D01*
X2847028Y14656354D01*
X2946551Y14776657D01*
X3067545Y14875337D01*
X3205402Y14948637D01*
X3354871Y14993764D01*
X3510258Y15009000D01*
X5125777Y15009000D01*
X5131668Y15008959D01*
X5131668Y15008959D01*
G37*
G36*
X64478339Y16867005D02*
X64641739Y16833463D01*
X64795508Y16768825D01*
X64933797Y16675548D01*
X65051336Y16557185D01*
X65143645Y16418250D01*
X65207208Y16264034D01*
X65239540Y16100746D01*
X65239540Y16100742D01*
X65239607Y16100403D01*
X65236947Y15909879D01*
X65228088Y15870888D01*
X65199992Y15747216D01*
X65132146Y15594835D01*
X65035995Y15458531D01*
X64915195Y15343495D01*
X64774360Y15254119D01*
X64618842Y15193796D01*
X64454573Y15164832D01*
X64287804Y15168325D01*
X64124885Y15204145D01*
X63972036Y15270923D01*
X63835058Y15366125D01*
X63719188Y15486113D01*
X63628827Y15626324D01*
X63567422Y15781414D01*
X63537310Y15945485D01*
X63539640Y16112273D01*
X63574319Y16275429D01*
X63640032Y16428749D01*
X63734272Y16566382D01*
X63853451Y16683092D01*
X63993027Y16774428D01*
X64147687Y16836914D01*
X64311534Y16868170D01*
X64478339Y16867005D01*
X64478339Y16867005D01*
G37*
G36*
X2068975Y17547857D02*
X2071151Y17547842D01*
X2187521Y17534789D01*
X2299139Y17499381D01*
X2401754Y17442968D01*
X2491458Y17367698D01*
X2564833Y17276438D01*
X2619084Y17172664D01*
X2652146Y17060329D01*
X2652149Y17060299D01*
X2652154Y17060281D01*
X2662762Y16943713D01*
X2650527Y16827303D01*
X2650523Y16827290D01*
X2650519Y16827253D01*
X2615892Y16715391D01*
X2560197Y16612384D01*
X2485555Y16522158D01*
X2394809Y16448147D01*
X2291416Y16393172D01*
X2179315Y16359327D01*
X2062774Y16347900D01*
X1504267Y16347900D01*
X1498105Y16347943D01*
X1495929Y16347958D01*
X1379559Y16361011D01*
X1267941Y16396419D01*
X1165326Y16452832D01*
X1075622Y16528102D01*
X1002247Y16619362D01*
X947996Y16723136D01*
X914934Y16835471D01*
X914931Y16835501D01*
X914926Y16835519D01*
X904318Y16952087D01*
X916553Y17068497D01*
X916557Y17068510D01*
X916561Y17068547D01*
X951188Y17180409D01*
X1006883Y17283416D01*
X1081525Y17373642D01*
X1172271Y17447653D01*
X1275664Y17502628D01*
X1387765Y17536473D01*
X1504306Y17547900D01*
X2062813Y17547900D01*
X2068975Y17547857D01*
X2068975Y17547857D01*
G37*
G36*
X4599110Y18664672D02*
X4599123Y18664668D01*
X4599160Y18664664D01*
X4706361Y18631479D01*
X4805076Y18578105D01*
X4891543Y18506573D01*
X4962470Y18419608D01*
X5015154Y18320523D01*
X5047589Y18213093D01*
X5058540Y18101408D01*
X5058540Y17794392D01*
X5058484Y17786364D01*
X5045975Y17674843D01*
X5012043Y17567875D01*
X4957980Y17469536D01*
X4885846Y17383570D01*
X4798389Y17313253D01*
X4698939Y17261261D01*
X4591284Y17229577D01*
X4591255Y17229574D01*
X4591237Y17229569D01*
X4479528Y17219403D01*
X4367970Y17231128D01*
X4367957Y17231132D01*
X4367920Y17231136D01*
X4260719Y17264321D01*
X4162004Y17317695D01*
X4075537Y17389227D01*
X4004610Y17476192D01*
X3951926Y17575277D01*
X3919491Y17682707D01*
X3908540Y17794392D01*
X3908540Y18101408D01*
X3908596Y18109436D01*
X3921105Y18220957D01*
X3955037Y18327925D01*
X4009100Y18426264D01*
X4081234Y18512230D01*
X4168691Y18582547D01*
X4268141Y18634539D01*
X4375796Y18666223D01*
X4375825Y18666226D01*
X4375843Y18666231D01*
X4487552Y18676397D01*
X4599110Y18664672D01*
X4599110Y18664672D01*
G37*
G36*
X32272279Y19173436D02*
X32435570Y19139917D01*
X32589236Y19075322D01*
X32727433Y18982108D01*
X32844893Y18863824D01*
X32937140Y18724982D01*
X33000661Y18570868D01*
X33032971Y18407691D01*
X33032971Y18407681D01*
X33033037Y18407347D01*
X33030378Y18216951D01*
X33030302Y18216617D01*
X33030302Y18216605D01*
X32993451Y18054401D01*
X32925649Y17902117D01*
X32829562Y17765905D01*
X32708843Y17650946D01*
X32568102Y17561630D01*
X32412688Y17501347D01*
X32248529Y17472402D01*
X32081872Y17475893D01*
X31919062Y17511689D01*
X31766315Y17578423D01*
X31629429Y17673561D01*
X31513634Y17793470D01*
X31423337Y17933583D01*
X31361972Y18088572D01*
X31331880Y18252533D01*
X31334208Y18419209D01*
X31368864Y18582256D01*
X31434534Y18735473D01*
X31528710Y18873014D01*
X31647810Y18989646D01*
X31787292Y19080921D01*
X31941848Y19143365D01*
X32105586Y19174600D01*
X32272279Y19173436D01*
X32272279Y19173436D01*
G37*
G36*
X38772279Y19173436D02*
X38935570Y19139917D01*
X39089236Y19075322D01*
X39227433Y18982108D01*
X39344893Y18863824D01*
X39437140Y18724982D01*
X39500661Y18570868D01*
X39532971Y18407691D01*
X39532971Y18407681D01*
X39533037Y18407347D01*
X39530378Y18216951D01*
X39530302Y18216617D01*
X39530302Y18216605D01*
X39493451Y18054401D01*
X39425649Y17902117D01*
X39329562Y17765905D01*
X39208843Y17650946D01*
X39068102Y17561630D01*
X38912688Y17501347D01*
X38748529Y17472402D01*
X38581872Y17475893D01*
X38419062Y17511689D01*
X38266315Y17578423D01*
X38129429Y17673561D01*
X38013634Y17793470D01*
X37923337Y17933583D01*
X37861972Y18088572D01*
X37831880Y18252533D01*
X37834208Y18419209D01*
X37868864Y18582256D01*
X37934534Y18735473D01*
X38028710Y18873014D01*
X38147810Y18989646D01*
X38287292Y19080921D01*
X38441848Y19143365D01*
X38605586Y19174600D01*
X38772279Y19173436D01*
X38772279Y19173436D01*
G37*
G36*
X67256551Y20586003D02*
X67544710Y20526852D01*
X67815888Y20412860D01*
X68059766Y20248362D01*
X68267042Y20039634D01*
X68429834Y19794613D01*
X68541928Y19522650D01*
X68598999Y19234426D01*
X68598999Y19234412D01*
X68599064Y19234083D01*
X68594373Y18898090D01*
X68594297Y18897756D01*
X68594297Y18897745D01*
X68529203Y18611236D01*
X68409554Y18342500D01*
X68239992Y18102128D01*
X68026959Y17899260D01*
X67778591Y17741642D01*
X67504332Y17635262D01*
X67214638Y17584182D01*
X66920537Y17590342D01*
X66633229Y17653511D01*
X66363672Y17771278D01*
X66122112Y17939166D01*
X65917768Y18150770D01*
X65758419Y18398032D01*
X65650129Y18671541D01*
X65597025Y18960879D01*
X65601133Y19255014D01*
X65662293Y19542748D01*
X65778178Y19813128D01*
X65944372Y20055848D01*
X66154547Y20261667D01*
X66400692Y20422740D01*
X66673438Y20532937D01*
X66962390Y20588057D01*
X67256551Y20586003D01*
X67256551Y20586003D01*
G37*
G36*
X32272279Y23673436D02*
X32435570Y23639917D01*
X32589236Y23575322D01*
X32727433Y23482108D01*
X32844893Y23363824D01*
X32937140Y23224982D01*
X33000661Y23070868D01*
X33032971Y22907691D01*
X33032971Y22907681D01*
X33033037Y22907347D01*
X33030378Y22716951D01*
X33030302Y22716617D01*
X33030302Y22716605D01*
X32993451Y22554401D01*
X32925649Y22402117D01*
X32829562Y22265905D01*
X32708843Y22150946D01*
X32568102Y22061630D01*
X32412688Y22001347D01*
X32248529Y21972402D01*
X32081872Y21975893D01*
X31919062Y22011689D01*
X31766315Y22078423D01*
X31629429Y22173561D01*
X31513634Y22293470D01*
X31423337Y22433583D01*
X31361972Y22588572D01*
X31331880Y22752533D01*
X31334208Y22919209D01*
X31368864Y23082256D01*
X31434534Y23235473D01*
X31528710Y23373014D01*
X31647810Y23489646D01*
X31787292Y23580921D01*
X31941848Y23643365D01*
X32105586Y23674600D01*
X32272279Y23673436D01*
X32272279Y23673436D01*
G37*
G36*
X38772279Y23673436D02*
X38935570Y23639917D01*
X39089236Y23575322D01*
X39227433Y23482108D01*
X39344893Y23363824D01*
X39437140Y23224982D01*
X39500661Y23070868D01*
X39532971Y22907691D01*
X39532971Y22907681D01*
X39533037Y22907347D01*
X39530378Y22716951D01*
X39530302Y22716617D01*
X39530302Y22716605D01*
X39493451Y22554401D01*
X39425649Y22402117D01*
X39329562Y22265905D01*
X39208843Y22150946D01*
X39068102Y22061630D01*
X38912688Y22001347D01*
X38748529Y21972402D01*
X38581872Y21975893D01*
X38419062Y22011689D01*
X38266315Y22078423D01*
X38129429Y22173561D01*
X38013634Y22293470D01*
X37923337Y22433583D01*
X37861972Y22588572D01*
X37831880Y22752533D01*
X37834208Y22919209D01*
X37868864Y23082256D01*
X37934534Y23235473D01*
X38028710Y23373014D01*
X38147810Y23489646D01*
X38287292Y23580921D01*
X38441848Y23643365D01*
X38605586Y23674600D01*
X38772279Y23673436D01*
X38772279Y23673436D01*
G37*
G36*
X4599110Y23664672D02*
X4599123Y23664668D01*
X4599160Y23664664D01*
X4706361Y23631479D01*
X4805076Y23578105D01*
X4891543Y23506573D01*
X4962470Y23419608D01*
X5015154Y23320523D01*
X5047589Y23213093D01*
X5058540Y23101408D01*
X5058540Y22794392D01*
X5058484Y22786364D01*
X5045975Y22674843D01*
X5012043Y22567875D01*
X4957980Y22469536D01*
X4885846Y22383570D01*
X4798389Y22313253D01*
X4698939Y22261261D01*
X4591284Y22229577D01*
X4591255Y22229574D01*
X4591237Y22229569D01*
X4479528Y22219403D01*
X4367970Y22231128D01*
X4367957Y22231132D01*
X4367920Y22231136D01*
X4260719Y22264321D01*
X4162004Y22317695D01*
X4075537Y22389227D01*
X4004610Y22476192D01*
X3951926Y22575277D01*
X3919491Y22682707D01*
X3908540Y22794392D01*
X3908540Y23101408D01*
X3908596Y23109436D01*
X3921105Y23220957D01*
X3955037Y23327925D01*
X4009100Y23426264D01*
X4081234Y23512230D01*
X4168691Y23582547D01*
X4268141Y23634539D01*
X4375796Y23666223D01*
X4375825Y23666226D01*
X4375843Y23666231D01*
X4487552Y23676397D01*
X4599110Y23664672D01*
X4599110Y23664672D01*
G37*
G36*
X2068975Y24547857D02*
X2071151Y24547842D01*
X2187521Y24534789D01*
X2299139Y24499381D01*
X2401754Y24442968D01*
X2491458Y24367698D01*
X2564833Y24276438D01*
X2619084Y24172664D01*
X2652146Y24060329D01*
X2652149Y24060299D01*
X2652154Y24060281D01*
X2662762Y23943713D01*
X2650527Y23827303D01*
X2650523Y23827290D01*
X2650519Y23827253D01*
X2615892Y23715391D01*
X2560197Y23612384D01*
X2485555Y23522158D01*
X2394809Y23448147D01*
X2291416Y23393172D01*
X2179315Y23359327D01*
X2062774Y23347900D01*
X1504267Y23347900D01*
X1498105Y23347943D01*
X1495929Y23347958D01*
X1379559Y23361011D01*
X1267941Y23396419D01*
X1165326Y23452832D01*
X1075622Y23528102D01*
X1002247Y23619362D01*
X947996Y23723136D01*
X914934Y23835471D01*
X914931Y23835501D01*
X914926Y23835519D01*
X904318Y23952087D01*
X916553Y24068497D01*
X916557Y24068510D01*
X916561Y24068547D01*
X951188Y24180409D01*
X1006883Y24283416D01*
X1081525Y24373642D01*
X1172271Y24447653D01*
X1275664Y24502628D01*
X1387765Y24536473D01*
X1504306Y24547900D01*
X2062813Y24547900D01*
X2068975Y24547857D01*
X2068975Y24547857D01*
G37*
M02*
