G04 #@! TF.FileFunction,Copper,L1,Top,Signal*
%FSLAX46Y46*%
G04 Gerber Fmt 4.6, Leading zero omitted, Abs format (unit mm)*
G04 Created by KiCad (PCBNEW (2015-10-16 BZR 6271)-product) date Sun 01 Nov 2015 17:02:17 NZDT*
%MOMM*%
G01*
G04 APERTURE LIST*
%ADD10C,0.100000*%
%ADD11R,0.600000X1.200000*%
%ADD12R,0.800000X0.750000*%
%ADD13R,0.750000X0.800000*%
%ADD14R,1.250000X1.000000*%
%ADD15R,1.000000X1.250000*%
%ADD16R,0.800100X0.800100*%
%ADD17R,0.797560X0.797560*%
%ADD18R,1.200000X0.600000*%
%ADD19R,0.300000X0.600000*%
%ADD20R,2.500000X1.100000*%
%ADD21O,3.000000X1.400000*%
%ADD22C,1.600000*%
%ADD23C,1.501140*%
%ADD24C,2.800000*%
%ADD25R,0.500000X0.900000*%
%ADD26R,0.900000X0.500000*%
%ADD27C,1.500000*%
%ADD28R,0.749300X0.398780*%
%ADD29R,3.657600X2.032000*%
%ADD30R,1.016000X2.032000*%
%ADD31R,5.600700X2.100580*%
%ADD32R,0.250000X1.000000*%
%ADD33R,1.000000X0.250000*%
%ADD34R,1.050000X1.050000*%
%ADD35C,1.050000*%
%ADD36R,1.350000X0.400000*%
%ADD37O,0.950000X1.250000*%
%ADD38O,1.550000X1.000000*%
%ADD39C,0.600000*%
%ADD40C,0.250000*%
%ADD41C,0.500000*%
%ADD42C,1.000000*%
%ADD43C,0.400000*%
%ADD44C,2.000000*%
%ADD45C,0.254000*%
G04 APERTURE END LIST*
D10*
D11*
X60825000Y14986000D03*
X59825000Y14986000D03*
X30218000Y14986000D03*
X29218000Y14986000D03*
D12*
X28460000Y19939000D03*
X29960000Y19939000D03*
X22491000Y18161000D03*
X23991000Y18161000D03*
X12053000Y18161000D03*
X10553000Y18161000D03*
X7124000Y21971000D03*
X8624000Y21971000D03*
D13*
X10160000Y8648000D03*
X10160000Y10148000D03*
D12*
X10172000Y4318000D03*
X11672000Y4318000D03*
D13*
X10414000Y1282000D03*
X10414000Y2782000D03*
D12*
X28460000Y18161000D03*
X29960000Y18161000D03*
D13*
X25781000Y12839000D03*
X25781000Y14339000D03*
X10160000Y15736000D03*
X10160000Y14236000D03*
D12*
X15355000Y18161000D03*
X13855000Y18161000D03*
D13*
X10160000Y7227000D03*
X10160000Y5727000D03*
D12*
X21602000Y2667000D03*
X23102000Y2667000D03*
D14*
X34036000Y11573000D03*
X34036000Y13573000D03*
D15*
X36465000Y11811000D03*
X38465000Y11811000D03*
D12*
X39358000Y16256000D03*
X37858000Y16256000D03*
X53606000Y18161000D03*
X55106000Y18161000D03*
X43930000Y18161000D03*
X42430000Y18161000D03*
D13*
X40894000Y8394000D03*
X40894000Y9894000D03*
D12*
X40779000Y3683000D03*
X42279000Y3683000D03*
D13*
X40894000Y6973000D03*
X40894000Y5473000D03*
D12*
X46851000Y18161000D03*
X45351000Y18161000D03*
D13*
X56388000Y12585000D03*
X56388000Y14085000D03*
D12*
X51447000Y2667000D03*
X52947000Y2667000D03*
D13*
X40894000Y14212000D03*
X40894000Y12712000D03*
X69977000Y1155000D03*
X69977000Y2655000D03*
X64135000Y1536000D03*
X64135000Y3036000D03*
D12*
X62345000Y19431000D03*
X60845000Y19431000D03*
D16*
X30287000Y23606760D03*
X28387000Y23606760D03*
X29337000Y21607780D03*
D17*
X56654700Y18161000D03*
X58153300Y18161000D03*
X25539700Y18161000D03*
X27038300Y18161000D03*
D18*
X46101000Y12962000D03*
X46101000Y13962000D03*
D19*
X46101000Y13462000D03*
D18*
X50800000Y12962000D03*
X50800000Y13962000D03*
D19*
X50800000Y13462000D03*
D18*
X49276000Y12962000D03*
X49276000Y13962000D03*
D19*
X49276000Y13462000D03*
D18*
X47752000Y12962000D03*
X47752000Y13962000D03*
D19*
X47752000Y13462000D03*
D18*
X15240000Y13216000D03*
X15240000Y14216000D03*
X19812000Y13216000D03*
X19812000Y14216000D03*
D19*
X19812000Y13716000D03*
D18*
X18288000Y13216000D03*
X18288000Y14216000D03*
D19*
X18288000Y13716000D03*
D18*
X16764000Y13216000D03*
X16764000Y14216000D03*
D19*
X16764000Y13716000D03*
D20*
X7068000Y5009000D03*
X7068000Y7509000D03*
X7068000Y9509000D03*
D21*
X4318000Y2809000D03*
D22*
X4318000Y10809000D03*
X4318000Y6209000D03*
D21*
X4318000Y14209000D03*
D20*
X7068000Y12009000D03*
D23*
X64389000Y16017000D03*
X64389000Y13517000D03*
X64389000Y11517000D03*
X64389000Y9017000D03*
D24*
X67099000Y19087000D03*
X67099000Y5947000D03*
D25*
X7124000Y23622000D03*
X8624000Y23622000D03*
D26*
X25781000Y8878000D03*
X25781000Y7378000D03*
D25*
X25539000Y16637000D03*
X27039000Y16637000D03*
X25539000Y19939000D03*
X27039000Y19939000D03*
X19038000Y18161000D03*
X17538000Y18161000D03*
D26*
X25781000Y11545000D03*
X25781000Y10045000D03*
D25*
X12331000Y2667000D03*
X13831000Y2667000D03*
X12331000Y889000D03*
X13831000Y889000D03*
D26*
X56388000Y8624000D03*
X56388000Y7124000D03*
D25*
X56654000Y16510000D03*
X58154000Y16510000D03*
X42025000Y16256000D03*
X40525000Y16256000D03*
X49518000Y18161000D03*
X48018000Y18161000D03*
D26*
X56388000Y11164000D03*
X56388000Y9664000D03*
D25*
X56630000Y1016000D03*
X55130000Y1016000D03*
X56630000Y2794000D03*
X55130000Y2794000D03*
X62345000Y21082000D03*
X60845000Y21082000D03*
D27*
X38683000Y22824000D03*
X38683000Y18324000D03*
X32183000Y22824000D03*
X32183000Y18324000D03*
D28*
X7051040Y1920240D03*
X7051040Y1270000D03*
X7051040Y619760D03*
X8950960Y619760D03*
X8950960Y1270000D03*
X8950960Y1920240D03*
D29*
X36322000Y2286000D03*
D30*
X36322000Y8890000D03*
X34036000Y8890000D03*
X38608000Y8890000D03*
D28*
X67370960Y873760D03*
X67370960Y1524000D03*
X67370960Y2174240D03*
X65471040Y2174240D03*
X65471040Y1524000D03*
X65471040Y873760D03*
D31*
X22247860Y21971000D03*
X12550140Y21971000D03*
X53616860Y21844000D03*
X43919140Y21844000D03*
D32*
X21657000Y16114000D03*
X21157000Y16114000D03*
X20657000Y16114000D03*
X20157000Y16114000D03*
X19657000Y16114000D03*
X19157000Y16114000D03*
X18657000Y16114000D03*
X18157000Y16114000D03*
X17657000Y16114000D03*
X17157000Y16114000D03*
X16657000Y16114000D03*
X16157000Y16114000D03*
X15657000Y16114000D03*
X15157000Y16114000D03*
X14657000Y16114000D03*
X14157000Y16114000D03*
D33*
X12207000Y14164000D03*
X12207000Y13664000D03*
X12207000Y13164000D03*
X12207000Y12664000D03*
X12207000Y12164000D03*
X12207000Y11664000D03*
X12207000Y11164000D03*
X12207000Y10664000D03*
X12207000Y10164000D03*
X12207000Y9664000D03*
X12207000Y9164000D03*
X12207000Y8664000D03*
X12207000Y8164000D03*
X12207000Y7664000D03*
X12207000Y7164000D03*
X12207000Y6664000D03*
D32*
X14157000Y4714000D03*
X14657000Y4714000D03*
X15157000Y4714000D03*
X15657000Y4714000D03*
X16157000Y4714000D03*
X16657000Y4714000D03*
X17157000Y4714000D03*
X17657000Y4714000D03*
X18157000Y4714000D03*
X18657000Y4714000D03*
X19157000Y4714000D03*
X19657000Y4714000D03*
X20157000Y4714000D03*
X20657000Y4714000D03*
X21157000Y4714000D03*
X21657000Y4714000D03*
D33*
X23607000Y6664000D03*
X23607000Y7164000D03*
X23607000Y7664000D03*
X23607000Y8164000D03*
X23607000Y8664000D03*
X23607000Y9164000D03*
X23607000Y9664000D03*
X23607000Y10164000D03*
X23607000Y10664000D03*
X23607000Y11164000D03*
X23607000Y11664000D03*
X23607000Y12164000D03*
X23607000Y12664000D03*
X23607000Y13164000D03*
X23607000Y13664000D03*
X23607000Y14164000D03*
D32*
X52391000Y16114000D03*
X51891000Y16114000D03*
X51391000Y16114000D03*
X50891000Y16114000D03*
X50391000Y16114000D03*
X49891000Y16114000D03*
X49391000Y16114000D03*
X48891000Y16114000D03*
X48391000Y16114000D03*
X47891000Y16114000D03*
X47391000Y16114000D03*
X46891000Y16114000D03*
X46391000Y16114000D03*
X45891000Y16114000D03*
X45391000Y16114000D03*
X44891000Y16114000D03*
D33*
X42941000Y14164000D03*
X42941000Y13664000D03*
X42941000Y13164000D03*
X42941000Y12664000D03*
X42941000Y12164000D03*
X42941000Y11664000D03*
X42941000Y11164000D03*
X42941000Y10664000D03*
X42941000Y10164000D03*
X42941000Y9664000D03*
X42941000Y9164000D03*
X42941000Y8664000D03*
X42941000Y8164000D03*
X42941000Y7664000D03*
X42941000Y7164000D03*
X42941000Y6664000D03*
D32*
X44891000Y4714000D03*
X45391000Y4714000D03*
X45891000Y4714000D03*
X46391000Y4714000D03*
X46891000Y4714000D03*
X47391000Y4714000D03*
X47891000Y4714000D03*
X48391000Y4714000D03*
X48891000Y4714000D03*
X49391000Y4714000D03*
X49891000Y4714000D03*
X50391000Y4714000D03*
X50891000Y4714000D03*
X51391000Y4714000D03*
X51891000Y4714000D03*
X52391000Y4714000D03*
D33*
X54341000Y6664000D03*
X54341000Y7164000D03*
X54341000Y7664000D03*
X54341000Y8164000D03*
X54341000Y8664000D03*
X54341000Y9164000D03*
X54341000Y9664000D03*
X54341000Y10164000D03*
X54341000Y10664000D03*
X54341000Y11164000D03*
X54341000Y11664000D03*
X54341000Y12164000D03*
X54341000Y12664000D03*
X54341000Y13164000D03*
X54341000Y13664000D03*
X54341000Y14164000D03*
D34*
X60960000Y4826000D03*
D35*
X60960000Y6096000D03*
X60960000Y7366000D03*
X60960000Y8636000D03*
X60960000Y9906000D03*
X59690000Y6096000D03*
X59690000Y7366000D03*
X59690000Y8636000D03*
X59690000Y9906000D03*
X59690000Y4826000D03*
D34*
X30226000Y4826000D03*
D35*
X30226000Y6096000D03*
X30226000Y7366000D03*
X30226000Y8636000D03*
X30226000Y9906000D03*
X28956000Y6096000D03*
X28956000Y7366000D03*
X28956000Y8636000D03*
X28956000Y9906000D03*
X28956000Y4826000D03*
D36*
X4483540Y21747900D03*
X4483540Y21097900D03*
X4483540Y20447900D03*
X4483540Y19797900D03*
X4483540Y19147900D03*
D37*
X4483540Y22947900D03*
X4483540Y17947900D03*
D38*
X1783540Y23947900D03*
X1783540Y16947900D03*
D39*
X25527000Y3683000D03*
X24130000Y3683000D03*
X13208000Y16383000D03*
X21717000Y14414998D03*
X30861000Y17653000D03*
X31115000Y15494000D03*
X39243000Y4064000D03*
X37084000Y4826000D03*
X35814000Y6223000D03*
X35179000Y7747000D03*
X35179000Y9525000D03*
X36957000Y19558000D03*
X32131000Y7874000D03*
X32131000Y5842000D03*
X17399000Y8128000D03*
X15494000Y8128000D03*
X26035000Y21590000D03*
X21336000Y19304000D03*
X46990000Y10287000D03*
X49276000Y10287000D03*
X59436000Y23368000D03*
X68199000Y9017000D03*
X69596000Y12446000D03*
X69596000Y15240000D03*
X69596000Y21463000D03*
X66167000Y23622000D03*
X62103000Y23749000D03*
X52324000Y18161000D03*
X47879000Y21209000D03*
X17399000Y3683000D03*
X5461000Y24130000D03*
X1270000Y20574000D03*
X49784000Y21209000D03*
X32004000Y9906000D03*
X32131000Y13843000D03*
X62484000Y3937000D03*
X42291000Y4318000D03*
X39370000Y8890000D03*
X40259000Y6985000D03*
X29972000Y18796000D03*
X41529000Y14351000D03*
X38481000Y12954000D03*
X37719000Y12954000D03*
X51435000Y3302000D03*
X68326000Y2667000D03*
X69977000Y3302000D03*
X60833000Y21844000D03*
X8636000Y21209000D03*
X6350000Y1270000D03*
X12319000Y4318000D03*
X8382000Y2794000D03*
X37211000Y16256000D03*
X57023000Y12573000D03*
X57150000Y7112000D03*
X34036000Y14986000D03*
X51689000Y12954000D03*
X55118000Y18796000D03*
X46863000Y18796000D03*
X41783000Y18161000D03*
X6223000Y17399000D03*
X6223000Y18161000D03*
X9779000Y18161000D03*
X10795000Y15748000D03*
X7493000Y12827000D03*
X6604000Y12827000D03*
X26924000Y13716000D03*
X29972000Y20574000D03*
X24003000Y19050000D03*
X15367000Y19050000D03*
X21717000Y3302000D03*
X11176000Y8636000D03*
X14351000Y13335000D03*
X25781000Y6858000D03*
X9525000Y7239000D03*
X10160000Y10922000D03*
X69469000Y1143000D03*
X2159000Y10922000D03*
X10668000Y4318000D03*
X2159000Y10033000D03*
X2667000Y5715000D03*
X2667000Y6604000D03*
X8763000Y4572000D03*
X8763000Y5334000D03*
X34036000Y7239000D03*
X34036000Y6477000D03*
X57912000Y9271000D03*
X54483000Y5842000D03*
X51562000Y5842000D03*
X26924000Y9271000D03*
X20955000Y12446000D03*
X44958000Y13716000D03*
X20574000Y11684000D03*
X44958000Y12827000D03*
X19685000Y11303000D03*
X44958000Y11938000D03*
X19939000Y10541000D03*
X44958000Y10922000D03*
X19304000Y9906000D03*
X45085000Y9906000D03*
D40*
X58547000Y11930000D02*
X60825000Y14208000D01*
X56388000Y8624000D02*
X58281000Y8624000D01*
X58547000Y8890000D02*
X58547000Y11811000D01*
X58281000Y8624000D02*
X58547000Y8890000D01*
X58547000Y11811000D02*
X58547000Y11930000D01*
X60825000Y14208000D02*
X60825000Y14986000D01*
X56388000Y9664000D02*
X56388000Y8624000D01*
D41*
X65471040Y1524000D02*
X64147000Y1524000D01*
X64147000Y1524000D02*
X64135000Y1536000D01*
D42*
X40779000Y3683000D02*
X40779000Y5358000D01*
X40779000Y5358000D02*
X40894000Y5473000D01*
D40*
X54341000Y10164000D02*
X52836000Y10164000D01*
X52836000Y10164000D02*
X52832000Y10160000D01*
D41*
X42025000Y16256000D02*
X42025000Y15863000D01*
X42025000Y15863000D02*
X41402000Y15240000D01*
X39243000Y15240000D02*
X38592000Y14589000D01*
X41402000Y15240000D02*
X39243000Y15240000D01*
X45351000Y18161000D02*
X45351000Y18046000D01*
X45351000Y18046000D02*
X43561000Y16256000D01*
X43561000Y16256000D02*
X42025000Y16256000D01*
D42*
X40894000Y12712000D02*
X40501000Y12712000D01*
X38624000Y14589000D02*
X38592000Y14589000D01*
X38592000Y14589000D02*
X36465000Y14589000D01*
X40501000Y12712000D02*
X38624000Y14589000D01*
D41*
X57150000Y1905000D02*
X57519000Y1536000D01*
D43*
X56007000Y1905000D02*
X57150000Y1905000D01*
D41*
X55880000Y3937000D02*
X55880000Y2032000D01*
D43*
X55880000Y2032000D02*
X56007000Y1905000D01*
D41*
X57519000Y1536000D02*
X57924000Y1536000D01*
X64135000Y1536000D02*
X57924000Y1536000D01*
X57924000Y1536000D02*
X57912000Y1524000D01*
X57404000Y14605000D02*
X57404000Y17272000D01*
X57404000Y17411700D02*
X56654700Y18161000D01*
X57404000Y17272000D02*
X57404000Y17411700D01*
X59825000Y14986000D02*
X59444000Y14605000D01*
X59444000Y14605000D02*
X57404000Y14605000D01*
X57404000Y14605000D02*
X56388000Y14605000D01*
X29218000Y14986000D02*
X28726000Y14986000D01*
X28726000Y14986000D02*
X28206000Y15506000D01*
X28460000Y18161000D02*
X28460000Y16764000D01*
X28460000Y16764000D02*
X28206000Y16510000D01*
D42*
X56388000Y14605000D02*
X56388000Y14085000D01*
X55880000Y15113000D02*
X56388000Y14605000D01*
X53848000Y15113000D02*
X55880000Y15113000D01*
X52959000Y14224000D02*
X53848000Y15113000D01*
X52959000Y13716000D02*
X52959000Y14224000D01*
X50800000Y8128000D02*
X52832000Y10160000D01*
X52832000Y10160000D02*
X52959000Y10287000D01*
X52959000Y10287000D02*
X52959000Y13716000D01*
D40*
X13081000Y2159000D02*
X13081000Y2032000D01*
D41*
X10426000Y1270000D02*
X11303000Y1270000D01*
X13081000Y5600000D02*
X12954000Y5727000D01*
X13081000Y5600000D02*
X13081000Y2159000D01*
D43*
X11811000Y1778000D02*
X11303000Y1270000D01*
X12827000Y1778000D02*
X11811000Y1778000D01*
X13081000Y2032000D02*
X12827000Y1778000D01*
D41*
X53594000Y3937000D02*
X55880000Y3937000D01*
X55880000Y3937000D02*
X58674000Y3937000D01*
X60960000Y4064000D02*
X60960000Y4826000D01*
X60579000Y3683000D02*
X60960000Y4064000D01*
X58928000Y3683000D02*
X60579000Y3683000D01*
X58674000Y3937000D02*
X58928000Y3683000D01*
D42*
X52947000Y2667000D02*
X53594000Y3314000D01*
X53594000Y5334000D02*
X50800000Y8128000D01*
X53594000Y3314000D02*
X53594000Y3937000D01*
X53594000Y3937000D02*
X53594000Y5334000D01*
X40894000Y5473000D02*
X43573000Y5473000D01*
X43573000Y5473000D02*
X45085000Y6985000D01*
X45085000Y6985000D02*
X49657000Y6985000D01*
X49657000Y6985000D02*
X50800000Y8128000D01*
X36322000Y8890000D02*
X36322000Y8255000D01*
X36322000Y8255000D02*
X39104000Y5473000D01*
X39104000Y5473000D02*
X40894000Y5473000D01*
D41*
X64147000Y1524000D02*
X64135000Y1536000D01*
D40*
X10426000Y1270000D02*
X10414000Y1282000D01*
D41*
X8950960Y1270000D02*
X10402000Y1270000D01*
X10402000Y1270000D02*
X10414000Y1282000D01*
D40*
X52391000Y4714000D02*
X52391000Y3223000D01*
X52391000Y3223000D02*
X52947000Y2667000D01*
X52645000Y2969000D02*
X52947000Y2667000D01*
X52391000Y16114000D02*
X52391000Y16831000D01*
D43*
X52391000Y16831000D02*
X52705000Y17145000D01*
X52705000Y17145000D02*
X55638700Y17145000D01*
X55638700Y17145000D02*
X56654700Y18161000D01*
D40*
X54341000Y14164000D02*
X56309000Y14164000D01*
X56309000Y14164000D02*
X56388000Y14085000D01*
X42941000Y6664000D02*
X42085000Y6664000D01*
X42085000Y6664000D02*
X40894000Y5473000D01*
X46391000Y16114000D02*
X46391000Y17236000D01*
X46391000Y17236000D02*
X45466000Y18161000D01*
X45466000Y18161000D02*
X45351000Y18161000D01*
X42941000Y13164000D02*
X41346000Y13164000D01*
X41346000Y13164000D02*
X40894000Y12712000D01*
D41*
X10160000Y14236000D02*
X10148000Y14236000D01*
X10148000Y14236000D02*
X9271000Y15113000D01*
D42*
X10033000Y16891000D02*
X13208000Y16891000D01*
D41*
X9652000Y16891000D02*
X10033000Y16891000D01*
X9271000Y16510000D02*
X9652000Y16891000D01*
X9271000Y15113000D02*
X9271000Y16510000D01*
D40*
X12207000Y13164000D02*
X11232000Y13164000D01*
X11232000Y13164000D02*
X10160000Y14236000D01*
D41*
X10402000Y1270000D02*
X10414000Y1282000D01*
D40*
X30226000Y4826000D02*
X30226000Y4318000D01*
D41*
X30226000Y4318000D02*
X29591000Y3683000D01*
X29591000Y3683000D02*
X25527000Y3683000D01*
X24130000Y3683000D02*
X23102000Y3683000D01*
D40*
X23102000Y3683000D02*
X23241000Y3683000D01*
X23241000Y3683000D02*
X23102000Y3683000D01*
D42*
X13208000Y16383000D02*
X13208000Y16891000D01*
X13208000Y16891000D02*
X13208000Y17514000D01*
X13208000Y17514000D02*
X13855000Y18161000D01*
X22098000Y14097000D02*
X22034998Y14097000D01*
X22034998Y14097000D02*
X21717000Y14414998D01*
D40*
X23607000Y10164000D02*
X21844000Y10164000D01*
X21844000Y10164000D02*
X21848000Y10160000D01*
X21848000Y10160000D02*
X21971000Y10160000D01*
X21971000Y10160000D02*
X21971000Y10291000D01*
D42*
X23102000Y2667000D02*
X23102000Y3683000D01*
X23102000Y3683000D02*
X23102000Y5092000D01*
X23102000Y5092000D02*
X19937000Y8257000D01*
X21971000Y10291000D02*
X21971000Y10291000D01*
X21971000Y10291000D02*
X19937000Y8257000D01*
X19937000Y8257000D02*
X17776000Y6096000D01*
X17776000Y6096000D02*
X13335000Y6096000D01*
X13335000Y6096000D02*
X12966000Y5727000D01*
X12966000Y5727000D02*
X12954000Y5727000D01*
X12954000Y5727000D02*
X10160000Y5727000D01*
X27432000Y14732000D02*
X26174000Y14732000D01*
X28206000Y15506000D02*
X27432000Y14732000D01*
X28206000Y16510000D02*
X28206000Y15506000D01*
X26174000Y14732000D02*
X25781000Y14339000D01*
X22987000Y14986000D02*
X25146000Y14986000D01*
X25146000Y14986000D02*
X25781000Y14339000D01*
D40*
X21971000Y10291000D02*
X21971000Y10287000D01*
D43*
X28460000Y18161000D02*
X28460000Y18784000D01*
X28460000Y18784000D02*
X28194000Y19050000D01*
X28194000Y19050000D02*
X25539000Y19050000D01*
X25539000Y19939000D02*
X25539000Y19050000D01*
X25539000Y19050000D02*
X25539000Y18161700D01*
D40*
X25539000Y18161700D02*
X25539700Y18161000D01*
X21657000Y16114000D02*
X21657000Y16958000D01*
D43*
X21657000Y16958000D02*
X21971000Y17272000D01*
X21971000Y17272000D02*
X24650700Y17272000D01*
X24650700Y17272000D02*
X25539700Y18161000D01*
D42*
X22987000Y14986000D02*
X22098000Y14097000D01*
X22098000Y14097000D02*
X21971000Y13970000D01*
X21971000Y13970000D02*
X21971000Y10287000D01*
X28206000Y16510000D02*
X28194000Y16510000D01*
X36465000Y14589000D02*
X34544000Y16510000D01*
X34544000Y16510000D02*
X32004000Y16510000D01*
X32004000Y16510000D02*
X28194000Y16510000D01*
X36465000Y11811000D02*
X36465000Y14589000D01*
X36322000Y8890000D02*
X36322000Y11668000D01*
X36322000Y11668000D02*
X36465000Y11811000D01*
D40*
X21657000Y4714000D02*
X21657000Y4251000D01*
X21657000Y4251000D02*
X23102000Y2806000D01*
X23102000Y2806000D02*
X23102000Y2667000D01*
X23607000Y14164000D02*
X25606000Y14164000D01*
X25606000Y14164000D02*
X25781000Y14339000D01*
X12207000Y6664000D02*
X11097000Y6664000D01*
X11097000Y6664000D02*
X10160000Y5727000D01*
X21657000Y4714000D02*
X21657000Y4493000D01*
X15657000Y16114000D02*
X15657000Y16855000D01*
X14871000Y17145000D02*
X13855000Y18161000D01*
X15367000Y17145000D02*
X14871000Y17145000D01*
X15657000Y16855000D02*
X15367000Y17145000D01*
X10370000Y14026000D02*
X10160000Y14236000D01*
X30218000Y14597000D02*
X27686000Y12065000D01*
X26301000Y8878000D02*
X25781000Y8878000D01*
X26301000Y8878000D02*
X26543000Y8636000D01*
X26543000Y8636000D02*
X27178000Y8636000D01*
X27178000Y8636000D02*
X27686000Y9144000D01*
X27686000Y9144000D02*
X27686000Y12065000D01*
X30218000Y14597000D02*
X30218000Y14986000D01*
X25781000Y10045000D02*
X25781000Y8878000D01*
X30480000Y13843000D02*
X31115000Y14478000D01*
X28956000Y9906000D02*
X28956000Y12319000D01*
X30480000Y13843000D02*
X28956000Y12319000D01*
X30543002Y17335002D02*
X30861000Y17653000D01*
X29464000Y17335002D02*
X30543002Y17335002D01*
X29210000Y17589002D02*
X29464000Y17335002D01*
X29210000Y19189000D02*
X29210000Y17589002D01*
X29210000Y19189000D02*
X28460000Y19939000D01*
X31115000Y14478000D02*
X31115000Y15494000D01*
X27039000Y19939000D02*
X27051000Y19951000D01*
X27051000Y19951000D02*
X27051000Y23606760D01*
X26416000Y24257000D02*
X27066240Y23606760D01*
X27066240Y23606760D02*
X27051000Y23606760D01*
X27051000Y23606760D02*
X28387000Y23606760D01*
X27039000Y19939000D02*
X28460000Y19939000D01*
X18288000Y23495000D02*
X19050000Y24257000D01*
X19050000Y24257000D02*
X26416000Y24257000D01*
X18657000Y16114000D02*
X18657000Y17030000D01*
X18288000Y17399000D02*
X18288000Y23495000D01*
X18657000Y17030000D02*
X18288000Y17399000D01*
X37858000Y16256000D02*
X37858000Y17260000D01*
X38493000Y17260000D02*
X38608000Y17145000D01*
X37858000Y17260000D02*
X38493000Y17260000D01*
D41*
X60960000Y6096000D02*
X61595000Y6096000D01*
X61595000Y6096000D02*
X62357000Y5334000D01*
D40*
X30226000Y7366000D02*
X31369000Y7366000D01*
X31369000Y7366000D02*
X31496000Y7493000D01*
X30226000Y8636000D02*
X31750000Y8636000D01*
X30226000Y6096000D02*
X31369000Y6096000D01*
D41*
X30226000Y9906000D02*
X30226000Y6096000D01*
X60960000Y9906000D02*
X60960000Y6096000D01*
X39243000Y4064000D02*
X39497000Y4064000D01*
X37084000Y4953000D02*
X37084000Y4826000D01*
X35814000Y6223000D02*
X37084000Y4953000D01*
X35179000Y9525000D02*
X35179000Y7747000D01*
X36957000Y19558000D02*
X37338000Y19558000D01*
X32131000Y5842000D02*
X32131000Y7874000D01*
X16764000Y8128000D02*
X15494000Y8128000D01*
X17399000Y8128000D02*
X16764000Y8128000D01*
X26035000Y21590000D02*
X26035000Y21336000D01*
X21336000Y19304000D02*
X21336000Y18669000D01*
X49276000Y10287000D02*
X46990000Y10287000D01*
X68199000Y8255000D02*
X68199000Y9017000D01*
X69596000Y15240000D02*
X69596000Y12446000D01*
X67437000Y23622000D02*
X69596000Y21463000D01*
X66167000Y23622000D02*
X67437000Y23622000D01*
X59817000Y23749000D02*
X62103000Y23749000D01*
X59817000Y23749000D02*
X59436000Y23368000D01*
X60960000Y9906000D02*
X60960000Y11557000D01*
X52324000Y18161000D02*
X52324000Y18415000D01*
X47879000Y21209000D02*
X47879000Y20828000D01*
X17399000Y3683000D02*
X17145000Y3683000D01*
X5461000Y24130000D02*
X5080000Y24130000D01*
X1270000Y20574000D02*
X1270000Y20828000D01*
X49784000Y21209000D02*
X49784000Y20701000D01*
D42*
X32004000Y13716000D02*
X32004000Y9906000D01*
X32131000Y13843000D02*
X32004000Y13716000D01*
D41*
X64135000Y3036000D02*
X63385000Y3036000D01*
X63385000Y3036000D02*
X62484000Y3937000D01*
X64135000Y3036000D02*
X64135000Y3048000D01*
X42279000Y3683000D02*
X42291000Y3695000D01*
X42291000Y3695000D02*
X42291000Y4318000D01*
X38608000Y8890000D02*
X39370000Y8890000D01*
X40894000Y6973000D02*
X40271000Y6973000D01*
X40271000Y6973000D02*
X40259000Y6985000D01*
X29960000Y18161000D02*
X29960000Y18784000D01*
X29960000Y18784000D02*
X29972000Y18796000D01*
X40894000Y14212000D02*
X41390000Y14212000D01*
X41390000Y14212000D02*
X41529000Y14351000D01*
D42*
X38465000Y12938000D02*
X38521470Y12994470D01*
X38521470Y12994470D02*
X38481000Y12954000D01*
X38465000Y11811000D02*
X38465000Y12938000D01*
X37719000Y12954000D02*
X38465000Y12208000D01*
X38465000Y11811000D02*
X38465000Y12208000D01*
X38465000Y11811000D02*
X38465000Y9033000D01*
X38465000Y9033000D02*
X38608000Y8890000D01*
D41*
X51447000Y2667000D02*
X51447000Y3290000D01*
X51447000Y3290000D02*
X51435000Y3302000D01*
X67370960Y1524000D02*
X67945000Y1524000D01*
X68326000Y1905000D02*
X68326000Y2667000D01*
X67945000Y1524000D02*
X68326000Y1905000D01*
X69977000Y3302000D02*
X69977000Y2655000D01*
D42*
X60845000Y21082000D02*
X60833000Y21094000D01*
X60833000Y21094000D02*
X60833000Y21844000D01*
X60845000Y19431000D02*
X60845000Y21082000D01*
D41*
X8624000Y21971000D02*
X8624000Y21221000D01*
X8624000Y21221000D02*
X8636000Y21209000D01*
D43*
X4483540Y19147900D02*
X5744100Y19147900D01*
D41*
X6223000Y18669000D02*
X6223000Y18161000D01*
X5744100Y19147900D02*
X6223000Y18669000D01*
X7051040Y1270000D02*
X6350000Y1270000D01*
X11672000Y4318000D02*
X12319000Y4318000D01*
X11672000Y4318000D02*
X11684000Y4306000D01*
X10414000Y2782000D02*
X8394000Y2782000D01*
X8394000Y2782000D02*
X8382000Y2794000D01*
D40*
X51891000Y4714000D02*
X51891000Y3111000D01*
X51891000Y3111000D02*
X51447000Y2667000D01*
D41*
X37858000Y16256000D02*
X37211000Y16256000D01*
D40*
X54341000Y13664000D02*
X55309000Y13664000D01*
X55309000Y13664000D02*
X56388000Y12585000D01*
D41*
X56388000Y12585000D02*
X56400000Y12573000D01*
X56400000Y12573000D02*
X57023000Y12573000D01*
X56388000Y7124000D02*
X57138000Y7124000D01*
X57138000Y7124000D02*
X57150000Y7112000D01*
D42*
X34036000Y13573000D02*
X34036000Y14986000D01*
D41*
X50800000Y12962000D02*
X50808000Y12954000D01*
X50808000Y12954000D02*
X51689000Y12954000D01*
D40*
X42941000Y8664000D02*
X42136000Y8664000D01*
X42136000Y8664000D02*
X40906000Y9894000D01*
X40906000Y9894000D02*
X40894000Y9894000D01*
D41*
X40894000Y9894000D02*
X39255000Y9894000D01*
X39243000Y9906000D02*
X38608000Y9906000D01*
X39255000Y9894000D02*
X39243000Y9906000D01*
D42*
X38608000Y9906000D02*
X38608000Y8890000D01*
D40*
X42941000Y7164000D02*
X41085000Y7164000D01*
X41085000Y7164000D02*
X40894000Y6973000D01*
D41*
X55106000Y18161000D02*
X55118000Y18173000D01*
X55118000Y18173000D02*
X55118000Y18796000D01*
X46851000Y18161000D02*
X46851000Y18784000D01*
X46851000Y18784000D02*
X46863000Y18796000D01*
X42430000Y18161000D02*
X41783000Y18161000D01*
D40*
X46891000Y16114000D02*
X46891000Y18121000D01*
X46891000Y18121000D02*
X46851000Y18161000D01*
X56198000Y12775000D02*
X56388000Y12585000D01*
X49276000Y12962000D02*
X50800000Y12962000D01*
X47752000Y12962000D02*
X49276000Y12962000D01*
X46101000Y12962000D02*
X47752000Y12962000D01*
X42941000Y13664000D02*
X41442000Y13664000D01*
X41442000Y13664000D02*
X40894000Y14212000D01*
D42*
X8624000Y21971000D02*
X8624000Y23622000D01*
X6223000Y18161000D02*
X6223000Y17399000D01*
D41*
X10553000Y18161000D02*
X9779000Y18161000D01*
X10160000Y15736000D02*
X10783000Y15736000D01*
X10783000Y15736000D02*
X10795000Y15748000D01*
D40*
X12207000Y13664000D02*
X11609000Y13664000D01*
X11303000Y14593000D02*
X10160000Y15736000D01*
X11303000Y13970000D02*
X11303000Y14593000D01*
X11609000Y13664000D02*
X11303000Y13970000D01*
D42*
X7068000Y12009000D02*
X7493000Y12434000D01*
X7493000Y12434000D02*
X7493000Y12827000D01*
X7068000Y12009000D02*
X6604000Y12473000D01*
X6604000Y12473000D02*
X6604000Y12827000D01*
D41*
X26924000Y13208000D02*
X26924000Y13716000D01*
X26555000Y12839000D02*
X26924000Y13208000D01*
X25781000Y12839000D02*
X26555000Y12839000D01*
X29960000Y19939000D02*
X29972000Y19951000D01*
X29972000Y19951000D02*
X29972000Y20574000D01*
X23991000Y18161000D02*
X24003000Y18173000D01*
X24003000Y18173000D02*
X24003000Y19050000D01*
X15355000Y18161000D02*
X15367000Y18173000D01*
X15367000Y18173000D02*
X15367000Y19050000D01*
X21602000Y2667000D02*
X21602000Y3187000D01*
X21602000Y3187000D02*
X21717000Y3302000D01*
D40*
X23607000Y13664000D02*
X24956000Y13664000D01*
X24956000Y13664000D02*
X25781000Y12839000D01*
X12207000Y8664000D02*
X12179000Y8636000D01*
X12179000Y8636000D02*
X11176000Y8636000D01*
D41*
X15240000Y13216000D02*
X14470000Y13216000D01*
X14470000Y13216000D02*
X14351000Y13335000D01*
X25781000Y7378000D02*
X25781000Y6858000D01*
X23991000Y18161000D02*
X24003000Y18173000D01*
X10160000Y7227000D02*
X9537000Y7227000D01*
X9537000Y7227000D02*
X9525000Y7239000D01*
X10160000Y10922000D02*
X10160000Y10148000D01*
X10160000Y15736000D02*
X10160000Y15621000D01*
D40*
X21157000Y3493000D02*
X21157000Y3112000D01*
X21157000Y4714000D02*
X21157000Y3493000D01*
X21157000Y3112000D02*
X21602000Y2667000D01*
X12207000Y7164000D02*
X10223000Y7164000D01*
X10223000Y7164000D02*
X10160000Y7227000D01*
X18288000Y13216000D02*
X19812000Y13216000D01*
X16764000Y13216000D02*
X18288000Y13216000D01*
X15240000Y13216000D02*
X16764000Y13216000D01*
X10299000Y15736000D02*
X10160000Y15736000D01*
X16157000Y16114000D02*
X16157000Y17359000D01*
X16157000Y17359000D02*
X15355000Y18161000D01*
X19657000Y20015140D02*
X21612860Y21971000D01*
X21612860Y21971000D02*
X22247860Y21971000D01*
X19657000Y17498000D02*
X19657000Y16114000D01*
X19657000Y17498000D02*
X19657000Y20015140D01*
X21866860Y21971000D02*
X22247860Y21971000D01*
X22491000Y18161000D02*
X22491000Y21727860D01*
X22491000Y21727860D02*
X22247860Y21971000D01*
X22491000Y21727860D02*
X22247860Y21971000D01*
D41*
X22456140Y18195860D02*
X22491000Y18161000D01*
D40*
X17526000Y18796000D02*
X14351000Y21971000D01*
X14351000Y21971000D02*
X12550140Y21971000D01*
X17526000Y18796000D02*
X17538000Y18161000D01*
X14097000Y21971000D02*
X12550140Y21971000D01*
X12053000Y18161000D02*
X12053000Y21473860D01*
X12053000Y21473860D02*
X12550140Y21971000D01*
X13716000Y21971000D02*
X12550140Y21971000D01*
D41*
X13958000Y21971000D02*
X12550140Y21971000D01*
D42*
X5433900Y22947900D02*
X7124000Y22947900D01*
X4483540Y22947900D02*
X5433900Y22947900D01*
X7112000Y22987000D02*
X7124000Y22987000D01*
X7112000Y22959900D02*
X7112000Y22987000D01*
X7124000Y22947900D02*
X7112000Y22959900D01*
X7124000Y23622000D02*
X7124000Y22987000D01*
X7124000Y22987000D02*
X7124000Y21971000D01*
D40*
X3810000Y10398000D02*
X3794000Y10398000D01*
X12207000Y7664000D02*
X11144000Y7664000D01*
X11144000Y7664000D02*
X10160000Y8648000D01*
D41*
X69977000Y1155000D02*
X69481000Y1155000D01*
X69481000Y1155000D02*
X69469000Y1143000D01*
D42*
X3302000Y16002000D02*
X2794000Y15494000D01*
X2794000Y18034000D02*
X3302000Y17526000D01*
X3302000Y17526000D02*
X3302000Y16002000D01*
D41*
X3205900Y21747900D02*
X2794000Y21336000D01*
D43*
X4483540Y21747900D02*
X3205900Y21747900D01*
D42*
X2794000Y21336000D02*
X2794000Y18542000D01*
X2794000Y18542000D02*
X2794000Y18034000D01*
X2413000Y15494000D02*
X1524000Y14605000D01*
X2794000Y15494000D02*
X2413000Y15494000D01*
D44*
X1524000Y11557000D02*
X2159000Y10922000D01*
X1524000Y14605000D02*
X1524000Y11557000D01*
X1524000Y14986000D02*
X1524000Y14605000D01*
D41*
X10172000Y4318000D02*
X10668000Y4318000D01*
D42*
X2159000Y10033000D02*
X2159000Y11303000D01*
X7068000Y5009000D02*
X5898000Y5009000D01*
X5898000Y5009000D02*
X5461000Y4572000D01*
X2667000Y5080000D02*
X2667000Y6604000D01*
X5461000Y4572000D02*
X3175000Y4572000D01*
X3175000Y4572000D02*
X2667000Y5080000D01*
X7068000Y5009000D02*
X8199000Y5009000D01*
X8199000Y5009000D02*
X8763000Y5334000D01*
X8763000Y5334000D02*
X8763000Y4572000D01*
X34036000Y8890000D02*
X34036000Y11573000D01*
X34036000Y8890000D02*
X34036000Y7239000D01*
X34036000Y8890000D02*
X34036000Y6477000D01*
D40*
X49391000Y16114000D02*
X49391000Y16903000D01*
X48768000Y17526000D02*
X48768000Y23749000D01*
X49391000Y16903000D02*
X48768000Y17526000D01*
X59690000Y9906000D02*
X59690000Y11811000D01*
X47244000Y23749000D02*
X40640000Y23749000D01*
X40640000Y23749000D02*
X40132000Y23241000D01*
X40132000Y23241000D02*
X40132000Y20701000D01*
X57277000Y23749000D02*
X48768000Y23749000D01*
X48768000Y23749000D02*
X47244000Y23749000D01*
X58293000Y22733000D02*
X57277000Y23749000D01*
X58293000Y19558000D02*
X58293000Y22733000D01*
X61722000Y16129000D02*
X58293000Y19558000D01*
X61722000Y13843000D02*
X61722000Y16129000D01*
X59690000Y11811000D02*
X61722000Y13843000D01*
X40525000Y16256000D02*
X39358000Y16256000D01*
X30287000Y23606760D02*
X30287000Y22672000D01*
X40525000Y20308000D02*
X40525000Y16256000D01*
X40005000Y20828000D02*
X40132000Y20701000D01*
X40132000Y20701000D02*
X40525000Y20308000D01*
X32131000Y20828000D02*
X40005000Y20828000D01*
X30287000Y22672000D02*
X32131000Y20828000D01*
X53616860Y21844000D02*
X53616860Y18171860D01*
X53616860Y18171860D02*
X53606000Y18161000D01*
X50391000Y16114000D02*
X50391000Y18618140D01*
X50391000Y18618140D02*
X53616860Y21844000D01*
X48018000Y18161000D02*
X48018000Y18530000D01*
X48018000Y18530000D02*
X44704000Y21844000D01*
X44704000Y21844000D02*
X43919140Y21844000D01*
X43919140Y21844000D02*
X43919140Y18171860D01*
X43919140Y18171860D02*
X43930000Y18161000D01*
X42941000Y7664000D02*
X41624000Y7664000D01*
X41624000Y7664000D02*
X40894000Y8394000D01*
D42*
X62345000Y19431000D02*
X62345000Y21082000D01*
X67099000Y19087000D02*
X66755000Y19431000D01*
X66755000Y19431000D02*
X62345000Y19431000D01*
D40*
X32183000Y19379000D02*
X29954220Y21607780D01*
X29954220Y21607780D02*
X29337000Y21607780D01*
X32183000Y18324000D02*
X38683000Y18324000D01*
X29337000Y21607780D02*
X29700220Y21607780D01*
X32183000Y19379000D02*
X32183000Y18324000D01*
X58154000Y16510000D02*
X58153300Y16510700D01*
X58153300Y16510700D02*
X58153300Y18161000D01*
X27039000Y16637000D02*
X27039000Y18160300D01*
X27039000Y18160300D02*
X27038300Y18161000D01*
X46101000Y13962000D02*
X46101000Y14986000D01*
X47391000Y15387000D02*
X47244000Y15240000D01*
X47244000Y15240000D02*
X46355000Y15240000D01*
X46355000Y15240000D02*
X46228000Y15113000D01*
X47391000Y15387000D02*
X47391000Y16114000D01*
X46101000Y14986000D02*
X46228000Y15113000D01*
X50800000Y14859000D02*
X50546000Y15113000D01*
X48891000Y15498000D02*
X49276000Y15113000D01*
X49276000Y15113000D02*
X50419000Y15113000D01*
X48891000Y16114000D02*
X48891000Y15498000D01*
X50800000Y14859000D02*
X50800000Y13962000D01*
X50546000Y15113000D02*
X50419000Y15113000D01*
X49276000Y13962000D02*
X49276000Y14351000D01*
X48391000Y15236000D02*
X49149000Y14478000D01*
X48391000Y15236000D02*
X48391000Y16114000D01*
X49276000Y14351000D02*
X49149000Y14478000D01*
X47752000Y13962000D02*
X47752000Y14478000D01*
X47891000Y14617000D02*
X47752000Y14478000D01*
X47891000Y14617000D02*
X47891000Y16114000D01*
X16657000Y16114000D02*
X16657000Y15387000D01*
X15240000Y14732000D02*
X15240000Y14216000D01*
X15494000Y14986000D02*
X15240000Y14732000D01*
X16256000Y14986000D02*
X15494000Y14986000D01*
X16657000Y15387000D02*
X16256000Y14986000D01*
X18157000Y16114000D02*
X18157000Y15371000D01*
X19812000Y14732000D02*
X19812000Y14216000D01*
X19431000Y15113000D02*
X19812000Y14732000D01*
X18415000Y15113000D02*
X19431000Y15113000D01*
X18157000Y15371000D02*
X18415000Y15113000D01*
X17657000Y16114000D02*
X17657000Y15109000D01*
X17657000Y15109000D02*
X18288000Y14478000D01*
X18288000Y14478000D02*
X18288000Y14216000D01*
X17157000Y16114000D02*
X17157000Y14609000D01*
X17157000Y14609000D02*
X16764000Y14216000D01*
X54341000Y6664000D02*
X55566000Y6664000D01*
X56134000Y6096000D02*
X59690000Y6096000D01*
X55566000Y6664000D02*
X56134000Y6096000D01*
X57912000Y9652000D02*
X57912000Y9271000D01*
X55130000Y9664000D02*
X55753000Y10287000D01*
X55753000Y10287000D02*
X57277000Y10287000D01*
X57277000Y10287000D02*
X57912000Y9652000D01*
X54341000Y9664000D02*
X55130000Y9664000D01*
X57658000Y7874000D02*
X58547000Y7874000D01*
X55170000Y7164000D02*
X55880000Y7874000D01*
X55880000Y7874000D02*
X57658000Y7874000D01*
X54341000Y7164000D02*
X55170000Y7164000D01*
X59309000Y8636000D02*
X59690000Y8636000D01*
X58547000Y7874000D02*
X59309000Y8636000D01*
X51391000Y4714000D02*
X51391000Y5671000D01*
X59055000Y5461000D02*
X59690000Y4826000D01*
X56007000Y5461000D02*
X59055000Y5461000D01*
X55626000Y5842000D02*
X56007000Y5461000D01*
X54483000Y5842000D02*
X55626000Y5842000D01*
X51391000Y5671000D02*
X51562000Y5842000D01*
X23607000Y6664000D02*
X24175000Y6096000D01*
X24175000Y6096000D02*
X28956000Y6096000D01*
X23607000Y9664000D02*
X24523000Y9664000D01*
X26924000Y10287000D02*
X26924000Y9271000D01*
X26416000Y10795000D02*
X26924000Y10287000D01*
X25019000Y10795000D02*
X26416000Y10795000D01*
X24765000Y10541000D02*
X25019000Y10795000D01*
X24765000Y9906000D02*
X24765000Y10541000D01*
X24523000Y9664000D02*
X24765000Y9906000D01*
X23607000Y7164000D02*
X24436000Y7164000D01*
X28448000Y8128000D02*
X28956000Y8636000D01*
X25019000Y8128000D02*
X28448000Y8128000D01*
X24765000Y7874000D02*
X25019000Y8128000D01*
X24765000Y7493000D02*
X24765000Y7874000D01*
X24436000Y7164000D02*
X24765000Y7493000D01*
X23876000Y1651000D02*
X24765000Y2540000D01*
X24765000Y2540000D02*
X24765000Y4699000D01*
X24765000Y4699000D02*
X25400000Y5334000D01*
X25400000Y5334000D02*
X28448000Y5334000D01*
X28448000Y5334000D02*
X28956000Y4826000D01*
X20657000Y4714000D02*
X20657000Y2076000D01*
X20657000Y2076000D02*
X21082000Y1651000D01*
X21082000Y1651000D02*
X23876000Y1651000D01*
X8950960Y1920240D02*
X9062720Y2032000D01*
X9062720Y2032000D02*
X11049000Y2032000D01*
X11684000Y2667000D02*
X12331000Y2667000D01*
X11049000Y2032000D02*
X11684000Y2667000D01*
X2524760Y1666240D02*
X5857240Y1666240D01*
X2524760Y1666240D02*
X1778000Y2413000D01*
X1778000Y2413000D02*
X1778000Y7239000D01*
X1778000Y7239000D02*
X2159000Y7620000D01*
X6957000Y7620000D02*
X2159000Y7620000D01*
X6111240Y1920240D02*
X7051040Y1920240D01*
X5857240Y1666240D02*
X6111240Y1920240D01*
X4483540Y21097900D02*
X7239000Y21082000D01*
X8525000Y7509000D02*
X7068000Y7509000D01*
X9271000Y8255000D02*
X8525000Y7509000D01*
X9271000Y14224000D02*
X9271000Y8255000D01*
X8382000Y15113000D02*
X9271000Y14224000D01*
X8382000Y19939000D02*
X8382000Y15113000D01*
X7239000Y21082000D02*
X8382000Y19939000D01*
X6957000Y7620000D02*
X7068000Y7509000D01*
X7051040Y1920240D02*
X8950960Y1920240D01*
X8950960Y619760D02*
X9062720Y508000D01*
X9062720Y508000D02*
X11938000Y508000D01*
X11938000Y508000D02*
X12331000Y889000D01*
X7239000Y19558000D02*
X7239000Y15494000D01*
X7239000Y15494000D02*
X8763000Y13970000D01*
X8763000Y13970000D02*
X8763000Y9906000D01*
X8763000Y9906000D02*
X8366000Y9509000D01*
X7068000Y9509000D02*
X8366000Y9509000D01*
X6350000Y20447000D02*
X4483540Y20447900D01*
X6350000Y20447000D02*
X7239000Y19558000D01*
X12192000Y1016000D02*
X12204000Y1016000D01*
X12204000Y1016000D02*
X12331000Y889000D01*
X7068000Y9509000D02*
X6703000Y9144000D01*
X6703000Y9144000D02*
X1651000Y9144000D01*
X1651000Y9144000D02*
X635000Y8128000D01*
X635000Y8128000D02*
X635000Y1905000D01*
X635000Y1905000D02*
X1920240Y619760D01*
X1920240Y619760D02*
X7051040Y619760D01*
X8950960Y619760D02*
X7051040Y619760D01*
X12219240Y1000760D02*
X12331000Y889000D01*
X12219240Y1000760D02*
X12331000Y889000D01*
X63809000Y13517000D02*
X62103000Y11811000D01*
X67437000Y2794000D02*
X67183000Y3048000D01*
X67183000Y3048000D02*
X65659000Y3048000D01*
X65659000Y3048000D02*
X62103000Y6604000D01*
X62103000Y6604000D02*
X62103000Y11811000D01*
X67437000Y2794000D02*
X67437000Y2240280D01*
X63809000Y13517000D02*
X64389000Y13517000D01*
X65471040Y2174240D02*
X65359280Y2286000D01*
X65359280Y2286000D02*
X57912000Y2286000D01*
X57404000Y2794000D02*
X56630000Y2794000D01*
X57912000Y2286000D02*
X57404000Y2794000D01*
X67370960Y2174240D02*
X67437000Y2240280D01*
X65471040Y2174240D02*
X67370960Y2174240D01*
X63968000Y11517000D02*
X63246000Y10795000D01*
X68453000Y3683000D02*
X68072000Y4064000D01*
X68310760Y873760D02*
X69088000Y1651000D01*
X69088000Y1651000D02*
X69088000Y3048000D01*
X69088000Y3048000D02*
X68453000Y3683000D01*
X68310760Y873760D02*
X67370960Y873760D01*
X63246000Y6858000D02*
X63246000Y10795000D01*
X66040000Y4064000D02*
X63246000Y6858000D01*
X68072000Y4064000D02*
X66040000Y4064000D01*
X63968000Y11517000D02*
X64389000Y11517000D01*
X63246000Y762000D02*
X56884000Y762000D01*
X65359280Y762000D02*
X63246000Y762000D01*
X56884000Y762000D02*
X56630000Y1016000D01*
X65471040Y873760D02*
X65359280Y762000D01*
X65471040Y873760D02*
X67370960Y873760D01*
X56630000Y1016000D02*
X56772240Y873760D01*
X21157000Y16114000D02*
X21157000Y15419000D01*
X21157000Y15419000D02*
X21336000Y15240000D01*
X21336000Y15240000D02*
X21971000Y15240000D01*
X21971000Y15240000D02*
X23368000Y16637000D01*
X23368000Y16637000D02*
X25539000Y16637000D01*
X19157000Y16114000D02*
X19177000Y18034000D01*
X19177000Y18034000D02*
X19038000Y18161000D01*
X23607000Y12164000D02*
X24412000Y12164000D01*
X25031000Y11545000D02*
X25781000Y11545000D01*
X24412000Y12164000D02*
X25031000Y11545000D01*
X25880000Y11644000D02*
X25781000Y11545000D01*
X17018000Y2032000D02*
X14478000Y2032000D01*
X18415000Y2032000D02*
X17018000Y2032000D01*
X19657000Y3274000D02*
X18415000Y2032000D01*
X19657000Y4714000D02*
X19657000Y3274000D01*
X14478000Y2032000D02*
X13831000Y2667000D01*
X19177000Y1270000D02*
X18923000Y1016000D01*
X20157000Y2250000D02*
X19177000Y1270000D01*
X20157000Y4714000D02*
X20157000Y2250000D01*
X18923000Y1016000D02*
X13958000Y1016000D01*
X13958000Y1016000D02*
X13831000Y889000D01*
X13704000Y762000D02*
X13831000Y889000D01*
X52705000Y15240000D02*
X53975000Y16510000D01*
X51891000Y15419000D02*
X52070000Y15240000D01*
X52070000Y15240000D02*
X52705000Y15240000D01*
X52705000Y15240000D02*
X52705000Y15240000D01*
X51891000Y16114000D02*
X51891000Y15419000D01*
X53975000Y16510000D02*
X56654000Y16510000D01*
X49891000Y16114000D02*
X49891000Y17788000D01*
X49891000Y17788000D02*
X49518000Y18161000D01*
X54341000Y12164000D02*
X55388000Y12164000D01*
X55388000Y12164000D02*
X56388000Y11164000D01*
X56277000Y11275000D02*
X56388000Y11164000D01*
X53467000Y508000D02*
X54610000Y508000D01*
X50391000Y4036000D02*
X50165000Y3810000D01*
X50165000Y3810000D02*
X49784000Y3810000D01*
X49784000Y3810000D02*
X49276000Y3302000D01*
X49276000Y3302000D02*
X49276000Y1143000D01*
X49276000Y1143000D02*
X49911000Y508000D01*
X49911000Y508000D02*
X53467000Y508000D01*
X50391000Y4714000D02*
X50391000Y4036000D01*
X54610000Y508000D02*
X55130000Y1016000D01*
X50292000Y3175000D02*
X50292000Y1905000D01*
X50891000Y4714000D02*
X50891000Y3774000D01*
X50891000Y3774000D02*
X50292000Y3175000D01*
X53848000Y1524000D02*
X55130000Y2794000D01*
X53467000Y1524000D02*
X53848000Y1524000D01*
X50673000Y1524000D02*
X53467000Y1524000D01*
X50292000Y1905000D02*
X50673000Y1524000D01*
X14605000Y12446000D02*
X20447000Y12446000D01*
X14352398Y12446000D02*
X14605000Y12446000D01*
X13208000Y13590398D02*
X14352398Y12446000D01*
X13208000Y13843000D02*
X13208000Y13590398D01*
X12887000Y14164000D02*
X13208000Y13843000D01*
X12207000Y14164000D02*
X12887000Y14164000D01*
X20447000Y12446000D02*
X20955000Y12446000D01*
X44510000Y14164000D02*
X42941000Y14164000D01*
X44958000Y13716000D02*
X44510000Y14164000D01*
X13498000Y12664000D02*
X14224000Y11938000D01*
X14224000Y11938000D02*
X18923000Y11938000D01*
X12207000Y12664000D02*
X13498000Y12664000D01*
X20447000Y11684000D02*
X20574000Y11684000D01*
X20193000Y11938000D02*
X20447000Y11684000D01*
X18923000Y11938000D02*
X20193000Y11938000D01*
X44795000Y12664000D02*
X42941000Y12664000D01*
X44958000Y12827000D02*
X44795000Y12664000D01*
X13361602Y12164000D02*
X14095602Y11430000D01*
X14095602Y11430000D02*
X19431000Y11430000D01*
X12207000Y12164000D02*
X13361602Y12164000D01*
X19558000Y11430000D02*
X19685000Y11303000D01*
X19431000Y11430000D02*
X19558000Y11430000D01*
X44732000Y12164000D02*
X42941000Y12164000D01*
X44958000Y11938000D02*
X44732000Y12164000D01*
X19558000Y10541000D02*
X19939000Y10541000D01*
X19177000Y10922000D02*
X19558000Y10541000D01*
X12207000Y11664000D02*
X13101000Y11664000D01*
X13843000Y10922000D02*
X19177000Y10922000D01*
X13101000Y11664000D02*
X13843000Y10922000D01*
X44216000Y11664000D02*
X42941000Y11664000D01*
X44958000Y10922000D02*
X44216000Y11664000D01*
X45085000Y9906000D02*
X44831000Y9906000D01*
X43827000Y11164000D02*
X42941000Y11164000D01*
X44196000Y10795000D02*
X43827000Y11164000D01*
X44196000Y10541000D02*
X44196000Y10795000D01*
X44831000Y9906000D02*
X44196000Y10541000D01*
X18542000Y10414000D02*
X18796000Y10414000D01*
X18796000Y10414000D02*
X19304000Y9906000D01*
X12207000Y11164000D02*
X12839000Y11164000D01*
X13589000Y10414000D02*
X18542000Y10414000D01*
X12839000Y11164000D02*
X13589000Y10414000D01*
X45085000Y9906000D02*
X44958000Y9906000D01*
D45*
G36*
X35584000Y14224078D02*
X35584000Y12472859D01*
X35576536Y12436000D01*
X35576536Y12107622D01*
X35508062Y12005144D01*
X35441000Y11668000D01*
X35441000Y9982365D01*
X35425536Y9906000D01*
X35425536Y7874000D01*
X35452103Y7732810D01*
X35535546Y7603135D01*
X35662866Y7516141D01*
X35814000Y7485536D01*
X35845542Y7485536D01*
X38481039Y4850039D01*
X38766856Y4659062D01*
X39104000Y4592000D01*
X39898000Y4592000D01*
X39898000Y3683000D01*
X39965062Y3345856D01*
X39990606Y3307626D01*
X40017103Y3166810D01*
X40100546Y3037135D01*
X40227866Y2950141D01*
X40360801Y2923221D01*
X40441856Y2869062D01*
X40779000Y2802000D01*
X41116144Y2869062D01*
X41196656Y2922858D01*
X41320190Y2946103D01*
X41337081Y2956972D01*
X41340673Y2948301D01*
X41519302Y2769673D01*
X41752691Y2673000D01*
X41993250Y2673000D01*
X42152000Y2831750D01*
X42152000Y3556000D01*
X42406000Y3556000D01*
X42406000Y2831750D01*
X42564750Y2673000D01*
X42805309Y2673000D01*
X43038698Y2769673D01*
X43217327Y2948301D01*
X43314000Y3181690D01*
X43314000Y3397250D01*
X43155250Y3556000D01*
X42406000Y3556000D01*
X42152000Y3556000D01*
X42132000Y3556000D01*
X42132000Y3810000D01*
X42152000Y3810000D01*
X42152000Y3830000D01*
X42406000Y3830000D01*
X42406000Y3810000D01*
X43155250Y3810000D01*
X43314000Y3968750D01*
X43314000Y4184310D01*
X43217327Y4417699D01*
X43043025Y4592000D01*
X43573000Y4592000D01*
X43910144Y4659062D01*
X44195961Y4850039D01*
X44377536Y5031614D01*
X44377536Y4214000D01*
X44404103Y4072810D01*
X44487546Y3943135D01*
X44614866Y3856141D01*
X44766000Y3825536D01*
X45016000Y3825536D01*
X45145588Y3849920D01*
X45266000Y3825536D01*
X45516000Y3825536D01*
X45645588Y3849920D01*
X45766000Y3825536D01*
X46016000Y3825536D01*
X46145588Y3849920D01*
X46266000Y3825536D01*
X46516000Y3825536D01*
X46645588Y3849920D01*
X46766000Y3825536D01*
X47016000Y3825536D01*
X47145588Y3849920D01*
X47266000Y3825536D01*
X47516000Y3825536D01*
X47645588Y3849920D01*
X47766000Y3825536D01*
X48016000Y3825536D01*
X48145588Y3849920D01*
X48266000Y3825536D01*
X48516000Y3825536D01*
X48645588Y3849920D01*
X48766000Y3825536D01*
X49016000Y3825536D01*
X49099692Y3841284D01*
X48918204Y3659796D01*
X48808517Y3495638D01*
X48770000Y3302000D01*
X48770000Y1143000D01*
X48808517Y949362D01*
X48918204Y785204D01*
X49317408Y386000D01*
X14458731Y386000D01*
X14469464Y439000D01*
X14469464Y510000D01*
X18923000Y510000D01*
X19116638Y548517D01*
X19280796Y658204D01*
X20320000Y1697408D01*
X20724204Y1293204D01*
X20888362Y1183517D01*
X21082000Y1145000D01*
X23876000Y1145000D01*
X24069638Y1183517D01*
X24233796Y1293204D01*
X25122796Y2182204D01*
X25232483Y2346362D01*
X25271000Y2540000D01*
X25271000Y3051924D01*
X25390946Y3002118D01*
X25661865Y3001882D01*
X25783161Y3052000D01*
X29591000Y3052000D01*
X29832473Y3100032D01*
X30037184Y3236816D01*
X30102368Y3302000D01*
X34104736Y3302000D01*
X34104736Y1270000D01*
X34131303Y1128810D01*
X34214746Y999135D01*
X34342066Y912141D01*
X34493200Y881536D01*
X38150800Y881536D01*
X38291990Y908103D01*
X38421665Y991546D01*
X38508659Y1118866D01*
X38539264Y1270000D01*
X38539264Y3302000D01*
X38512697Y3443190D01*
X38429254Y3572865D01*
X38301934Y3659859D01*
X38150800Y3690464D01*
X34493200Y3690464D01*
X34352010Y3663897D01*
X34222335Y3580454D01*
X34135341Y3453134D01*
X34104736Y3302000D01*
X30102368Y3302000D01*
X30672185Y3871816D01*
X30699393Y3912536D01*
X30751000Y3912536D01*
X30892190Y3939103D01*
X31021865Y4022546D01*
X31108859Y4149866D01*
X31139464Y4301000D01*
X31139464Y5340356D01*
X31150358Y5351250D01*
X31136881Y5364727D01*
X31114774Y5482214D01*
X31251962Y5507575D01*
X31399046Y5944985D01*
X31367543Y6405386D01*
X31251962Y6684425D01*
X31049814Y6721794D01*
X31040608Y6731000D01*
X31049814Y6740206D01*
X31251962Y6777575D01*
X31399046Y7214985D01*
X31367543Y7675386D01*
X31251962Y7954425D01*
X31049814Y7991794D01*
X31040608Y8001000D01*
X31049814Y8010206D01*
X31251962Y8047575D01*
X31399046Y8484985D01*
X31367543Y8945386D01*
X31251962Y9224425D01*
X31049814Y9261794D01*
X31040608Y9271000D01*
X31049814Y9280206D01*
X31251962Y9317575D01*
X31399046Y9754985D01*
X31367543Y10215386D01*
X31251962Y10494425D01*
X31034273Y10534667D01*
X30405605Y9906000D01*
X30419748Y9891857D01*
X30333992Y9806102D01*
X30131840Y9792270D01*
X30032253Y9891857D01*
X30046395Y9906000D01*
X30032253Y9920142D01*
X30211858Y10099748D01*
X30226000Y10085605D01*
X30854667Y10714273D01*
X30814425Y10931962D01*
X30377015Y11079046D01*
X29916614Y11047543D01*
X29637575Y10931962D01*
X29597333Y10714275D01*
X29481250Y10830358D01*
X29462000Y10811108D01*
X29462000Y12109408D01*
X30639842Y13287250D01*
X32776000Y13287250D01*
X32776000Y12946691D01*
X32872673Y12713302D01*
X33051301Y12534673D01*
X33284690Y12438000D01*
X33286301Y12438000D01*
X33269810Y12434897D01*
X33140135Y12351454D01*
X33053141Y12224134D01*
X33022536Y12073000D01*
X33022536Y11073000D01*
X33049103Y10931810D01*
X33132546Y10802135D01*
X33155000Y10786793D01*
X33155000Y9982365D01*
X33139536Y9906000D01*
X33139536Y7874000D01*
X33155000Y7791817D01*
X33155000Y6477000D01*
X33222062Y6139856D01*
X33413039Y5854039D01*
X33698856Y5663062D01*
X34036000Y5596000D01*
X34373144Y5663062D01*
X34658961Y5854039D01*
X34849938Y6139856D01*
X34917000Y6477000D01*
X34917000Y7797635D01*
X34932464Y7874000D01*
X34932464Y9906000D01*
X34917000Y9988183D01*
X34917000Y10784981D01*
X34931865Y10794546D01*
X35018859Y10921866D01*
X35049464Y11073000D01*
X35049464Y12073000D01*
X35022897Y12214190D01*
X34939454Y12343865D01*
X34812134Y12430859D01*
X34776870Y12438000D01*
X34787310Y12438000D01*
X35020699Y12534673D01*
X35199327Y12713302D01*
X35296000Y12946691D01*
X35296000Y13287250D01*
X35137250Y13446000D01*
X34163000Y13446000D01*
X34163000Y13426000D01*
X33909000Y13426000D01*
X33909000Y13446000D01*
X32934750Y13446000D01*
X32776000Y13287250D01*
X30639842Y13287250D01*
X31472796Y14120204D01*
X31501818Y14163638D01*
X31525652Y14199309D01*
X32776000Y14199309D01*
X32776000Y13858750D01*
X32934750Y13700000D01*
X33909000Y13700000D01*
X33909000Y14549250D01*
X34163000Y14549250D01*
X34163000Y13700000D01*
X35137250Y13700000D01*
X35296000Y13858750D01*
X35296000Y14199309D01*
X35199327Y14432698D01*
X35020699Y14611327D01*
X34787310Y14708000D01*
X34321750Y14708000D01*
X34163000Y14549250D01*
X33909000Y14549250D01*
X33750250Y14708000D01*
X33284690Y14708000D01*
X33051301Y14611327D01*
X32872673Y14432698D01*
X32776000Y14199309D01*
X31525652Y14199309D01*
X31582483Y14284362D01*
X31621000Y14478000D01*
X31621000Y15036877D01*
X31691987Y15107741D01*
X31795882Y15357946D01*
X31796118Y15628865D01*
X31796062Y15629000D01*
X34179078Y15629000D01*
X35584000Y14224078D01*
X35584000Y14224078D01*
G37*
X35584000Y14224078D02*
X35584000Y12472859D01*
X35576536Y12436000D01*
X35576536Y12107622D01*
X35508062Y12005144D01*
X35441000Y11668000D01*
X35441000Y9982365D01*
X35425536Y9906000D01*
X35425536Y7874000D01*
X35452103Y7732810D01*
X35535546Y7603135D01*
X35662866Y7516141D01*
X35814000Y7485536D01*
X35845542Y7485536D01*
X38481039Y4850039D01*
X38766856Y4659062D01*
X39104000Y4592000D01*
X39898000Y4592000D01*
X39898000Y3683000D01*
X39965062Y3345856D01*
X39990606Y3307626D01*
X40017103Y3166810D01*
X40100546Y3037135D01*
X40227866Y2950141D01*
X40360801Y2923221D01*
X40441856Y2869062D01*
X40779000Y2802000D01*
X41116144Y2869062D01*
X41196656Y2922858D01*
X41320190Y2946103D01*
X41337081Y2956972D01*
X41340673Y2948301D01*
X41519302Y2769673D01*
X41752691Y2673000D01*
X41993250Y2673000D01*
X42152000Y2831750D01*
X42152000Y3556000D01*
X42406000Y3556000D01*
X42406000Y2831750D01*
X42564750Y2673000D01*
X42805309Y2673000D01*
X43038698Y2769673D01*
X43217327Y2948301D01*
X43314000Y3181690D01*
X43314000Y3397250D01*
X43155250Y3556000D01*
X42406000Y3556000D01*
X42152000Y3556000D01*
X42132000Y3556000D01*
X42132000Y3810000D01*
X42152000Y3810000D01*
X42152000Y3830000D01*
X42406000Y3830000D01*
X42406000Y3810000D01*
X43155250Y3810000D01*
X43314000Y3968750D01*
X43314000Y4184310D01*
X43217327Y4417699D01*
X43043025Y4592000D01*
X43573000Y4592000D01*
X43910144Y4659062D01*
X44195961Y4850039D01*
X44377536Y5031614D01*
X44377536Y4214000D01*
X44404103Y4072810D01*
X44487546Y3943135D01*
X44614866Y3856141D01*
X44766000Y3825536D01*
X45016000Y3825536D01*
X45145588Y3849920D01*
X45266000Y3825536D01*
X45516000Y3825536D01*
X45645588Y3849920D01*
X45766000Y3825536D01*
X46016000Y3825536D01*
X46145588Y3849920D01*
X46266000Y3825536D01*
X46516000Y3825536D01*
X46645588Y3849920D01*
X46766000Y3825536D01*
X47016000Y3825536D01*
X47145588Y3849920D01*
X47266000Y3825536D01*
X47516000Y3825536D01*
X47645588Y3849920D01*
X47766000Y3825536D01*
X48016000Y3825536D01*
X48145588Y3849920D01*
X48266000Y3825536D01*
X48516000Y3825536D01*
X48645588Y3849920D01*
X48766000Y3825536D01*
X49016000Y3825536D01*
X49099692Y3841284D01*
X48918204Y3659796D01*
X48808517Y3495638D01*
X48770000Y3302000D01*
X48770000Y1143000D01*
X48808517Y949362D01*
X48918204Y785204D01*
X49317408Y386000D01*
X14458731Y386000D01*
X14469464Y439000D01*
X14469464Y510000D01*
X18923000Y510000D01*
X19116638Y548517D01*
X19280796Y658204D01*
X20320000Y1697408D01*
X20724204Y1293204D01*
X20888362Y1183517D01*
X21082000Y1145000D01*
X23876000Y1145000D01*
X24069638Y1183517D01*
X24233796Y1293204D01*
X25122796Y2182204D01*
X25232483Y2346362D01*
X25271000Y2540000D01*
X25271000Y3051924D01*
X25390946Y3002118D01*
X25661865Y3001882D01*
X25783161Y3052000D01*
X29591000Y3052000D01*
X29832473Y3100032D01*
X30037184Y3236816D01*
X30102368Y3302000D01*
X34104736Y3302000D01*
X34104736Y1270000D01*
X34131303Y1128810D01*
X34214746Y999135D01*
X34342066Y912141D01*
X34493200Y881536D01*
X38150800Y881536D01*
X38291990Y908103D01*
X38421665Y991546D01*
X38508659Y1118866D01*
X38539264Y1270000D01*
X38539264Y3302000D01*
X38512697Y3443190D01*
X38429254Y3572865D01*
X38301934Y3659859D01*
X38150800Y3690464D01*
X34493200Y3690464D01*
X34352010Y3663897D01*
X34222335Y3580454D01*
X34135341Y3453134D01*
X34104736Y3302000D01*
X30102368Y3302000D01*
X30672185Y3871816D01*
X30699393Y3912536D01*
X30751000Y3912536D01*
X30892190Y3939103D01*
X31021865Y4022546D01*
X31108859Y4149866D01*
X31139464Y4301000D01*
X31139464Y5340356D01*
X31150358Y5351250D01*
X31136881Y5364727D01*
X31114774Y5482214D01*
X31251962Y5507575D01*
X31399046Y5944985D01*
X31367543Y6405386D01*
X31251962Y6684425D01*
X31049814Y6721794D01*
X31040608Y6731000D01*
X31049814Y6740206D01*
X31251962Y6777575D01*
X31399046Y7214985D01*
X31367543Y7675386D01*
X31251962Y7954425D01*
X31049814Y7991794D01*
X31040608Y8001000D01*
X31049814Y8010206D01*
X31251962Y8047575D01*
X31399046Y8484985D01*
X31367543Y8945386D01*
X31251962Y9224425D01*
X31049814Y9261794D01*
X31040608Y9271000D01*
X31049814Y9280206D01*
X31251962Y9317575D01*
X31399046Y9754985D01*
X31367543Y10215386D01*
X31251962Y10494425D01*
X31034273Y10534667D01*
X30405605Y9906000D01*
X30419748Y9891857D01*
X30333992Y9806102D01*
X30131840Y9792270D01*
X30032253Y9891857D01*
X30046395Y9906000D01*
X30032253Y9920142D01*
X30211858Y10099748D01*
X30226000Y10085605D01*
X30854667Y10714273D01*
X30814425Y10931962D01*
X30377015Y11079046D01*
X29916614Y11047543D01*
X29637575Y10931962D01*
X29597333Y10714275D01*
X29481250Y10830358D01*
X29462000Y10811108D01*
X29462000Y12109408D01*
X30639842Y13287250D01*
X32776000Y13287250D01*
X32776000Y12946691D01*
X32872673Y12713302D01*
X33051301Y12534673D01*
X33284690Y12438000D01*
X33286301Y12438000D01*
X33269810Y12434897D01*
X33140135Y12351454D01*
X33053141Y12224134D01*
X33022536Y12073000D01*
X33022536Y11073000D01*
X33049103Y10931810D01*
X33132546Y10802135D01*
X33155000Y10786793D01*
X33155000Y9982365D01*
X33139536Y9906000D01*
X33139536Y7874000D01*
X33155000Y7791817D01*
X33155000Y6477000D01*
X33222062Y6139856D01*
X33413039Y5854039D01*
X33698856Y5663062D01*
X34036000Y5596000D01*
X34373144Y5663062D01*
X34658961Y5854039D01*
X34849938Y6139856D01*
X34917000Y6477000D01*
X34917000Y7797635D01*
X34932464Y7874000D01*
X34932464Y9906000D01*
X34917000Y9988183D01*
X34917000Y10784981D01*
X34931865Y10794546D01*
X35018859Y10921866D01*
X35049464Y11073000D01*
X35049464Y12073000D01*
X35022897Y12214190D01*
X34939454Y12343865D01*
X34812134Y12430859D01*
X34776870Y12438000D01*
X34787310Y12438000D01*
X35020699Y12534673D01*
X35199327Y12713302D01*
X35296000Y12946691D01*
X35296000Y13287250D01*
X35137250Y13446000D01*
X34163000Y13446000D01*
X34163000Y13426000D01*
X33909000Y13426000D01*
X33909000Y13446000D01*
X32934750Y13446000D01*
X32776000Y13287250D01*
X30639842Y13287250D01*
X31472796Y14120204D01*
X31501818Y14163638D01*
X31525652Y14199309D01*
X32776000Y14199309D01*
X32776000Y13858750D01*
X32934750Y13700000D01*
X33909000Y13700000D01*
X33909000Y14549250D01*
X34163000Y14549250D01*
X34163000Y13700000D01*
X35137250Y13700000D01*
X35296000Y13858750D01*
X35296000Y14199309D01*
X35199327Y14432698D01*
X35020699Y14611327D01*
X34787310Y14708000D01*
X34321750Y14708000D01*
X34163000Y14549250D01*
X33909000Y14549250D01*
X33750250Y14708000D01*
X33284690Y14708000D01*
X33051301Y14611327D01*
X32872673Y14432698D01*
X32776000Y14199309D01*
X31525652Y14199309D01*
X31582483Y14284362D01*
X31621000Y14478000D01*
X31621000Y15036877D01*
X31691987Y15107741D01*
X31795882Y15357946D01*
X31796118Y15628865D01*
X31796062Y15629000D01*
X34179078Y15629000D01*
X35584000Y14224078D01*
G36*
X8187846Y1125760D02*
X7946485Y1125760D01*
X7901940Y1170305D01*
X7586636Y1170305D01*
X7576824Y1177009D01*
X7425690Y1207614D01*
X6904040Y1207614D01*
X6904040Y1332386D01*
X7425690Y1332386D01*
X7566880Y1358953D01*
X7583574Y1369695D01*
X7901940Y1369695D01*
X7946485Y1414240D01*
X8187846Y1414240D01*
X8187846Y1125760D01*
X8187846Y1125760D01*
G37*
X8187846Y1125760D02*
X7946485Y1125760D01*
X7901940Y1170305D01*
X7586636Y1170305D01*
X7576824Y1177009D01*
X7425690Y1207614D01*
X6904040Y1207614D01*
X6904040Y1332386D01*
X7425690Y1332386D01*
X7566880Y1358953D01*
X7583574Y1369695D01*
X7901940Y1369695D01*
X7946485Y1414240D01*
X8187846Y1414240D01*
X8187846Y1125760D01*
G36*
X66520060Y1623695D02*
X66835364Y1623695D01*
X66845176Y1616991D01*
X66996310Y1586386D01*
X67517960Y1586386D01*
X67517960Y1461614D01*
X66996310Y1461614D01*
X66855120Y1435047D01*
X66838426Y1424305D01*
X66520060Y1424305D01*
X66475515Y1379760D01*
X66234154Y1379760D01*
X66234154Y1668240D01*
X66475515Y1668240D01*
X66520060Y1623695D01*
X66520060Y1623695D01*
G37*
X66520060Y1623695D02*
X66835364Y1623695D01*
X66845176Y1616991D01*
X66996310Y1586386D01*
X67517960Y1586386D01*
X67517960Y1461614D01*
X66996310Y1461614D01*
X66855120Y1435047D01*
X66838426Y1424305D01*
X66520060Y1424305D01*
X66475515Y1379760D01*
X66234154Y1379760D01*
X66234154Y1668240D01*
X66475515Y1668240D01*
X66520060Y1623695D01*
G36*
X65846362Y3596517D02*
X66040000Y3558000D01*
X67862408Y3558000D01*
X68582000Y2838408D01*
X68582000Y1860592D01*
X68372410Y1651002D01*
X68249167Y1651002D01*
X68380610Y1782445D01*
X68380610Y1849699D01*
X68283937Y2083088D01*
X68134074Y2232952D01*
X68134074Y2373630D01*
X68107507Y2514820D01*
X68024064Y2644495D01*
X67943000Y2699884D01*
X67943000Y2794000D01*
X67904483Y2987638D01*
X67794796Y3151796D01*
X67540796Y3405796D01*
X67376638Y3515483D01*
X67183000Y3554000D01*
X65868592Y3554000D01*
X65785224Y3637368D01*
X65846362Y3596517D01*
X65846362Y3596517D01*
G37*
X65846362Y3596517D02*
X66040000Y3558000D01*
X67862408Y3558000D01*
X68582000Y2838408D01*
X68582000Y1860592D01*
X68372410Y1651002D01*
X68249167Y1651002D01*
X68380610Y1782445D01*
X68380610Y1849699D01*
X68283937Y2083088D01*
X68134074Y2232952D01*
X68134074Y2373630D01*
X68107507Y2514820D01*
X68024064Y2644495D01*
X67943000Y2699884D01*
X67943000Y2794000D01*
X67904483Y2987638D01*
X67794796Y3151796D01*
X67540796Y3405796D01*
X67376638Y3515483D01*
X67183000Y3554000D01*
X65868592Y3554000D01*
X65785224Y3637368D01*
X65846362Y3596517D01*
G36*
X8140039Y3949039D02*
X8425856Y3758062D01*
X8763000Y3691000D01*
X9100144Y3758062D01*
X9383536Y3947419D01*
X9383536Y3943000D01*
X9410103Y3801810D01*
X9493546Y3672135D01*
X9575270Y3616295D01*
X9500673Y3541698D01*
X9404000Y3308309D01*
X9404000Y3067750D01*
X9562750Y2909000D01*
X10287000Y2909000D01*
X10287000Y2929000D01*
X10541000Y2929000D01*
X10541000Y2909000D01*
X10561000Y2909000D01*
X10561000Y2655000D01*
X10541000Y2655000D01*
X10541000Y2635000D01*
X10287000Y2635000D01*
X10287000Y2655000D01*
X9562750Y2655000D01*
X9445750Y2538000D01*
X9062720Y2538000D01*
X8912372Y2508094D01*
X8576310Y2508094D01*
X8435120Y2481527D01*
X8349201Y2426240D01*
X7651829Y2426240D01*
X7576824Y2477489D01*
X7425690Y2508094D01*
X6676390Y2508094D01*
X6535200Y2481527D01*
X6449281Y2426240D01*
X6159716Y2426240D01*
X6235851Y2809000D01*
X6153565Y3222681D01*
X5919233Y3573382D01*
X5678468Y3734257D01*
X5798144Y3758062D01*
X6083961Y3949039D01*
X6205458Y4070536D01*
X8058857Y4070536D01*
X8140039Y3949039D01*
X8140039Y3949039D01*
G37*
X8140039Y3949039D02*
X8425856Y3758062D01*
X8763000Y3691000D01*
X9100144Y3758062D01*
X9383536Y3947419D01*
X9383536Y3943000D01*
X9410103Y3801810D01*
X9493546Y3672135D01*
X9575270Y3616295D01*
X9500673Y3541698D01*
X9404000Y3308309D01*
X9404000Y3067750D01*
X9562750Y2909000D01*
X10287000Y2909000D01*
X10287000Y2929000D01*
X10541000Y2929000D01*
X10541000Y2909000D01*
X10561000Y2909000D01*
X10561000Y2655000D01*
X10541000Y2655000D01*
X10541000Y2635000D01*
X10287000Y2635000D01*
X10287000Y2655000D01*
X9562750Y2655000D01*
X9445750Y2538000D01*
X9062720Y2538000D01*
X8912372Y2508094D01*
X8576310Y2508094D01*
X8435120Y2481527D01*
X8349201Y2426240D01*
X7651829Y2426240D01*
X7576824Y2477489D01*
X7425690Y2508094D01*
X6676390Y2508094D01*
X6535200Y2481527D01*
X6449281Y2426240D01*
X6159716Y2426240D01*
X6235851Y2809000D01*
X6153565Y3222681D01*
X5919233Y3573382D01*
X5678468Y3734257D01*
X5798144Y3758062D01*
X6083961Y3949039D01*
X6205458Y4070536D01*
X8058857Y4070536D01*
X8140039Y3949039D01*
G36*
X70215195Y24578058D02*
X70417129Y24443129D01*
X70552058Y24241195D01*
X70607000Y23964984D01*
X70607000Y3636695D01*
X70478310Y3690000D01*
X70262750Y3690000D01*
X70104000Y3531250D01*
X70104000Y2782000D01*
X70124000Y2782000D01*
X70124000Y2528000D01*
X70104000Y2528000D01*
X70104000Y2508000D01*
X69850000Y2508000D01*
X69850000Y2528000D01*
X69830000Y2528000D01*
X69830000Y2782000D01*
X69850000Y2782000D01*
X69850000Y3531250D01*
X69691250Y3690000D01*
X69475690Y3690000D01*
X69253589Y3598003D01*
X68429796Y4421796D01*
X68265638Y4531483D01*
X68212512Y4542050D01*
X68607978Y4936827D01*
X68879690Y5591183D01*
X68880309Y6299709D01*
X68609739Y6954538D01*
X68109173Y7455978D01*
X67454817Y7727690D01*
X66746291Y7728309D01*
X66091462Y7457739D01*
X65590022Y6957173D01*
X65318310Y6302817D01*
X65317691Y5594291D01*
X65382746Y5436846D01*
X63752000Y7067592D01*
X63752000Y8056260D01*
X64162929Y7885627D01*
X64613096Y7885234D01*
X65029146Y8057142D01*
X65347739Y8375180D01*
X65520373Y8790929D01*
X65520766Y9241096D01*
X65348858Y9657146D01*
X65030820Y9975739D01*
X64615071Y10148373D01*
X64164904Y10148766D01*
X63752000Y9978158D01*
X63752000Y10556260D01*
X64162929Y10385627D01*
X64613096Y10385234D01*
X65029146Y10557142D01*
X65347739Y10875180D01*
X65520373Y11290929D01*
X65520766Y11741096D01*
X65348858Y12157146D01*
X65030820Y12475739D01*
X64931723Y12516888D01*
X65029146Y12557142D01*
X65347739Y12875180D01*
X65520373Y13290929D01*
X65520766Y13741096D01*
X65348858Y14157146D01*
X65030820Y14475739D01*
X64630620Y14641917D01*
X64734538Y14647195D01*
X65113265Y14804069D01*
X65181325Y15045070D01*
X64389000Y15837395D01*
X63596675Y15045070D01*
X63664735Y14804069D01*
X64135359Y14636558D01*
X63748854Y14476858D01*
X63430261Y14158820D01*
X63257627Y13743071D01*
X63257573Y13681165D01*
X61745204Y12168796D01*
X61635517Y12004638D01*
X61597000Y11811000D01*
X61597000Y10722608D01*
X61588667Y10714275D01*
X61548425Y10931962D01*
X61111015Y11079046D01*
X60650614Y11047543D01*
X60371575Y10931962D01*
X60331333Y10714275D01*
X60215250Y10830358D01*
X60196000Y10811108D01*
X60196000Y11601408D01*
X62079796Y13485204D01*
X62189483Y13649362D01*
X62228000Y13843000D01*
X62228000Y16129000D01*
X62209508Y16221966D01*
X62991233Y16221966D01*
X63019195Y15671462D01*
X63176069Y15292735D01*
X63417070Y15224675D01*
X64209395Y16017000D01*
X64568605Y16017000D01*
X65360930Y15224675D01*
X65601931Y15292735D01*
X65786767Y15812034D01*
X65758805Y16362538D01*
X65601931Y16741265D01*
X65360930Y16809325D01*
X64568605Y16017000D01*
X64209395Y16017000D01*
X63417070Y16809325D01*
X63176069Y16741265D01*
X62991233Y16221966D01*
X62209508Y16221966D01*
X62189483Y16322638D01*
X62079796Y16486796D01*
X61577662Y16988930D01*
X63596675Y16988930D01*
X64389000Y16196605D01*
X65181325Y16988930D01*
X65113265Y17229931D01*
X64593966Y17414767D01*
X64043462Y17386805D01*
X63664735Y17229931D01*
X63596675Y16988930D01*
X61577662Y16988930D01*
X59421342Y19145250D01*
X59810000Y19145250D01*
X59810000Y18929690D01*
X59906673Y18696301D01*
X60085302Y18517673D01*
X60318691Y18421000D01*
X60559250Y18421000D01*
X60718000Y18579750D01*
X60718000Y19304000D01*
X59968750Y19304000D01*
X59810000Y19145250D01*
X59421342Y19145250D01*
X58799000Y19767592D01*
X58799000Y19932310D01*
X59810000Y19932310D01*
X59810000Y19716750D01*
X59968750Y19558000D01*
X60718000Y19558000D01*
X60718000Y20153750D01*
X60720000Y20155750D01*
X60720000Y20955000D01*
X60118750Y20955000D01*
X59960000Y20796250D01*
X59960000Y20505690D01*
X60043962Y20302987D01*
X59906673Y20165699D01*
X59810000Y19932310D01*
X58799000Y19932310D01*
X58799000Y21658310D01*
X59960000Y21658310D01*
X59960000Y21367750D01*
X60118750Y21209000D01*
X60720000Y21209000D01*
X60720000Y22008250D01*
X60970000Y22008250D01*
X60970000Y21209000D01*
X60992000Y21209000D01*
X60992000Y20955000D01*
X60970000Y20955000D01*
X60970000Y20155750D01*
X60972000Y20153750D01*
X60972000Y19558000D01*
X60992000Y19558000D01*
X60992000Y19304000D01*
X60972000Y19304000D01*
X60972000Y18579750D01*
X61130750Y18421000D01*
X61371309Y18421000D01*
X61604698Y18517673D01*
X61783327Y18696301D01*
X61786246Y18703348D01*
X61793866Y18698141D01*
X61926801Y18671221D01*
X62007856Y18617062D01*
X62345000Y18550000D01*
X65393839Y18550000D01*
X65588261Y18079462D01*
X66088827Y17578022D01*
X66743183Y17306310D01*
X67451709Y17305691D01*
X68106538Y17576261D01*
X68607978Y18076827D01*
X68879690Y18731183D01*
X68880309Y19439709D01*
X68609739Y20094538D01*
X68109173Y20595978D01*
X67454817Y20867690D01*
X66746291Y20868309D01*
X66091462Y20597739D01*
X65805224Y20312000D01*
X63226000Y20312000D01*
X63226000Y21082000D01*
X63158938Y21419144D01*
X62967961Y21704961D01*
X62912688Y21741893D01*
X62873454Y21802865D01*
X62746134Y21889859D01*
X62595000Y21920464D01*
X62558843Y21920464D01*
X62345000Y21963000D01*
X62131157Y21920464D01*
X62095000Y21920464D01*
X61953810Y21893897D01*
X61824135Y21810454D01*
X61777271Y21741866D01*
X61722039Y21704961D01*
X61715025Y21694463D01*
X61633327Y21891699D01*
X61454698Y22070327D01*
X61221309Y22167000D01*
X61128750Y22167000D01*
X60970000Y22008250D01*
X60720000Y22008250D01*
X60561250Y22167000D01*
X60468691Y22167000D01*
X60235302Y22070327D01*
X60056673Y21891699D01*
X59960000Y21658310D01*
X58799000Y21658310D01*
X58799000Y22733000D01*
X58760483Y22926638D01*
X58650796Y23090796D01*
X57634796Y24106796D01*
X57470638Y24216483D01*
X57277000Y24255000D01*
X40640000Y24255000D01*
X40446362Y24216483D01*
X40282204Y24106796D01*
X39774204Y23598796D01*
X39764840Y23584781D01*
X39654517Y23615912D01*
X38862605Y22824000D01*
X38876748Y22809857D01*
X38697143Y22630252D01*
X38683000Y22644395D01*
X37891088Y21852483D01*
X37959077Y21611540D01*
X38478171Y21426799D01*
X39028448Y21454770D01*
X39406923Y21611540D01*
X39474911Y21852481D01*
X39589966Y21737426D01*
X39626000Y21773460D01*
X39626000Y21334000D01*
X32340592Y21334000D01*
X32234751Y21439841D01*
X32528448Y21454770D01*
X32906923Y21611540D01*
X32974912Y21852483D01*
X32183000Y22644395D01*
X32168858Y22630252D01*
X31989253Y22809857D01*
X32003395Y22824000D01*
X32362605Y22824000D01*
X33154517Y22032088D01*
X33395460Y22100077D01*
X33580201Y22619171D01*
X33559378Y23028829D01*
X37285799Y23028829D01*
X37313770Y22478552D01*
X37470540Y22100077D01*
X37711483Y22032088D01*
X38503395Y22824000D01*
X37711483Y23615912D01*
X37470540Y23547923D01*
X37285799Y23028829D01*
X33559378Y23028829D01*
X33552230Y23169448D01*
X33395460Y23547923D01*
X33154517Y23615912D01*
X32362605Y22824000D01*
X32003395Y22824000D01*
X31211483Y23615912D01*
X31075514Y23577544D01*
X31075514Y23795517D01*
X31391088Y23795517D01*
X32183000Y23003605D01*
X32974912Y23795517D01*
X37891088Y23795517D01*
X38683000Y23003605D01*
X39474912Y23795517D01*
X39406923Y24036460D01*
X38887829Y24221201D01*
X38337552Y24193230D01*
X37959077Y24036460D01*
X37891088Y23795517D01*
X32974912Y23795517D01*
X32906923Y24036460D01*
X32387829Y24221201D01*
X31837552Y24193230D01*
X31459077Y24036460D01*
X31391088Y23795517D01*
X31075514Y23795517D01*
X31075514Y24006810D01*
X31048947Y24148000D01*
X30965504Y24277675D01*
X30838184Y24364669D01*
X30687050Y24395274D01*
X29886950Y24395274D01*
X29745760Y24368707D01*
X29616085Y24285264D01*
X29529091Y24157944D01*
X29498486Y24006810D01*
X29498486Y23206710D01*
X29525053Y23065520D01*
X29608496Y22935845D01*
X29735816Y22848851D01*
X29781000Y22839701D01*
X29781000Y22672000D01*
X29819517Y22478362D01*
X29900363Y22357367D01*
X29888184Y22365689D01*
X29737050Y22396294D01*
X28936950Y22396294D01*
X28795760Y22369727D01*
X28666085Y22286284D01*
X28579091Y22158964D01*
X28548486Y22007830D01*
X28548486Y21207730D01*
X28575053Y21066540D01*
X28658496Y20936865D01*
X28785816Y20849871D01*
X28936950Y20819266D01*
X29167241Y20819266D01*
X29021673Y20673699D01*
X29018754Y20666652D01*
X29011134Y20671859D01*
X28860000Y20702464D01*
X28060000Y20702464D01*
X27918810Y20675897D01*
X27789135Y20592454D01*
X27702141Y20465134D01*
X27698064Y20445000D01*
X27666927Y20445000D01*
X27650897Y20530190D01*
X27567454Y20659865D01*
X27557000Y20667008D01*
X27557000Y23100760D01*
X27618422Y23100760D01*
X27625053Y23065520D01*
X27708496Y22935845D01*
X27835816Y22848851D01*
X27986950Y22818246D01*
X28787050Y22818246D01*
X28928240Y22844813D01*
X29057915Y22928256D01*
X29144909Y23055576D01*
X29175514Y23206710D01*
X29175514Y24006810D01*
X29148947Y24148000D01*
X29065504Y24277675D01*
X28938184Y24364669D01*
X28787050Y24395274D01*
X27986950Y24395274D01*
X27845760Y24368707D01*
X27716085Y24285264D01*
X27629091Y24157944D01*
X27619941Y24112760D01*
X27275832Y24112760D01*
X26773796Y24614796D01*
X26746552Y24633000D01*
X69938983Y24633000D01*
X70215195Y24578058D01*
X70215195Y24578058D01*
G37*
X70215195Y24578058D02*
X70417129Y24443129D01*
X70552058Y24241195D01*
X70607000Y23964984D01*
X70607000Y3636695D01*
X70478310Y3690000D01*
X70262750Y3690000D01*
X70104000Y3531250D01*
X70104000Y2782000D01*
X70124000Y2782000D01*
X70124000Y2528000D01*
X70104000Y2528000D01*
X70104000Y2508000D01*
X69850000Y2508000D01*
X69850000Y2528000D01*
X69830000Y2528000D01*
X69830000Y2782000D01*
X69850000Y2782000D01*
X69850000Y3531250D01*
X69691250Y3690000D01*
X69475690Y3690000D01*
X69253589Y3598003D01*
X68429796Y4421796D01*
X68265638Y4531483D01*
X68212512Y4542050D01*
X68607978Y4936827D01*
X68879690Y5591183D01*
X68880309Y6299709D01*
X68609739Y6954538D01*
X68109173Y7455978D01*
X67454817Y7727690D01*
X66746291Y7728309D01*
X66091462Y7457739D01*
X65590022Y6957173D01*
X65318310Y6302817D01*
X65317691Y5594291D01*
X65382746Y5436846D01*
X63752000Y7067592D01*
X63752000Y8056260D01*
X64162929Y7885627D01*
X64613096Y7885234D01*
X65029146Y8057142D01*
X65347739Y8375180D01*
X65520373Y8790929D01*
X65520766Y9241096D01*
X65348858Y9657146D01*
X65030820Y9975739D01*
X64615071Y10148373D01*
X64164904Y10148766D01*
X63752000Y9978158D01*
X63752000Y10556260D01*
X64162929Y10385627D01*
X64613096Y10385234D01*
X65029146Y10557142D01*
X65347739Y10875180D01*
X65520373Y11290929D01*
X65520766Y11741096D01*
X65348858Y12157146D01*
X65030820Y12475739D01*
X64931723Y12516888D01*
X65029146Y12557142D01*
X65347739Y12875180D01*
X65520373Y13290929D01*
X65520766Y13741096D01*
X65348858Y14157146D01*
X65030820Y14475739D01*
X64630620Y14641917D01*
X64734538Y14647195D01*
X65113265Y14804069D01*
X65181325Y15045070D01*
X64389000Y15837395D01*
X63596675Y15045070D01*
X63664735Y14804069D01*
X64135359Y14636558D01*
X63748854Y14476858D01*
X63430261Y14158820D01*
X63257627Y13743071D01*
X63257573Y13681165D01*
X61745204Y12168796D01*
X61635517Y12004638D01*
X61597000Y11811000D01*
X61597000Y10722608D01*
X61588667Y10714275D01*
X61548425Y10931962D01*
X61111015Y11079046D01*
X60650614Y11047543D01*
X60371575Y10931962D01*
X60331333Y10714275D01*
X60215250Y10830358D01*
X60196000Y10811108D01*
X60196000Y11601408D01*
X62079796Y13485204D01*
X62189483Y13649362D01*
X62228000Y13843000D01*
X62228000Y16129000D01*
X62209508Y16221966D01*
X62991233Y16221966D01*
X63019195Y15671462D01*
X63176069Y15292735D01*
X63417070Y15224675D01*
X64209395Y16017000D01*
X64568605Y16017000D01*
X65360930Y15224675D01*
X65601931Y15292735D01*
X65786767Y15812034D01*
X65758805Y16362538D01*
X65601931Y16741265D01*
X65360930Y16809325D01*
X64568605Y16017000D01*
X64209395Y16017000D01*
X63417070Y16809325D01*
X63176069Y16741265D01*
X62991233Y16221966D01*
X62209508Y16221966D01*
X62189483Y16322638D01*
X62079796Y16486796D01*
X61577662Y16988930D01*
X63596675Y16988930D01*
X64389000Y16196605D01*
X65181325Y16988930D01*
X65113265Y17229931D01*
X64593966Y17414767D01*
X64043462Y17386805D01*
X63664735Y17229931D01*
X63596675Y16988930D01*
X61577662Y16988930D01*
X59421342Y19145250D01*
X59810000Y19145250D01*
X59810000Y18929690D01*
X59906673Y18696301D01*
X60085302Y18517673D01*
X60318691Y18421000D01*
X60559250Y18421000D01*
X60718000Y18579750D01*
X60718000Y19304000D01*
X59968750Y19304000D01*
X59810000Y19145250D01*
X59421342Y19145250D01*
X58799000Y19767592D01*
X58799000Y19932310D01*
X59810000Y19932310D01*
X59810000Y19716750D01*
X59968750Y19558000D01*
X60718000Y19558000D01*
X60718000Y20153750D01*
X60720000Y20155750D01*
X60720000Y20955000D01*
X60118750Y20955000D01*
X59960000Y20796250D01*
X59960000Y20505690D01*
X60043962Y20302987D01*
X59906673Y20165699D01*
X59810000Y19932310D01*
X58799000Y19932310D01*
X58799000Y21658310D01*
X59960000Y21658310D01*
X59960000Y21367750D01*
X60118750Y21209000D01*
X60720000Y21209000D01*
X60720000Y22008250D01*
X60970000Y22008250D01*
X60970000Y21209000D01*
X60992000Y21209000D01*
X60992000Y20955000D01*
X60970000Y20955000D01*
X60970000Y20155750D01*
X60972000Y20153750D01*
X60972000Y19558000D01*
X60992000Y19558000D01*
X60992000Y19304000D01*
X60972000Y19304000D01*
X60972000Y18579750D01*
X61130750Y18421000D01*
X61371309Y18421000D01*
X61604698Y18517673D01*
X61783327Y18696301D01*
X61786246Y18703348D01*
X61793866Y18698141D01*
X61926801Y18671221D01*
X62007856Y18617062D01*
X62345000Y18550000D01*
X65393839Y18550000D01*
X65588261Y18079462D01*
X66088827Y17578022D01*
X66743183Y17306310D01*
X67451709Y17305691D01*
X68106538Y17576261D01*
X68607978Y18076827D01*
X68879690Y18731183D01*
X68880309Y19439709D01*
X68609739Y20094538D01*
X68109173Y20595978D01*
X67454817Y20867690D01*
X66746291Y20868309D01*
X66091462Y20597739D01*
X65805224Y20312000D01*
X63226000Y20312000D01*
X63226000Y21082000D01*
X63158938Y21419144D01*
X62967961Y21704961D01*
X62912688Y21741893D01*
X62873454Y21802865D01*
X62746134Y21889859D01*
X62595000Y21920464D01*
X62558843Y21920464D01*
X62345000Y21963000D01*
X62131157Y21920464D01*
X62095000Y21920464D01*
X61953810Y21893897D01*
X61824135Y21810454D01*
X61777271Y21741866D01*
X61722039Y21704961D01*
X61715025Y21694463D01*
X61633327Y21891699D01*
X61454698Y22070327D01*
X61221309Y22167000D01*
X61128750Y22167000D01*
X60970000Y22008250D01*
X60720000Y22008250D01*
X60561250Y22167000D01*
X60468691Y22167000D01*
X60235302Y22070327D01*
X60056673Y21891699D01*
X59960000Y21658310D01*
X58799000Y21658310D01*
X58799000Y22733000D01*
X58760483Y22926638D01*
X58650796Y23090796D01*
X57634796Y24106796D01*
X57470638Y24216483D01*
X57277000Y24255000D01*
X40640000Y24255000D01*
X40446362Y24216483D01*
X40282204Y24106796D01*
X39774204Y23598796D01*
X39764840Y23584781D01*
X39654517Y23615912D01*
X38862605Y22824000D01*
X38876748Y22809857D01*
X38697143Y22630252D01*
X38683000Y22644395D01*
X37891088Y21852483D01*
X37959077Y21611540D01*
X38478171Y21426799D01*
X39028448Y21454770D01*
X39406923Y21611540D01*
X39474911Y21852481D01*
X39589966Y21737426D01*
X39626000Y21773460D01*
X39626000Y21334000D01*
X32340592Y21334000D01*
X32234751Y21439841D01*
X32528448Y21454770D01*
X32906923Y21611540D01*
X32974912Y21852483D01*
X32183000Y22644395D01*
X32168858Y22630252D01*
X31989253Y22809857D01*
X32003395Y22824000D01*
X32362605Y22824000D01*
X33154517Y22032088D01*
X33395460Y22100077D01*
X33580201Y22619171D01*
X33559378Y23028829D01*
X37285799Y23028829D01*
X37313770Y22478552D01*
X37470540Y22100077D01*
X37711483Y22032088D01*
X38503395Y22824000D01*
X37711483Y23615912D01*
X37470540Y23547923D01*
X37285799Y23028829D01*
X33559378Y23028829D01*
X33552230Y23169448D01*
X33395460Y23547923D01*
X33154517Y23615912D01*
X32362605Y22824000D01*
X32003395Y22824000D01*
X31211483Y23615912D01*
X31075514Y23577544D01*
X31075514Y23795517D01*
X31391088Y23795517D01*
X32183000Y23003605D01*
X32974912Y23795517D01*
X37891088Y23795517D01*
X38683000Y23003605D01*
X39474912Y23795517D01*
X39406923Y24036460D01*
X38887829Y24221201D01*
X38337552Y24193230D01*
X37959077Y24036460D01*
X37891088Y23795517D01*
X32974912Y23795517D01*
X32906923Y24036460D01*
X32387829Y24221201D01*
X31837552Y24193230D01*
X31459077Y24036460D01*
X31391088Y23795517D01*
X31075514Y23795517D01*
X31075514Y24006810D01*
X31048947Y24148000D01*
X30965504Y24277675D01*
X30838184Y24364669D01*
X30687050Y24395274D01*
X29886950Y24395274D01*
X29745760Y24368707D01*
X29616085Y24285264D01*
X29529091Y24157944D01*
X29498486Y24006810D01*
X29498486Y23206710D01*
X29525053Y23065520D01*
X29608496Y22935845D01*
X29735816Y22848851D01*
X29781000Y22839701D01*
X29781000Y22672000D01*
X29819517Y22478362D01*
X29900363Y22357367D01*
X29888184Y22365689D01*
X29737050Y22396294D01*
X28936950Y22396294D01*
X28795760Y22369727D01*
X28666085Y22286284D01*
X28579091Y22158964D01*
X28548486Y22007830D01*
X28548486Y21207730D01*
X28575053Y21066540D01*
X28658496Y20936865D01*
X28785816Y20849871D01*
X28936950Y20819266D01*
X29167241Y20819266D01*
X29021673Y20673699D01*
X29018754Y20666652D01*
X29011134Y20671859D01*
X28860000Y20702464D01*
X28060000Y20702464D01*
X27918810Y20675897D01*
X27789135Y20592454D01*
X27702141Y20465134D01*
X27698064Y20445000D01*
X27666927Y20445000D01*
X27650897Y20530190D01*
X27567454Y20659865D01*
X27557000Y20667008D01*
X27557000Y23100760D01*
X27618422Y23100760D01*
X27625053Y23065520D01*
X27708496Y22935845D01*
X27835816Y22848851D01*
X27986950Y22818246D01*
X28787050Y22818246D01*
X28928240Y22844813D01*
X29057915Y22928256D01*
X29144909Y23055576D01*
X29175514Y23206710D01*
X29175514Y24006810D01*
X29148947Y24148000D01*
X29065504Y24277675D01*
X28938184Y24364669D01*
X28787050Y24395274D01*
X27986950Y24395274D01*
X27845760Y24368707D01*
X27716085Y24285264D01*
X27629091Y24157944D01*
X27619941Y24112760D01*
X27275832Y24112760D01*
X26773796Y24614796D01*
X26746552Y24633000D01*
X69938983Y24633000D01*
X70215195Y24578058D01*
G36*
X21729000Y2794000D02*
X21749000Y2794000D01*
X21749000Y2540000D01*
X21729000Y2540000D01*
X21729000Y2520000D01*
X21475000Y2520000D01*
X21475000Y2540000D01*
X21455000Y2540000D01*
X21455000Y2794000D01*
X21475000Y2794000D01*
X21475000Y2814000D01*
X21729000Y2814000D01*
X21729000Y2794000D01*
X21729000Y2794000D01*
G37*
X21729000Y2794000D02*
X21749000Y2794000D01*
X21749000Y2540000D01*
X21729000Y2540000D01*
X21729000Y2520000D01*
X21475000Y2520000D01*
X21475000Y2540000D01*
X21455000Y2540000D01*
X21455000Y2794000D01*
X21475000Y2794000D01*
X21475000Y2814000D01*
X21729000Y2814000D01*
X21729000Y2794000D01*
G36*
X51574000Y2794000D02*
X51594000Y2794000D01*
X51594000Y2540000D01*
X51574000Y2540000D01*
X51574000Y2520000D01*
X51320000Y2520000D01*
X51320000Y2540000D01*
X51300000Y2540000D01*
X51300000Y2794000D01*
X51320000Y2794000D01*
X51320000Y2814000D01*
X51574000Y2814000D01*
X51574000Y2794000D01*
X51574000Y2794000D01*
G37*
X51574000Y2794000D02*
X51594000Y2794000D01*
X51594000Y2540000D01*
X51574000Y2540000D01*
X51574000Y2520000D01*
X51320000Y2520000D01*
X51320000Y2540000D01*
X51300000Y2540000D01*
X51300000Y2794000D01*
X51320000Y2794000D01*
X51320000Y2814000D01*
X51574000Y2814000D01*
X51574000Y2794000D01*
G36*
X13753546Y3943135D02*
X13880866Y3856141D01*
X14032000Y3825536D01*
X14282000Y3825536D01*
X14411588Y3849920D01*
X14532000Y3825536D01*
X14782000Y3825536D01*
X14911588Y3849920D01*
X15032000Y3825536D01*
X15282000Y3825536D01*
X15411588Y3849920D01*
X15532000Y3825536D01*
X15782000Y3825536D01*
X15911588Y3849920D01*
X16032000Y3825536D01*
X16282000Y3825536D01*
X16411588Y3849920D01*
X16532000Y3825536D01*
X16782000Y3825536D01*
X16911588Y3849920D01*
X17032000Y3825536D01*
X17282000Y3825536D01*
X17411588Y3849920D01*
X17532000Y3825536D01*
X17782000Y3825536D01*
X17911588Y3849920D01*
X18032000Y3825536D01*
X18282000Y3825536D01*
X18411588Y3849920D01*
X18532000Y3825536D01*
X18782000Y3825536D01*
X18911588Y3849920D01*
X19032000Y3825536D01*
X19151000Y3825536D01*
X19151000Y3483592D01*
X18205408Y2538000D01*
X14684823Y2538000D01*
X14469464Y2749364D01*
X14469464Y3117000D01*
X14442897Y3258190D01*
X14359454Y3387865D01*
X14232134Y3474859D01*
X14081000Y3505464D01*
X13712000Y3505464D01*
X13712000Y4007700D01*
X13753546Y3943135D01*
X13753546Y3943135D01*
G37*
X13753546Y3943135D02*
X13880866Y3856141D01*
X14032000Y3825536D01*
X14282000Y3825536D01*
X14411588Y3849920D01*
X14532000Y3825536D01*
X14782000Y3825536D01*
X14911588Y3849920D01*
X15032000Y3825536D01*
X15282000Y3825536D01*
X15411588Y3849920D01*
X15532000Y3825536D01*
X15782000Y3825536D01*
X15911588Y3849920D01*
X16032000Y3825536D01*
X16282000Y3825536D01*
X16411588Y3849920D01*
X16532000Y3825536D01*
X16782000Y3825536D01*
X16911588Y3849920D01*
X17032000Y3825536D01*
X17282000Y3825536D01*
X17411588Y3849920D01*
X17532000Y3825536D01*
X17782000Y3825536D01*
X17911588Y3849920D01*
X18032000Y3825536D01*
X18282000Y3825536D01*
X18411588Y3849920D01*
X18532000Y3825536D01*
X18782000Y3825536D01*
X18911588Y3849920D01*
X19032000Y3825536D01*
X19151000Y3825536D01*
X19151000Y3483592D01*
X18205408Y2538000D01*
X14684823Y2538000D01*
X14469464Y2749364D01*
X14469464Y3117000D01*
X14442897Y3258190D01*
X14359454Y3387865D01*
X14232134Y3474859D01*
X14081000Y3505464D01*
X13712000Y3505464D01*
X13712000Y4007700D01*
X13753546Y3943135D01*
G36*
X64007998Y3983410D02*
X64007998Y3912252D01*
X63849250Y4071000D01*
X63633690Y4071000D01*
X63400301Y3974327D01*
X63221673Y3795698D01*
X63125000Y3562309D01*
X63125000Y3321750D01*
X63283750Y3163000D01*
X64008000Y3163000D01*
X64008000Y3183000D01*
X64262000Y3183000D01*
X64262000Y3163000D01*
X64282000Y3163000D01*
X64282000Y2909000D01*
X64262000Y2909000D01*
X64262000Y2889000D01*
X64008000Y2889000D01*
X64008000Y2909000D01*
X63283750Y2909000D01*
X63166750Y2792000D01*
X58121592Y2792000D01*
X57761796Y3151796D01*
X57597638Y3261483D01*
X57404000Y3300000D01*
X57257927Y3300000D01*
X57256798Y3306000D01*
X58412631Y3306000D01*
X58481815Y3236816D01*
X58686526Y3100032D01*
X58726589Y3092063D01*
X58928000Y3052000D01*
X60579000Y3052000D01*
X60820473Y3100032D01*
X61025184Y3236816D01*
X61406184Y3617815D01*
X61542968Y3822526D01*
X61556565Y3890882D01*
X61563822Y3927368D01*
X61626190Y3939103D01*
X61755865Y4022546D01*
X61842859Y4149866D01*
X61873464Y4301000D01*
X61873464Y5340356D01*
X61884358Y5351250D01*
X61870881Y5364727D01*
X61848774Y5482214D01*
X61985962Y5507575D01*
X62111248Y5880160D01*
X64007998Y3983410D01*
X64007998Y3983410D01*
G37*
X64007998Y3983410D02*
X64007998Y3912252D01*
X63849250Y4071000D01*
X63633690Y4071000D01*
X63400301Y3974327D01*
X63221673Y3795698D01*
X63125000Y3562309D01*
X63125000Y3321750D01*
X63283750Y3163000D01*
X64008000Y3163000D01*
X64008000Y3183000D01*
X64262000Y3183000D01*
X64262000Y3163000D01*
X64282000Y3163000D01*
X64282000Y2909000D01*
X64262000Y2909000D01*
X64262000Y2889000D01*
X64008000Y2889000D01*
X64008000Y2909000D01*
X63283750Y2909000D01*
X63166750Y2792000D01*
X58121592Y2792000D01*
X57761796Y3151796D01*
X57597638Y3261483D01*
X57404000Y3300000D01*
X57257927Y3300000D01*
X57256798Y3306000D01*
X58412631Y3306000D01*
X58481815Y3236816D01*
X58686526Y3100032D01*
X58726589Y3092063D01*
X58928000Y3052000D01*
X60579000Y3052000D01*
X60820473Y3100032D01*
X61025184Y3236816D01*
X61406184Y3617815D01*
X61542968Y3822526D01*
X61556565Y3890882D01*
X61563822Y3927368D01*
X61626190Y3939103D01*
X61755865Y4022546D01*
X61842859Y4149866D01*
X61873464Y4301000D01*
X61873464Y5340356D01*
X61884358Y5351250D01*
X61870881Y5364727D01*
X61848774Y5482214D01*
X61985962Y5507575D01*
X62111248Y5880160D01*
X64007998Y3983410D01*
G36*
X11799000Y4445000D02*
X11819000Y4445000D01*
X11819000Y4191000D01*
X11799000Y4191000D01*
X11799000Y3466750D01*
X11846741Y3419009D01*
X11810135Y3395454D01*
X11723141Y3268134D01*
X11703876Y3173000D01*
X11684000Y3173000D01*
X11490362Y3134483D01*
X11424000Y3090141D01*
X11424000Y3308309D01*
X11413034Y3334784D01*
X11545000Y3466750D01*
X11545000Y4191000D01*
X11525000Y4191000D01*
X11525000Y4445000D01*
X11545000Y4445000D01*
X11545000Y4465000D01*
X11799000Y4465000D01*
X11799000Y4445000D01*
X11799000Y4445000D01*
G37*
X11799000Y4445000D02*
X11819000Y4445000D01*
X11819000Y4191000D01*
X11799000Y4191000D01*
X11799000Y3466750D01*
X11846741Y3419009D01*
X11810135Y3395454D01*
X11723141Y3268134D01*
X11703876Y3173000D01*
X11684000Y3173000D01*
X11490362Y3134483D01*
X11424000Y3090141D01*
X11424000Y3308309D01*
X11413034Y3334784D01*
X11545000Y3466750D01*
X11545000Y4191000D01*
X11525000Y4191000D01*
X11525000Y4445000D01*
X11545000Y4445000D01*
X11545000Y4465000D01*
X11799000Y4465000D01*
X11799000Y4445000D01*
G36*
X9308750Y7354000D02*
X10033000Y7354000D01*
X10033000Y7374000D01*
X10287000Y7374000D01*
X10287000Y7354000D01*
X10307000Y7354000D01*
X10307000Y7100000D01*
X10287000Y7100000D01*
X10287000Y7080000D01*
X10033000Y7080000D01*
X10033000Y7100000D01*
X9308750Y7100000D01*
X9150000Y6941250D01*
X9150000Y6700691D01*
X9246673Y6467302D01*
X9425301Y6288673D01*
X9432348Y6285754D01*
X9427141Y6278134D01*
X9400221Y6145199D01*
X9346062Y6064144D01*
X9332387Y5995393D01*
X9299901Y6032498D01*
X9196260Y6083715D01*
X9100144Y6147938D01*
X9043504Y6159204D01*
X8991728Y6184791D01*
X8876376Y6192448D01*
X8763000Y6215000D01*
X8706361Y6203734D01*
X8648734Y6207559D01*
X8539234Y6170490D01*
X8425856Y6147938D01*
X8377837Y6115853D01*
X8323136Y6097335D01*
X8063052Y5947464D01*
X5818000Y5947464D01*
X5676810Y5920897D01*
X5547135Y5837454D01*
X5517358Y5793874D01*
X5388694Y5707903D01*
X5498794Y5973054D01*
X5499204Y6442885D01*
X5319787Y6877109D01*
X5083308Y7114000D01*
X5429536Y7114000D01*
X5429536Y6959000D01*
X5456103Y6817810D01*
X5539546Y6688135D01*
X5666866Y6601141D01*
X5818000Y6570536D01*
X8318000Y6570536D01*
X8459190Y6597103D01*
X8588865Y6680546D01*
X8675859Y6807866D01*
X8706464Y6959000D01*
X8706464Y7039095D01*
X8718638Y7041517D01*
X8882796Y7151204D01*
X9197171Y7465579D01*
X9308750Y7354000D01*
X9308750Y7354000D01*
G37*
X9308750Y7354000D02*
X10033000Y7354000D01*
X10033000Y7374000D01*
X10287000Y7374000D01*
X10287000Y7354000D01*
X10307000Y7354000D01*
X10307000Y7100000D01*
X10287000Y7100000D01*
X10287000Y7080000D01*
X10033000Y7080000D01*
X10033000Y7100000D01*
X9308750Y7100000D01*
X9150000Y6941250D01*
X9150000Y6700691D01*
X9246673Y6467302D01*
X9425301Y6288673D01*
X9432348Y6285754D01*
X9427141Y6278134D01*
X9400221Y6145199D01*
X9346062Y6064144D01*
X9332387Y5995393D01*
X9299901Y6032498D01*
X9196260Y6083715D01*
X9100144Y6147938D01*
X9043504Y6159204D01*
X8991728Y6184791D01*
X8876376Y6192448D01*
X8763000Y6215000D01*
X8706361Y6203734D01*
X8648734Y6207559D01*
X8539234Y6170490D01*
X8425856Y6147938D01*
X8377837Y6115853D01*
X8323136Y6097335D01*
X8063052Y5947464D01*
X5818000Y5947464D01*
X5676810Y5920897D01*
X5547135Y5837454D01*
X5517358Y5793874D01*
X5388694Y5707903D01*
X5498794Y5973054D01*
X5499204Y6442885D01*
X5319787Y6877109D01*
X5083308Y7114000D01*
X5429536Y7114000D01*
X5429536Y6959000D01*
X5456103Y6817810D01*
X5539546Y6688135D01*
X5666866Y6601141D01*
X5818000Y6570536D01*
X8318000Y6570536D01*
X8459190Y6597103D01*
X8588865Y6680546D01*
X8675859Y6807866D01*
X8706464Y6959000D01*
X8706464Y7039095D01*
X8718638Y7041517D01*
X8882796Y7151204D01*
X9197171Y7465579D01*
X9308750Y7354000D01*
G36*
X30419748Y6110142D02*
X30405605Y6096000D01*
X30419748Y6081858D01*
X30240143Y5902252D01*
X30226000Y5916395D01*
X30211858Y5902252D01*
X30032253Y6081857D01*
X30046395Y6096000D01*
X30032253Y6110142D01*
X30118008Y6195898D01*
X30320160Y6209730D01*
X30419748Y6110142D01*
X30419748Y6110142D01*
G37*
X30419748Y6110142D02*
X30405605Y6096000D01*
X30419748Y6081858D01*
X30240143Y5902252D01*
X30226000Y5916395D01*
X30211858Y5902252D01*
X30032253Y6081857D01*
X30046395Y6096000D01*
X30032253Y6110142D01*
X30118008Y6195898D01*
X30320160Y6209730D01*
X30419748Y6110142D01*
G36*
X61153748Y6110142D02*
X61139605Y6096000D01*
X61153748Y6081858D01*
X60974143Y5902252D01*
X60960000Y5916395D01*
X60945858Y5902252D01*
X60766253Y6081857D01*
X60780395Y6096000D01*
X60766253Y6110142D01*
X60852008Y6195898D01*
X61054160Y6209730D01*
X61153748Y6110142D01*
X61153748Y6110142D01*
G37*
X61153748Y6110142D02*
X61139605Y6096000D01*
X61153748Y6081858D01*
X60974143Y5902252D01*
X60960000Y5916395D01*
X60945858Y5902252D01*
X60766253Y6081857D01*
X60780395Y6096000D01*
X60766253Y6110142D01*
X60852008Y6195898D01*
X61054160Y6209730D01*
X61153748Y6110142D01*
G36*
X38896078Y13071000D02*
X38750750Y13071000D01*
X38592000Y12912250D01*
X38592000Y11938000D01*
X39441250Y11938000D01*
X39600000Y12096750D01*
X39600000Y12367078D01*
X39878039Y12089039D01*
X40163856Y11898062D01*
X40501000Y11831000D01*
X40894000Y11831000D01*
X41231144Y11898062D01*
X41269374Y11923606D01*
X41410190Y11950103D01*
X41539865Y12033546D01*
X41626859Y12160866D01*
X41653779Y12293801D01*
X41707938Y12374856D01*
X41764259Y12658000D01*
X42052536Y12658000D01*
X42052536Y12539000D01*
X42076920Y12409412D01*
X42052536Y12289000D01*
X42052536Y12039000D01*
X42076920Y11909412D01*
X42052536Y11789000D01*
X42052536Y11539000D01*
X42076920Y11409412D01*
X42052536Y11289000D01*
X42052536Y11039000D01*
X42076920Y10909412D01*
X42052536Y10789000D01*
X42052536Y10539000D01*
X42076920Y10409412D01*
X42052536Y10289000D01*
X42052536Y10039000D01*
X42076920Y9909412D01*
X42052536Y9789000D01*
X42052536Y9539000D01*
X42076920Y9409412D01*
X42054964Y9300989D01*
X41902673Y9148699D01*
X41806000Y8915310D01*
X41806000Y8885250D01*
X41964750Y8726500D01*
X42223481Y8726500D01*
X42289866Y8681141D01*
X42372072Y8664494D01*
X42299810Y8650897D01*
X42223044Y8601500D01*
X41964750Y8601500D01*
X41806000Y8442750D01*
X41806000Y8412690D01*
X41902673Y8179301D01*
X41911974Y8170000D01*
X41833592Y8170000D01*
X41657464Y8346128D01*
X41657464Y8794000D01*
X41630897Y8935190D01*
X41620028Y8952081D01*
X41628699Y8955673D01*
X41807327Y9134302D01*
X41904000Y9367691D01*
X41904000Y9608250D01*
X41745250Y9767000D01*
X41021000Y9767000D01*
X41021000Y9747000D01*
X40767000Y9747000D01*
X40767000Y9767000D01*
X40042750Y9767000D01*
X39884000Y9608250D01*
X39884000Y9367691D01*
X39980673Y9134302D01*
X40159301Y8955673D01*
X40166348Y8952754D01*
X40161141Y8945134D01*
X40130536Y8794000D01*
X40130536Y7994000D01*
X40148184Y7900210D01*
X39980673Y7732698D01*
X39884000Y7499309D01*
X39884000Y7258750D01*
X40042750Y7100000D01*
X40767000Y7100000D01*
X40767000Y7120000D01*
X41021000Y7120000D01*
X41021000Y7100000D01*
X41041000Y7100000D01*
X41041000Y6846000D01*
X41021000Y6846000D01*
X41021000Y6826000D01*
X40767000Y6826000D01*
X40767000Y6846000D01*
X40042750Y6846000D01*
X39884000Y6687250D01*
X39884000Y6446691D01*
X39922394Y6354000D01*
X39468922Y6354000D01*
X38453086Y7369836D01*
X38481000Y7397750D01*
X38481000Y8763000D01*
X38735000Y8763000D01*
X38735000Y7397750D01*
X38893750Y7239000D01*
X39242309Y7239000D01*
X39475698Y7335673D01*
X39654327Y7514301D01*
X39751000Y7747690D01*
X39751000Y8604250D01*
X39592250Y8763000D01*
X38735000Y8763000D01*
X38481000Y8763000D01*
X37623750Y8763000D01*
X37465000Y8604250D01*
X37465000Y8357922D01*
X37218464Y8604458D01*
X37218464Y9906000D01*
X37203000Y9988183D01*
X37203000Y10032310D01*
X37465000Y10032310D01*
X37465000Y9175750D01*
X37623750Y9017000D01*
X38481000Y9017000D01*
X38481000Y10382250D01*
X38735000Y10382250D01*
X38735000Y9017000D01*
X39592250Y9017000D01*
X39751000Y9175750D01*
X39751000Y10032310D01*
X39654327Y10265699D01*
X39499717Y10420309D01*
X39884000Y10420309D01*
X39884000Y10179750D01*
X40042750Y10021000D01*
X40767000Y10021000D01*
X40767000Y10770250D01*
X41021000Y10770250D01*
X41021000Y10021000D01*
X41745250Y10021000D01*
X41904000Y10179750D01*
X41904000Y10420309D01*
X41807327Y10653698D01*
X41628699Y10832327D01*
X41395310Y10929000D01*
X41179750Y10929000D01*
X41021000Y10770250D01*
X40767000Y10770250D01*
X40608250Y10929000D01*
X40392690Y10929000D01*
X40159301Y10832327D01*
X39980673Y10653698D01*
X39884000Y10420309D01*
X39499717Y10420309D01*
X39475698Y10444327D01*
X39242309Y10541000D01*
X38893750Y10541000D01*
X38735000Y10382250D01*
X38481000Y10382250D01*
X38322250Y10541000D01*
X37973691Y10541000D01*
X37740302Y10444327D01*
X37561673Y10265699D01*
X37465000Y10032310D01*
X37203000Y10032310D01*
X37203000Y10886398D01*
X37235865Y10907546D01*
X37322859Y11034866D01*
X37330000Y11070130D01*
X37330000Y11059690D01*
X37426673Y10826301D01*
X37605302Y10647673D01*
X37838691Y10551000D01*
X38179250Y10551000D01*
X38338000Y10709750D01*
X38338000Y11684000D01*
X38592000Y11684000D01*
X38592000Y10709750D01*
X38750750Y10551000D01*
X39091309Y10551000D01*
X39324698Y10647673D01*
X39503327Y10826301D01*
X39600000Y11059690D01*
X39600000Y11525250D01*
X39441250Y11684000D01*
X38592000Y11684000D01*
X38338000Y11684000D01*
X38318000Y11684000D01*
X38318000Y11938000D01*
X38338000Y11938000D01*
X38338000Y12912250D01*
X38179250Y13071000D01*
X37838691Y13071000D01*
X37605302Y12974327D01*
X37426673Y12795699D01*
X37346000Y12600937D01*
X37346000Y13708000D01*
X38259078Y13708000D01*
X38896078Y13071000D01*
X38896078Y13071000D01*
G37*
X38896078Y13071000D02*
X38750750Y13071000D01*
X38592000Y12912250D01*
X38592000Y11938000D01*
X39441250Y11938000D01*
X39600000Y12096750D01*
X39600000Y12367078D01*
X39878039Y12089039D01*
X40163856Y11898062D01*
X40501000Y11831000D01*
X40894000Y11831000D01*
X41231144Y11898062D01*
X41269374Y11923606D01*
X41410190Y11950103D01*
X41539865Y12033546D01*
X41626859Y12160866D01*
X41653779Y12293801D01*
X41707938Y12374856D01*
X41764259Y12658000D01*
X42052536Y12658000D01*
X42052536Y12539000D01*
X42076920Y12409412D01*
X42052536Y12289000D01*
X42052536Y12039000D01*
X42076920Y11909412D01*
X42052536Y11789000D01*
X42052536Y11539000D01*
X42076920Y11409412D01*
X42052536Y11289000D01*
X42052536Y11039000D01*
X42076920Y10909412D01*
X42052536Y10789000D01*
X42052536Y10539000D01*
X42076920Y10409412D01*
X42052536Y10289000D01*
X42052536Y10039000D01*
X42076920Y9909412D01*
X42052536Y9789000D01*
X42052536Y9539000D01*
X42076920Y9409412D01*
X42054964Y9300989D01*
X41902673Y9148699D01*
X41806000Y8915310D01*
X41806000Y8885250D01*
X41964750Y8726500D01*
X42223481Y8726500D01*
X42289866Y8681141D01*
X42372072Y8664494D01*
X42299810Y8650897D01*
X42223044Y8601500D01*
X41964750Y8601500D01*
X41806000Y8442750D01*
X41806000Y8412690D01*
X41902673Y8179301D01*
X41911974Y8170000D01*
X41833592Y8170000D01*
X41657464Y8346128D01*
X41657464Y8794000D01*
X41630897Y8935190D01*
X41620028Y8952081D01*
X41628699Y8955673D01*
X41807327Y9134302D01*
X41904000Y9367691D01*
X41904000Y9608250D01*
X41745250Y9767000D01*
X41021000Y9767000D01*
X41021000Y9747000D01*
X40767000Y9747000D01*
X40767000Y9767000D01*
X40042750Y9767000D01*
X39884000Y9608250D01*
X39884000Y9367691D01*
X39980673Y9134302D01*
X40159301Y8955673D01*
X40166348Y8952754D01*
X40161141Y8945134D01*
X40130536Y8794000D01*
X40130536Y7994000D01*
X40148184Y7900210D01*
X39980673Y7732698D01*
X39884000Y7499309D01*
X39884000Y7258750D01*
X40042750Y7100000D01*
X40767000Y7100000D01*
X40767000Y7120000D01*
X41021000Y7120000D01*
X41021000Y7100000D01*
X41041000Y7100000D01*
X41041000Y6846000D01*
X41021000Y6846000D01*
X41021000Y6826000D01*
X40767000Y6826000D01*
X40767000Y6846000D01*
X40042750Y6846000D01*
X39884000Y6687250D01*
X39884000Y6446691D01*
X39922394Y6354000D01*
X39468922Y6354000D01*
X38453086Y7369836D01*
X38481000Y7397750D01*
X38481000Y8763000D01*
X38735000Y8763000D01*
X38735000Y7397750D01*
X38893750Y7239000D01*
X39242309Y7239000D01*
X39475698Y7335673D01*
X39654327Y7514301D01*
X39751000Y7747690D01*
X39751000Y8604250D01*
X39592250Y8763000D01*
X38735000Y8763000D01*
X38481000Y8763000D01*
X37623750Y8763000D01*
X37465000Y8604250D01*
X37465000Y8357922D01*
X37218464Y8604458D01*
X37218464Y9906000D01*
X37203000Y9988183D01*
X37203000Y10032310D01*
X37465000Y10032310D01*
X37465000Y9175750D01*
X37623750Y9017000D01*
X38481000Y9017000D01*
X38481000Y10382250D01*
X38735000Y10382250D01*
X38735000Y9017000D01*
X39592250Y9017000D01*
X39751000Y9175750D01*
X39751000Y10032310D01*
X39654327Y10265699D01*
X39499717Y10420309D01*
X39884000Y10420309D01*
X39884000Y10179750D01*
X40042750Y10021000D01*
X40767000Y10021000D01*
X40767000Y10770250D01*
X41021000Y10770250D01*
X41021000Y10021000D01*
X41745250Y10021000D01*
X41904000Y10179750D01*
X41904000Y10420309D01*
X41807327Y10653698D01*
X41628699Y10832327D01*
X41395310Y10929000D01*
X41179750Y10929000D01*
X41021000Y10770250D01*
X40767000Y10770250D01*
X40608250Y10929000D01*
X40392690Y10929000D01*
X40159301Y10832327D01*
X39980673Y10653698D01*
X39884000Y10420309D01*
X39499717Y10420309D01*
X39475698Y10444327D01*
X39242309Y10541000D01*
X38893750Y10541000D01*
X38735000Y10382250D01*
X38481000Y10382250D01*
X38322250Y10541000D01*
X37973691Y10541000D01*
X37740302Y10444327D01*
X37561673Y10265699D01*
X37465000Y10032310D01*
X37203000Y10032310D01*
X37203000Y10886398D01*
X37235865Y10907546D01*
X37322859Y11034866D01*
X37330000Y11070130D01*
X37330000Y11059690D01*
X37426673Y10826301D01*
X37605302Y10647673D01*
X37838691Y10551000D01*
X38179250Y10551000D01*
X38338000Y10709750D01*
X38338000Y11684000D01*
X38592000Y11684000D01*
X38592000Y10709750D01*
X38750750Y10551000D01*
X39091309Y10551000D01*
X39324698Y10647673D01*
X39503327Y10826301D01*
X39600000Y11059690D01*
X39600000Y11525250D01*
X39441250Y11684000D01*
X38592000Y11684000D01*
X38338000Y11684000D01*
X38318000Y11684000D01*
X38318000Y11938000D01*
X38338000Y11938000D01*
X38338000Y12912250D01*
X38179250Y13071000D01*
X37838691Y13071000D01*
X37605302Y12974327D01*
X37426673Y12795699D01*
X37346000Y12600937D01*
X37346000Y13708000D01*
X38259078Y13708000D01*
X38896078Y13071000D01*
G36*
X58783843Y7186576D02*
X58921482Y6853462D01*
X59043721Y6731010D01*
X58922378Y6609878D01*
X58919107Y6602000D01*
X57412653Y6602000D01*
X57473000Y6747691D01*
X57473000Y6840250D01*
X57314250Y6999000D01*
X56515000Y6999000D01*
X56515000Y6977000D01*
X56261000Y6977000D01*
X56261000Y6999000D01*
X56241000Y6999000D01*
X56241000Y7249000D01*
X56261000Y7249000D01*
X56261000Y7271000D01*
X56515000Y7271000D01*
X56515000Y7249000D01*
X57314250Y7249000D01*
X57433250Y7368000D01*
X58547000Y7368000D01*
X58740638Y7406517D01*
X58784060Y7435531D01*
X58783843Y7186576D01*
X58783843Y7186576D01*
G37*
X58783843Y7186576D02*
X58921482Y6853462D01*
X59043721Y6731010D01*
X58922378Y6609878D01*
X58919107Y6602000D01*
X57412653Y6602000D01*
X57473000Y6747691D01*
X57473000Y6840250D01*
X57314250Y6999000D01*
X56515000Y6999000D01*
X56515000Y6977000D01*
X56261000Y6977000D01*
X56261000Y6999000D01*
X56241000Y6999000D01*
X56241000Y7249000D01*
X56261000Y7249000D01*
X56261000Y7271000D01*
X56515000Y7271000D01*
X56515000Y7249000D01*
X57314250Y7249000D01*
X57433250Y7368000D01*
X58547000Y7368000D01*
X58740638Y7406517D01*
X58784060Y7435531D01*
X58783843Y7186576D01*
G36*
X28050157Y7547005D02*
X28049843Y7186576D01*
X28187482Y6853462D01*
X28309721Y6731010D01*
X28188378Y6609878D01*
X28185107Y6602000D01*
X26603026Y6602000D01*
X26769327Y6768302D01*
X26866000Y7001691D01*
X26866000Y7094250D01*
X26707250Y7253000D01*
X25908000Y7253000D01*
X25908000Y7231000D01*
X25654000Y7231000D01*
X25654000Y7253000D01*
X25634000Y7253000D01*
X25634000Y7503000D01*
X25654000Y7503000D01*
X25654000Y7525000D01*
X25908000Y7525000D01*
X25908000Y7503000D01*
X26707250Y7503000D01*
X26826250Y7622000D01*
X28081298Y7622000D01*
X28050157Y7547005D01*
X28050157Y7547005D01*
G37*
X28050157Y7547005D02*
X28049843Y7186576D01*
X28187482Y6853462D01*
X28309721Y6731010D01*
X28188378Y6609878D01*
X28185107Y6602000D01*
X26603026Y6602000D01*
X26769327Y6768302D01*
X26866000Y7001691D01*
X26866000Y7094250D01*
X26707250Y7253000D01*
X25908000Y7253000D01*
X25908000Y7231000D01*
X25654000Y7231000D01*
X25654000Y7253000D01*
X25634000Y7253000D01*
X25634000Y7503000D01*
X25654000Y7503000D01*
X25654000Y7525000D01*
X25908000Y7525000D01*
X25908000Y7503000D01*
X26707250Y7503000D01*
X26826250Y7622000D01*
X28081298Y7622000D01*
X28050157Y7547005D01*
G36*
X21090000Y10655922D02*
X17411078Y6977000D01*
X13335000Y6977000D01*
X13312271Y6972479D01*
X13183250Y7101500D01*
X12924519Y7101500D01*
X12858134Y7146859D01*
X12775928Y7163506D01*
X12848190Y7177103D01*
X12924956Y7226500D01*
X13183250Y7226500D01*
X13342000Y7385250D01*
X13342000Y7415310D01*
X13245327Y7648699D01*
X13093248Y7800777D01*
X13071080Y7918588D01*
X13093036Y8027011D01*
X13245327Y8179301D01*
X13342000Y8412690D01*
X13342000Y8442750D01*
X13183250Y8601500D01*
X12924519Y8601500D01*
X12858134Y8646859D01*
X12775928Y8663506D01*
X12848190Y8677103D01*
X12924956Y8726500D01*
X13183250Y8726500D01*
X13342000Y8885250D01*
X13342000Y8915310D01*
X13245327Y9148699D01*
X13093248Y9300777D01*
X13071080Y9418588D01*
X13095464Y9539000D01*
X13095464Y9789000D01*
X13071080Y9918588D01*
X13095464Y10039000D01*
X13095464Y10191944D01*
X13231204Y10056204D01*
X13395362Y9946517D01*
X13589000Y9908000D01*
X18586408Y9908000D01*
X18622969Y9871439D01*
X18622882Y9771135D01*
X18726339Y9520748D01*
X18917741Y9329013D01*
X19167946Y9225118D01*
X19438865Y9224882D01*
X19689252Y9328339D01*
X19880987Y9519741D01*
X19984882Y9769946D01*
X19984960Y9859959D01*
X20073865Y9859882D01*
X20324252Y9963339D01*
X20515987Y10154741D01*
X20619882Y10404946D01*
X20620118Y10675865D01*
X20516661Y10926252D01*
X20439930Y11003116D01*
X20708865Y11002882D01*
X20959252Y11106339D01*
X21090000Y11236860D01*
X21090000Y10655922D01*
X21090000Y10655922D01*
G37*
X21090000Y10655922D02*
X17411078Y6977000D01*
X13335000Y6977000D01*
X13312271Y6972479D01*
X13183250Y7101500D01*
X12924519Y7101500D01*
X12858134Y7146859D01*
X12775928Y7163506D01*
X12848190Y7177103D01*
X12924956Y7226500D01*
X13183250Y7226500D01*
X13342000Y7385250D01*
X13342000Y7415310D01*
X13245327Y7648699D01*
X13093248Y7800777D01*
X13071080Y7918588D01*
X13093036Y8027011D01*
X13245327Y8179301D01*
X13342000Y8412690D01*
X13342000Y8442750D01*
X13183250Y8601500D01*
X12924519Y8601500D01*
X12858134Y8646859D01*
X12775928Y8663506D01*
X12848190Y8677103D01*
X12924956Y8726500D01*
X13183250Y8726500D01*
X13342000Y8885250D01*
X13342000Y8915310D01*
X13245327Y9148699D01*
X13093248Y9300777D01*
X13071080Y9418588D01*
X13095464Y9539000D01*
X13095464Y9789000D01*
X13071080Y9918588D01*
X13095464Y10039000D01*
X13095464Y10191944D01*
X13231204Y10056204D01*
X13395362Y9946517D01*
X13589000Y9908000D01*
X18586408Y9908000D01*
X18622969Y9871439D01*
X18622882Y9771135D01*
X18726339Y9520748D01*
X18917741Y9329013D01*
X19167946Y9225118D01*
X19438865Y9224882D01*
X19689252Y9328339D01*
X19880987Y9519741D01*
X19984882Y9769946D01*
X19984960Y9859959D01*
X20073865Y9859882D01*
X20324252Y9963339D01*
X20515987Y10154741D01*
X20619882Y10404946D01*
X20620118Y10675865D01*
X20516661Y10926252D01*
X20439930Y11003116D01*
X20708865Y11002882D01*
X20959252Y11106339D01*
X21090000Y11236860D01*
X21090000Y10655922D01*
G36*
X51266000Y15225536D02*
X51423482Y15225536D01*
X51423517Y15225362D01*
X51533204Y15061204D01*
X51712204Y14882204D01*
X51876362Y14772517D01*
X52070000Y14734000D01*
X52260561Y14734000D01*
X52145062Y14561144D01*
X52078000Y14224000D01*
X52078000Y10651922D01*
X49292078Y7866000D01*
X45085000Y7866000D01*
X44747856Y7798938D01*
X44462039Y7607961D01*
X44076000Y7221922D01*
X44076000Y7291002D01*
X43981752Y7291002D01*
X44076000Y7385250D01*
X44076000Y7415310D01*
X43979327Y7648699D01*
X43827248Y7800777D01*
X43805080Y7918588D01*
X43827036Y8027011D01*
X43979327Y8179301D01*
X44076000Y8412690D01*
X44076000Y8442750D01*
X43917250Y8601500D01*
X43658519Y8601500D01*
X43592134Y8646859D01*
X43509928Y8663506D01*
X43582190Y8677103D01*
X43658956Y8726500D01*
X43917250Y8726500D01*
X44076000Y8885250D01*
X44076000Y8915310D01*
X43979327Y9148699D01*
X43827248Y9300777D01*
X43805080Y9418588D01*
X43829464Y9539000D01*
X43829464Y9789000D01*
X43805080Y9918588D01*
X43829464Y10039000D01*
X43829464Y10196284D01*
X43838204Y10183204D01*
X44473204Y9548204D01*
X44504686Y9527168D01*
X44507339Y9520748D01*
X44698741Y9329013D01*
X44948946Y9225118D01*
X45219865Y9224882D01*
X45470252Y9328339D01*
X45661987Y9519741D01*
X45765882Y9769946D01*
X45766118Y10040865D01*
X45662661Y10291252D01*
X45476691Y10477546D01*
X45534987Y10535741D01*
X45638882Y10785946D01*
X45639118Y11056865D01*
X45535661Y11307252D01*
X45413080Y11430046D01*
X45534987Y11551741D01*
X45638882Y11801946D01*
X45639078Y12027000D01*
X45815250Y12027000D01*
X45974000Y12185750D01*
X45974000Y12773536D01*
X46228000Y12773536D01*
X46228000Y12185750D01*
X46386750Y12027000D01*
X46827310Y12027000D01*
X46926500Y12068086D01*
X47025690Y12027000D01*
X47466250Y12027000D01*
X47625000Y12185750D01*
X47625000Y12773536D01*
X47879000Y12773536D01*
X47879000Y12185750D01*
X48037750Y12027000D01*
X48478310Y12027000D01*
X48514000Y12041783D01*
X48549690Y12027000D01*
X48990250Y12027000D01*
X49149000Y12185750D01*
X49149000Y12773536D01*
X49403000Y12773536D01*
X49403000Y12185750D01*
X49561750Y12027000D01*
X50002310Y12027000D01*
X50038000Y12041783D01*
X50073690Y12027000D01*
X50514250Y12027000D01*
X50673000Y12185750D01*
X50673000Y12773536D01*
X50927000Y12773536D01*
X50927000Y12185750D01*
X51085750Y12027000D01*
X51526310Y12027000D01*
X51759699Y12123673D01*
X51938327Y12302302D01*
X52035000Y12535691D01*
X52035000Y12676250D01*
X51876250Y12835000D01*
X51145422Y12835000D01*
X51220865Y12883546D01*
X51307859Y13010866D01*
X51323681Y13089000D01*
X51876250Y13089000D01*
X52035000Y13247750D01*
X52035000Y13388309D01*
X51938327Y13621698D01*
X51788464Y13771562D01*
X51788464Y14262000D01*
X51761897Y14403190D01*
X51678454Y14532865D01*
X51551134Y14619859D01*
X51400000Y14650464D01*
X51306000Y14650464D01*
X51306000Y14859000D01*
X51267483Y15052638D01*
X51157796Y15216796D01*
X51127984Y15246608D01*
X51145588Y15249920D01*
X51266000Y15225536D01*
X51266000Y15225536D01*
G37*
X51266000Y15225536D02*
X51423482Y15225536D01*
X51423517Y15225362D01*
X51533204Y15061204D01*
X51712204Y14882204D01*
X51876362Y14772517D01*
X52070000Y14734000D01*
X52260561Y14734000D01*
X52145062Y14561144D01*
X52078000Y14224000D01*
X52078000Y10651922D01*
X49292078Y7866000D01*
X45085000Y7866000D01*
X44747856Y7798938D01*
X44462039Y7607961D01*
X44076000Y7221922D01*
X44076000Y7291002D01*
X43981752Y7291002D01*
X44076000Y7385250D01*
X44076000Y7415310D01*
X43979327Y7648699D01*
X43827248Y7800777D01*
X43805080Y7918588D01*
X43827036Y8027011D01*
X43979327Y8179301D01*
X44076000Y8412690D01*
X44076000Y8442750D01*
X43917250Y8601500D01*
X43658519Y8601500D01*
X43592134Y8646859D01*
X43509928Y8663506D01*
X43582190Y8677103D01*
X43658956Y8726500D01*
X43917250Y8726500D01*
X44076000Y8885250D01*
X44076000Y8915310D01*
X43979327Y9148699D01*
X43827248Y9300777D01*
X43805080Y9418588D01*
X43829464Y9539000D01*
X43829464Y9789000D01*
X43805080Y9918588D01*
X43829464Y10039000D01*
X43829464Y10196284D01*
X43838204Y10183204D01*
X44473204Y9548204D01*
X44504686Y9527168D01*
X44507339Y9520748D01*
X44698741Y9329013D01*
X44948946Y9225118D01*
X45219865Y9224882D01*
X45470252Y9328339D01*
X45661987Y9519741D01*
X45765882Y9769946D01*
X45766118Y10040865D01*
X45662661Y10291252D01*
X45476691Y10477546D01*
X45534987Y10535741D01*
X45638882Y10785946D01*
X45639118Y11056865D01*
X45535661Y11307252D01*
X45413080Y11430046D01*
X45534987Y11551741D01*
X45638882Y11801946D01*
X45639078Y12027000D01*
X45815250Y12027000D01*
X45974000Y12185750D01*
X45974000Y12773536D01*
X46228000Y12773536D01*
X46228000Y12185750D01*
X46386750Y12027000D01*
X46827310Y12027000D01*
X46926500Y12068086D01*
X47025690Y12027000D01*
X47466250Y12027000D01*
X47625000Y12185750D01*
X47625000Y12773536D01*
X47879000Y12773536D01*
X47879000Y12185750D01*
X48037750Y12027000D01*
X48478310Y12027000D01*
X48514000Y12041783D01*
X48549690Y12027000D01*
X48990250Y12027000D01*
X49149000Y12185750D01*
X49149000Y12773536D01*
X49403000Y12773536D01*
X49403000Y12185750D01*
X49561750Y12027000D01*
X50002310Y12027000D01*
X50038000Y12041783D01*
X50073690Y12027000D01*
X50514250Y12027000D01*
X50673000Y12185750D01*
X50673000Y12773536D01*
X50927000Y12773536D01*
X50927000Y12185750D01*
X51085750Y12027000D01*
X51526310Y12027000D01*
X51759699Y12123673D01*
X51938327Y12302302D01*
X52035000Y12535691D01*
X52035000Y12676250D01*
X51876250Y12835000D01*
X51145422Y12835000D01*
X51220865Y12883546D01*
X51307859Y13010866D01*
X51323681Y13089000D01*
X51876250Y13089000D01*
X52035000Y13247750D01*
X52035000Y13388309D01*
X51938327Y13621698D01*
X51788464Y13771562D01*
X51788464Y14262000D01*
X51761897Y14403190D01*
X51678454Y14532865D01*
X51551134Y14619859D01*
X51400000Y14650464D01*
X51306000Y14650464D01*
X51306000Y14859000D01*
X51267483Y15052638D01*
X51157796Y15216796D01*
X51127984Y15246608D01*
X51145588Y15249920D01*
X51266000Y15225536D01*
G36*
X61153748Y7380142D02*
X61139605Y7366000D01*
X61153748Y7351857D01*
X61067992Y7266102D01*
X60865840Y7252270D01*
X60766253Y7351857D01*
X60780395Y7366000D01*
X60766253Y7380142D01*
X60852008Y7465898D01*
X61054160Y7479730D01*
X61153748Y7380142D01*
X61153748Y7380142D01*
G37*
X61153748Y7380142D02*
X61139605Y7366000D01*
X61153748Y7351857D01*
X61067992Y7266102D01*
X60865840Y7252270D01*
X60766253Y7351857D01*
X60780395Y7366000D01*
X60766253Y7380142D01*
X60852008Y7465898D01*
X61054160Y7479730D01*
X61153748Y7380142D01*
G36*
X30419748Y7380142D02*
X30405605Y7366000D01*
X30419748Y7351857D01*
X30333992Y7266102D01*
X30131840Y7252270D01*
X30032253Y7351857D01*
X30046395Y7366000D01*
X30032253Y7380142D01*
X30118008Y7465898D01*
X30320160Y7479730D01*
X30419748Y7380142D01*
X30419748Y7380142D01*
G37*
X30419748Y7380142D02*
X30405605Y7366000D01*
X30419748Y7351857D01*
X30333992Y7266102D01*
X30131840Y7252270D01*
X30032253Y7351857D01*
X30046395Y7366000D01*
X30032253Y7380142D01*
X30118008Y7465898D01*
X30320160Y7479730D01*
X30419748Y7380142D01*
G36*
X9785000Y13447536D02*
X10232872Y13447536D01*
X10874204Y12806204D01*
X11038362Y12696517D01*
X11232000Y12658000D01*
X11318536Y12658000D01*
X11318536Y12539000D01*
X11342920Y12409412D01*
X11318536Y12289000D01*
X11318536Y12039000D01*
X11342920Y11909412D01*
X11318536Y11789000D01*
X11318536Y11539000D01*
X11342920Y11409412D01*
X11318536Y11289000D01*
X11318536Y11039000D01*
X11342920Y10909412D01*
X11318536Y10789000D01*
X11318536Y10539000D01*
X11342920Y10409412D01*
X11318536Y10289000D01*
X11318536Y10039000D01*
X11342920Y9909412D01*
X11318536Y9789000D01*
X11318536Y9539000D01*
X11342920Y9409412D01*
X11320964Y9300989D01*
X11168673Y9148699D01*
X11072000Y8915310D01*
X11072000Y8885250D01*
X11230750Y8726500D01*
X11489481Y8726500D01*
X11555866Y8681141D01*
X11638072Y8664494D01*
X11565810Y8650897D01*
X11489044Y8601500D01*
X11230750Y8601500D01*
X11076421Y8447171D01*
X10923464Y8600128D01*
X10923464Y9048000D01*
X10896897Y9189190D01*
X10886028Y9206081D01*
X10894699Y9209673D01*
X11073327Y9388302D01*
X11170000Y9621691D01*
X11170000Y9862250D01*
X11011250Y10021000D01*
X10287000Y10021000D01*
X10287000Y10001000D01*
X10033000Y10001000D01*
X10033000Y10021000D01*
X10013000Y10021000D01*
X10013000Y10275000D01*
X10033000Y10275000D01*
X10033000Y11024250D01*
X10287000Y11024250D01*
X10287000Y10275000D01*
X11011250Y10275000D01*
X11170000Y10433750D01*
X11170000Y10674309D01*
X11073327Y10907698D01*
X10894699Y11086327D01*
X10661310Y11183000D01*
X10445750Y11183000D01*
X10287000Y11024250D01*
X10033000Y11024250D01*
X9874250Y11183000D01*
X9777000Y11183000D01*
X9777000Y13449156D01*
X9785000Y13447536D01*
X9785000Y13447536D01*
G37*
X9785000Y13447536D02*
X10232872Y13447536D01*
X10874204Y12806204D01*
X11038362Y12696517D01*
X11232000Y12658000D01*
X11318536Y12658000D01*
X11318536Y12539000D01*
X11342920Y12409412D01*
X11318536Y12289000D01*
X11318536Y12039000D01*
X11342920Y11909412D01*
X11318536Y11789000D01*
X11318536Y11539000D01*
X11342920Y11409412D01*
X11318536Y11289000D01*
X11318536Y11039000D01*
X11342920Y10909412D01*
X11318536Y10789000D01*
X11318536Y10539000D01*
X11342920Y10409412D01*
X11318536Y10289000D01*
X11318536Y10039000D01*
X11342920Y9909412D01*
X11318536Y9789000D01*
X11318536Y9539000D01*
X11342920Y9409412D01*
X11320964Y9300989D01*
X11168673Y9148699D01*
X11072000Y8915310D01*
X11072000Y8885250D01*
X11230750Y8726500D01*
X11489481Y8726500D01*
X11555866Y8681141D01*
X11638072Y8664494D01*
X11565810Y8650897D01*
X11489044Y8601500D01*
X11230750Y8601500D01*
X11076421Y8447171D01*
X10923464Y8600128D01*
X10923464Y9048000D01*
X10896897Y9189190D01*
X10886028Y9206081D01*
X10894699Y9209673D01*
X11073327Y9388302D01*
X11170000Y9621691D01*
X11170000Y9862250D01*
X11011250Y10021000D01*
X10287000Y10021000D01*
X10287000Y10001000D01*
X10033000Y10001000D01*
X10033000Y10021000D01*
X10013000Y10021000D01*
X10013000Y10275000D01*
X10033000Y10275000D01*
X10033000Y11024250D01*
X10287000Y11024250D01*
X10287000Y10275000D01*
X11011250Y10275000D01*
X11170000Y10433750D01*
X11170000Y10674309D01*
X11073327Y10907698D01*
X10894699Y11086327D01*
X10661310Y11183000D01*
X10445750Y11183000D01*
X10287000Y11024250D01*
X10033000Y11024250D01*
X9874250Y11183000D01*
X9777000Y11183000D01*
X9777000Y13449156D01*
X9785000Y13447536D01*
G36*
X30419748Y8650142D02*
X30405605Y8636000D01*
X30419748Y8621857D01*
X30333992Y8536102D01*
X30131840Y8522270D01*
X30032253Y8621857D01*
X30046395Y8636000D01*
X30032253Y8650142D01*
X30118008Y8735898D01*
X30320160Y8749730D01*
X30419748Y8650142D01*
X30419748Y8650142D01*
G37*
X30419748Y8650142D02*
X30405605Y8636000D01*
X30419748Y8621857D01*
X30333992Y8536102D01*
X30131840Y8522270D01*
X30032253Y8621857D01*
X30046395Y8636000D01*
X30032253Y8650142D01*
X30118008Y8735898D01*
X30320160Y8749730D01*
X30419748Y8650142D01*
G36*
X61153748Y8650142D02*
X61139605Y8636000D01*
X61153748Y8621857D01*
X61067992Y8536102D01*
X60865840Y8522270D01*
X60766253Y8621857D01*
X60780395Y8636000D01*
X60766253Y8650142D01*
X60852008Y8735898D01*
X61054160Y8749730D01*
X61153748Y8650142D01*
X61153748Y8650142D01*
G37*
X61153748Y8650142D02*
X61139605Y8636000D01*
X61153748Y8621857D01*
X61067992Y8536102D01*
X60865840Y8522270D01*
X60766253Y8621857D01*
X60780395Y8636000D01*
X60766253Y8650142D01*
X60852008Y8735898D01*
X61054160Y8749730D01*
X61153748Y8650142D01*
G36*
X6140307Y19941101D02*
X6733000Y19348408D01*
X6733000Y15494000D01*
X6771517Y15300362D01*
X6881204Y15136204D01*
X8257000Y13760408D01*
X8257000Y13194000D01*
X7353750Y13194000D01*
X7195000Y13035250D01*
X7195000Y12136000D01*
X7215000Y12136000D01*
X7215000Y11882000D01*
X7195000Y11882000D01*
X7195000Y10982750D01*
X7353750Y10824000D01*
X8257000Y10824000D01*
X8257000Y10447464D01*
X5818000Y10447464D01*
X5676810Y10420897D01*
X5547135Y10337454D01*
X5460141Y10210134D01*
X5429536Y10059000D01*
X5429536Y9650000D01*
X4605623Y9650000D01*
X4986109Y9807213D01*
X5318619Y10139144D01*
X5498794Y10573054D01*
X5499083Y10903781D01*
X5691691Y10824000D01*
X6782250Y10824000D01*
X6941000Y10982750D01*
X6941000Y11882000D01*
X5341750Y11882000D01*
X5183000Y11723250D01*
X5183000Y11614135D01*
X4987856Y11809619D01*
X4553946Y11989794D01*
X4084115Y11990204D01*
X3649891Y11810787D01*
X3376493Y11537865D01*
X3135515Y11898514D01*
X2905000Y12129029D01*
X2905000Y12685310D01*
X5183000Y12685310D01*
X5183000Y12294750D01*
X5341750Y12136000D01*
X6941000Y12136000D01*
X6941000Y13035250D01*
X6782250Y13194000D01*
X5691691Y13194000D01*
X5458302Y13097327D01*
X5279673Y12918699D01*
X5183000Y12685310D01*
X2905000Y12685310D01*
X2905000Y13318844D01*
X3067468Y13210286D01*
X3481149Y13128000D01*
X5154851Y13128000D01*
X5568532Y13210286D01*
X5919233Y13444618D01*
X6153565Y13795319D01*
X6235851Y14209000D01*
X6153565Y14622681D01*
X5919233Y14973382D01*
X5568532Y15207714D01*
X5154851Y15290000D01*
X3835922Y15290000D01*
X3924961Y15379039D01*
X4115938Y15664855D01*
X4183000Y16002000D01*
X4183000Y16981972D01*
X4483540Y16922191D01*
X4811117Y16987350D01*
X5088823Y17172908D01*
X5274381Y17450614D01*
X5339540Y17778191D01*
X5339540Y18117609D01*
X5299488Y18318964D01*
X5518238Y18409573D01*
X5696867Y18588201D01*
X5793540Y18821590D01*
X5793540Y18889150D01*
X5634790Y19047900D01*
X4610540Y19047900D01*
X4610540Y19000900D01*
X4356540Y19000900D01*
X4356540Y19047900D01*
X4336540Y19047900D01*
X4336540Y19209436D01*
X5158540Y19209436D01*
X5299730Y19236003D01*
X5318219Y19247900D01*
X5634790Y19247900D01*
X5793540Y19406650D01*
X5793540Y19474210D01*
X5696867Y19707599D01*
X5547004Y19857461D01*
X5547004Y19941387D01*
X6140307Y19941101D01*
X6140307Y19941101D01*
G37*
X6140307Y19941101D02*
X6733000Y19348408D01*
X6733000Y15494000D01*
X6771517Y15300362D01*
X6881204Y15136204D01*
X8257000Y13760408D01*
X8257000Y13194000D01*
X7353750Y13194000D01*
X7195000Y13035250D01*
X7195000Y12136000D01*
X7215000Y12136000D01*
X7215000Y11882000D01*
X7195000Y11882000D01*
X7195000Y10982750D01*
X7353750Y10824000D01*
X8257000Y10824000D01*
X8257000Y10447464D01*
X5818000Y10447464D01*
X5676810Y10420897D01*
X5547135Y10337454D01*
X5460141Y10210134D01*
X5429536Y10059000D01*
X5429536Y9650000D01*
X4605623Y9650000D01*
X4986109Y9807213D01*
X5318619Y10139144D01*
X5498794Y10573054D01*
X5499083Y10903781D01*
X5691691Y10824000D01*
X6782250Y10824000D01*
X6941000Y10982750D01*
X6941000Y11882000D01*
X5341750Y11882000D01*
X5183000Y11723250D01*
X5183000Y11614135D01*
X4987856Y11809619D01*
X4553946Y11989794D01*
X4084115Y11990204D01*
X3649891Y11810787D01*
X3376493Y11537865D01*
X3135515Y11898514D01*
X2905000Y12129029D01*
X2905000Y12685310D01*
X5183000Y12685310D01*
X5183000Y12294750D01*
X5341750Y12136000D01*
X6941000Y12136000D01*
X6941000Y13035250D01*
X6782250Y13194000D01*
X5691691Y13194000D01*
X5458302Y13097327D01*
X5279673Y12918699D01*
X5183000Y12685310D01*
X2905000Y12685310D01*
X2905000Y13318844D01*
X3067468Y13210286D01*
X3481149Y13128000D01*
X5154851Y13128000D01*
X5568532Y13210286D01*
X5919233Y13444618D01*
X6153565Y13795319D01*
X6235851Y14209000D01*
X6153565Y14622681D01*
X5919233Y14973382D01*
X5568532Y15207714D01*
X5154851Y15290000D01*
X3835922Y15290000D01*
X3924961Y15379039D01*
X4115938Y15664855D01*
X4183000Y16002000D01*
X4183000Y16981972D01*
X4483540Y16922191D01*
X4811117Y16987350D01*
X5088823Y17172908D01*
X5274381Y17450614D01*
X5339540Y17778191D01*
X5339540Y18117609D01*
X5299488Y18318964D01*
X5518238Y18409573D01*
X5696867Y18588201D01*
X5793540Y18821590D01*
X5793540Y18889150D01*
X5634790Y19047900D01*
X4610540Y19047900D01*
X4610540Y19000900D01*
X4356540Y19000900D01*
X4356540Y19047900D01*
X4336540Y19047900D01*
X4336540Y19209436D01*
X5158540Y19209436D01*
X5299730Y19236003D01*
X5318219Y19247900D01*
X5634790Y19247900D01*
X5793540Y19406650D01*
X5793540Y19474210D01*
X5696867Y19707599D01*
X5547004Y19857461D01*
X5547004Y19941387D01*
X6140307Y19941101D01*
G36*
X61153748Y9920142D02*
X61139605Y9906000D01*
X61153748Y9891857D01*
X61067992Y9806102D01*
X60865840Y9792270D01*
X60766253Y9891857D01*
X60780395Y9906000D01*
X60766253Y9920142D01*
X60945858Y10099748D01*
X60960000Y10085605D01*
X60974142Y10099748D01*
X61153748Y9920142D01*
X61153748Y9920142D01*
G37*
X61153748Y9920142D02*
X61139605Y9906000D01*
X61153748Y9891857D01*
X61067992Y9806102D01*
X60865840Y9792270D01*
X60766253Y9891857D01*
X60780395Y9906000D01*
X60766253Y9920142D01*
X60945858Y10099748D01*
X60960000Y10085605D01*
X60974142Y10099748D01*
X61153748Y9920142D01*
G36*
X58189204Y12287796D02*
X58079517Y12123638D01*
X58041000Y11930000D01*
X58041000Y10238592D01*
X57634796Y10644796D01*
X57470638Y10754483D01*
X57277000Y10793000D01*
X57201961Y10793000D01*
X57226464Y10914000D01*
X57226464Y11414000D01*
X57199897Y11555190D01*
X57133853Y11657827D01*
X57301327Y11825302D01*
X57398000Y12058691D01*
X57398000Y12299250D01*
X57239250Y12458000D01*
X56515000Y12458000D01*
X56515000Y12438000D01*
X56261000Y12438000D01*
X56261000Y12458000D01*
X56241000Y12458000D01*
X56241000Y12712000D01*
X56261000Y12712000D01*
X56261000Y12732000D01*
X56515000Y12732000D01*
X56515000Y12712000D01*
X57239250Y12712000D01*
X57398000Y12870750D01*
X57398000Y13111309D01*
X57301327Y13344698D01*
X57122699Y13523327D01*
X57115652Y13526246D01*
X57120859Y13533866D01*
X57147779Y13666801D01*
X57201938Y13747856D01*
X57246921Y13974000D01*
X59444000Y13974000D01*
X59562323Y13997536D01*
X59898944Y13997536D01*
X58189204Y12287796D01*
X58189204Y12287796D01*
G37*
X58189204Y12287796D02*
X58079517Y12123638D01*
X58041000Y11930000D01*
X58041000Y10238592D01*
X57634796Y10644796D01*
X57470638Y10754483D01*
X57277000Y10793000D01*
X57201961Y10793000D01*
X57226464Y10914000D01*
X57226464Y11414000D01*
X57199897Y11555190D01*
X57133853Y11657827D01*
X57301327Y11825302D01*
X57398000Y12058691D01*
X57398000Y12299250D01*
X57239250Y12458000D01*
X56515000Y12458000D01*
X56515000Y12438000D01*
X56261000Y12438000D01*
X56261000Y12458000D01*
X56241000Y12458000D01*
X56241000Y12712000D01*
X56261000Y12712000D01*
X56261000Y12732000D01*
X56515000Y12732000D01*
X56515000Y12712000D01*
X57239250Y12712000D01*
X57398000Y12870750D01*
X57398000Y13111309D01*
X57301327Y13344698D01*
X57122699Y13523327D01*
X57115652Y13526246D01*
X57120859Y13533866D01*
X57147779Y13666801D01*
X57201938Y13747856D01*
X57246921Y13974000D01*
X59444000Y13974000D01*
X59562323Y13997536D01*
X59898944Y13997536D01*
X58189204Y12287796D01*
G36*
X28484527Y14403032D02*
X28529536Y14394079D01*
X28529536Y14386000D01*
X28556103Y14244810D01*
X28639546Y14115135D01*
X28766866Y14028141D01*
X28905479Y14000071D01*
X27328204Y12422796D01*
X27218517Y12258638D01*
X27180000Y12065000D01*
X27180000Y10746592D01*
X26773796Y11152796D01*
X26612493Y11260575D01*
X26619464Y11295000D01*
X26619464Y11795000D01*
X26592897Y11936190D01*
X26576577Y11961552D01*
X26694327Y12079302D01*
X26791000Y12312691D01*
X26791000Y12553250D01*
X26632250Y12712000D01*
X25908000Y12712000D01*
X25908000Y12692000D01*
X25654000Y12692000D01*
X25654000Y12712000D01*
X24929750Y12712000D01*
X24771000Y12553250D01*
X24771000Y12520592D01*
X24769796Y12521796D01*
X24605638Y12631483D01*
X24495464Y12653398D01*
X24495464Y12789000D01*
X24471080Y12918588D01*
X24493036Y13027011D01*
X24645327Y13179301D01*
X24742000Y13412690D01*
X24742000Y13442750D01*
X24647752Y13536998D01*
X24742000Y13536998D01*
X24742000Y13658000D01*
X24926975Y13658000D01*
X24867673Y13598698D01*
X24771000Y13365309D01*
X24771000Y13124750D01*
X24929750Y12966000D01*
X25654000Y12966000D01*
X25654000Y12986000D01*
X25908000Y12986000D01*
X25908000Y12966000D01*
X26632250Y12966000D01*
X26791000Y13124750D01*
X26791000Y13365309D01*
X26694327Y13598698D01*
X26515699Y13777327D01*
X26508652Y13780246D01*
X26513859Y13787866D01*
X26523526Y13835604D01*
X26538922Y13851000D01*
X27432000Y13851000D01*
X27769144Y13918062D01*
X28054961Y14109039D01*
X28403257Y14457335D01*
X28484527Y14403032D01*
X28484527Y14403032D01*
G37*
X28484527Y14403032D02*
X28529536Y14394079D01*
X28529536Y14386000D01*
X28556103Y14244810D01*
X28639546Y14115135D01*
X28766866Y14028141D01*
X28905479Y14000071D01*
X27328204Y12422796D01*
X27218517Y12258638D01*
X27180000Y12065000D01*
X27180000Y10746592D01*
X26773796Y11152796D01*
X26612493Y11260575D01*
X26619464Y11295000D01*
X26619464Y11795000D01*
X26592897Y11936190D01*
X26576577Y11961552D01*
X26694327Y12079302D01*
X26791000Y12312691D01*
X26791000Y12553250D01*
X26632250Y12712000D01*
X25908000Y12712000D01*
X25908000Y12692000D01*
X25654000Y12692000D01*
X25654000Y12712000D01*
X24929750Y12712000D01*
X24771000Y12553250D01*
X24771000Y12520592D01*
X24769796Y12521796D01*
X24605638Y12631483D01*
X24495464Y12653398D01*
X24495464Y12789000D01*
X24471080Y12918588D01*
X24493036Y13027011D01*
X24645327Y13179301D01*
X24742000Y13412690D01*
X24742000Y13442750D01*
X24647752Y13536998D01*
X24742000Y13536998D01*
X24742000Y13658000D01*
X24926975Y13658000D01*
X24867673Y13598698D01*
X24771000Y13365309D01*
X24771000Y13124750D01*
X24929750Y12966000D01*
X25654000Y12966000D01*
X25654000Y12986000D01*
X25908000Y12986000D01*
X25908000Y12966000D01*
X26632250Y12966000D01*
X26791000Y13124750D01*
X26791000Y13365309D01*
X26694327Y13598698D01*
X26515699Y13777327D01*
X26508652Y13780246D01*
X26513859Y13787866D01*
X26523526Y13835604D01*
X26538922Y13851000D01*
X27432000Y13851000D01*
X27769144Y13918062D01*
X28054961Y14109039D01*
X28403257Y14457335D01*
X28484527Y14403032D01*
G36*
X15367000Y13343000D02*
X15387000Y13343000D01*
X15387000Y13089000D01*
X15367000Y13089000D01*
X15367000Y13069000D01*
X15113000Y13069000D01*
X15113000Y13089000D01*
X15093000Y13089000D01*
X15093000Y13343000D01*
X15113000Y13343000D01*
X15113000Y13363000D01*
X15367000Y13363000D01*
X15367000Y13343000D01*
X15367000Y13343000D01*
G37*
X15367000Y13343000D02*
X15387000Y13343000D01*
X15387000Y13089000D01*
X15367000Y13089000D01*
X15367000Y13069000D01*
X15113000Y13069000D01*
X15113000Y13089000D01*
X15093000Y13089000D01*
X15093000Y13343000D01*
X15113000Y13343000D01*
X15113000Y13363000D01*
X15367000Y13363000D01*
X15367000Y13343000D01*
G36*
X12585039Y15760039D02*
X12870856Y15569062D01*
X13208000Y15502000D01*
X13545144Y15569062D01*
X13643536Y15634805D01*
X13643536Y15614000D01*
X13670103Y15472810D01*
X13753546Y15343135D01*
X13880866Y15256141D01*
X14032000Y15225536D01*
X14282000Y15225536D01*
X14411588Y15249920D01*
X14532000Y15225536D01*
X14782000Y15225536D01*
X14911588Y15249920D01*
X15020311Y15227903D01*
X14882204Y15089796D01*
X14772517Y14925638D01*
X14768305Y14904464D01*
X14640000Y14904464D01*
X14498810Y14877897D01*
X14369135Y14794454D01*
X14282141Y14667134D01*
X14251536Y14516000D01*
X14251536Y14025562D01*
X14101673Y13875698D01*
X14005000Y13642309D01*
X14005000Y13508990D01*
X13714000Y13799990D01*
X13714000Y13843000D01*
X13675483Y14036638D01*
X13565796Y14200796D01*
X13244796Y14521796D01*
X13080638Y14631483D01*
X12887000Y14670000D01*
X12743859Y14670000D01*
X12707000Y14677464D01*
X11707000Y14677464D01*
X11565810Y14650897D01*
X11436135Y14567454D01*
X11349141Y14440134D01*
X11320964Y14300989D01*
X11168673Y14148699D01*
X11108401Y14003191D01*
X10923464Y14188128D01*
X10923464Y14636000D01*
X10896897Y14777190D01*
X10886028Y14794081D01*
X10894699Y14797673D01*
X11073327Y14976302D01*
X11170000Y15209691D01*
X11170000Y15450250D01*
X11011250Y15609000D01*
X10287000Y15609000D01*
X10287000Y15589000D01*
X10033000Y15589000D01*
X10033000Y15609000D01*
X10013000Y15609000D01*
X10013000Y15863000D01*
X10033000Y15863000D01*
X10033000Y15883000D01*
X10287000Y15883000D01*
X10287000Y15863000D01*
X11011250Y15863000D01*
X11158250Y16010000D01*
X12418020Y16010000D01*
X12585039Y15760039D01*
X12585039Y15760039D01*
G37*
X12585039Y15760039D02*
X12870856Y15569062D01*
X13208000Y15502000D01*
X13545144Y15569062D01*
X13643536Y15634805D01*
X13643536Y15614000D01*
X13670103Y15472810D01*
X13753546Y15343135D01*
X13880866Y15256141D01*
X14032000Y15225536D01*
X14282000Y15225536D01*
X14411588Y15249920D01*
X14532000Y15225536D01*
X14782000Y15225536D01*
X14911588Y15249920D01*
X15020311Y15227903D01*
X14882204Y15089796D01*
X14772517Y14925638D01*
X14768305Y14904464D01*
X14640000Y14904464D01*
X14498810Y14877897D01*
X14369135Y14794454D01*
X14282141Y14667134D01*
X14251536Y14516000D01*
X14251536Y14025562D01*
X14101673Y13875698D01*
X14005000Y13642309D01*
X14005000Y13508990D01*
X13714000Y13799990D01*
X13714000Y13843000D01*
X13675483Y14036638D01*
X13565796Y14200796D01*
X13244796Y14521796D01*
X13080638Y14631483D01*
X12887000Y14670000D01*
X12743859Y14670000D01*
X12707000Y14677464D01*
X11707000Y14677464D01*
X11565810Y14650897D01*
X11436135Y14567454D01*
X11349141Y14440134D01*
X11320964Y14300989D01*
X11168673Y14148699D01*
X11108401Y14003191D01*
X10923464Y14188128D01*
X10923464Y14636000D01*
X10896897Y14777190D01*
X10886028Y14794081D01*
X10894699Y14797673D01*
X11073327Y14976302D01*
X11170000Y15209691D01*
X11170000Y15450250D01*
X11011250Y15609000D01*
X10287000Y15609000D01*
X10287000Y15589000D01*
X10033000Y15589000D01*
X10033000Y15609000D01*
X10013000Y15609000D01*
X10013000Y15863000D01*
X10033000Y15863000D01*
X10033000Y15883000D01*
X10287000Y15883000D01*
X10287000Y15863000D01*
X11011250Y15863000D01*
X11158250Y16010000D01*
X12418020Y16010000D01*
X12585039Y15760039D01*
G36*
X44377536Y15614000D02*
X44404103Y15472810D01*
X44487546Y15343135D01*
X44614866Y15256141D01*
X44766000Y15225536D01*
X45016000Y15225536D01*
X45145588Y15249920D01*
X45266000Y15225536D01*
X45516000Y15225536D01*
X45645588Y15249920D01*
X45676320Y15243697D01*
X45633517Y15179638D01*
X45595000Y14986000D01*
X45595000Y14650464D01*
X45501000Y14650464D01*
X45359810Y14623897D01*
X45230135Y14540454D01*
X45143141Y14413134D01*
X45136298Y14379341D01*
X45094054Y14396882D01*
X44992622Y14396970D01*
X44867796Y14521796D01*
X44703638Y14631483D01*
X44510000Y14670000D01*
X43477859Y14670000D01*
X43441000Y14677464D01*
X42441000Y14677464D01*
X42299810Y14650897D01*
X42170135Y14567454D01*
X42083141Y14440134D01*
X42054964Y14300989D01*
X41902673Y14148699D01*
X41837908Y13992342D01*
X41745250Y14085000D01*
X41021000Y14085000D01*
X41021000Y14065000D01*
X40767000Y14065000D01*
X40767000Y14085000D01*
X40747000Y14085000D01*
X40747000Y14339000D01*
X40767000Y14339000D01*
X40767000Y14359000D01*
X41021000Y14359000D01*
X41021000Y14339000D01*
X41745250Y14339000D01*
X41904000Y14497750D01*
X41904000Y14738309D01*
X41871394Y14817026D01*
X42471184Y15416816D01*
X42544649Y15526763D01*
X42545865Y15527546D01*
X42612452Y15625000D01*
X43561000Y15625000D01*
X43802473Y15673032D01*
X44007184Y15809816D01*
X44377536Y16180168D01*
X44377536Y15614000D01*
X44377536Y15614000D01*
G37*
X44377536Y15614000D02*
X44404103Y15472810D01*
X44487546Y15343135D01*
X44614866Y15256141D01*
X44766000Y15225536D01*
X45016000Y15225536D01*
X45145588Y15249920D01*
X45266000Y15225536D01*
X45516000Y15225536D01*
X45645588Y15249920D01*
X45676320Y15243697D01*
X45633517Y15179638D01*
X45595000Y14986000D01*
X45595000Y14650464D01*
X45501000Y14650464D01*
X45359810Y14623897D01*
X45230135Y14540454D01*
X45143141Y14413134D01*
X45136298Y14379341D01*
X45094054Y14396882D01*
X44992622Y14396970D01*
X44867796Y14521796D01*
X44703638Y14631483D01*
X44510000Y14670000D01*
X43477859Y14670000D01*
X43441000Y14677464D01*
X42441000Y14677464D01*
X42299810Y14650897D01*
X42170135Y14567454D01*
X42083141Y14440134D01*
X42054964Y14300989D01*
X41902673Y14148699D01*
X41837908Y13992342D01*
X41745250Y14085000D01*
X41021000Y14085000D01*
X41021000Y14065000D01*
X40767000Y14065000D01*
X40767000Y14085000D01*
X40747000Y14085000D01*
X40747000Y14339000D01*
X40767000Y14339000D01*
X40767000Y14359000D01*
X41021000Y14359000D01*
X41021000Y14339000D01*
X41745250Y14339000D01*
X41904000Y14497750D01*
X41904000Y14738309D01*
X41871394Y14817026D01*
X42471184Y15416816D01*
X42544649Y15526763D01*
X42545865Y15527546D01*
X42612452Y15625000D01*
X43561000Y15625000D01*
X43802473Y15673032D01*
X44007184Y15809816D01*
X44377536Y16180168D01*
X44377536Y15614000D01*
G36*
X37723625Y17684177D02*
X38041503Y17365744D01*
X38281712Y17266000D01*
X38143750Y17266000D01*
X37985000Y17107250D01*
X37985000Y16383000D01*
X38005000Y16383000D01*
X38005000Y16129000D01*
X37985000Y16129000D01*
X37985000Y16109000D01*
X37731000Y16109000D01*
X37731000Y16129000D01*
X36981750Y16129000D01*
X36823000Y15970250D01*
X36823000Y15754690D01*
X36919673Y15521301D01*
X36970974Y15470000D01*
X36829922Y15470000D01*
X35542612Y16757310D01*
X36823000Y16757310D01*
X36823000Y16541750D01*
X36981750Y16383000D01*
X37731000Y16383000D01*
X37731000Y17107250D01*
X37572250Y17266000D01*
X37331691Y17266000D01*
X37098302Y17169327D01*
X36919673Y16990699D01*
X36823000Y16757310D01*
X35542612Y16757310D01*
X35166961Y17132961D01*
X34881144Y17323938D01*
X34544000Y17391000D01*
X32849244Y17391000D01*
X33141256Y17682503D01*
X33197520Y17818000D01*
X37668331Y17818000D01*
X37723625Y17684177D01*
X37723625Y17684177D01*
G37*
X37723625Y17684177D02*
X38041503Y17365744D01*
X38281712Y17266000D01*
X38143750Y17266000D01*
X37985000Y17107250D01*
X37985000Y16383000D01*
X38005000Y16383000D01*
X38005000Y16129000D01*
X37985000Y16129000D01*
X37985000Y16109000D01*
X37731000Y16109000D01*
X37731000Y16129000D01*
X36981750Y16129000D01*
X36823000Y15970250D01*
X36823000Y15754690D01*
X36919673Y15521301D01*
X36970974Y15470000D01*
X36829922Y15470000D01*
X35542612Y16757310D01*
X36823000Y16757310D01*
X36823000Y16541750D01*
X36981750Y16383000D01*
X37731000Y16383000D01*
X37731000Y17107250D01*
X37572250Y17266000D01*
X37331691Y17266000D01*
X37098302Y17169327D01*
X36919673Y16990699D01*
X36823000Y16757310D01*
X35542612Y16757310D01*
X35166961Y17132961D01*
X34881144Y17323938D01*
X34544000Y17391000D01*
X32849244Y17391000D01*
X33141256Y17682503D01*
X33197520Y17818000D01*
X37668331Y17818000D01*
X37723625Y17684177D01*
G36*
X8014302Y24610327D02*
X7835673Y24431699D01*
X7753975Y24234463D01*
X7746961Y24244961D01*
X7691688Y24281893D01*
X7652454Y24342865D01*
X7525134Y24429859D01*
X7374000Y24460464D01*
X7337843Y24460464D01*
X7124000Y24503000D01*
X6910157Y24460464D01*
X6874000Y24460464D01*
X6732810Y24433897D01*
X6603135Y24350454D01*
X6556271Y24281866D01*
X6501039Y24244961D01*
X6310062Y23959144D01*
X6284155Y23828900D01*
X4930171Y23828900D01*
X4811117Y23908450D01*
X4483540Y23973609D01*
X4155963Y23908450D01*
X3878257Y23722892D01*
X3692699Y23445186D01*
X3627540Y23117609D01*
X3627540Y23073584D01*
X3602540Y22947900D01*
X3627540Y22822216D01*
X3627540Y22778191D01*
X3692699Y22450614D01*
X3773450Y22329761D01*
X3768873Y22328900D01*
X3450319Y22328900D01*
X3447374Y22330868D01*
X3205900Y22378900D01*
X2964427Y22330868D01*
X2794008Y22216998D01*
X2794000Y22217000D01*
X2456856Y22149938D01*
X2171039Y21958961D01*
X1980062Y21673144D01*
X1913000Y21336000D01*
X1913000Y18034000D01*
X1953797Y17828900D01*
X1485893Y17828900D01*
X1148749Y17761838D01*
X862932Y17570861D01*
X671955Y17285044D01*
X604893Y16947900D01*
X671955Y16610756D01*
X862932Y16324939D01*
X976412Y16249114D01*
X547486Y15962514D01*
X386000Y15720834D01*
X386000Y23964983D01*
X440942Y24241195D01*
X575871Y24443129D01*
X777805Y24578058D01*
X914353Y24605219D01*
X862932Y24570861D01*
X671955Y24285044D01*
X604893Y23947900D01*
X671955Y23610756D01*
X862932Y23324939D01*
X1148749Y23133962D01*
X1485893Y23066900D01*
X2081187Y23066900D01*
X2418331Y23133962D01*
X2704148Y23324939D01*
X2895125Y23610756D01*
X2962187Y23947900D01*
X2895125Y24285044D01*
X2704148Y24570861D01*
X2611151Y24633000D01*
X8069039Y24633000D01*
X8014302Y24610327D01*
X8014302Y24610327D01*
G37*
X8014302Y24610327D02*
X7835673Y24431699D01*
X7753975Y24234463D01*
X7746961Y24244961D01*
X7691688Y24281893D01*
X7652454Y24342865D01*
X7525134Y24429859D01*
X7374000Y24460464D01*
X7337843Y24460464D01*
X7124000Y24503000D01*
X6910157Y24460464D01*
X6874000Y24460464D01*
X6732810Y24433897D01*
X6603135Y24350454D01*
X6556271Y24281866D01*
X6501039Y24244961D01*
X6310062Y23959144D01*
X6284155Y23828900D01*
X4930171Y23828900D01*
X4811117Y23908450D01*
X4483540Y23973609D01*
X4155963Y23908450D01*
X3878257Y23722892D01*
X3692699Y23445186D01*
X3627540Y23117609D01*
X3627540Y23073584D01*
X3602540Y22947900D01*
X3627540Y22822216D01*
X3627540Y22778191D01*
X3692699Y22450614D01*
X3773450Y22329761D01*
X3768873Y22328900D01*
X3450319Y22328900D01*
X3447374Y22330868D01*
X3205900Y22378900D01*
X2964427Y22330868D01*
X2794008Y22216998D01*
X2794000Y22217000D01*
X2456856Y22149938D01*
X2171039Y21958961D01*
X1980062Y21673144D01*
X1913000Y21336000D01*
X1913000Y18034000D01*
X1953797Y17828900D01*
X1485893Y17828900D01*
X1148749Y17761838D01*
X862932Y17570861D01*
X671955Y17285044D01*
X604893Y16947900D01*
X671955Y16610756D01*
X862932Y16324939D01*
X976412Y16249114D01*
X547486Y15962514D01*
X386000Y15720834D01*
X386000Y23964983D01*
X440942Y24241195D01*
X575871Y24443129D01*
X777805Y24578058D01*
X914353Y24605219D01*
X862932Y24570861D01*
X671955Y24285044D01*
X604893Y23947900D01*
X671955Y23610756D01*
X862932Y23324939D01*
X1148749Y23133962D01*
X1485893Y23066900D01*
X2081187Y23066900D01*
X2418331Y23133962D01*
X2704148Y23324939D01*
X2895125Y23610756D01*
X2962187Y23947900D01*
X2895125Y24285044D01*
X2704148Y24570861D01*
X2611151Y24633000D01*
X8069039Y24633000D01*
X8014302Y24610327D01*
G36*
X41118790Y20405246D02*
X43413140Y20405246D01*
X43413140Y18902475D01*
X43388810Y18897897D01*
X43371919Y18887028D01*
X43368327Y18895699D01*
X43189698Y19074327D01*
X42956309Y19171000D01*
X42715750Y19171000D01*
X42557000Y19012250D01*
X42557000Y18288000D01*
X42577000Y18288000D01*
X42577000Y18034000D01*
X42557000Y18034000D01*
X42557000Y17309750D01*
X42715750Y17151000D01*
X42956309Y17151000D01*
X43189698Y17247673D01*
X43368327Y17426301D01*
X43371246Y17433348D01*
X43378866Y17428141D01*
X43530000Y17397536D01*
X43810168Y17397536D01*
X43299632Y16887000D01*
X42611280Y16887000D01*
X42553454Y16976865D01*
X42426134Y17063859D01*
X42275000Y17094464D01*
X41775000Y17094464D01*
X41633810Y17067897D01*
X41504135Y16984454D01*
X41417141Y16857134D01*
X41386536Y16706000D01*
X41386536Y16116904D01*
X41163464Y15893832D01*
X41163464Y16706000D01*
X41136897Y16847190D01*
X41053454Y16976865D01*
X41031000Y16992207D01*
X41031000Y17875250D01*
X41395000Y17875250D01*
X41395000Y17659690D01*
X41491673Y17426301D01*
X41670302Y17247673D01*
X41903691Y17151000D01*
X42144250Y17151000D01*
X42303000Y17309750D01*
X42303000Y18034000D01*
X41553750Y18034000D01*
X41395000Y17875250D01*
X41031000Y17875250D01*
X41031000Y18662310D01*
X41395000Y18662310D01*
X41395000Y18446750D01*
X41553750Y18288000D01*
X42303000Y18288000D01*
X42303000Y19012250D01*
X42144250Y19171000D01*
X41903691Y19171000D01*
X41670302Y19074327D01*
X41491673Y18895699D01*
X41395000Y18662310D01*
X41031000Y18662310D01*
X41031000Y20308000D01*
X41007160Y20427851D01*
X41118790Y20405246D01*
X41118790Y20405246D01*
G37*
X41118790Y20405246D02*
X43413140Y20405246D01*
X43413140Y18902475D01*
X43388810Y18897897D01*
X43371919Y18887028D01*
X43368327Y18895699D01*
X43189698Y19074327D01*
X42956309Y19171000D01*
X42715750Y19171000D01*
X42557000Y19012250D01*
X42557000Y18288000D01*
X42577000Y18288000D01*
X42577000Y18034000D01*
X42557000Y18034000D01*
X42557000Y17309750D01*
X42715750Y17151000D01*
X42956309Y17151000D01*
X43189698Y17247673D01*
X43368327Y17426301D01*
X43371246Y17433348D01*
X43378866Y17428141D01*
X43530000Y17397536D01*
X43810168Y17397536D01*
X43299632Y16887000D01*
X42611280Y16887000D01*
X42553454Y16976865D01*
X42426134Y17063859D01*
X42275000Y17094464D01*
X41775000Y17094464D01*
X41633810Y17067897D01*
X41504135Y16984454D01*
X41417141Y16857134D01*
X41386536Y16706000D01*
X41386536Y16116904D01*
X41163464Y15893832D01*
X41163464Y16706000D01*
X41136897Y16847190D01*
X41053454Y16976865D01*
X41031000Y16992207D01*
X41031000Y17875250D01*
X41395000Y17875250D01*
X41395000Y17659690D01*
X41491673Y17426301D01*
X41670302Y17247673D01*
X41903691Y17151000D01*
X42144250Y17151000D01*
X42303000Y17309750D01*
X42303000Y18034000D01*
X41553750Y18034000D01*
X41395000Y17875250D01*
X41031000Y17875250D01*
X41031000Y18662310D01*
X41395000Y18662310D01*
X41395000Y18446750D01*
X41553750Y18288000D01*
X42303000Y18288000D01*
X42303000Y19012250D01*
X42144250Y19171000D01*
X41903691Y19171000D01*
X41670302Y19074327D01*
X41491673Y18895699D01*
X41395000Y18662310D01*
X41031000Y18662310D01*
X41031000Y20308000D01*
X41007160Y20427851D01*
X41118790Y20405246D01*
G36*
X16915681Y18690727D02*
X16899536Y18611000D01*
X16899536Y17711000D01*
X16926103Y17569810D01*
X17009546Y17440135D01*
X17136866Y17353141D01*
X17288000Y17322536D01*
X17788000Y17322536D01*
X17796877Y17324206D01*
X17820517Y17205362D01*
X17930204Y17041204D01*
X17978930Y16992478D01*
X17902412Y16978080D01*
X17782000Y17002464D01*
X17532000Y17002464D01*
X17402412Y16978080D01*
X17282000Y17002464D01*
X17032000Y17002464D01*
X16902412Y16978080D01*
X16793989Y17000036D01*
X16641699Y17152327D01*
X16408310Y17249000D01*
X16378250Y17249000D01*
X16219500Y17090250D01*
X16219500Y16831519D01*
X16174141Y16765134D01*
X16163000Y16710117D01*
X16163000Y16855000D01*
X16124483Y17048638D01*
X16018200Y17207702D01*
X16114698Y17247673D01*
X16293327Y17426301D01*
X16390000Y17659690D01*
X16390000Y17875250D01*
X16231250Y18034000D01*
X15482000Y18034000D01*
X15482000Y18014000D01*
X15228000Y18014000D01*
X15228000Y18034000D01*
X15208000Y18034000D01*
X15208000Y18288000D01*
X15228000Y18288000D01*
X15228000Y19012250D01*
X15482000Y19012250D01*
X15482000Y18288000D01*
X16231250Y18288000D01*
X16390000Y18446750D01*
X16390000Y18662310D01*
X16293327Y18895699D01*
X16114698Y19074327D01*
X15881309Y19171000D01*
X15640750Y19171000D01*
X15482000Y19012250D01*
X15228000Y19012250D01*
X15069250Y19171000D01*
X14828691Y19171000D01*
X14595302Y19074327D01*
X14416673Y18895699D01*
X14413754Y18888652D01*
X14406134Y18893859D01*
X14273199Y18920779D01*
X14192144Y18974938D01*
X13855000Y19042000D01*
X13517856Y18974938D01*
X13437344Y18921142D01*
X13313810Y18897897D01*
X13184135Y18814454D01*
X13097141Y18687134D01*
X13087474Y18639396D01*
X12841464Y18393386D01*
X12841464Y18536000D01*
X12814897Y18677190D01*
X12731454Y18806865D01*
X12604134Y18893859D01*
X12559000Y18902999D01*
X12559000Y20532246D01*
X15074162Y20532246D01*
X16915681Y18690727D01*
X16915681Y18690727D01*
G37*
X16915681Y18690727D02*
X16899536Y18611000D01*
X16899536Y17711000D01*
X16926103Y17569810D01*
X17009546Y17440135D01*
X17136866Y17353141D01*
X17288000Y17322536D01*
X17788000Y17322536D01*
X17796877Y17324206D01*
X17820517Y17205362D01*
X17930204Y17041204D01*
X17978930Y16992478D01*
X17902412Y16978080D01*
X17782000Y17002464D01*
X17532000Y17002464D01*
X17402412Y16978080D01*
X17282000Y17002464D01*
X17032000Y17002464D01*
X16902412Y16978080D01*
X16793989Y17000036D01*
X16641699Y17152327D01*
X16408310Y17249000D01*
X16378250Y17249000D01*
X16219500Y17090250D01*
X16219500Y16831519D01*
X16174141Y16765134D01*
X16163000Y16710117D01*
X16163000Y16855000D01*
X16124483Y17048638D01*
X16018200Y17207702D01*
X16114698Y17247673D01*
X16293327Y17426301D01*
X16390000Y17659690D01*
X16390000Y17875250D01*
X16231250Y18034000D01*
X15482000Y18034000D01*
X15482000Y18014000D01*
X15228000Y18014000D01*
X15228000Y18034000D01*
X15208000Y18034000D01*
X15208000Y18288000D01*
X15228000Y18288000D01*
X15228000Y19012250D01*
X15482000Y19012250D01*
X15482000Y18288000D01*
X16231250Y18288000D01*
X16390000Y18446750D01*
X16390000Y18662310D01*
X16293327Y18895699D01*
X16114698Y19074327D01*
X15881309Y19171000D01*
X15640750Y19171000D01*
X15482000Y19012250D01*
X15228000Y19012250D01*
X15069250Y19171000D01*
X14828691Y19171000D01*
X14595302Y19074327D01*
X14416673Y18895699D01*
X14413754Y18888652D01*
X14406134Y18893859D01*
X14273199Y18920779D01*
X14192144Y18974938D01*
X13855000Y19042000D01*
X13517856Y18974938D01*
X13437344Y18921142D01*
X13313810Y18897897D01*
X13184135Y18814454D01*
X13097141Y18687134D01*
X13087474Y18639396D01*
X12841464Y18393386D01*
X12841464Y18536000D01*
X12814897Y18677190D01*
X12731454Y18806865D01*
X12604134Y18893859D01*
X12559000Y18902999D01*
X12559000Y20532246D01*
X15074162Y20532246D01*
X16915681Y18690727D01*
G36*
X31937362Y20360517D02*
X32131000Y20322000D01*
X39795408Y20322000D01*
X40019000Y20098408D01*
X40019000Y16994019D01*
X40004135Y16984454D01*
X39975951Y16943205D01*
X39909134Y16988859D01*
X39758000Y17019464D01*
X38958000Y17019464D01*
X38816810Y16992897D01*
X38799919Y16982028D01*
X38796327Y16990699D01*
X38617698Y17169327D01*
X38560290Y17193106D01*
X38906983Y17192804D01*
X39322823Y17364625D01*
X39641256Y17682503D01*
X39813804Y18098043D01*
X39814196Y18547983D01*
X39642375Y18963823D01*
X39324497Y19282256D01*
X38908957Y19454804D01*
X38459017Y19455196D01*
X38043177Y19283375D01*
X37724744Y18965497D01*
X37668480Y18830000D01*
X33197669Y18830000D01*
X33142375Y18963823D01*
X32824497Y19282256D01*
X32689000Y19338520D01*
X32689000Y19379000D01*
X32650483Y19572638D01*
X32540796Y19736796D01*
X31876224Y20401368D01*
X31937362Y20360517D01*
X31937362Y20360517D01*
G37*
X31937362Y20360517D02*
X32131000Y20322000D01*
X39795408Y20322000D01*
X40019000Y20098408D01*
X40019000Y16994019D01*
X40004135Y16984454D01*
X39975951Y16943205D01*
X39909134Y16988859D01*
X39758000Y17019464D01*
X38958000Y17019464D01*
X38816810Y16992897D01*
X38799919Y16982028D01*
X38796327Y16990699D01*
X38617698Y17169327D01*
X38560290Y17193106D01*
X38906983Y17192804D01*
X39322823Y17364625D01*
X39641256Y17682503D01*
X39813804Y18098043D01*
X39814196Y18547983D01*
X39642375Y18963823D01*
X39324497Y19282256D01*
X38908957Y19454804D01*
X38459017Y19455196D01*
X38043177Y19283375D01*
X37724744Y18965497D01*
X37668480Y18830000D01*
X33197669Y18830000D01*
X33142375Y18963823D01*
X32824497Y19282256D01*
X32689000Y19338520D01*
X32689000Y19379000D01*
X32650483Y19572638D01*
X32540796Y19736796D01*
X31876224Y20401368D01*
X31937362Y20360517D01*
G36*
X21985000Y18904519D02*
X21949810Y18897897D01*
X21820135Y18814454D01*
X21733141Y18687134D01*
X21702536Y18536000D01*
X21702536Y17786000D01*
X21703881Y17778853D01*
X21560171Y17682829D01*
X21246171Y17368829D01*
X21120226Y17180339D01*
X21084844Y17002464D01*
X21032000Y17002464D01*
X20902412Y16978080D01*
X20782000Y17002464D01*
X20532000Y17002464D01*
X20402412Y16978080D01*
X20282000Y17002464D01*
X20163000Y17002464D01*
X20163000Y19805548D01*
X20889698Y20532246D01*
X21985000Y20532246D01*
X21985000Y18904519D01*
X21985000Y18904519D01*
G37*
X21985000Y18904519D02*
X21949810Y18897897D01*
X21820135Y18814454D01*
X21733141Y18687134D01*
X21702536Y18536000D01*
X21702536Y17786000D01*
X21703881Y17778853D01*
X21560171Y17682829D01*
X21246171Y17368829D01*
X21120226Y17180339D01*
X21084844Y17002464D01*
X21032000Y17002464D01*
X20902412Y16978080D01*
X20782000Y17002464D01*
X20532000Y17002464D01*
X20402412Y16978080D01*
X20282000Y17002464D01*
X20163000Y17002464D01*
X20163000Y19805548D01*
X20889698Y20532246D01*
X21985000Y20532246D01*
X21985000Y18904519D01*
G36*
X53110860Y18906562D02*
X53064810Y18897897D01*
X52935135Y18814454D01*
X52848141Y18687134D01*
X52817536Y18536000D01*
X52817536Y17786000D01*
X52828826Y17726000D01*
X52705000Y17726000D01*
X52482661Y17681774D01*
X52294171Y17555829D01*
X51980171Y17241829D01*
X51854226Y17053339D01*
X51844106Y17002464D01*
X51766000Y17002464D01*
X51636412Y16978080D01*
X51516000Y17002464D01*
X51266000Y17002464D01*
X51136412Y16978080D01*
X51016000Y17002464D01*
X50897000Y17002464D01*
X50897000Y18408548D01*
X52893698Y20405246D01*
X53110860Y20405246D01*
X53110860Y18906562D01*
X53110860Y18906562D01*
G37*
X53110860Y18906562D02*
X53064810Y18897897D01*
X52935135Y18814454D01*
X52848141Y18687134D01*
X52817536Y18536000D01*
X52817536Y17786000D01*
X52828826Y17726000D01*
X52705000Y17726000D01*
X52482661Y17681774D01*
X52294171Y17555829D01*
X51980171Y17241829D01*
X51854226Y17053339D01*
X51844106Y17002464D01*
X51766000Y17002464D01*
X51636412Y16978080D01*
X51516000Y17002464D01*
X51266000Y17002464D01*
X51136412Y16978080D01*
X51016000Y17002464D01*
X50897000Y17002464D01*
X50897000Y18408548D01*
X52893698Y20405246D01*
X53110860Y20405246D01*
X53110860Y18906562D01*
G36*
X18692204Y24614796D02*
X17930204Y23852796D01*
X17820517Y23688638D01*
X17782000Y23495000D01*
X17782000Y19255592D01*
X15738954Y21298638D01*
X15738954Y23021290D01*
X15712387Y23162480D01*
X15628944Y23292155D01*
X15501624Y23379149D01*
X15350490Y23409754D01*
X9749790Y23409754D01*
X9608600Y23383187D01*
X9509000Y23319097D01*
X9509000Y23336250D01*
X9350250Y23495000D01*
X8749000Y23495000D01*
X8749000Y22695750D01*
X8751000Y22693750D01*
X8751000Y22098000D01*
X8771000Y22098000D01*
X8771000Y21844000D01*
X8751000Y21844000D01*
X8751000Y21119750D01*
X8909750Y20961000D01*
X9150309Y20961000D01*
X9361326Y21048406D01*
X9361326Y20920710D01*
X9387893Y20779520D01*
X9471336Y20649845D01*
X9598656Y20562851D01*
X9749790Y20532246D01*
X11547000Y20532246D01*
X11547000Y18904519D01*
X11511810Y18897897D01*
X11494919Y18887028D01*
X11491327Y18895699D01*
X11312698Y19074327D01*
X11079309Y19171000D01*
X10838750Y19171000D01*
X10680000Y19012250D01*
X10680000Y18288000D01*
X10700000Y18288000D01*
X10700000Y18034000D01*
X10680000Y18034000D01*
X10680000Y18014000D01*
X10426000Y18014000D01*
X10426000Y18034000D01*
X9676750Y18034000D01*
X9518000Y17875250D01*
X9518000Y17659690D01*
X9541875Y17602051D01*
X9410039Y17513961D01*
X9361370Y17441123D01*
X9205815Y17337184D01*
X8888000Y17019368D01*
X8888000Y18662310D01*
X9518000Y18662310D01*
X9518000Y18446750D01*
X9676750Y18288000D01*
X10426000Y18288000D01*
X10426000Y19012250D01*
X10267250Y19171000D01*
X10026691Y19171000D01*
X9793302Y19074327D01*
X9614673Y18895699D01*
X9518000Y18662310D01*
X8888000Y18662310D01*
X8888000Y19939000D01*
X8849483Y20132638D01*
X8739796Y20296796D01*
X8059966Y20976626D01*
X8097691Y20961000D01*
X8338250Y20961000D01*
X8497000Y21119750D01*
X8497000Y21844000D01*
X8477000Y21844000D01*
X8477000Y22098000D01*
X8497000Y22098000D01*
X8497000Y22693750D01*
X8499000Y22695750D01*
X8499000Y23495000D01*
X8477000Y23495000D01*
X8477000Y23749000D01*
X8499000Y23749000D01*
X8499000Y23769000D01*
X8749000Y23769000D01*
X8749000Y23749000D01*
X9350250Y23749000D01*
X9509000Y23907750D01*
X9509000Y24198310D01*
X9412327Y24431699D01*
X9233698Y24610327D01*
X9178961Y24633000D01*
X18719448Y24633000D01*
X18692204Y24614796D01*
X18692204Y24614796D01*
G37*
X18692204Y24614796D02*
X17930204Y23852796D01*
X17820517Y23688638D01*
X17782000Y23495000D01*
X17782000Y19255592D01*
X15738954Y21298638D01*
X15738954Y23021290D01*
X15712387Y23162480D01*
X15628944Y23292155D01*
X15501624Y23379149D01*
X15350490Y23409754D01*
X9749790Y23409754D01*
X9608600Y23383187D01*
X9509000Y23319097D01*
X9509000Y23336250D01*
X9350250Y23495000D01*
X8749000Y23495000D01*
X8749000Y22695750D01*
X8751000Y22693750D01*
X8751000Y22098000D01*
X8771000Y22098000D01*
X8771000Y21844000D01*
X8751000Y21844000D01*
X8751000Y21119750D01*
X8909750Y20961000D01*
X9150309Y20961000D01*
X9361326Y21048406D01*
X9361326Y20920710D01*
X9387893Y20779520D01*
X9471336Y20649845D01*
X9598656Y20562851D01*
X9749790Y20532246D01*
X11547000Y20532246D01*
X11547000Y18904519D01*
X11511810Y18897897D01*
X11494919Y18887028D01*
X11491327Y18895699D01*
X11312698Y19074327D01*
X11079309Y19171000D01*
X10838750Y19171000D01*
X10680000Y19012250D01*
X10680000Y18288000D01*
X10700000Y18288000D01*
X10700000Y18034000D01*
X10680000Y18034000D01*
X10680000Y18014000D01*
X10426000Y18014000D01*
X10426000Y18034000D01*
X9676750Y18034000D01*
X9518000Y17875250D01*
X9518000Y17659690D01*
X9541875Y17602051D01*
X9410039Y17513961D01*
X9361370Y17441123D01*
X9205815Y17337184D01*
X8888000Y17019368D01*
X8888000Y18662310D01*
X9518000Y18662310D01*
X9518000Y18446750D01*
X9676750Y18288000D01*
X10426000Y18288000D01*
X10426000Y19012250D01*
X10267250Y19171000D01*
X10026691Y19171000D01*
X9793302Y19074327D01*
X9614673Y18895699D01*
X9518000Y18662310D01*
X8888000Y18662310D01*
X8888000Y19939000D01*
X8849483Y20132638D01*
X8739796Y20296796D01*
X8059966Y20976626D01*
X8097691Y20961000D01*
X8338250Y20961000D01*
X8497000Y21119750D01*
X8497000Y21844000D01*
X8477000Y21844000D01*
X8477000Y22098000D01*
X8497000Y22098000D01*
X8497000Y22693750D01*
X8499000Y22695750D01*
X8499000Y23495000D01*
X8477000Y23495000D01*
X8477000Y23749000D01*
X8499000Y23749000D01*
X8499000Y23769000D01*
X8749000Y23769000D01*
X8749000Y23749000D01*
X9350250Y23749000D01*
X9509000Y23907750D01*
X9509000Y24198310D01*
X9412327Y24431699D01*
X9233698Y24610327D01*
X9178961Y24633000D01*
X18719448Y24633000D01*
X18692204Y24614796D01*
G36*
X57787000Y22523408D02*
X57787000Y19558000D01*
X57825517Y19364362D01*
X57935204Y19200204D01*
X58187164Y18948244D01*
X57754520Y18948244D01*
X57613330Y18921677D01*
X57483655Y18838234D01*
X57403004Y18720198D01*
X57331934Y18830645D01*
X57204614Y18917639D01*
X57053480Y18948244D01*
X56255920Y18948244D01*
X56114730Y18921677D01*
X56050647Y18880441D01*
X56044327Y18895699D01*
X55865698Y19074327D01*
X55632309Y19171000D01*
X55391750Y19171000D01*
X55233000Y19012250D01*
X55233000Y18288000D01*
X55253000Y18288000D01*
X55253000Y18034000D01*
X55233000Y18034000D01*
X55233000Y18014000D01*
X54979000Y18014000D01*
X54979000Y18034000D01*
X54959000Y18034000D01*
X54959000Y18288000D01*
X54979000Y18288000D01*
X54979000Y19012250D01*
X54820250Y19171000D01*
X54579691Y19171000D01*
X54346302Y19074327D01*
X54167673Y18895699D01*
X54164754Y18888652D01*
X54157134Y18893859D01*
X54122860Y18900800D01*
X54122860Y20405246D01*
X56417210Y20405246D01*
X56558400Y20431813D01*
X56688075Y20515256D01*
X56775069Y20642576D01*
X56805674Y20793710D01*
X56805674Y22894290D01*
X56779107Y23035480D01*
X56695664Y23165155D01*
X56581734Y23243000D01*
X57067408Y23243000D01*
X57787000Y22523408D01*
X57787000Y22523408D01*
G37*
X57787000Y22523408D02*
X57787000Y19558000D01*
X57825517Y19364362D01*
X57935204Y19200204D01*
X58187164Y18948244D01*
X57754520Y18948244D01*
X57613330Y18921677D01*
X57483655Y18838234D01*
X57403004Y18720198D01*
X57331934Y18830645D01*
X57204614Y18917639D01*
X57053480Y18948244D01*
X56255920Y18948244D01*
X56114730Y18921677D01*
X56050647Y18880441D01*
X56044327Y18895699D01*
X55865698Y19074327D01*
X55632309Y19171000D01*
X55391750Y19171000D01*
X55233000Y19012250D01*
X55233000Y18288000D01*
X55253000Y18288000D01*
X55253000Y18034000D01*
X55233000Y18034000D01*
X55233000Y18014000D01*
X54979000Y18014000D01*
X54979000Y18034000D01*
X54959000Y18034000D01*
X54959000Y18288000D01*
X54979000Y18288000D01*
X54979000Y19012250D01*
X54820250Y19171000D01*
X54579691Y19171000D01*
X54346302Y19074327D01*
X54167673Y18895699D01*
X54164754Y18888652D01*
X54157134Y18893859D01*
X54122860Y18900800D01*
X54122860Y20405246D01*
X56417210Y20405246D01*
X56558400Y20431813D01*
X56688075Y20515256D01*
X56775069Y20642576D01*
X56805674Y20793710D01*
X56805674Y22894290D01*
X56779107Y23035480D01*
X56695664Y23165155D01*
X56581734Y23243000D01*
X57067408Y23243000D01*
X57787000Y22523408D01*
G36*
X30087000Y20066000D02*
X30107000Y20066000D01*
X30107000Y19812000D01*
X30087000Y19812000D01*
X30087000Y19087750D01*
X30124750Y19050000D01*
X30087000Y19012250D01*
X30087000Y18288000D01*
X30107000Y18288000D01*
X30107000Y18034000D01*
X30087000Y18034000D01*
X30087000Y18014000D01*
X29833000Y18014000D01*
X29833000Y18034000D01*
X29813000Y18034000D01*
X29813000Y18288000D01*
X29833000Y18288000D01*
X29833000Y19012250D01*
X29795250Y19050000D01*
X29833000Y19087750D01*
X29833000Y19812000D01*
X29813000Y19812000D01*
X29813000Y20066000D01*
X29833000Y20066000D01*
X29833000Y20086000D01*
X30087000Y20086000D01*
X30087000Y20066000D01*
X30087000Y20066000D01*
G37*
X30087000Y20066000D02*
X30107000Y20066000D01*
X30107000Y19812000D01*
X30087000Y19812000D01*
X30087000Y19087750D01*
X30124750Y19050000D01*
X30087000Y19012250D01*
X30087000Y18288000D01*
X30107000Y18288000D01*
X30107000Y18034000D01*
X30087000Y18034000D01*
X30087000Y18014000D01*
X29833000Y18014000D01*
X29833000Y18034000D01*
X29813000Y18034000D01*
X29813000Y18288000D01*
X29833000Y18288000D01*
X29833000Y19012250D01*
X29795250Y19050000D01*
X29833000Y19087750D01*
X29833000Y19812000D01*
X29813000Y19812000D01*
X29813000Y20066000D01*
X29833000Y20066000D01*
X29833000Y20086000D01*
X30087000Y20086000D01*
X30087000Y20066000D01*
G36*
X24900536Y20389000D02*
X24900536Y19489000D01*
X24927103Y19347810D01*
X24958000Y19299794D01*
X24958000Y18894825D01*
X24935647Y18880441D01*
X24929327Y18895699D01*
X24750698Y19074327D01*
X24517309Y19171000D01*
X24276750Y19171000D01*
X24118000Y19012250D01*
X24118000Y18288000D01*
X24138000Y18288000D01*
X24138000Y18034000D01*
X24118000Y18034000D01*
X24118000Y18014000D01*
X23864000Y18014000D01*
X23864000Y18034000D01*
X23844000Y18034000D01*
X23844000Y18288000D01*
X23864000Y18288000D01*
X23864000Y19012250D01*
X23705250Y19171000D01*
X23464691Y19171000D01*
X23231302Y19074327D01*
X23052673Y18895699D01*
X23049754Y18888652D01*
X23042134Y18893859D01*
X22997000Y18902999D01*
X22997000Y20532246D01*
X24929544Y20532246D01*
X24900536Y20389000D01*
X24900536Y20389000D01*
G37*
X24900536Y20389000D02*
X24900536Y19489000D01*
X24927103Y19347810D01*
X24958000Y19299794D01*
X24958000Y18894825D01*
X24935647Y18880441D01*
X24929327Y18895699D01*
X24750698Y19074327D01*
X24517309Y19171000D01*
X24276750Y19171000D01*
X24118000Y19012250D01*
X24118000Y18288000D01*
X24138000Y18288000D01*
X24138000Y18034000D01*
X24118000Y18034000D01*
X24118000Y18014000D01*
X23864000Y18014000D01*
X23864000Y18034000D01*
X23844000Y18034000D01*
X23844000Y18288000D01*
X23864000Y18288000D01*
X23864000Y19012250D01*
X23705250Y19171000D01*
X23464691Y19171000D01*
X23231302Y19074327D01*
X23052673Y18895699D01*
X23049754Y18888652D01*
X23042134Y18893859D01*
X22997000Y18902999D01*
X22997000Y20532246D01*
X24929544Y20532246D01*
X24900536Y20389000D01*
G36*
X46978000Y18288000D02*
X46998000Y18288000D01*
X46998000Y18034000D01*
X46978000Y18034000D01*
X46978000Y18014000D01*
X46724000Y18014000D01*
X46724000Y18034000D01*
X46704000Y18034000D01*
X46704000Y18288000D01*
X46724000Y18288000D01*
X46724000Y18308000D01*
X46978000Y18308000D01*
X46978000Y18288000D01*
X46978000Y18288000D01*
G37*
X46978000Y18288000D02*
X46998000Y18288000D01*
X46998000Y18034000D01*
X46978000Y18034000D01*
X46978000Y18014000D01*
X46724000Y18014000D01*
X46724000Y18034000D01*
X46704000Y18034000D01*
X46704000Y18288000D01*
X46724000Y18288000D01*
X46724000Y18308000D01*
X46978000Y18308000D01*
X46978000Y18288000D01*
G36*
X50545645Y23172744D02*
X50458651Y23045424D01*
X50428046Y22894290D01*
X50428046Y20793710D01*
X50454613Y20652520D01*
X50538056Y20522845D01*
X50665376Y20435851D01*
X50816510Y20405246D01*
X51462514Y20405246D01*
X50033204Y18975936D01*
X49994203Y18917567D01*
X49919134Y18968859D01*
X49768000Y18999464D01*
X49274000Y18999464D01*
X49274000Y23243000D01*
X50654827Y23243000D01*
X50545645Y23172744D01*
X50545645Y23172744D01*
G37*
X50545645Y23172744D02*
X50458651Y23045424D01*
X50428046Y22894290D01*
X50428046Y20793710D01*
X50454613Y20652520D01*
X50538056Y20522845D01*
X50665376Y20435851D01*
X50816510Y20405246D01*
X51462514Y20405246D01*
X50033204Y18975936D01*
X49994203Y18917567D01*
X49919134Y18968859D01*
X49768000Y18999464D01*
X49274000Y18999464D01*
X49274000Y23243000D01*
X50654827Y23243000D01*
X50545645Y23172744D01*
G36*
X26545000Y23412408D02*
X26545000Y20684741D01*
X26518135Y20667454D01*
X26431141Y20540134D01*
X26400536Y20389000D01*
X26400536Y19631000D01*
X26177464Y19631000D01*
X26177464Y20389000D01*
X26150897Y20530190D01*
X26067454Y20659865D01*
X25940134Y20746859D01*
X25789000Y20777464D01*
X25407666Y20777464D01*
X25436674Y20920710D01*
X25436674Y23021290D01*
X25410107Y23162480D01*
X25326664Y23292155D01*
X25199344Y23379149D01*
X25048210Y23409754D01*
X19447510Y23409754D01*
X19306320Y23383187D01*
X19176645Y23299744D01*
X19089651Y23172424D01*
X19059046Y23021290D01*
X19059046Y20920710D01*
X19085613Y20779520D01*
X19169056Y20649845D01*
X19296376Y20562851D01*
X19447510Y20532246D01*
X19458514Y20532246D01*
X19299204Y20372936D01*
X19189517Y20208778D01*
X19151000Y20015140D01*
X19151000Y18999464D01*
X18794000Y18999464D01*
X18794000Y23285408D01*
X19259592Y23751000D01*
X26206408Y23751000D01*
X26545000Y23412408D01*
X26545000Y23412408D01*
G37*
X26545000Y23412408D02*
X26545000Y20684741D01*
X26518135Y20667454D01*
X26431141Y20540134D01*
X26400536Y20389000D01*
X26400536Y19631000D01*
X26177464Y19631000D01*
X26177464Y20389000D01*
X26150897Y20530190D01*
X26067454Y20659865D01*
X25940134Y20746859D01*
X25789000Y20777464D01*
X25407666Y20777464D01*
X25436674Y20920710D01*
X25436674Y23021290D01*
X25410107Y23162480D01*
X25326664Y23292155D01*
X25199344Y23379149D01*
X25048210Y23409754D01*
X19447510Y23409754D01*
X19306320Y23383187D01*
X19176645Y23299744D01*
X19089651Y23172424D01*
X19059046Y23021290D01*
X19059046Y20920710D01*
X19085613Y20779520D01*
X19169056Y20649845D01*
X19296376Y20562851D01*
X19447510Y20532246D01*
X19458514Y20532246D01*
X19299204Y20372936D01*
X19189517Y20208778D01*
X19151000Y20015140D01*
X19151000Y18999464D01*
X18794000Y18999464D01*
X18794000Y23285408D01*
X19259592Y23751000D01*
X26206408Y23751000D01*
X26545000Y23412408D01*
G36*
X48262000Y19001592D02*
X46836356Y20427236D01*
X46860680Y20431813D01*
X46990355Y20515256D01*
X47077349Y20642576D01*
X47107954Y20793710D01*
X47107954Y22894290D01*
X47081387Y23035480D01*
X46997944Y23165155D01*
X46884014Y23243000D01*
X48262000Y23243000D01*
X48262000Y19001592D01*
X48262000Y19001592D01*
G37*
X48262000Y19001592D02*
X46836356Y20427236D01*
X46860680Y20431813D01*
X46990355Y20515256D01*
X47077349Y20642576D01*
X47107954Y20793710D01*
X47107954Y22894290D01*
X47081387Y23035480D01*
X46997944Y23165155D01*
X46884014Y23243000D01*
X48262000Y23243000D01*
X48262000Y19001592D01*
M02*
