G04 #@! TF.FileFunction,Copper,L2,Bot,Signal*
%FSLAX46Y46*%
G04 Gerber Fmt 4.6, Leading zero omitted, Abs format (unit mm)*
G04 Created by KiCad (PCBNEW (2015-10-16 BZR 6271)-product) date Sun 01 Nov 2015 17:02:17 NZDT*
%MOMM*%
G01*
G04 APERTURE LIST*
%ADD10C,0.100000*%
%ADD11O,3.000000X1.400000*%
%ADD12C,1.600000*%
%ADD13C,1.501140*%
%ADD14C,2.800000*%
%ADD15C,1.500000*%
%ADD16R,1.050000X1.050000*%
%ADD17C,1.050000*%
%ADD18O,0.950000X1.250000*%
%ADD19O,1.550000X1.000000*%
%ADD20C,0.600000*%
%ADD21C,0.250000*%
%ADD22C,0.500000*%
%ADD23C,1.000000*%
%ADD24C,2.000000*%
%ADD25C,3.000000*%
%ADD26C,0.400000*%
%ADD27C,0.254000*%
G04 APERTURE END LIST*
D10*
D11*
X4318000Y2809000D03*
D12*
X4318000Y10809000D03*
X4318000Y6209000D03*
D11*
X4318000Y14209000D03*
D13*
X64389000Y16017000D03*
X64389000Y13517000D03*
X64389000Y11517000D03*
X64389000Y9017000D03*
D14*
X67099000Y19087000D03*
X67099000Y5947000D03*
D15*
X38683000Y22824000D03*
X38683000Y18324000D03*
X32183000Y22824000D03*
X32183000Y18324000D03*
D16*
X60960000Y4826000D03*
D17*
X60960000Y6096000D03*
X60960000Y7366000D03*
X60960000Y8636000D03*
X60960000Y9906000D03*
X59690000Y6096000D03*
X59690000Y7366000D03*
X59690000Y8636000D03*
X59690000Y9906000D03*
X59690000Y4826000D03*
D16*
X30226000Y4826000D03*
D17*
X30226000Y6096000D03*
X30226000Y7366000D03*
X30226000Y8636000D03*
X30226000Y9906000D03*
X28956000Y6096000D03*
X28956000Y7366000D03*
X28956000Y8636000D03*
X28956000Y9906000D03*
X28956000Y4826000D03*
D18*
X4483540Y22947900D03*
X4483540Y17947900D03*
D19*
X1783540Y23947900D03*
X1783540Y16947900D03*
D20*
X25527000Y3683000D03*
X24130000Y3683000D03*
X13208000Y16383000D03*
X21717000Y14414998D03*
X30861000Y17653000D03*
X31115000Y15494000D03*
X39243000Y4064000D03*
X37084000Y4826000D03*
X35814000Y6223000D03*
X35179000Y7747000D03*
X35179000Y9525000D03*
X36957000Y19558000D03*
X32131000Y7874000D03*
X32131000Y5842000D03*
X17399000Y8128000D03*
X15494000Y8128000D03*
X26035000Y21590000D03*
X21336000Y19304000D03*
X46990000Y10287000D03*
X49276000Y10287000D03*
X59436000Y23368000D03*
X68199000Y9017000D03*
X69596000Y12446000D03*
X69596000Y15240000D03*
X69596000Y21463000D03*
X66167000Y23622000D03*
X62103000Y23749000D03*
X52324000Y18161000D03*
X47879000Y21209000D03*
X17399000Y3683000D03*
X5461000Y24130000D03*
X1270000Y20574000D03*
X49784000Y21209000D03*
X32004000Y9906000D03*
X32131000Y13843000D03*
X62484000Y3937000D03*
X42291000Y4318000D03*
X39370000Y8890000D03*
X40259000Y6985000D03*
X29972000Y18796000D03*
X41529000Y14351000D03*
X38481000Y12954000D03*
X37719000Y12954000D03*
X51435000Y3302000D03*
X68326000Y2667000D03*
X69977000Y3302000D03*
X60833000Y21844000D03*
X8636000Y21209000D03*
X6350000Y1270000D03*
X12319000Y4318000D03*
X8382000Y2794000D03*
X37211000Y16256000D03*
X57023000Y12573000D03*
X57150000Y7112000D03*
X34036000Y14986000D03*
X51689000Y12954000D03*
X55118000Y18796000D03*
X46863000Y18796000D03*
X41783000Y18161000D03*
X6223000Y17399000D03*
X6223000Y18161000D03*
X9779000Y18161000D03*
X10795000Y15748000D03*
X7493000Y12827000D03*
X6604000Y12827000D03*
X26924000Y13716000D03*
X29972000Y20574000D03*
X24003000Y19050000D03*
X15367000Y19050000D03*
X21717000Y3302000D03*
X11176000Y8636000D03*
X14351000Y13335000D03*
X25781000Y6858000D03*
X9525000Y7239000D03*
X10160000Y10922000D03*
X69469000Y1143000D03*
X2159000Y10922000D03*
X10668000Y4318000D03*
X2159000Y10033000D03*
X2667000Y5715000D03*
X2667000Y6604000D03*
X8763000Y4572000D03*
X8763000Y5334000D03*
X34036000Y7239000D03*
X34036000Y6477000D03*
X57912000Y9271000D03*
X54483000Y5842000D03*
X51562000Y5842000D03*
X26924000Y9271000D03*
X20955000Y12446000D03*
X44958000Y13716000D03*
X20574000Y11684000D03*
X44958000Y12827000D03*
X19685000Y11303000D03*
X44958000Y11938000D03*
X19939000Y10541000D03*
X44958000Y10922000D03*
X19304000Y9906000D03*
X45085000Y9906000D03*
D21*
X40195500Y15303500D02*
X39941500Y15049500D01*
X42100500Y15303500D02*
X40195500Y15303500D01*
D22*
X42672000Y16891000D02*
X39116000Y16891000D01*
X42926000Y16637000D02*
X42672000Y16891000D01*
X39116000Y16891000D02*
X33909000Y16891000D01*
X25527000Y3683000D02*
X24130000Y3683000D01*
X13208000Y16383000D02*
X13462000Y16383000D01*
D23*
X21717000Y14414998D02*
X19748998Y16383000D01*
X19748998Y16383000D02*
X13462000Y16383000D01*
X13462000Y16383000D02*
X13208000Y16383000D01*
D21*
X31115000Y15494000D02*
X31115000Y17399000D01*
X31115000Y17399000D02*
X30861000Y17653000D01*
D22*
X38683000Y22824000D02*
X39354000Y23495000D01*
X42037000Y23495000D02*
X42037000Y23368000D01*
X39354000Y23495000D02*
X42037000Y23495000D01*
X35179000Y23368000D02*
X38139000Y23368000D01*
X38139000Y23368000D02*
X38683000Y22824000D01*
X32183000Y22824000D02*
X32727000Y23368000D01*
D24*
X35179000Y23368000D02*
X35179000Y19558000D01*
D22*
X32727000Y23368000D02*
X35179000Y23368000D01*
X29972000Y23368000D02*
X31639000Y23368000D01*
X31639000Y23368000D02*
X32183000Y22824000D01*
X27051000Y23368000D02*
X29972000Y23368000D01*
X32004000Y9906000D02*
X34798000Y9906000D01*
X37846000Y4064000D02*
X39243000Y4064000D01*
X37084000Y4826000D02*
X37846000Y4064000D01*
X35814000Y7112000D02*
X35814000Y6223000D01*
X35179000Y7747000D02*
X35814000Y7112000D01*
X34798000Y9906000D02*
X35179000Y9525000D01*
X35179000Y19558000D02*
X36957000Y19558000D01*
X31369000Y5842000D02*
X32131000Y5842000D01*
X32131000Y7874000D02*
X32131000Y8255000D01*
X15494000Y8128000D02*
X14986000Y8128000D01*
X26670000Y23368000D02*
X26035000Y22733000D01*
X26035000Y22733000D02*
X26035000Y21590000D01*
X21463000Y23368000D02*
X21336000Y23241000D01*
X21336000Y23241000D02*
X21336000Y19304000D01*
X50038000Y10287000D02*
X49276000Y10287000D01*
X46990000Y10287000D02*
X46736000Y10287000D01*
X69596000Y10414000D02*
X68199000Y9017000D01*
X69596000Y12446000D02*
X69596000Y10414000D01*
X69596000Y21463000D02*
X69596000Y15240000D01*
X62230000Y23622000D02*
X66167000Y23622000D01*
X62103000Y23749000D02*
X62230000Y23622000D01*
X51689000Y18161000D02*
X52324000Y18161000D01*
X46863000Y21209000D02*
X47879000Y21209000D01*
X17399000Y8128000D02*
X17399000Y3683000D01*
X18097500Y9588500D02*
X18097500Y8826500D01*
X18097500Y8826500D02*
X17399000Y8128000D01*
X7239000Y23368000D02*
X6223000Y23368000D01*
X6223000Y23368000D02*
X5461000Y24130000D01*
X7239000Y20574000D02*
X1270000Y20574000D01*
X49784000Y23368000D02*
X49784000Y21209000D01*
D21*
X60960000Y7366000D02*
X62357000Y7366000D01*
X60960000Y8636000D02*
X62230000Y8636000D01*
X62230000Y8636000D02*
X62357000Y8509000D01*
X62357000Y8509000D02*
X62357000Y7366000D01*
X62357000Y7366000D02*
X62357000Y5334000D01*
D23*
X34036000Y14986000D02*
X33274000Y14986000D01*
X31750000Y9652000D02*
X31623000Y9652000D01*
X32004000Y9906000D02*
X31750000Y9652000D01*
X33274000Y14986000D02*
X32131000Y13843000D01*
D21*
X30226000Y7366000D02*
X31369000Y7366000D01*
X30226000Y8636000D02*
X31369000Y8636000D01*
D22*
X31369000Y5715000D02*
X31369000Y5842000D01*
X31369000Y5842000D02*
X31369000Y7366000D01*
X31369000Y7366000D02*
X31369000Y8636000D01*
X31369000Y8636000D02*
X31369000Y9652000D01*
X31369000Y9652000D02*
X31115000Y9906000D01*
X31115000Y9906000D02*
X30226000Y9906000D01*
X64389000Y16017000D02*
X69977000Y10429000D01*
D23*
X69977000Y8001000D02*
X69977000Y3302000D01*
X69977000Y10429000D02*
X69977000Y8001000D01*
D22*
X64389000Y16017000D02*
X64008000Y16398000D01*
X64008000Y16398000D02*
X64008000Y23368000D01*
X62484000Y3937000D02*
X62484000Y5207000D01*
X62484000Y5207000D02*
X62357000Y5334000D01*
X61595000Y6096000D02*
X60960000Y6096000D01*
X62357000Y5334000D02*
X61595000Y6096000D01*
D25*
X41783000Y23368000D02*
X42037000Y23368000D01*
X42037000Y23368000D02*
X46990000Y23368000D01*
D22*
X42291000Y4318000D02*
X42291000Y6985000D01*
X39370000Y7874000D02*
X40259000Y6985000D01*
X39370000Y8890000D02*
X39370000Y7874000D01*
X40259000Y6985000D02*
X42291000Y6985000D01*
X42291000Y6985000D02*
X50038000Y6985000D01*
X29972000Y18796000D02*
X29972000Y20574000D01*
D23*
X38481000Y12954000D02*
X38481000Y13081000D01*
X38481000Y13081000D02*
X37211000Y14351000D01*
X37719000Y12954000D02*
X37719000Y13843000D01*
X37719000Y13843000D02*
X37227000Y14335000D01*
D24*
X37227000Y14335000D02*
X37211000Y14351000D01*
X36449000Y15113000D02*
X37211000Y14351000D01*
D22*
X50038000Y4699000D02*
X50038000Y6985000D01*
X51435000Y3302000D02*
X50038000Y4699000D01*
X50038000Y6985000D02*
X50038000Y8128000D01*
X50038000Y8128000D02*
X50038000Y10287000D01*
X50038000Y10287000D02*
X50038000Y11303000D01*
X50038000Y11303000D02*
X51689000Y12954000D01*
X68961000Y3302000D02*
X69977000Y3302000D01*
X68326000Y2667000D02*
X68961000Y3302000D01*
D23*
X61722000Y22606000D02*
X60960000Y23368000D01*
X60833000Y21844000D02*
X61722000Y22606000D01*
D22*
X8636000Y21209000D02*
X7239000Y21209000D01*
D23*
X7239000Y21209000D02*
X7620000Y21209000D01*
X7620000Y21209000D02*
X7239000Y21209000D01*
D22*
X6350000Y1270000D02*
X7874000Y2794000D01*
X7874000Y2794000D02*
X8382000Y2794000D01*
X12319000Y4445000D02*
X9525000Y7239000D01*
X12319000Y4318000D02*
X12319000Y4445000D01*
X7112000Y5842000D02*
X8509000Y7239000D01*
X8001000Y3175000D02*
X7112000Y4064000D01*
X7112000Y4064000D02*
X7112000Y5842000D01*
X8509000Y7239000D02*
X9525000Y7239000D01*
X8382000Y2794000D02*
X8001000Y3175000D01*
X36449000Y15494000D02*
X36449000Y15113000D01*
X36258500Y15303500D02*
X36449000Y15494000D01*
X37211000Y16256000D02*
X36258500Y15303500D01*
X60960000Y9906000D02*
X60960000Y23368000D01*
X60960000Y23368000D02*
X60960000Y23114000D01*
X60960000Y23114000D02*
X60960000Y23368000D01*
X57023000Y12573000D02*
X57150000Y12573000D01*
X57150000Y16764000D02*
X55118000Y18796000D01*
X57150000Y7112000D02*
X57150000Y12573000D01*
X57150000Y12573000D02*
X57150000Y16764000D01*
X60960000Y8636000D02*
X60960000Y9906000D01*
X60960000Y7366000D02*
X60960000Y8636000D01*
X60960000Y6096000D02*
X60960000Y7366000D01*
D23*
X35306000Y16256000D02*
X35179000Y16383000D01*
X34036000Y14986000D02*
X35306000Y16256000D01*
D22*
X51689000Y12954000D02*
X51689000Y18161000D01*
X51689000Y18161000D02*
X51689000Y23368000D01*
D24*
X35179000Y16383000D02*
X36449000Y15113000D01*
X35179000Y19558000D02*
X35179000Y16383000D01*
D22*
X55118000Y18796000D02*
X55118000Y23368000D01*
X55118000Y23368000D02*
X55118000Y22860000D01*
X55118000Y22860000D02*
X55118000Y23368000D01*
X46863000Y23241000D02*
X46990000Y23368000D01*
X46863000Y18796000D02*
X46863000Y21209000D01*
X46863000Y21209000D02*
X46863000Y23241000D01*
X41783000Y23368000D02*
X41783000Y22860000D01*
X41783000Y22860000D02*
X41783000Y23368000D01*
D23*
X9144000Y23749000D02*
X9144000Y23368000D01*
X8763000Y23368000D02*
X9144000Y23749000D01*
X8509000Y23368000D02*
X8763000Y23368000D01*
X8382000Y23495000D02*
X8509000Y23368000D01*
X6223000Y17399000D02*
X7239000Y17399000D01*
X7239000Y17399000D02*
X7366000Y17526000D01*
D26*
X7493000Y17526000D02*
X7366000Y17526000D01*
X7366000Y17526000D02*
X7493000Y17526000D01*
D23*
X6223000Y18161000D02*
X8001000Y18161000D01*
D26*
X8001000Y18161000D02*
X7874000Y18034000D01*
X7874000Y18034000D02*
X7493000Y18034000D01*
X7493000Y18034000D02*
X7493000Y18669000D01*
D23*
X10795000Y15748000D02*
X10795000Y13335000D01*
X10795000Y13335000D02*
X10287000Y13335000D01*
X9779000Y18161000D02*
X10795000Y17145000D01*
X10795000Y17145000D02*
X10795000Y15748000D01*
X9779000Y18161000D02*
X8001000Y18161000D01*
X8001000Y18161000D02*
X7493000Y18669000D01*
X7493000Y18669000D02*
X7493000Y18669000D01*
D22*
X10795000Y15748000D02*
X10795000Y16256000D01*
D24*
X7493000Y13335000D02*
X7493000Y17526000D01*
D23*
X7493000Y13716000D02*
X7493000Y13335000D01*
D24*
X7493000Y17526000D02*
X7493000Y18669000D01*
X7493000Y18669000D02*
X7493000Y18796000D01*
D23*
X7239000Y19050000D02*
X7239000Y18923000D01*
D25*
X7239000Y18923000D02*
X7239000Y20574000D01*
X7239000Y20574000D02*
X7239000Y21209000D01*
D23*
X6858000Y19431000D02*
X7239000Y19050000D01*
D24*
X7493000Y18796000D02*
X6858000Y19431000D01*
D25*
X7239000Y21209000D02*
X7239000Y23368000D01*
X7239000Y23368000D02*
X9144000Y23368000D01*
D23*
X7493000Y12827000D02*
X7493000Y13716000D01*
X6604000Y12827000D02*
X7493000Y12827000D01*
X7493000Y12827000D02*
X7493000Y13716000D01*
D25*
X9144000Y23368000D02*
X15367000Y23368000D01*
D22*
X26924000Y13716000D02*
X26924000Y23368000D01*
X26924000Y23368000D02*
X27051000Y23368000D01*
D25*
X26670000Y23368000D02*
X27051000Y23368000D01*
D22*
X29972000Y20574000D02*
X29972000Y23368000D01*
X29972000Y23368000D02*
X29972000Y23241000D01*
X29972000Y23241000D02*
X29972000Y23368000D01*
X24003000Y19050000D02*
X24003000Y23368000D01*
X24003000Y23368000D02*
X24003000Y23241000D01*
X24003000Y23241000D02*
X24003000Y23368000D01*
X15367000Y19050000D02*
X15367000Y23368000D01*
X15367000Y23368000D02*
X15367000Y23241000D01*
X15367000Y23241000D02*
X15367000Y23368000D01*
D25*
X15367000Y23368000D02*
X21463000Y23368000D01*
X21463000Y23368000D02*
X24003000Y23368000D01*
X24003000Y23368000D02*
X26670000Y23368000D01*
X46990000Y23368000D02*
X49784000Y23368000D01*
X49784000Y23368000D02*
X51689000Y23368000D01*
X51689000Y23368000D02*
X55118000Y23368000D01*
X55118000Y23368000D02*
X59436000Y23368000D01*
X59436000Y23368000D02*
X60960000Y23368000D01*
X60960000Y23368000D02*
X64008000Y23368000D01*
X64008000Y23368000D02*
X64389000Y23368000D01*
D22*
X30226000Y6096000D02*
X30988000Y6096000D01*
X30988000Y6096000D02*
X31369000Y5715000D01*
X31369000Y5715000D02*
X31369000Y4191000D01*
X31369000Y4191000D02*
X30861000Y3683000D01*
X30861000Y3683000D02*
X27432000Y3683000D01*
X27432000Y3683000D02*
X25019000Y6096000D01*
X30226000Y7366000D02*
X30226000Y6096000D01*
X30226000Y8636000D02*
X30226000Y7366000D01*
X30226000Y9906000D02*
X30226000Y8636000D01*
X21717000Y3302000D02*
X21717000Y6096000D01*
X21717000Y6096000D02*
X21590000Y6096000D01*
D23*
X11176000Y8636000D02*
X10160000Y8636000D01*
X25781000Y6858000D02*
X25019000Y6096000D01*
X25019000Y6096000D02*
X21590000Y6096000D01*
X14351000Y13335000D02*
X18097500Y9588500D01*
X18097500Y9588500D02*
X21590000Y6096000D01*
X14351000Y13335000D02*
X10287000Y13335000D01*
D22*
X10287000Y13335000D02*
X10160000Y13208000D01*
D23*
X10160000Y10922000D02*
X10160000Y13208000D01*
D22*
X9525000Y7239000D02*
X9271000Y7239000D01*
D23*
X10160000Y7874000D02*
X10160000Y8636000D01*
X9525000Y7239000D02*
X10160000Y7874000D01*
X10160000Y8636000D02*
X10160000Y10922000D01*
D24*
X69469000Y1143000D02*
X66929000Y1143000D01*
D25*
X66421000Y1651000D02*
X64516000Y1651000D01*
D24*
X66929000Y1143000D02*
X66421000Y1651000D01*
X64389000Y9017000D02*
X64389000Y1651000D01*
X64516000Y1778000D02*
X64516000Y1651000D01*
X64389000Y1651000D02*
X64516000Y1778000D01*
D25*
X64516000Y1651000D02*
X52578000Y1651000D01*
D24*
X50292000Y1651000D02*
X50800000Y1143000D01*
D25*
X50292000Y1651000D02*
X34036000Y1651000D01*
D24*
X52070000Y1143000D02*
X52578000Y1651000D01*
X50800000Y1143000D02*
X52070000Y1143000D01*
D23*
X2159000Y10922000D02*
X2159000Y10033000D01*
D22*
X9906000Y3556000D02*
X9906000Y3429000D01*
X9842500Y3492500D02*
X9906000Y3556000D01*
X10668000Y4318000D02*
X9842500Y3492500D01*
D25*
X14732000Y1651000D02*
X12573000Y1651000D01*
X12573000Y1651000D02*
X11684000Y1651000D01*
D24*
X11557000Y1778000D02*
X9906000Y3429000D01*
X9906000Y3429000D02*
X8763000Y4572000D01*
D25*
X11684000Y1651000D02*
X11557000Y1778000D01*
X14732000Y1651000D02*
X20447000Y1651000D01*
D24*
X34036000Y1651000D02*
X34036000Y6477000D01*
X22352000Y1143000D02*
X22860000Y1651000D01*
X20955000Y1143000D02*
X22352000Y1143000D01*
X20447000Y1651000D02*
X20955000Y1143000D01*
D25*
X34036000Y1651000D02*
X22860000Y1651000D01*
D24*
X14605000Y1524000D02*
X14732000Y1651000D01*
X2667000Y7874000D02*
X2667000Y9525000D01*
X2667000Y9525000D02*
X2159000Y10033000D01*
D23*
X2667000Y7874000D02*
X2667000Y6604000D01*
X2667000Y6604000D02*
X2667000Y5715000D01*
X8763000Y4572000D02*
X8763000Y5334000D01*
X34036000Y7239000D02*
X34036000Y6477000D01*
D21*
X58547000Y7366000D02*
X59690000Y7366000D01*
X57912000Y8001000D02*
X58547000Y7366000D01*
X57912000Y9271000D02*
X57912000Y8001000D01*
X51562000Y5842000D02*
X54483000Y5842000D01*
X27940000Y7366000D02*
X28956000Y7366000D01*
X26924000Y8382000D02*
X27940000Y7366000D01*
X26924000Y9271000D02*
X26924000Y8382000D01*
X37465000Y11811000D02*
X43053000Y11811000D01*
X31115000Y12954000D02*
X36322000Y12954000D01*
X27051000Y12954000D02*
X31115000Y12954000D01*
X26543000Y12446000D02*
X27051000Y12954000D01*
X20955000Y12446000D02*
X26543000Y12446000D01*
X36322000Y12954000D02*
X37465000Y11811000D01*
X43053000Y11811000D02*
X44958000Y13716000D01*
X31115000Y12388002D02*
X36125998Y12388002D01*
X27247002Y12388002D02*
X31115000Y12388002D01*
X26543000Y11684000D02*
X27247002Y12388002D01*
X20574000Y11684000D02*
X26543000Y11684000D01*
X43434000Y11303000D02*
X44958000Y12827000D01*
X37211000Y11303000D02*
X43434000Y11303000D01*
X36125998Y12388002D02*
X37211000Y11303000D01*
X31115000Y11938000D02*
X35814000Y11938000D01*
X27559000Y11938000D02*
X31115000Y11938000D01*
X26924000Y11303000D02*
X27559000Y11938000D01*
X26670000Y11049000D02*
X26924000Y11303000D01*
X20320000Y11049000D02*
X26670000Y11049000D01*
X20066000Y11303000D02*
X20320000Y11049000D01*
X19685000Y11303000D02*
X20066000Y11303000D01*
X43815000Y10795000D02*
X44958000Y11938000D01*
X36957000Y10795000D02*
X43815000Y10795000D01*
X35814000Y11938000D02*
X36957000Y10795000D01*
X43434000Y10287000D02*
X44323000Y10287000D01*
X35560000Y11430000D02*
X36703000Y10287000D01*
X36703000Y10287000D02*
X43434000Y10287000D01*
X27940000Y11430000D02*
X30988000Y11430000D01*
X27051000Y10541000D02*
X27940000Y11430000D01*
X19939000Y10541000D02*
X27051000Y10541000D01*
X30988000Y11430000D02*
X35560000Y11430000D01*
X44323000Y10287000D02*
X44958000Y10922000D01*
X44831000Y9652000D02*
X45085000Y9906000D01*
X35179000Y10922000D02*
X36449000Y9652000D01*
X36449000Y9652000D02*
X44831000Y9652000D01*
X19304000Y9906000D02*
X27178000Y9906000D01*
X27178000Y9906000D02*
X28194000Y10922000D01*
X28194000Y10922000D02*
X30861000Y10922000D01*
X30861000Y10922000D02*
X35179000Y10922000D01*
D27*
G36*
X70215195Y24578058D02*
X70417129Y24443129D01*
X70552058Y24241195D01*
X70607000Y23964984D01*
X70607000Y1877834D01*
X70445514Y2119514D01*
X69997486Y2418878D01*
X69469000Y2524000D01*
X68056471Y2524000D01*
X67751068Y2981068D01*
X67140828Y3388817D01*
X66421000Y3532000D01*
X65770000Y3532000D01*
X65770000Y4757406D01*
X66088827Y4438022D01*
X66743183Y4166310D01*
X67451709Y4165691D01*
X68106538Y4436261D01*
X68607978Y4936827D01*
X68879690Y5591183D01*
X68880309Y6299709D01*
X68609739Y6954538D01*
X68109173Y7455978D01*
X67454817Y7727690D01*
X66746291Y7728309D01*
X66091462Y7457739D01*
X65770000Y7136837D01*
X65770000Y9017000D01*
X65664878Y9545486D01*
X65365514Y9993514D01*
X64917486Y10292878D01*
X64452474Y10385374D01*
X64613096Y10385234D01*
X65029146Y10557142D01*
X65347739Y10875180D01*
X65520373Y11290929D01*
X65520766Y11741096D01*
X65348858Y12157146D01*
X65030820Y12475739D01*
X64931723Y12516888D01*
X65029146Y12557142D01*
X65347739Y12875180D01*
X65520373Y13290929D01*
X65520766Y13741096D01*
X65348858Y14157146D01*
X65030820Y14475739D01*
X64630620Y14641917D01*
X64734538Y14647195D01*
X65113265Y14804069D01*
X65181325Y15045070D01*
X64389000Y15837395D01*
X63596675Y15045070D01*
X63664735Y14804069D01*
X64135359Y14636558D01*
X63748854Y14476858D01*
X63430261Y14158820D01*
X63257627Y13743071D01*
X63257234Y13292904D01*
X63429142Y12876854D01*
X63747180Y12558261D01*
X63846277Y12517112D01*
X63748854Y12476858D01*
X63430261Y12158820D01*
X63257627Y11743071D01*
X63257234Y11292904D01*
X63429142Y10876854D01*
X63747180Y10558261D01*
X64162929Y10385627D01*
X64326080Y10385485D01*
X63860514Y10292878D01*
X63412486Y9993514D01*
X63113122Y9545486D01*
X63008000Y9017000D01*
X63008000Y3532000D01*
X52578000Y3532000D01*
X51858172Y3388817D01*
X51435000Y3106063D01*
X51011828Y3388817D01*
X50292000Y3532000D01*
X35417000Y3532000D01*
X35417000Y5707135D01*
X50880882Y5707135D01*
X50984339Y5456748D01*
X51175741Y5265013D01*
X51425946Y5161118D01*
X51696865Y5160882D01*
X51947252Y5264339D01*
X52019038Y5336000D01*
X54025877Y5336000D01*
X54096741Y5265013D01*
X54346946Y5161118D01*
X54617865Y5160882D01*
X54868252Y5264339D01*
X55059987Y5455741D01*
X55163882Y5705946D01*
X55164118Y5976865D01*
X55060661Y6227252D01*
X54869259Y6418987D01*
X54619054Y6522882D01*
X54348135Y6523118D01*
X54097748Y6419661D01*
X54025962Y6348000D01*
X52019123Y6348000D01*
X51948259Y6418987D01*
X51698054Y6522882D01*
X51427135Y6523118D01*
X51176748Y6419661D01*
X50985013Y6228259D01*
X50881118Y5978054D01*
X50880882Y5707135D01*
X35417000Y5707135D01*
X35417000Y6477000D01*
X35311878Y7005486D01*
X35012514Y7453514D01*
X34853150Y7559998D01*
X34849938Y7576144D01*
X34658961Y7861961D01*
X34373144Y8052938D01*
X34036000Y8120000D01*
X33698856Y8052938D01*
X33413039Y7861961D01*
X33222062Y7576144D01*
X33218850Y7559998D01*
X33059486Y7453514D01*
X32760122Y7005486D01*
X32655000Y6477000D01*
X32655000Y3532000D01*
X26201676Y3532000D01*
X26207882Y3546946D01*
X26208118Y3817865D01*
X26104661Y4068252D01*
X25913259Y4259987D01*
X25663054Y4363882D01*
X25392135Y4364118D01*
X25270839Y4314000D01*
X24386182Y4314000D01*
X24266054Y4363882D01*
X23995135Y4364118D01*
X23744748Y4260661D01*
X23553013Y4069259D01*
X23449118Y3819054D01*
X23448882Y3548135D01*
X23455549Y3532000D01*
X22860000Y3532000D01*
X22140172Y3388817D01*
X21653500Y3063633D01*
X21166828Y3388817D01*
X20447000Y3532000D01*
X12195470Y3532000D01*
X11646913Y3641115D01*
X11277643Y4010385D01*
X11348882Y4181946D01*
X11349118Y4452865D01*
X11245661Y4703252D01*
X11054259Y4894987D01*
X10804054Y4998882D01*
X10533135Y4999118D01*
X10360317Y4927712D01*
X9739514Y5548514D01*
X9580150Y5654998D01*
X9576938Y5671144D01*
X9385961Y5956961D01*
X9100144Y6147938D01*
X8763000Y6215000D01*
X8425856Y6147938D01*
X8140039Y5956961D01*
X7949062Y5671144D01*
X7945850Y5654998D01*
X7786486Y5548514D01*
X7487122Y5100486D01*
X7382001Y4572000D01*
X7487122Y4043514D01*
X7786486Y3595486D01*
X8929485Y2452486D01*
X8929488Y2452484D01*
X9693885Y1688087D01*
X9819183Y1058173D01*
X10226932Y447932D01*
X10288864Y386000D01*
X1054016Y386000D01*
X777805Y440942D01*
X575871Y575871D01*
X440942Y777805D01*
X386000Y1054017D01*
X386000Y2809000D01*
X2400149Y2809000D01*
X2482435Y2395319D01*
X2716767Y2044618D01*
X3067468Y1810286D01*
X3481149Y1728000D01*
X5154851Y1728000D01*
X5568532Y1810286D01*
X5919233Y2044618D01*
X6153565Y2395319D01*
X6235851Y2809000D01*
X6153565Y3222681D01*
X5919233Y3573382D01*
X5568532Y3807714D01*
X5154851Y3890000D01*
X3481149Y3890000D01*
X3067468Y3807714D01*
X2716767Y3573382D01*
X2482435Y3222681D01*
X2400149Y2809000D01*
X386000Y2809000D01*
X386000Y10033000D01*
X778001Y10033000D01*
X883122Y9504514D01*
X1182486Y9056486D01*
X1286000Y8952972D01*
X1286000Y7874000D01*
X1391122Y7345514D01*
X1690486Y6897486D01*
X1786000Y6833665D01*
X1786000Y5715000D01*
X1853062Y5377856D01*
X2044039Y5092039D01*
X2329856Y4901062D01*
X2667000Y4834000D01*
X3004144Y4901062D01*
X3289961Y5092039D01*
X3480147Y5376672D01*
X3648144Y5208381D01*
X4082054Y5028206D01*
X4551885Y5027796D01*
X4986109Y5207213D01*
X5318619Y5539144D01*
X5498794Y5973054D01*
X5499204Y6442885D01*
X5319787Y6877109D01*
X4987856Y7209619D01*
X4553946Y7389794D01*
X4084115Y7390204D01*
X3930263Y7326634D01*
X3942878Y7345514D01*
X4048000Y7874000D01*
X4048000Y9525000D01*
X4022557Y9652911D01*
X4082054Y9628206D01*
X4551885Y9627796D01*
X4898793Y9771135D01*
X18622882Y9771135D01*
X18726339Y9520748D01*
X18917741Y9329013D01*
X19167946Y9225118D01*
X19438865Y9224882D01*
X19689252Y9328339D01*
X19761038Y9400000D01*
X26243112Y9400000D01*
X26242882Y9136135D01*
X26346339Y8885748D01*
X26418000Y8813962D01*
X26418000Y8382000D01*
X26456517Y8188362D01*
X26566204Y8024204D01*
X27582204Y7008204D01*
X27746362Y6898517D01*
X27940000Y6860000D01*
X28184781Y6860000D01*
X28187482Y6853462D01*
X28309721Y6731010D01*
X28188378Y6609878D01*
X28050157Y6277005D01*
X28049843Y5916576D01*
X28187482Y5583462D01*
X28309721Y5461010D01*
X28188378Y5339878D01*
X28050157Y5007005D01*
X28049843Y4646576D01*
X28187482Y4313462D01*
X28442122Y4058378D01*
X28774995Y3920157D01*
X29135424Y3919843D01*
X29418305Y4036726D01*
X29422546Y4030135D01*
X29549866Y3943141D01*
X29701000Y3912536D01*
X30751000Y3912536D01*
X30892190Y3939103D01*
X31021865Y4022546D01*
X31108859Y4149866D01*
X31139464Y4301000D01*
X31139464Y5340356D01*
X31150358Y5351250D01*
X31136881Y5364727D01*
X31114774Y5482214D01*
X31251962Y5507575D01*
X31399046Y5944985D01*
X31367543Y6405386D01*
X31251962Y6684425D01*
X31049814Y6721794D01*
X31040608Y6731000D01*
X31049814Y6740206D01*
X31251962Y6777575D01*
X31399046Y7214985D01*
X31367543Y7675386D01*
X31251962Y7954425D01*
X31049814Y7991794D01*
X31040608Y8001000D01*
X31049814Y8010206D01*
X31251962Y8047575D01*
X31399046Y8484985D01*
X31367543Y8945386D01*
X31288533Y9136135D01*
X57230882Y9136135D01*
X57334339Y8885748D01*
X57406000Y8813962D01*
X57406000Y8001000D01*
X57444517Y7807362D01*
X57554204Y7643204D01*
X58189204Y7008204D01*
X58353362Y6898517D01*
X58547000Y6860000D01*
X58918781Y6860000D01*
X58921482Y6853462D01*
X59043721Y6731010D01*
X58922378Y6609878D01*
X58784157Y6277005D01*
X58783843Y5916576D01*
X58921482Y5583462D01*
X59043721Y5461010D01*
X58922378Y5339878D01*
X58784157Y5007005D01*
X58783843Y4646576D01*
X58921482Y4313462D01*
X59176122Y4058378D01*
X59508995Y3920157D01*
X59869424Y3919843D01*
X60152305Y4036726D01*
X60156546Y4030135D01*
X60283866Y3943141D01*
X60435000Y3912536D01*
X61485000Y3912536D01*
X61626190Y3939103D01*
X61755865Y4022546D01*
X61842859Y4149866D01*
X61873464Y4301000D01*
X61873464Y5340356D01*
X61884358Y5351250D01*
X61870881Y5364727D01*
X61848774Y5482214D01*
X61985962Y5507575D01*
X62133046Y5944985D01*
X62101543Y6405386D01*
X61985962Y6684425D01*
X61783814Y6721794D01*
X61774608Y6731000D01*
X61783814Y6740206D01*
X61985962Y6777575D01*
X62133046Y7214985D01*
X62101543Y7675386D01*
X61985962Y7954425D01*
X61783814Y7991794D01*
X61774608Y8001000D01*
X61783814Y8010206D01*
X61985962Y8047575D01*
X62133046Y8484985D01*
X62101543Y8945386D01*
X61985962Y9224425D01*
X61783814Y9261794D01*
X61774608Y9271000D01*
X61783814Y9280206D01*
X61985962Y9317575D01*
X62133046Y9754985D01*
X62101543Y10215386D01*
X61985962Y10494425D01*
X61768273Y10534667D01*
X61139605Y9906000D01*
X61153748Y9891857D01*
X61067992Y9806102D01*
X60865840Y9792270D01*
X60766253Y9891857D01*
X60780395Y9906000D01*
X60592768Y10093627D01*
X60458518Y10418538D01*
X60203878Y10673622D01*
X60105980Y10714273D01*
X60331333Y10714273D01*
X60960000Y10085605D01*
X61588667Y10714273D01*
X61548425Y10931962D01*
X61111015Y11079046D01*
X60650614Y11047543D01*
X60371575Y10931962D01*
X60331333Y10714273D01*
X60105980Y10714273D01*
X59871005Y10811843D01*
X59510576Y10812157D01*
X59177462Y10674518D01*
X58922378Y10419878D01*
X58784157Y10087005D01*
X58783843Y9726576D01*
X58921482Y9393462D01*
X59043721Y9271010D01*
X58922378Y9149878D01*
X58784157Y8817005D01*
X58783843Y8456576D01*
X58921482Y8123462D01*
X59043721Y8001010D01*
X58922378Y7879878D01*
X58919107Y7872000D01*
X58756592Y7872000D01*
X58418000Y8210592D01*
X58418000Y8813877D01*
X58488987Y8884741D01*
X58592882Y9134946D01*
X58593118Y9405865D01*
X58489661Y9656252D01*
X58298259Y9847987D01*
X58048054Y9951882D01*
X57777135Y9952118D01*
X57526748Y9848661D01*
X57335013Y9657259D01*
X57231118Y9407054D01*
X57230882Y9136135D01*
X31288533Y9136135D01*
X31251962Y9224425D01*
X31049814Y9261794D01*
X31040608Y9271000D01*
X31049814Y9280206D01*
X31251962Y9317575D01*
X31399046Y9754985D01*
X31367543Y10215386D01*
X31284446Y10416000D01*
X34969408Y10416000D01*
X36091204Y9294204D01*
X36255362Y9184517D01*
X36449000Y9146000D01*
X44831000Y9146000D01*
X45024638Y9184517D01*
X45085224Y9224999D01*
X45219865Y9224882D01*
X45470252Y9328339D01*
X45661987Y9519741D01*
X45765882Y9769946D01*
X45766118Y10040865D01*
X45662661Y10291252D01*
X45476691Y10477546D01*
X45534987Y10535741D01*
X45638882Y10785946D01*
X45639118Y11056865D01*
X45535661Y11307252D01*
X45413080Y11430046D01*
X45534987Y11551741D01*
X45638882Y11801946D01*
X45639118Y12072865D01*
X45535661Y12323252D01*
X45476580Y12382436D01*
X45534987Y12440741D01*
X45638882Y12690946D01*
X45639118Y12961865D01*
X45535661Y13212252D01*
X45476580Y13271436D01*
X45534987Y13329741D01*
X45638882Y13579946D01*
X45639118Y13850865D01*
X45535661Y14101252D01*
X45344259Y14292987D01*
X45094054Y14396882D01*
X44823135Y14397118D01*
X44572748Y14293661D01*
X44381013Y14102259D01*
X44277118Y13852054D01*
X44277030Y13750622D01*
X42843408Y12317000D01*
X37674592Y12317000D01*
X36679796Y13311796D01*
X36515638Y13421483D01*
X36322000Y13460000D01*
X27051000Y13460000D01*
X26857362Y13421483D01*
X26693204Y13311796D01*
X26333408Y12952000D01*
X21412123Y12952000D01*
X21341259Y13022987D01*
X21091054Y13126882D01*
X20820135Y13127118D01*
X20569748Y13023661D01*
X20378013Y12832259D01*
X20274118Y12582054D01*
X20273882Y12311135D01*
X20278928Y12298922D01*
X20188748Y12261661D01*
X19997013Y12070259D01*
X19940543Y11934265D01*
X19821054Y11983882D01*
X19550135Y11984118D01*
X19299748Y11880661D01*
X19108013Y11689259D01*
X19004118Y11439054D01*
X19003882Y11168135D01*
X19107339Y10917748D01*
X19284409Y10740370D01*
X19258118Y10677054D01*
X19258040Y10587041D01*
X19169135Y10587118D01*
X18918748Y10483661D01*
X18727013Y10292259D01*
X18623118Y10042054D01*
X18622882Y9771135D01*
X4898793Y9771135D01*
X4986109Y9807213D01*
X5318619Y10139144D01*
X5498794Y10573054D01*
X5499204Y11042885D01*
X5319787Y11477109D01*
X4987856Y11809619D01*
X4553946Y11989794D01*
X4084115Y11990204D01*
X3649891Y11810787D01*
X3317381Y11478856D01*
X3137206Y11044946D01*
X3137174Y11007854D01*
X3135514Y11009514D01*
X3005284Y11096532D01*
X2972938Y11259144D01*
X2781961Y11544961D01*
X2496144Y11735938D01*
X2159000Y11803000D01*
X1821856Y11735938D01*
X1536039Y11544961D01*
X1345062Y11259144D01*
X1312716Y11096532D01*
X1182486Y11009514D01*
X883122Y10561486D01*
X778001Y10033000D01*
X386000Y10033000D01*
X386000Y14209000D01*
X2400149Y14209000D01*
X2482435Y13795319D01*
X2716767Y13444618D01*
X3067468Y13210286D01*
X3481149Y13128000D01*
X5154851Y13128000D01*
X5568532Y13210286D01*
X5919233Y13444618D01*
X6153565Y13795319D01*
X6235851Y14209000D01*
X6153565Y14622681D01*
X5919233Y14973382D01*
X5568532Y15207714D01*
X5154851Y15290000D01*
X3481149Y15290000D01*
X3067468Y15207714D01*
X2716767Y14973382D01*
X2482435Y14622681D01*
X2400149Y14209000D01*
X386000Y14209000D01*
X386000Y16947900D01*
X604893Y16947900D01*
X671955Y16610756D01*
X862932Y16324939D01*
X1148749Y16133962D01*
X1485893Y16066900D01*
X2081187Y16066900D01*
X2418331Y16133962D01*
X2704148Y16324939D01*
X2742943Y16383000D01*
X12327000Y16383000D01*
X12394062Y16045856D01*
X12585039Y15760039D01*
X12870856Y15569062D01*
X13208000Y15502000D01*
X19384076Y15502000D01*
X21094039Y13792037D01*
X21379856Y13601060D01*
X21717000Y13533998D01*
X22054144Y13601060D01*
X22339961Y13792037D01*
X22530938Y14077854D01*
X22598000Y14414998D01*
X22530938Y14752142D01*
X22339961Y15037959D01*
X20371959Y17005961D01*
X20086142Y17196938D01*
X19748998Y17264000D01*
X13208000Y17264000D01*
X12870856Y17196938D01*
X12585039Y17005961D01*
X12394062Y16720144D01*
X12327000Y16383000D01*
X2742943Y16383000D01*
X2895125Y16610756D01*
X2962187Y16947900D01*
X2895125Y17285044D01*
X2704148Y17570861D01*
X2418331Y17761838D01*
X2081187Y17828900D01*
X1485893Y17828900D01*
X1148749Y17761838D01*
X862932Y17570861D01*
X671955Y17285044D01*
X604893Y16947900D01*
X386000Y16947900D01*
X386000Y18117609D01*
X3627540Y18117609D01*
X3627540Y17778191D01*
X3692699Y17450614D01*
X3878257Y17172908D01*
X4155963Y16987350D01*
X4483540Y16922191D01*
X4811117Y16987350D01*
X5088823Y17172908D01*
X5274381Y17450614D01*
X5287811Y17518135D01*
X30179882Y17518135D01*
X30283339Y17267748D01*
X30474741Y17076013D01*
X30609000Y17020263D01*
X30609000Y15951123D01*
X30538013Y15880259D01*
X30434118Y15630054D01*
X30433882Y15359135D01*
X30537339Y15108748D01*
X30728741Y14917013D01*
X30978946Y14813118D01*
X31249865Y14812882D01*
X31500252Y14916339D01*
X31691987Y15107741D01*
X31795882Y15357946D01*
X31796118Y15628865D01*
X31692661Y15879252D01*
X31621000Y15951038D01*
X31621000Y16221966D01*
X62991233Y16221966D01*
X63019195Y15671462D01*
X63176069Y15292735D01*
X63417070Y15224675D01*
X64209395Y16017000D01*
X64568605Y16017000D01*
X65360930Y15224675D01*
X65601931Y15292735D01*
X65786767Y15812034D01*
X65758805Y16362538D01*
X65601931Y16741265D01*
X65360930Y16809325D01*
X64568605Y16017000D01*
X64209395Y16017000D01*
X63417070Y16809325D01*
X63176069Y16741265D01*
X62991233Y16221966D01*
X31621000Y16221966D01*
X31621000Y16988930D01*
X63596675Y16988930D01*
X64389000Y16196605D01*
X65181325Y16988930D01*
X65113265Y17229931D01*
X64593966Y17414767D01*
X64043462Y17386805D01*
X63664735Y17229931D01*
X63596675Y16988930D01*
X31621000Y16988930D01*
X31621000Y17332734D01*
X31957043Y17193196D01*
X32406983Y17192804D01*
X32822823Y17364625D01*
X33141256Y17682503D01*
X33313804Y18098043D01*
X33313805Y18100017D01*
X37551804Y18100017D01*
X37723625Y17684177D01*
X38041503Y17365744D01*
X38457043Y17193196D01*
X38906983Y17192804D01*
X39322823Y17364625D01*
X39641256Y17682503D01*
X39813804Y18098043D01*
X39814196Y18547983D01*
X39737216Y18734291D01*
X65317691Y18734291D01*
X65588261Y18079462D01*
X66088827Y17578022D01*
X66743183Y17306310D01*
X67451709Y17305691D01*
X68106538Y17576261D01*
X68607978Y18076827D01*
X68879690Y18731183D01*
X68880309Y19439709D01*
X68609739Y20094538D01*
X68109173Y20595978D01*
X67454817Y20867690D01*
X66746291Y20868309D01*
X66091462Y20597739D01*
X65590022Y20097173D01*
X65318310Y19442817D01*
X65317691Y18734291D01*
X39737216Y18734291D01*
X39642375Y18963823D01*
X39324497Y19282256D01*
X38908957Y19454804D01*
X38459017Y19455196D01*
X38043177Y19283375D01*
X37724744Y18965497D01*
X37552196Y18549957D01*
X37551804Y18100017D01*
X33313805Y18100017D01*
X33314196Y18547983D01*
X33142375Y18963823D01*
X32824497Y19282256D01*
X32408957Y19454804D01*
X31959017Y19455196D01*
X31543177Y19283375D01*
X31224744Y18965497D01*
X31052196Y18549957D01*
X31051988Y18311071D01*
X30997054Y18333882D01*
X30726135Y18334118D01*
X30475748Y18230661D01*
X30284013Y18039259D01*
X30180118Y17789054D01*
X30179882Y17518135D01*
X5287811Y17518135D01*
X5339540Y17778191D01*
X5339540Y18117609D01*
X5274381Y18445186D01*
X5088823Y18722892D01*
X4811117Y18908450D01*
X4483540Y18973609D01*
X4155963Y18908450D01*
X3878257Y18722892D01*
X3692699Y18445186D01*
X3627540Y18117609D01*
X386000Y18117609D01*
X386000Y21852483D01*
X31391088Y21852483D01*
X31459077Y21611540D01*
X31978171Y21426799D01*
X32528448Y21454770D01*
X32906923Y21611540D01*
X32974912Y21852483D01*
X37891088Y21852483D01*
X37959077Y21611540D01*
X38478171Y21426799D01*
X39028448Y21454770D01*
X39406923Y21611540D01*
X39474912Y21852483D01*
X38683000Y22644395D01*
X37891088Y21852483D01*
X32974912Y21852483D01*
X32183000Y22644395D01*
X31391088Y21852483D01*
X386000Y21852483D01*
X386000Y23964983D01*
X440942Y24241195D01*
X575871Y24443129D01*
X777805Y24578058D01*
X914353Y24605219D01*
X862932Y24570861D01*
X671955Y24285044D01*
X604893Y23947900D01*
X671955Y23610756D01*
X862932Y23324939D01*
X1148749Y23133962D01*
X1485893Y23066900D01*
X2081187Y23066900D01*
X2336118Y23117609D01*
X3627540Y23117609D01*
X3627540Y22778191D01*
X3692699Y22450614D01*
X3878257Y22172908D01*
X4155963Y21987350D01*
X4483540Y21922191D01*
X4811117Y21987350D01*
X5088823Y22172908D01*
X5274381Y22450614D01*
X5339540Y22778191D01*
X5339540Y23028829D01*
X30785799Y23028829D01*
X30813770Y22478552D01*
X30970540Y22100077D01*
X31211483Y22032088D01*
X32003395Y22824000D01*
X32362605Y22824000D01*
X33154517Y22032088D01*
X33395460Y22100077D01*
X33580201Y22619171D01*
X33559378Y23028829D01*
X37285799Y23028829D01*
X37313770Y22478552D01*
X37470540Y22100077D01*
X37711483Y22032088D01*
X38503395Y22824000D01*
X38862605Y22824000D01*
X39654517Y22032088D01*
X39895460Y22100077D01*
X40080201Y22619171D01*
X40052230Y23169448D01*
X39895460Y23547923D01*
X39654517Y23615912D01*
X38862605Y22824000D01*
X38503395Y22824000D01*
X37711483Y23615912D01*
X37470540Y23547923D01*
X37285799Y23028829D01*
X33559378Y23028829D01*
X33552230Y23169448D01*
X33395460Y23547923D01*
X33154517Y23615912D01*
X32362605Y22824000D01*
X32003395Y22824000D01*
X31211483Y23615912D01*
X30970540Y23547923D01*
X30785799Y23028829D01*
X5339540Y23028829D01*
X5339540Y23117609D01*
X5274381Y23445186D01*
X5088823Y23722892D01*
X4980133Y23795517D01*
X31391088Y23795517D01*
X32183000Y23003605D01*
X32974912Y23795517D01*
X37891088Y23795517D01*
X38683000Y23003605D01*
X39474912Y23795517D01*
X39406923Y24036460D01*
X38887829Y24221201D01*
X38337552Y24193230D01*
X37959077Y24036460D01*
X37891088Y23795517D01*
X32974912Y23795517D01*
X32906923Y24036460D01*
X32387829Y24221201D01*
X31837552Y24193230D01*
X31459077Y24036460D01*
X31391088Y23795517D01*
X4980133Y23795517D01*
X4811117Y23908450D01*
X4483540Y23973609D01*
X4155963Y23908450D01*
X3878257Y23722892D01*
X3692699Y23445186D01*
X3627540Y23117609D01*
X2336118Y23117609D01*
X2418331Y23133962D01*
X2704148Y23324939D01*
X2895125Y23610756D01*
X2962187Y23947900D01*
X2895125Y24285044D01*
X2704148Y24570861D01*
X2611151Y24633000D01*
X69938983Y24633000D01*
X70215195Y24578058D01*
X70215195Y24578058D01*
G37*
X70215195Y24578058D02*
X70417129Y24443129D01*
X70552058Y24241195D01*
X70607000Y23964984D01*
X70607000Y1877834D01*
X70445514Y2119514D01*
X69997486Y2418878D01*
X69469000Y2524000D01*
X68056471Y2524000D01*
X67751068Y2981068D01*
X67140828Y3388817D01*
X66421000Y3532000D01*
X65770000Y3532000D01*
X65770000Y4757406D01*
X66088827Y4438022D01*
X66743183Y4166310D01*
X67451709Y4165691D01*
X68106538Y4436261D01*
X68607978Y4936827D01*
X68879690Y5591183D01*
X68880309Y6299709D01*
X68609739Y6954538D01*
X68109173Y7455978D01*
X67454817Y7727690D01*
X66746291Y7728309D01*
X66091462Y7457739D01*
X65770000Y7136837D01*
X65770000Y9017000D01*
X65664878Y9545486D01*
X65365514Y9993514D01*
X64917486Y10292878D01*
X64452474Y10385374D01*
X64613096Y10385234D01*
X65029146Y10557142D01*
X65347739Y10875180D01*
X65520373Y11290929D01*
X65520766Y11741096D01*
X65348858Y12157146D01*
X65030820Y12475739D01*
X64931723Y12516888D01*
X65029146Y12557142D01*
X65347739Y12875180D01*
X65520373Y13290929D01*
X65520766Y13741096D01*
X65348858Y14157146D01*
X65030820Y14475739D01*
X64630620Y14641917D01*
X64734538Y14647195D01*
X65113265Y14804069D01*
X65181325Y15045070D01*
X64389000Y15837395D01*
X63596675Y15045070D01*
X63664735Y14804069D01*
X64135359Y14636558D01*
X63748854Y14476858D01*
X63430261Y14158820D01*
X63257627Y13743071D01*
X63257234Y13292904D01*
X63429142Y12876854D01*
X63747180Y12558261D01*
X63846277Y12517112D01*
X63748854Y12476858D01*
X63430261Y12158820D01*
X63257627Y11743071D01*
X63257234Y11292904D01*
X63429142Y10876854D01*
X63747180Y10558261D01*
X64162929Y10385627D01*
X64326080Y10385485D01*
X63860514Y10292878D01*
X63412486Y9993514D01*
X63113122Y9545486D01*
X63008000Y9017000D01*
X63008000Y3532000D01*
X52578000Y3532000D01*
X51858172Y3388817D01*
X51435000Y3106063D01*
X51011828Y3388817D01*
X50292000Y3532000D01*
X35417000Y3532000D01*
X35417000Y5707135D01*
X50880882Y5707135D01*
X50984339Y5456748D01*
X51175741Y5265013D01*
X51425946Y5161118D01*
X51696865Y5160882D01*
X51947252Y5264339D01*
X52019038Y5336000D01*
X54025877Y5336000D01*
X54096741Y5265013D01*
X54346946Y5161118D01*
X54617865Y5160882D01*
X54868252Y5264339D01*
X55059987Y5455741D01*
X55163882Y5705946D01*
X55164118Y5976865D01*
X55060661Y6227252D01*
X54869259Y6418987D01*
X54619054Y6522882D01*
X54348135Y6523118D01*
X54097748Y6419661D01*
X54025962Y6348000D01*
X52019123Y6348000D01*
X51948259Y6418987D01*
X51698054Y6522882D01*
X51427135Y6523118D01*
X51176748Y6419661D01*
X50985013Y6228259D01*
X50881118Y5978054D01*
X50880882Y5707135D01*
X35417000Y5707135D01*
X35417000Y6477000D01*
X35311878Y7005486D01*
X35012514Y7453514D01*
X34853150Y7559998D01*
X34849938Y7576144D01*
X34658961Y7861961D01*
X34373144Y8052938D01*
X34036000Y8120000D01*
X33698856Y8052938D01*
X33413039Y7861961D01*
X33222062Y7576144D01*
X33218850Y7559998D01*
X33059486Y7453514D01*
X32760122Y7005486D01*
X32655000Y6477000D01*
X32655000Y3532000D01*
X26201676Y3532000D01*
X26207882Y3546946D01*
X26208118Y3817865D01*
X26104661Y4068252D01*
X25913259Y4259987D01*
X25663054Y4363882D01*
X25392135Y4364118D01*
X25270839Y4314000D01*
X24386182Y4314000D01*
X24266054Y4363882D01*
X23995135Y4364118D01*
X23744748Y4260661D01*
X23553013Y4069259D01*
X23449118Y3819054D01*
X23448882Y3548135D01*
X23455549Y3532000D01*
X22860000Y3532000D01*
X22140172Y3388817D01*
X21653500Y3063633D01*
X21166828Y3388817D01*
X20447000Y3532000D01*
X12195470Y3532000D01*
X11646913Y3641115D01*
X11277643Y4010385D01*
X11348882Y4181946D01*
X11349118Y4452865D01*
X11245661Y4703252D01*
X11054259Y4894987D01*
X10804054Y4998882D01*
X10533135Y4999118D01*
X10360317Y4927712D01*
X9739514Y5548514D01*
X9580150Y5654998D01*
X9576938Y5671144D01*
X9385961Y5956961D01*
X9100144Y6147938D01*
X8763000Y6215000D01*
X8425856Y6147938D01*
X8140039Y5956961D01*
X7949062Y5671144D01*
X7945850Y5654998D01*
X7786486Y5548514D01*
X7487122Y5100486D01*
X7382001Y4572000D01*
X7487122Y4043514D01*
X7786486Y3595486D01*
X8929485Y2452486D01*
X8929488Y2452484D01*
X9693885Y1688087D01*
X9819183Y1058173D01*
X10226932Y447932D01*
X10288864Y386000D01*
X1054016Y386000D01*
X777805Y440942D01*
X575871Y575871D01*
X440942Y777805D01*
X386000Y1054017D01*
X386000Y2809000D01*
X2400149Y2809000D01*
X2482435Y2395319D01*
X2716767Y2044618D01*
X3067468Y1810286D01*
X3481149Y1728000D01*
X5154851Y1728000D01*
X5568532Y1810286D01*
X5919233Y2044618D01*
X6153565Y2395319D01*
X6235851Y2809000D01*
X6153565Y3222681D01*
X5919233Y3573382D01*
X5568532Y3807714D01*
X5154851Y3890000D01*
X3481149Y3890000D01*
X3067468Y3807714D01*
X2716767Y3573382D01*
X2482435Y3222681D01*
X2400149Y2809000D01*
X386000Y2809000D01*
X386000Y10033000D01*
X778001Y10033000D01*
X883122Y9504514D01*
X1182486Y9056486D01*
X1286000Y8952972D01*
X1286000Y7874000D01*
X1391122Y7345514D01*
X1690486Y6897486D01*
X1786000Y6833665D01*
X1786000Y5715000D01*
X1853062Y5377856D01*
X2044039Y5092039D01*
X2329856Y4901062D01*
X2667000Y4834000D01*
X3004144Y4901062D01*
X3289961Y5092039D01*
X3480147Y5376672D01*
X3648144Y5208381D01*
X4082054Y5028206D01*
X4551885Y5027796D01*
X4986109Y5207213D01*
X5318619Y5539144D01*
X5498794Y5973054D01*
X5499204Y6442885D01*
X5319787Y6877109D01*
X4987856Y7209619D01*
X4553946Y7389794D01*
X4084115Y7390204D01*
X3930263Y7326634D01*
X3942878Y7345514D01*
X4048000Y7874000D01*
X4048000Y9525000D01*
X4022557Y9652911D01*
X4082054Y9628206D01*
X4551885Y9627796D01*
X4898793Y9771135D01*
X18622882Y9771135D01*
X18726339Y9520748D01*
X18917741Y9329013D01*
X19167946Y9225118D01*
X19438865Y9224882D01*
X19689252Y9328339D01*
X19761038Y9400000D01*
X26243112Y9400000D01*
X26242882Y9136135D01*
X26346339Y8885748D01*
X26418000Y8813962D01*
X26418000Y8382000D01*
X26456517Y8188362D01*
X26566204Y8024204D01*
X27582204Y7008204D01*
X27746362Y6898517D01*
X27940000Y6860000D01*
X28184781Y6860000D01*
X28187482Y6853462D01*
X28309721Y6731010D01*
X28188378Y6609878D01*
X28050157Y6277005D01*
X28049843Y5916576D01*
X28187482Y5583462D01*
X28309721Y5461010D01*
X28188378Y5339878D01*
X28050157Y5007005D01*
X28049843Y4646576D01*
X28187482Y4313462D01*
X28442122Y4058378D01*
X28774995Y3920157D01*
X29135424Y3919843D01*
X29418305Y4036726D01*
X29422546Y4030135D01*
X29549866Y3943141D01*
X29701000Y3912536D01*
X30751000Y3912536D01*
X30892190Y3939103D01*
X31021865Y4022546D01*
X31108859Y4149866D01*
X31139464Y4301000D01*
X31139464Y5340356D01*
X31150358Y5351250D01*
X31136881Y5364727D01*
X31114774Y5482214D01*
X31251962Y5507575D01*
X31399046Y5944985D01*
X31367543Y6405386D01*
X31251962Y6684425D01*
X31049814Y6721794D01*
X31040608Y6731000D01*
X31049814Y6740206D01*
X31251962Y6777575D01*
X31399046Y7214985D01*
X31367543Y7675386D01*
X31251962Y7954425D01*
X31049814Y7991794D01*
X31040608Y8001000D01*
X31049814Y8010206D01*
X31251962Y8047575D01*
X31399046Y8484985D01*
X31367543Y8945386D01*
X31288533Y9136135D01*
X57230882Y9136135D01*
X57334339Y8885748D01*
X57406000Y8813962D01*
X57406000Y8001000D01*
X57444517Y7807362D01*
X57554204Y7643204D01*
X58189204Y7008204D01*
X58353362Y6898517D01*
X58547000Y6860000D01*
X58918781Y6860000D01*
X58921482Y6853462D01*
X59043721Y6731010D01*
X58922378Y6609878D01*
X58784157Y6277005D01*
X58783843Y5916576D01*
X58921482Y5583462D01*
X59043721Y5461010D01*
X58922378Y5339878D01*
X58784157Y5007005D01*
X58783843Y4646576D01*
X58921482Y4313462D01*
X59176122Y4058378D01*
X59508995Y3920157D01*
X59869424Y3919843D01*
X60152305Y4036726D01*
X60156546Y4030135D01*
X60283866Y3943141D01*
X60435000Y3912536D01*
X61485000Y3912536D01*
X61626190Y3939103D01*
X61755865Y4022546D01*
X61842859Y4149866D01*
X61873464Y4301000D01*
X61873464Y5340356D01*
X61884358Y5351250D01*
X61870881Y5364727D01*
X61848774Y5482214D01*
X61985962Y5507575D01*
X62133046Y5944985D01*
X62101543Y6405386D01*
X61985962Y6684425D01*
X61783814Y6721794D01*
X61774608Y6731000D01*
X61783814Y6740206D01*
X61985962Y6777575D01*
X62133046Y7214985D01*
X62101543Y7675386D01*
X61985962Y7954425D01*
X61783814Y7991794D01*
X61774608Y8001000D01*
X61783814Y8010206D01*
X61985962Y8047575D01*
X62133046Y8484985D01*
X62101543Y8945386D01*
X61985962Y9224425D01*
X61783814Y9261794D01*
X61774608Y9271000D01*
X61783814Y9280206D01*
X61985962Y9317575D01*
X62133046Y9754985D01*
X62101543Y10215386D01*
X61985962Y10494425D01*
X61768273Y10534667D01*
X61139605Y9906000D01*
X61153748Y9891857D01*
X61067992Y9806102D01*
X60865840Y9792270D01*
X60766253Y9891857D01*
X60780395Y9906000D01*
X60592768Y10093627D01*
X60458518Y10418538D01*
X60203878Y10673622D01*
X60105980Y10714273D01*
X60331333Y10714273D01*
X60960000Y10085605D01*
X61588667Y10714273D01*
X61548425Y10931962D01*
X61111015Y11079046D01*
X60650614Y11047543D01*
X60371575Y10931962D01*
X60331333Y10714273D01*
X60105980Y10714273D01*
X59871005Y10811843D01*
X59510576Y10812157D01*
X59177462Y10674518D01*
X58922378Y10419878D01*
X58784157Y10087005D01*
X58783843Y9726576D01*
X58921482Y9393462D01*
X59043721Y9271010D01*
X58922378Y9149878D01*
X58784157Y8817005D01*
X58783843Y8456576D01*
X58921482Y8123462D01*
X59043721Y8001010D01*
X58922378Y7879878D01*
X58919107Y7872000D01*
X58756592Y7872000D01*
X58418000Y8210592D01*
X58418000Y8813877D01*
X58488987Y8884741D01*
X58592882Y9134946D01*
X58593118Y9405865D01*
X58489661Y9656252D01*
X58298259Y9847987D01*
X58048054Y9951882D01*
X57777135Y9952118D01*
X57526748Y9848661D01*
X57335013Y9657259D01*
X57231118Y9407054D01*
X57230882Y9136135D01*
X31288533Y9136135D01*
X31251962Y9224425D01*
X31049814Y9261794D01*
X31040608Y9271000D01*
X31049814Y9280206D01*
X31251962Y9317575D01*
X31399046Y9754985D01*
X31367543Y10215386D01*
X31284446Y10416000D01*
X34969408Y10416000D01*
X36091204Y9294204D01*
X36255362Y9184517D01*
X36449000Y9146000D01*
X44831000Y9146000D01*
X45024638Y9184517D01*
X45085224Y9224999D01*
X45219865Y9224882D01*
X45470252Y9328339D01*
X45661987Y9519741D01*
X45765882Y9769946D01*
X45766118Y10040865D01*
X45662661Y10291252D01*
X45476691Y10477546D01*
X45534987Y10535741D01*
X45638882Y10785946D01*
X45639118Y11056865D01*
X45535661Y11307252D01*
X45413080Y11430046D01*
X45534987Y11551741D01*
X45638882Y11801946D01*
X45639118Y12072865D01*
X45535661Y12323252D01*
X45476580Y12382436D01*
X45534987Y12440741D01*
X45638882Y12690946D01*
X45639118Y12961865D01*
X45535661Y13212252D01*
X45476580Y13271436D01*
X45534987Y13329741D01*
X45638882Y13579946D01*
X45639118Y13850865D01*
X45535661Y14101252D01*
X45344259Y14292987D01*
X45094054Y14396882D01*
X44823135Y14397118D01*
X44572748Y14293661D01*
X44381013Y14102259D01*
X44277118Y13852054D01*
X44277030Y13750622D01*
X42843408Y12317000D01*
X37674592Y12317000D01*
X36679796Y13311796D01*
X36515638Y13421483D01*
X36322000Y13460000D01*
X27051000Y13460000D01*
X26857362Y13421483D01*
X26693204Y13311796D01*
X26333408Y12952000D01*
X21412123Y12952000D01*
X21341259Y13022987D01*
X21091054Y13126882D01*
X20820135Y13127118D01*
X20569748Y13023661D01*
X20378013Y12832259D01*
X20274118Y12582054D01*
X20273882Y12311135D01*
X20278928Y12298922D01*
X20188748Y12261661D01*
X19997013Y12070259D01*
X19940543Y11934265D01*
X19821054Y11983882D01*
X19550135Y11984118D01*
X19299748Y11880661D01*
X19108013Y11689259D01*
X19004118Y11439054D01*
X19003882Y11168135D01*
X19107339Y10917748D01*
X19284409Y10740370D01*
X19258118Y10677054D01*
X19258040Y10587041D01*
X19169135Y10587118D01*
X18918748Y10483661D01*
X18727013Y10292259D01*
X18623118Y10042054D01*
X18622882Y9771135D01*
X4898793Y9771135D01*
X4986109Y9807213D01*
X5318619Y10139144D01*
X5498794Y10573054D01*
X5499204Y11042885D01*
X5319787Y11477109D01*
X4987856Y11809619D01*
X4553946Y11989794D01*
X4084115Y11990204D01*
X3649891Y11810787D01*
X3317381Y11478856D01*
X3137206Y11044946D01*
X3137174Y11007854D01*
X3135514Y11009514D01*
X3005284Y11096532D01*
X2972938Y11259144D01*
X2781961Y11544961D01*
X2496144Y11735938D01*
X2159000Y11803000D01*
X1821856Y11735938D01*
X1536039Y11544961D01*
X1345062Y11259144D01*
X1312716Y11096532D01*
X1182486Y11009514D01*
X883122Y10561486D01*
X778001Y10033000D01*
X386000Y10033000D01*
X386000Y14209000D01*
X2400149Y14209000D01*
X2482435Y13795319D01*
X2716767Y13444618D01*
X3067468Y13210286D01*
X3481149Y13128000D01*
X5154851Y13128000D01*
X5568532Y13210286D01*
X5919233Y13444618D01*
X6153565Y13795319D01*
X6235851Y14209000D01*
X6153565Y14622681D01*
X5919233Y14973382D01*
X5568532Y15207714D01*
X5154851Y15290000D01*
X3481149Y15290000D01*
X3067468Y15207714D01*
X2716767Y14973382D01*
X2482435Y14622681D01*
X2400149Y14209000D01*
X386000Y14209000D01*
X386000Y16947900D01*
X604893Y16947900D01*
X671955Y16610756D01*
X862932Y16324939D01*
X1148749Y16133962D01*
X1485893Y16066900D01*
X2081187Y16066900D01*
X2418331Y16133962D01*
X2704148Y16324939D01*
X2742943Y16383000D01*
X12327000Y16383000D01*
X12394062Y16045856D01*
X12585039Y15760039D01*
X12870856Y15569062D01*
X13208000Y15502000D01*
X19384076Y15502000D01*
X21094039Y13792037D01*
X21379856Y13601060D01*
X21717000Y13533998D01*
X22054144Y13601060D01*
X22339961Y13792037D01*
X22530938Y14077854D01*
X22598000Y14414998D01*
X22530938Y14752142D01*
X22339961Y15037959D01*
X20371959Y17005961D01*
X20086142Y17196938D01*
X19748998Y17264000D01*
X13208000Y17264000D01*
X12870856Y17196938D01*
X12585039Y17005961D01*
X12394062Y16720144D01*
X12327000Y16383000D01*
X2742943Y16383000D01*
X2895125Y16610756D01*
X2962187Y16947900D01*
X2895125Y17285044D01*
X2704148Y17570861D01*
X2418331Y17761838D01*
X2081187Y17828900D01*
X1485893Y17828900D01*
X1148749Y17761838D01*
X862932Y17570861D01*
X671955Y17285044D01*
X604893Y16947900D01*
X386000Y16947900D01*
X386000Y18117609D01*
X3627540Y18117609D01*
X3627540Y17778191D01*
X3692699Y17450614D01*
X3878257Y17172908D01*
X4155963Y16987350D01*
X4483540Y16922191D01*
X4811117Y16987350D01*
X5088823Y17172908D01*
X5274381Y17450614D01*
X5287811Y17518135D01*
X30179882Y17518135D01*
X30283339Y17267748D01*
X30474741Y17076013D01*
X30609000Y17020263D01*
X30609000Y15951123D01*
X30538013Y15880259D01*
X30434118Y15630054D01*
X30433882Y15359135D01*
X30537339Y15108748D01*
X30728741Y14917013D01*
X30978946Y14813118D01*
X31249865Y14812882D01*
X31500252Y14916339D01*
X31691987Y15107741D01*
X31795882Y15357946D01*
X31796118Y15628865D01*
X31692661Y15879252D01*
X31621000Y15951038D01*
X31621000Y16221966D01*
X62991233Y16221966D01*
X63019195Y15671462D01*
X63176069Y15292735D01*
X63417070Y15224675D01*
X64209395Y16017000D01*
X64568605Y16017000D01*
X65360930Y15224675D01*
X65601931Y15292735D01*
X65786767Y15812034D01*
X65758805Y16362538D01*
X65601931Y16741265D01*
X65360930Y16809325D01*
X64568605Y16017000D01*
X64209395Y16017000D01*
X63417070Y16809325D01*
X63176069Y16741265D01*
X62991233Y16221966D01*
X31621000Y16221966D01*
X31621000Y16988930D01*
X63596675Y16988930D01*
X64389000Y16196605D01*
X65181325Y16988930D01*
X65113265Y17229931D01*
X64593966Y17414767D01*
X64043462Y17386805D01*
X63664735Y17229931D01*
X63596675Y16988930D01*
X31621000Y16988930D01*
X31621000Y17332734D01*
X31957043Y17193196D01*
X32406983Y17192804D01*
X32822823Y17364625D01*
X33141256Y17682503D01*
X33313804Y18098043D01*
X33313805Y18100017D01*
X37551804Y18100017D01*
X37723625Y17684177D01*
X38041503Y17365744D01*
X38457043Y17193196D01*
X38906983Y17192804D01*
X39322823Y17364625D01*
X39641256Y17682503D01*
X39813804Y18098043D01*
X39814196Y18547983D01*
X39737216Y18734291D01*
X65317691Y18734291D01*
X65588261Y18079462D01*
X66088827Y17578022D01*
X66743183Y17306310D01*
X67451709Y17305691D01*
X68106538Y17576261D01*
X68607978Y18076827D01*
X68879690Y18731183D01*
X68880309Y19439709D01*
X68609739Y20094538D01*
X68109173Y20595978D01*
X67454817Y20867690D01*
X66746291Y20868309D01*
X66091462Y20597739D01*
X65590022Y20097173D01*
X65318310Y19442817D01*
X65317691Y18734291D01*
X39737216Y18734291D01*
X39642375Y18963823D01*
X39324497Y19282256D01*
X38908957Y19454804D01*
X38459017Y19455196D01*
X38043177Y19283375D01*
X37724744Y18965497D01*
X37552196Y18549957D01*
X37551804Y18100017D01*
X33313805Y18100017D01*
X33314196Y18547983D01*
X33142375Y18963823D01*
X32824497Y19282256D01*
X32408957Y19454804D01*
X31959017Y19455196D01*
X31543177Y19283375D01*
X31224744Y18965497D01*
X31052196Y18549957D01*
X31051988Y18311071D01*
X30997054Y18333882D01*
X30726135Y18334118D01*
X30475748Y18230661D01*
X30284013Y18039259D01*
X30180118Y17789054D01*
X30179882Y17518135D01*
X5287811Y17518135D01*
X5339540Y17778191D01*
X5339540Y18117609D01*
X5274381Y18445186D01*
X5088823Y18722892D01*
X4811117Y18908450D01*
X4483540Y18973609D01*
X4155963Y18908450D01*
X3878257Y18722892D01*
X3692699Y18445186D01*
X3627540Y18117609D01*
X386000Y18117609D01*
X386000Y21852483D01*
X31391088Y21852483D01*
X31459077Y21611540D01*
X31978171Y21426799D01*
X32528448Y21454770D01*
X32906923Y21611540D01*
X32974912Y21852483D01*
X37891088Y21852483D01*
X37959077Y21611540D01*
X38478171Y21426799D01*
X39028448Y21454770D01*
X39406923Y21611540D01*
X39474912Y21852483D01*
X38683000Y22644395D01*
X37891088Y21852483D01*
X32974912Y21852483D01*
X32183000Y22644395D01*
X31391088Y21852483D01*
X386000Y21852483D01*
X386000Y23964983D01*
X440942Y24241195D01*
X575871Y24443129D01*
X777805Y24578058D01*
X914353Y24605219D01*
X862932Y24570861D01*
X671955Y24285044D01*
X604893Y23947900D01*
X671955Y23610756D01*
X862932Y23324939D01*
X1148749Y23133962D01*
X1485893Y23066900D01*
X2081187Y23066900D01*
X2336118Y23117609D01*
X3627540Y23117609D01*
X3627540Y22778191D01*
X3692699Y22450614D01*
X3878257Y22172908D01*
X4155963Y21987350D01*
X4483540Y21922191D01*
X4811117Y21987350D01*
X5088823Y22172908D01*
X5274381Y22450614D01*
X5339540Y22778191D01*
X5339540Y23028829D01*
X30785799Y23028829D01*
X30813770Y22478552D01*
X30970540Y22100077D01*
X31211483Y22032088D01*
X32003395Y22824000D01*
X32362605Y22824000D01*
X33154517Y22032088D01*
X33395460Y22100077D01*
X33580201Y22619171D01*
X33559378Y23028829D01*
X37285799Y23028829D01*
X37313770Y22478552D01*
X37470540Y22100077D01*
X37711483Y22032088D01*
X38503395Y22824000D01*
X38862605Y22824000D01*
X39654517Y22032088D01*
X39895460Y22100077D01*
X40080201Y22619171D01*
X40052230Y23169448D01*
X39895460Y23547923D01*
X39654517Y23615912D01*
X38862605Y22824000D01*
X38503395Y22824000D01*
X37711483Y23615912D01*
X37470540Y23547923D01*
X37285799Y23028829D01*
X33559378Y23028829D01*
X33552230Y23169448D01*
X33395460Y23547923D01*
X33154517Y23615912D01*
X32362605Y22824000D01*
X32003395Y22824000D01*
X31211483Y23615912D01*
X30970540Y23547923D01*
X30785799Y23028829D01*
X5339540Y23028829D01*
X5339540Y23117609D01*
X5274381Y23445186D01*
X5088823Y23722892D01*
X4980133Y23795517D01*
X31391088Y23795517D01*
X32183000Y23003605D01*
X32974912Y23795517D01*
X37891088Y23795517D01*
X38683000Y23003605D01*
X39474912Y23795517D01*
X39406923Y24036460D01*
X38887829Y24221201D01*
X38337552Y24193230D01*
X37959077Y24036460D01*
X37891088Y23795517D01*
X32974912Y23795517D01*
X32906923Y24036460D01*
X32387829Y24221201D01*
X31837552Y24193230D01*
X31459077Y24036460D01*
X31391088Y23795517D01*
X4980133Y23795517D01*
X4811117Y23908450D01*
X4483540Y23973609D01*
X4155963Y23908450D01*
X3878257Y23722892D01*
X3692699Y23445186D01*
X3627540Y23117609D01*
X2336118Y23117609D01*
X2418331Y23133962D01*
X2704148Y23324939D01*
X2895125Y23610756D01*
X2962187Y23947900D01*
X2895125Y24285044D01*
X2704148Y24570861D01*
X2611151Y24633000D01*
X69938983Y24633000D01*
X70215195Y24578058D01*
G36*
X30419748Y6110142D02*
X30405605Y6096000D01*
X30419748Y6081858D01*
X30240143Y5902252D01*
X30226000Y5916395D01*
X30211858Y5902252D01*
X30032253Y6081857D01*
X30046395Y6096000D01*
X30032253Y6110142D01*
X30118008Y6195898D01*
X30320160Y6209730D01*
X30419748Y6110142D01*
X30419748Y6110142D01*
G37*
X30419748Y6110142D02*
X30405605Y6096000D01*
X30419748Y6081858D01*
X30240143Y5902252D01*
X30226000Y5916395D01*
X30211858Y5902252D01*
X30032253Y6081857D01*
X30046395Y6096000D01*
X30032253Y6110142D01*
X30118008Y6195898D01*
X30320160Y6209730D01*
X30419748Y6110142D01*
G36*
X30419748Y7380142D02*
X30405605Y7366000D01*
X30419748Y7351857D01*
X30333992Y7266102D01*
X30131840Y7252270D01*
X30032253Y7351857D01*
X30046395Y7366000D01*
X30032253Y7380142D01*
X30118008Y7465898D01*
X30320160Y7479730D01*
X30419748Y7380142D01*
X30419748Y7380142D01*
G37*
X30419748Y7380142D02*
X30405605Y7366000D01*
X30419748Y7351857D01*
X30333992Y7266102D01*
X30131840Y7252270D01*
X30032253Y7351857D01*
X30046395Y7366000D01*
X30032253Y7380142D01*
X30118008Y7465898D01*
X30320160Y7479730D01*
X30419748Y7380142D01*
G36*
X30419748Y8650142D02*
X30405605Y8636000D01*
X30419748Y8621857D01*
X30333992Y8536102D01*
X30131840Y8522270D01*
X30032253Y8621857D01*
X30046395Y8636000D01*
X30032253Y8650142D01*
X30118008Y8735898D01*
X30320160Y8749730D01*
X30419748Y8650142D01*
X30419748Y8650142D01*
G37*
X30419748Y8650142D02*
X30405605Y8636000D01*
X30419748Y8621857D01*
X30333992Y8536102D01*
X30131840Y8522270D01*
X30032253Y8621857D01*
X30046395Y8636000D01*
X30032253Y8650142D01*
X30118008Y8735898D01*
X30320160Y8749730D01*
X30419748Y8650142D01*
G36*
X30419748Y9920142D02*
X30405605Y9906000D01*
X30419748Y9891857D01*
X30333992Y9806102D01*
X30131840Y9792270D01*
X30032253Y9891857D01*
X30046395Y9906000D01*
X30032253Y9920142D01*
X30211858Y10099748D01*
X30226000Y10085605D01*
X30240142Y10099748D01*
X30419748Y9920142D01*
X30419748Y9920142D01*
G37*
X30419748Y9920142D02*
X30405605Y9906000D01*
X30419748Y9891857D01*
X30333992Y9806102D01*
X30131840Y9792270D01*
X30032253Y9891857D01*
X30046395Y9906000D01*
X30032253Y9920142D01*
X30211858Y10099748D01*
X30226000Y10085605D01*
X30240142Y10099748D01*
X30419748Y9920142D01*
G36*
X61153748Y6110142D02*
X61139605Y6096000D01*
X61153748Y6081858D01*
X60974143Y5902252D01*
X60960000Y5916395D01*
X60945858Y5902252D01*
X60766253Y6081857D01*
X60780395Y6096000D01*
X60766253Y6110142D01*
X60852008Y6195898D01*
X61054160Y6209730D01*
X61153748Y6110142D01*
X61153748Y6110142D01*
G37*
X61153748Y6110142D02*
X61139605Y6096000D01*
X61153748Y6081858D01*
X60974143Y5902252D01*
X60960000Y5916395D01*
X60945858Y5902252D01*
X60766253Y6081857D01*
X60780395Y6096000D01*
X60766253Y6110142D01*
X60852008Y6195898D01*
X61054160Y6209730D01*
X61153748Y6110142D01*
G36*
X61153748Y7380142D02*
X61139605Y7366000D01*
X61153748Y7351857D01*
X61067992Y7266102D01*
X60865840Y7252270D01*
X60766253Y7351857D01*
X60780395Y7366000D01*
X60766253Y7380142D01*
X60852008Y7465898D01*
X61054160Y7479730D01*
X61153748Y7380142D01*
X61153748Y7380142D01*
G37*
X61153748Y7380142D02*
X61139605Y7366000D01*
X61153748Y7351857D01*
X61067992Y7266102D01*
X60865840Y7252270D01*
X60766253Y7351857D01*
X60780395Y7366000D01*
X60766253Y7380142D01*
X60852008Y7465898D01*
X61054160Y7479730D01*
X61153748Y7380142D01*
G36*
X61153748Y8650142D02*
X61139605Y8636000D01*
X61153748Y8621857D01*
X61067992Y8536102D01*
X60865840Y8522270D01*
X60766253Y8621857D01*
X60780395Y8636000D01*
X60766253Y8650142D01*
X60852008Y8735898D01*
X61054160Y8749730D01*
X61153748Y8650142D01*
X61153748Y8650142D01*
G37*
X61153748Y8650142D02*
X61139605Y8636000D01*
X61153748Y8621857D01*
X61067992Y8536102D01*
X60865840Y8522270D01*
X60766253Y8621857D01*
X60780395Y8636000D01*
X60766253Y8650142D01*
X60852008Y8735898D01*
X61054160Y8749730D01*
X61153748Y8650142D01*
M02*
