G04 #@! TF.FileFunction,Legend,Top*
%FSLAX46Y46*%
G04 Gerber Fmt 4.6, Leading zero omitted, Abs format (unit mm)*
G04 Created by KiCad (PCBNEW (2015-10-16 BZR 6271)-product) date Sun 01 Nov 2015 17:02:17 NZDT*
%MOMM*%
G01*
G04 APERTURE LIST*
%ADD10C,0.100000*%
%ADD11C,0.150000*%
%ADD12C,0.300000*%
%ADD13C,0.700000*%
G04 APERTURE END LIST*
D10*
D11*
X59325000Y14186000D02*
X61325000Y14186000D01*
X61325000Y14186000D02*
X61325000Y15786000D01*
X61325000Y15786000D02*
X59325000Y15786000D01*
X59325000Y15786000D02*
X59325000Y14186000D01*
X28718000Y14186000D02*
X30718000Y14186000D01*
X30718000Y14186000D02*
X30718000Y15786000D01*
X30718000Y15786000D02*
X28718000Y15786000D01*
X28718000Y15786000D02*
X28718000Y14186000D01*
X28860000Y20539000D02*
X29560000Y20539000D01*
X29560000Y19339000D02*
X28860000Y19339000D01*
X22891000Y18761000D02*
X23591000Y18761000D01*
X23591000Y17561000D02*
X22891000Y17561000D01*
X11653000Y17561000D02*
X10953000Y17561000D01*
X10953000Y18761000D02*
X11653000Y18761000D01*
X7524000Y22571000D02*
X8224000Y22571000D01*
X8224000Y21371000D02*
X7524000Y21371000D01*
X9560000Y9048000D02*
X9560000Y9748000D01*
X10760000Y9748000D02*
X10760000Y9048000D01*
X10572000Y4918000D02*
X11272000Y4918000D01*
X11272000Y3718000D02*
X10572000Y3718000D01*
X9814000Y1682000D02*
X9814000Y2382000D01*
X11014000Y2382000D02*
X11014000Y1682000D01*
X28860000Y18761000D02*
X29560000Y18761000D01*
X29560000Y17561000D02*
X28860000Y17561000D01*
X25181000Y13239000D02*
X25181000Y13939000D01*
X26381000Y13939000D02*
X26381000Y13239000D01*
X10760000Y15336000D02*
X10760000Y14636000D01*
X9560000Y14636000D02*
X9560000Y15336000D01*
X14955000Y17561000D02*
X14255000Y17561000D01*
X14255000Y18761000D02*
X14955000Y18761000D01*
X10760000Y6827000D02*
X10760000Y6127000D01*
X9560000Y6127000D02*
X9560000Y6827000D01*
X22002000Y3267000D02*
X22702000Y3267000D01*
X22702000Y2067000D02*
X22002000Y2067000D01*
X33186000Y13073000D02*
X33186000Y12073000D01*
X34886000Y12073000D02*
X34886000Y13073000D01*
X37965000Y12661000D02*
X36965000Y12661000D01*
X36965000Y10961000D02*
X37965000Y10961000D01*
X38958000Y15656000D02*
X38258000Y15656000D01*
X38258000Y16856000D02*
X38958000Y16856000D01*
X54006000Y18761000D02*
X54706000Y18761000D01*
X54706000Y17561000D02*
X54006000Y17561000D01*
X43530000Y17561000D02*
X42830000Y17561000D01*
X42830000Y18761000D02*
X43530000Y18761000D01*
X40294000Y8794000D02*
X40294000Y9494000D01*
X41494000Y9494000D02*
X41494000Y8794000D01*
X41179000Y4283000D02*
X41879000Y4283000D01*
X41879000Y3083000D02*
X41179000Y3083000D01*
X41494000Y6573000D02*
X41494000Y5873000D01*
X40294000Y5873000D02*
X40294000Y6573000D01*
X46451000Y17561000D02*
X45751000Y17561000D01*
X45751000Y18761000D02*
X46451000Y18761000D01*
X55788000Y12985000D02*
X55788000Y13685000D01*
X56988000Y13685000D02*
X56988000Y12985000D01*
X51847000Y3267000D02*
X52547000Y3267000D01*
X52547000Y2067000D02*
X51847000Y2067000D01*
X41494000Y13812000D02*
X41494000Y13112000D01*
X40294000Y13112000D02*
X40294000Y13812000D01*
X69377000Y1555000D02*
X69377000Y2255000D01*
X70577000Y2255000D02*
X70577000Y1555000D01*
X63535000Y1936000D02*
X63535000Y2636000D01*
X64735000Y2636000D02*
X64735000Y1936000D01*
X61945000Y18831000D02*
X61245000Y18831000D01*
X61245000Y20031000D02*
X61945000Y20031000D01*
X28037840Y21955760D02*
X28086100Y21955760D01*
X30836820Y22656800D02*
X30836820Y21955760D01*
X30836820Y21955760D02*
X30587900Y21955760D01*
X28037840Y21955760D02*
X27837180Y21955760D01*
X27837180Y21955760D02*
X27837180Y22656800D01*
X58504000Y18711000D02*
X56604000Y18711000D01*
X58504000Y17611000D02*
X56604000Y17611000D01*
X57604000Y18161000D02*
X57154000Y18161000D01*
X57654000Y17911000D02*
X57654000Y18411000D01*
X57654000Y18161000D02*
X57404000Y17911000D01*
X57404000Y17911000D02*
X57404000Y18411000D01*
X57404000Y18411000D02*
X57654000Y18161000D01*
X27389000Y18711000D02*
X25489000Y18711000D01*
X27389000Y17611000D02*
X25489000Y17611000D01*
X26489000Y18161000D02*
X26039000Y18161000D01*
X26539000Y17911000D02*
X26539000Y18411000D01*
X26539000Y18161000D02*
X26289000Y17911000D01*
X26289000Y17911000D02*
X26289000Y18411000D01*
X26289000Y18411000D02*
X26539000Y18161000D01*
X45301000Y14462000D02*
X45301000Y12462000D01*
X45301000Y12462000D02*
X46901000Y12462000D01*
X46901000Y12462000D02*
X46901000Y14462000D01*
X46901000Y14462000D02*
X45301000Y14462000D01*
X50000000Y14462000D02*
X50000000Y12462000D01*
X50000000Y12462000D02*
X51600000Y12462000D01*
X51600000Y12462000D02*
X51600000Y14462000D01*
X51600000Y14462000D02*
X50000000Y14462000D01*
X48476000Y14462000D02*
X48476000Y12462000D01*
X48476000Y12462000D02*
X50076000Y12462000D01*
X50076000Y12462000D02*
X50076000Y14462000D01*
X50076000Y14462000D02*
X48476000Y14462000D01*
X46952000Y14462000D02*
X46952000Y12462000D01*
X46952000Y12462000D02*
X48552000Y12462000D01*
X48552000Y12462000D02*
X48552000Y14462000D01*
X48552000Y14462000D02*
X46952000Y14462000D01*
X14440000Y14716000D02*
X14440000Y12716000D01*
X14440000Y12716000D02*
X16040000Y12716000D01*
X16040000Y12716000D02*
X16040000Y14716000D01*
X16040000Y14716000D02*
X14440000Y14716000D01*
X19012000Y14716000D02*
X19012000Y12716000D01*
X19012000Y12716000D02*
X20612000Y12716000D01*
X20612000Y12716000D02*
X20612000Y14716000D01*
X20612000Y14716000D02*
X19012000Y14716000D01*
X17488000Y14716000D02*
X17488000Y12716000D01*
X17488000Y12716000D02*
X19088000Y12716000D01*
X19088000Y12716000D02*
X19088000Y14716000D01*
X19088000Y14716000D02*
X17488000Y14716000D01*
X15964000Y14716000D02*
X15964000Y12716000D01*
X15964000Y12716000D02*
X17564000Y12716000D01*
X17564000Y12716000D02*
X17564000Y14716000D01*
X17564000Y14716000D02*
X15964000Y14716000D01*
X2318000Y2509000D02*
X-682000Y2509000D01*
X2318000Y14509000D02*
X-682000Y14509000D01*
X5318000Y4009000D02*
X5318000Y13009000D01*
X68889000Y19017000D02*
X71889000Y19017000D01*
X68889000Y6017000D02*
X71889000Y6017000D01*
X63389000Y9017000D02*
X63389000Y19017000D01*
X63389000Y19017000D02*
X65389000Y19017000D01*
X63389000Y9017000D02*
X63389000Y6017000D01*
X63389000Y6017000D02*
X65389000Y6017000D01*
X8374000Y22947000D02*
X7374000Y22947000D01*
X7374000Y24297000D02*
X8374000Y24297000D01*
X25106000Y7628000D02*
X25106000Y8628000D01*
X26456000Y8628000D02*
X26456000Y7628000D01*
X26789000Y15962000D02*
X25789000Y15962000D01*
X25789000Y17312000D02*
X26789000Y17312000D01*
X26789000Y19264000D02*
X25789000Y19264000D01*
X25789000Y20614000D02*
X26789000Y20614000D01*
X17788000Y18836000D02*
X18788000Y18836000D01*
X18788000Y17486000D02*
X17788000Y17486000D01*
X25106000Y10295000D02*
X25106000Y11295000D01*
X26456000Y11295000D02*
X26456000Y10295000D01*
X13581000Y1992000D02*
X12581000Y1992000D01*
X12581000Y3342000D02*
X13581000Y3342000D01*
X13581000Y214000D02*
X12581000Y214000D01*
X12581000Y1564000D02*
X13581000Y1564000D01*
X55713000Y7374000D02*
X55713000Y8374000D01*
X57063000Y8374000D02*
X57063000Y7374000D01*
X57904000Y15835000D02*
X56904000Y15835000D01*
X56904000Y17185000D02*
X57904000Y17185000D01*
X40775000Y16931000D02*
X41775000Y16931000D01*
X41775000Y15581000D02*
X40775000Y15581000D01*
X48268000Y18836000D02*
X49268000Y18836000D01*
X49268000Y17486000D02*
X48268000Y17486000D01*
X55713000Y9914000D02*
X55713000Y10914000D01*
X57063000Y10914000D02*
X57063000Y9914000D01*
X55380000Y1691000D02*
X56380000Y1691000D01*
X56380000Y341000D02*
X55380000Y341000D01*
X55380000Y3469000D02*
X56380000Y3469000D01*
X56380000Y2119000D02*
X55380000Y2119000D01*
X61095000Y21757000D02*
X62095000Y21757000D01*
X62095000Y20407000D02*
X61095000Y20407000D01*
X32433000Y21574000D02*
X32433000Y19574000D01*
X37933000Y23574000D02*
X32933000Y23574000D01*
X38433000Y19574000D02*
X38433000Y21574000D01*
X32933000Y17574000D02*
X37933000Y17574000D01*
X37188000Y20574000D02*
G75*
G03X37188000Y20574000I-1755000J0D01*
G01*
X6840220Y2600960D02*
X6230620Y2600960D01*
X6230620Y2600960D02*
X6220460Y2169160D01*
X39878000Y7112000D02*
X39878000Y10160000D01*
X39878000Y10160000D02*
X32766000Y10160000D01*
X32766000Y10160000D02*
X32766000Y7112000D01*
X39878000Y4064000D02*
X39878000Y3302000D01*
X39878000Y3302000D02*
X38354000Y1016000D01*
X38354000Y1016000D02*
X34290000Y1016000D01*
X34290000Y1016000D02*
X32766000Y3302000D01*
X32766000Y3302000D02*
X32766000Y4064000D01*
X67581780Y193040D02*
X68191380Y193040D01*
X68191380Y193040D02*
X68201540Y624840D01*
X23248620Y24470360D02*
X11549380Y24470360D01*
X11549380Y19471640D02*
X23248620Y19471640D01*
X11549380Y24470360D02*
X11549380Y23622000D01*
X11549380Y19471640D02*
X11549380Y20320000D01*
X23248620Y24470360D02*
X23248620Y23622000D01*
X23248620Y19471640D02*
X23248620Y20320000D01*
X54617620Y24343360D02*
X42918380Y24343360D01*
X42918380Y19344640D02*
X54617620Y19344640D01*
X42918380Y24343360D02*
X42918380Y23495000D01*
X42918380Y19344640D02*
X42918380Y20193000D01*
X54617620Y24343360D02*
X54617620Y23495000D01*
X54617620Y19344640D02*
X54617620Y20193000D01*
D12*
X23907000Y15914000D02*
G75*
G03X23907000Y15914000I-500000J0D01*
G01*
D11*
X23082000Y15589000D02*
X22007000Y15589000D01*
X23082000Y5239000D02*
X22007000Y5239000D01*
X12732000Y5239000D02*
X13807000Y5239000D01*
X12732000Y15589000D02*
X13807000Y15589000D01*
X23082000Y15589000D02*
X23082000Y14514000D01*
X12732000Y15589000D02*
X12732000Y14514000D01*
X12732000Y5239000D02*
X12732000Y6314000D01*
X23082000Y5239000D02*
X23082000Y6314000D01*
X22007000Y15589000D02*
X22007000Y16614000D01*
D12*
X54641000Y15914000D02*
G75*
G03X54641000Y15914000I-500000J0D01*
G01*
D11*
X53816000Y15589000D02*
X52741000Y15589000D01*
X53816000Y5239000D02*
X52741000Y5239000D01*
X43466000Y5239000D02*
X44541000Y5239000D01*
X43466000Y15589000D02*
X44541000Y15589000D01*
X53816000Y15589000D02*
X53816000Y14514000D01*
X43466000Y15589000D02*
X43466000Y14514000D01*
X43466000Y5239000D02*
X43466000Y6314000D01*
X53816000Y5239000D02*
X53816000Y6314000D01*
X52741000Y15589000D02*
X52741000Y16614000D01*
D13*
X62484000Y6096000D02*
X62484000Y8636000D01*
D11*
X57775000Y13691000D02*
X57775000Y1041000D01*
X57775000Y13691000D02*
X62875000Y13691000D01*
X62875000Y13691000D02*
X62875000Y1041000D01*
X57775000Y1041000D02*
X62875000Y1041000D01*
D13*
X31750000Y6096000D02*
X31750000Y8636000D01*
D11*
X27041000Y13691000D02*
X27041000Y1041000D01*
X27041000Y13691000D02*
X32141000Y13691000D01*
X32141000Y13691000D02*
X32141000Y1041000D01*
X27041000Y1041000D02*
X32141000Y1041000D01*
X-896460Y24797900D02*
X-896460Y16097900D01*
X5508540Y24797900D02*
X5508540Y16097900D01*
X5508540Y16097900D02*
X-896460Y16097900D01*
X333540Y16097900D02*
X333540Y24797900D01*
X-896460Y24797900D02*
X5508540Y24797900D01*
X52984762Y15311429D02*
X53099048Y15263810D01*
X53137143Y15216190D01*
X53175238Y15120952D01*
X53175238Y14978095D01*
X53137143Y14882857D01*
X53099048Y14835238D01*
X53022857Y14787619D01*
X52718095Y14787619D01*
X52718095Y15787619D01*
X52984762Y15787619D01*
X53060952Y15740000D01*
X53099048Y15692381D01*
X53137143Y15597143D01*
X53137143Y15501905D01*
X53099048Y15406667D01*
X53060952Y15359048D01*
X52984762Y15311429D01*
X52718095Y15311429D01*
X53670476Y15787619D02*
X53822857Y15787619D01*
X53899048Y15740000D01*
X53975238Y15644762D01*
X54013333Y15454286D01*
X54013333Y15120952D01*
X53975238Y14930476D01*
X53899048Y14835238D01*
X53822857Y14787619D01*
X53670476Y14787619D01*
X53594286Y14835238D01*
X53518095Y14930476D01*
X53480000Y15120952D01*
X53480000Y15454286D01*
X53518095Y15644762D01*
X53594286Y15740000D01*
X53670476Y15787619D01*
X54508571Y15787619D02*
X54660952Y15787619D01*
X54737143Y15740000D01*
X54813333Y15644762D01*
X54851428Y15454286D01*
X54851428Y15120952D01*
X54813333Y14930476D01*
X54737143Y14835238D01*
X54660952Y14787619D01*
X54508571Y14787619D01*
X54432381Y14835238D01*
X54356190Y14930476D01*
X54318095Y15120952D01*
X54318095Y15454286D01*
X54356190Y15644762D01*
X54432381Y15740000D01*
X54508571Y15787619D01*
X55079999Y15787619D02*
X55537142Y15787619D01*
X55308571Y14787619D02*
X55308571Y15787619D01*
X55613333Y14692381D02*
X56222857Y14692381D01*
X56413333Y14787619D02*
X56413333Y15787619D01*
X56603809Y15787619D01*
X56718095Y15740000D01*
X56794286Y15644762D01*
X56832381Y15549524D01*
X56870476Y15359048D01*
X56870476Y15216190D01*
X56832381Y15025714D01*
X56794286Y14930476D01*
X56718095Y14835238D01*
X56603809Y14787619D01*
X56413333Y14787619D01*
X57213333Y14787619D02*
X57213333Y15787619D01*
X57670476Y14787619D01*
X57670476Y15787619D01*
X58013333Y14835238D02*
X58127619Y14787619D01*
X58318095Y14787619D01*
X58394285Y14835238D01*
X58432381Y14882857D01*
X58470476Y14978095D01*
X58470476Y15073333D01*
X58432381Y15168571D01*
X58394285Y15216190D01*
X58318095Y15263810D01*
X58165714Y15311429D01*
X58089523Y15359048D01*
X58051428Y15406667D01*
X58013333Y15501905D01*
X58013333Y15597143D01*
X58051428Y15692381D01*
X58089523Y15740000D01*
X58165714Y15787619D01*
X58356190Y15787619D01*
X58470476Y15740000D01*
X58699047Y15787619D02*
X59156190Y15787619D01*
X58927619Y14787619D02*
X58927619Y15787619D01*
X31140762Y14930429D02*
X31255048Y14882810D01*
X31293143Y14835190D01*
X31331238Y14739952D01*
X31331238Y14597095D01*
X31293143Y14501857D01*
X31255048Y14454238D01*
X31178857Y14406619D01*
X30874095Y14406619D01*
X30874095Y15406619D01*
X31140762Y15406619D01*
X31216952Y15359000D01*
X31255048Y15311381D01*
X31293143Y15216143D01*
X31293143Y15120905D01*
X31255048Y15025667D01*
X31216952Y14978048D01*
X31140762Y14930429D01*
X30874095Y14930429D01*
X31826476Y15406619D02*
X31978857Y15406619D01*
X32055048Y15359000D01*
X32131238Y15263762D01*
X32169333Y15073286D01*
X32169333Y14739952D01*
X32131238Y14549476D01*
X32055048Y14454238D01*
X31978857Y14406619D01*
X31826476Y14406619D01*
X31750286Y14454238D01*
X31674095Y14549476D01*
X31636000Y14739952D01*
X31636000Y15073286D01*
X31674095Y15263762D01*
X31750286Y15359000D01*
X31826476Y15406619D01*
X32664571Y15406619D02*
X32816952Y15406619D01*
X32893143Y15359000D01*
X32969333Y15263762D01*
X33007428Y15073286D01*
X33007428Y14739952D01*
X32969333Y14549476D01*
X32893143Y14454238D01*
X32816952Y14406619D01*
X32664571Y14406619D01*
X32588381Y14454238D01*
X32512190Y14549476D01*
X32474095Y14739952D01*
X32474095Y15073286D01*
X32512190Y15263762D01*
X32588381Y15359000D01*
X32664571Y15406619D01*
X33235999Y15406619D02*
X33693142Y15406619D01*
X33464571Y14406619D02*
X33464571Y15406619D01*
X33769333Y14311381D02*
X34378857Y14311381D01*
X34569333Y15406619D02*
X34569333Y14597095D01*
X34607428Y14501857D01*
X34645524Y14454238D01*
X34721714Y14406619D01*
X34874095Y14406619D01*
X34950286Y14454238D01*
X34988381Y14501857D01*
X35026476Y14597095D01*
X35026476Y15406619D01*
X35407428Y14406619D02*
X35407428Y15406619D01*
X35712190Y15406619D01*
X35788381Y15359000D01*
X35826476Y15311381D01*
X35864571Y15216143D01*
X35864571Y15073286D01*
X35826476Y14978048D01*
X35788381Y14930429D01*
X35712190Y14882810D01*
X35407428Y14882810D01*
X36169333Y14454238D02*
X36283619Y14406619D01*
X36474095Y14406619D01*
X36550285Y14454238D01*
X36588381Y14501857D01*
X36626476Y14597095D01*
X36626476Y14692333D01*
X36588381Y14787571D01*
X36550285Y14835190D01*
X36474095Y14882810D01*
X36321714Y14930429D01*
X36245523Y14978048D01*
X36207428Y15025667D01*
X36169333Y15120905D01*
X36169333Y15216143D01*
X36207428Y15311381D01*
X36245523Y15359000D01*
X36321714Y15406619D01*
X36512190Y15406619D01*
X36626476Y15359000D01*
X36855047Y15406619D02*
X37312190Y15406619D01*
X37083619Y14406619D02*
X37083619Y15406619D01*
X31472143Y19932667D02*
X31519762Y19894572D01*
X31567381Y19780286D01*
X31567381Y19704096D01*
X31519762Y19589810D01*
X31424524Y19513619D01*
X31329286Y19475524D01*
X31138810Y19437429D01*
X30995952Y19437429D01*
X30805476Y19475524D01*
X30710238Y19513619D01*
X30615000Y19589810D01*
X30567381Y19704096D01*
X30567381Y19780286D01*
X30615000Y19894572D01*
X30662619Y19932667D01*
X31567381Y20694572D02*
X31567381Y20237429D01*
X31567381Y20466000D02*
X30567381Y20466000D01*
X30710238Y20389810D01*
X30805476Y20313619D01*
X30853095Y20237429D01*
X23615667Y18819857D02*
X23577572Y18772238D01*
X23463286Y18724619D01*
X23387096Y18724619D01*
X23272810Y18772238D01*
X23196619Y18867476D01*
X23158524Y18962714D01*
X23120429Y19153190D01*
X23120429Y19296048D01*
X23158524Y19486524D01*
X23196619Y19581762D01*
X23272810Y19677000D01*
X23387096Y19724619D01*
X23463286Y19724619D01*
X23577572Y19677000D01*
X23615667Y19629381D01*
X23920429Y19629381D02*
X23958524Y19677000D01*
X24034715Y19724619D01*
X24225191Y19724619D01*
X24301381Y19677000D01*
X24339477Y19629381D01*
X24377572Y19534143D01*
X24377572Y19438905D01*
X24339477Y19296048D01*
X23882334Y18724619D01*
X24377572Y18724619D01*
X11169667Y16660857D02*
X11131572Y16613238D01*
X11017286Y16565619D01*
X10941096Y16565619D01*
X10826810Y16613238D01*
X10750619Y16708476D01*
X10712524Y16803714D01*
X10674429Y16994190D01*
X10674429Y17137048D01*
X10712524Y17327524D01*
X10750619Y17422762D01*
X10826810Y17518000D01*
X10941096Y17565619D01*
X11017286Y17565619D01*
X11131572Y17518000D01*
X11169667Y17470381D01*
X11436334Y17565619D02*
X11931572Y17565619D01*
X11664905Y17184667D01*
X11779191Y17184667D01*
X11855381Y17137048D01*
X11893477Y17089429D01*
X11931572Y16994190D01*
X11931572Y16756095D01*
X11893477Y16660857D01*
X11855381Y16613238D01*
X11779191Y16565619D01*
X11550619Y16565619D01*
X11474429Y16613238D01*
X11436334Y16660857D01*
X6453143Y21964667D02*
X6500762Y21926572D01*
X6548381Y21812286D01*
X6548381Y21736096D01*
X6500762Y21621810D01*
X6405524Y21545619D01*
X6310286Y21507524D01*
X6119810Y21469429D01*
X5976952Y21469429D01*
X5786476Y21507524D01*
X5691238Y21545619D01*
X5596000Y21621810D01*
X5548381Y21736096D01*
X5548381Y21812286D01*
X5596000Y21926572D01*
X5643619Y21964667D01*
X5881714Y22650381D02*
X6548381Y22650381D01*
X5500762Y22459905D02*
X6215048Y22269429D01*
X6215048Y22764667D01*
X10517143Y11296667D02*
X10564762Y11258572D01*
X10612381Y11144286D01*
X10612381Y11068096D01*
X10564762Y10953810D01*
X10469524Y10877619D01*
X10374286Y10839524D01*
X10183810Y10801429D01*
X10040952Y10801429D01*
X9850476Y10839524D01*
X9755238Y10877619D01*
X9660000Y10953810D01*
X9612381Y11068096D01*
X9612381Y11144286D01*
X9660000Y11258572D01*
X9707619Y11296667D01*
X9612381Y12020477D02*
X9612381Y11639524D01*
X10088571Y11601429D01*
X10040952Y11639524D01*
X9993333Y11715715D01*
X9993333Y11906191D01*
X10040952Y11982381D01*
X10088571Y12020477D01*
X10183810Y12058572D01*
X10421905Y12058572D01*
X10517143Y12020477D01*
X10564762Y11982381D01*
X10612381Y11906191D01*
X10612381Y11715715D01*
X10564762Y11639524D01*
X10517143Y11601429D01*
X12820667Y3960857D02*
X12782572Y3913238D01*
X12668286Y3865619D01*
X12592096Y3865619D01*
X12477810Y3913238D01*
X12401619Y4008476D01*
X12363524Y4103714D01*
X12325429Y4294190D01*
X12325429Y4437048D01*
X12363524Y4627524D01*
X12401619Y4722762D01*
X12477810Y4818000D01*
X12592096Y4865619D01*
X12668286Y4865619D01*
X12782572Y4818000D01*
X12820667Y4770381D01*
X13506381Y4865619D02*
X13354000Y4865619D01*
X13277810Y4818000D01*
X13239715Y4770381D01*
X13163524Y4627524D01*
X13125429Y4437048D01*
X13125429Y4056095D01*
X13163524Y3960857D01*
X13201619Y3913238D01*
X13277810Y3865619D01*
X13430191Y3865619D01*
X13506381Y3913238D01*
X13544477Y3960857D01*
X13582572Y4056095D01*
X13582572Y4294190D01*
X13544477Y4389429D01*
X13506381Y4437048D01*
X13430191Y4484667D01*
X13277810Y4484667D01*
X13201619Y4437048D01*
X13163524Y4389429D01*
X13125429Y4294190D01*
X11914143Y1390667D02*
X11961762Y1352572D01*
X12009381Y1238286D01*
X12009381Y1162096D01*
X11961762Y1047810D01*
X11866524Y971619D01*
X11771286Y933524D01*
X11580810Y895429D01*
X11437952Y895429D01*
X11247476Y933524D01*
X11152238Y971619D01*
X11057000Y1047810D01*
X11009381Y1162096D01*
X11009381Y1238286D01*
X11057000Y1352572D01*
X11104619Y1390667D01*
X11009381Y1657334D02*
X11009381Y2190667D01*
X12009381Y1847810D01*
X31345143Y18154667D02*
X31392762Y18116572D01*
X31440381Y18002286D01*
X31440381Y17926096D01*
X31392762Y17811810D01*
X31297524Y17735619D01*
X31202286Y17697524D01*
X31011810Y17659429D01*
X30868952Y17659429D01*
X30678476Y17697524D01*
X30583238Y17735619D01*
X30488000Y17811810D01*
X30440381Y17926096D01*
X30440381Y18002286D01*
X30488000Y18116572D01*
X30535619Y18154667D01*
X30868952Y18611810D02*
X30821333Y18535619D01*
X30773714Y18497524D01*
X30678476Y18459429D01*
X30630857Y18459429D01*
X30535619Y18497524D01*
X30488000Y18535619D01*
X30440381Y18611810D01*
X30440381Y18764191D01*
X30488000Y18840381D01*
X30535619Y18878477D01*
X30630857Y18916572D01*
X30678476Y18916572D01*
X30773714Y18878477D01*
X30821333Y18840381D01*
X30868952Y18764191D01*
X30868952Y18611810D01*
X30916571Y18535619D01*
X30964190Y18497524D01*
X31059429Y18459429D01*
X31249905Y18459429D01*
X31345143Y18497524D01*
X31392762Y18535619D01*
X31440381Y18611810D01*
X31440381Y18764191D01*
X31392762Y18840381D01*
X31345143Y18878477D01*
X31249905Y18916572D01*
X31059429Y18916572D01*
X30964190Y18878477D01*
X30916571Y18840381D01*
X30868952Y18764191D01*
X27281143Y13709667D02*
X27328762Y13671572D01*
X27376381Y13557286D01*
X27376381Y13481096D01*
X27328762Y13366810D01*
X27233524Y13290619D01*
X27138286Y13252524D01*
X26947810Y13214429D01*
X26804952Y13214429D01*
X26614476Y13252524D01*
X26519238Y13290619D01*
X26424000Y13366810D01*
X26376381Y13481096D01*
X26376381Y13557286D01*
X26424000Y13671572D01*
X26471619Y13709667D01*
X27376381Y14090619D02*
X27376381Y14243000D01*
X27328762Y14319191D01*
X27281143Y14357286D01*
X27138286Y14433477D01*
X26947810Y14471572D01*
X26566857Y14471572D01*
X26471619Y14433477D01*
X26424000Y14395381D01*
X26376381Y14319191D01*
X26376381Y14166810D01*
X26424000Y14090619D01*
X26471619Y14052524D01*
X26566857Y14014429D01*
X26804952Y14014429D01*
X26900190Y14052524D01*
X26947810Y14090619D01*
X26995429Y14166810D01*
X26995429Y14319191D01*
X26947810Y14395381D01*
X26900190Y14433477D01*
X26804952Y14471572D01*
X9501143Y14598714D02*
X9548762Y14560619D01*
X9596381Y14446333D01*
X9596381Y14370143D01*
X9548762Y14255857D01*
X9453524Y14179666D01*
X9358286Y14141571D01*
X9167810Y14103476D01*
X9024952Y14103476D01*
X8834476Y14141571D01*
X8739238Y14179666D01*
X8644000Y14255857D01*
X8596381Y14370143D01*
X8596381Y14446333D01*
X8644000Y14560619D01*
X8691619Y14598714D01*
X9596381Y15360619D02*
X9596381Y14903476D01*
X9596381Y15132047D02*
X8596381Y15132047D01*
X8739238Y15055857D01*
X8834476Y14979666D01*
X8882095Y14903476D01*
X8596381Y15855857D02*
X8596381Y15932048D01*
X8644000Y16008238D01*
X8691619Y16046333D01*
X8786857Y16084429D01*
X8977333Y16122524D01*
X9215429Y16122524D01*
X9405905Y16084429D01*
X9501143Y16046333D01*
X9548762Y16008238D01*
X9596381Y15932048D01*
X9596381Y15855857D01*
X9548762Y15779667D01*
X9501143Y15741571D01*
X9405905Y15703476D01*
X9215429Y15665381D01*
X8977333Y15665381D01*
X8786857Y15703476D01*
X8691619Y15741571D01*
X8644000Y15779667D01*
X8596381Y15855857D01*
X13963714Y18819857D02*
X13925619Y18772238D01*
X13811333Y18724619D01*
X13735143Y18724619D01*
X13620857Y18772238D01*
X13544666Y18867476D01*
X13506571Y18962714D01*
X13468476Y19153190D01*
X13468476Y19296048D01*
X13506571Y19486524D01*
X13544666Y19581762D01*
X13620857Y19677000D01*
X13735143Y19724619D01*
X13811333Y19724619D01*
X13925619Y19677000D01*
X13963714Y19629381D01*
X14725619Y18724619D02*
X14268476Y18724619D01*
X14497047Y18724619D02*
X14497047Y19724619D01*
X14420857Y19581762D01*
X14344666Y19486524D01*
X14268476Y19438905D01*
X15487524Y18724619D02*
X15030381Y18724619D01*
X15258952Y18724619D02*
X15258952Y19724619D01*
X15182762Y19581762D01*
X15106571Y19486524D01*
X15030381Y19438905D01*
X9374143Y6089714D02*
X9421762Y6051619D01*
X9469381Y5937333D01*
X9469381Y5861143D01*
X9421762Y5746857D01*
X9326524Y5670666D01*
X9231286Y5632571D01*
X9040810Y5594476D01*
X8897952Y5594476D01*
X8707476Y5632571D01*
X8612238Y5670666D01*
X8517000Y5746857D01*
X8469381Y5861143D01*
X8469381Y5937333D01*
X8517000Y6051619D01*
X8564619Y6089714D01*
X9469381Y6851619D02*
X9469381Y6394476D01*
X9469381Y6623047D02*
X8469381Y6623047D01*
X8612238Y6546857D01*
X8707476Y6470666D01*
X8755095Y6394476D01*
X8564619Y7156381D02*
X8517000Y7194476D01*
X8469381Y7270667D01*
X8469381Y7461143D01*
X8517000Y7537333D01*
X8564619Y7575429D01*
X8659857Y7613524D01*
X8755095Y7613524D01*
X8897952Y7575429D01*
X9469381Y7118286D01*
X9469381Y7613524D01*
X19424714Y2309857D02*
X19386619Y2262238D01*
X19272333Y2214619D01*
X19196143Y2214619D01*
X19081857Y2262238D01*
X19005666Y2357476D01*
X18967571Y2452714D01*
X18929476Y2643190D01*
X18929476Y2786048D01*
X18967571Y2976524D01*
X19005666Y3071762D01*
X19081857Y3167000D01*
X19196143Y3214619D01*
X19272333Y3214619D01*
X19386619Y3167000D01*
X19424714Y3119381D01*
X20186619Y2214619D02*
X19729476Y2214619D01*
X19958047Y2214619D02*
X19958047Y3214619D01*
X19881857Y3071762D01*
X19805666Y2976524D01*
X19729476Y2928905D01*
X20453286Y3214619D02*
X20948524Y3214619D01*
X20681857Y2833667D01*
X20796143Y2833667D01*
X20872333Y2786048D01*
X20910429Y2738429D01*
X20948524Y2643190D01*
X20948524Y2405095D01*
X20910429Y2309857D01*
X20872333Y2262238D01*
X20796143Y2214619D01*
X20567571Y2214619D01*
X20491381Y2262238D01*
X20453286Y2309857D01*
X33123143Y11931714D02*
X33170762Y11893619D01*
X33218381Y11779333D01*
X33218381Y11703143D01*
X33170762Y11588857D01*
X33075524Y11512666D01*
X32980286Y11474571D01*
X32789810Y11436476D01*
X32646952Y11436476D01*
X32456476Y11474571D01*
X32361238Y11512666D01*
X32266000Y11588857D01*
X32218381Y11703143D01*
X32218381Y11779333D01*
X32266000Y11893619D01*
X32313619Y11931714D01*
X33218381Y12693619D02*
X33218381Y12236476D01*
X33218381Y12465047D02*
X32218381Y12465047D01*
X32361238Y12388857D01*
X32456476Y12312666D01*
X32504095Y12236476D01*
X32551714Y13379333D02*
X33218381Y13379333D01*
X32170762Y13188857D02*
X32885048Y12998381D01*
X32885048Y13493619D01*
X36696714Y12723857D02*
X36658619Y12676238D01*
X36544333Y12628619D01*
X36468143Y12628619D01*
X36353857Y12676238D01*
X36277666Y12771476D01*
X36239571Y12866714D01*
X36201476Y13057190D01*
X36201476Y13200048D01*
X36239571Y13390524D01*
X36277666Y13485762D01*
X36353857Y13581000D01*
X36468143Y13628619D01*
X36544333Y13628619D01*
X36658619Y13581000D01*
X36696714Y13533381D01*
X37458619Y12628619D02*
X37001476Y12628619D01*
X37230047Y12628619D02*
X37230047Y13628619D01*
X37153857Y13485762D01*
X37077666Y13390524D01*
X37001476Y13342905D01*
X38182429Y13628619D02*
X37801476Y13628619D01*
X37763381Y13152429D01*
X37801476Y13200048D01*
X37877667Y13247667D01*
X38068143Y13247667D01*
X38144333Y13200048D01*
X38182429Y13152429D01*
X38220524Y13057190D01*
X38220524Y12819095D01*
X38182429Y12723857D01*
X38144333Y12676238D01*
X38068143Y12628619D01*
X37877667Y12628619D01*
X37801476Y12676238D01*
X37763381Y12723857D01*
X35680714Y16025857D02*
X35642619Y15978238D01*
X35528333Y15930619D01*
X35452143Y15930619D01*
X35337857Y15978238D01*
X35261666Y16073476D01*
X35223571Y16168714D01*
X35185476Y16359190D01*
X35185476Y16502048D01*
X35223571Y16692524D01*
X35261666Y16787762D01*
X35337857Y16883000D01*
X35452143Y16930619D01*
X35528333Y16930619D01*
X35642619Y16883000D01*
X35680714Y16835381D01*
X36442619Y15930619D02*
X35985476Y15930619D01*
X36214047Y15930619D02*
X36214047Y16930619D01*
X36137857Y16787762D01*
X36061666Y16692524D01*
X35985476Y16644905D01*
X37128333Y16930619D02*
X36975952Y16930619D01*
X36899762Y16883000D01*
X36861667Y16835381D01*
X36785476Y16692524D01*
X36747381Y16502048D01*
X36747381Y16121095D01*
X36785476Y16025857D01*
X36823571Y15978238D01*
X36899762Y15930619D01*
X37052143Y15930619D01*
X37128333Y15978238D01*
X37166429Y16025857D01*
X37204524Y16121095D01*
X37204524Y16359190D01*
X37166429Y16454429D01*
X37128333Y16502048D01*
X37052143Y16549667D01*
X36899762Y16549667D01*
X36823571Y16502048D01*
X36785476Y16454429D01*
X36747381Y16359190D01*
X54857714Y18946857D02*
X54819619Y18899238D01*
X54705333Y18851619D01*
X54629143Y18851619D01*
X54514857Y18899238D01*
X54438666Y18994476D01*
X54400571Y19089714D01*
X54362476Y19280190D01*
X54362476Y19423048D01*
X54400571Y19613524D01*
X54438666Y19708762D01*
X54514857Y19804000D01*
X54629143Y19851619D01*
X54705333Y19851619D01*
X54819619Y19804000D01*
X54857714Y19756381D01*
X55619619Y18851619D02*
X55162476Y18851619D01*
X55391047Y18851619D02*
X55391047Y19851619D01*
X55314857Y19708762D01*
X55238666Y19613524D01*
X55162476Y19565905D01*
X55886286Y19851619D02*
X56419619Y19851619D01*
X56076762Y18851619D01*
X41268714Y18819857D02*
X41230619Y18772238D01*
X41116333Y18724619D01*
X41040143Y18724619D01*
X40925857Y18772238D01*
X40849666Y18867476D01*
X40811571Y18962714D01*
X40773476Y19153190D01*
X40773476Y19296048D01*
X40811571Y19486524D01*
X40849666Y19581762D01*
X40925857Y19677000D01*
X41040143Y19724619D01*
X41116333Y19724619D01*
X41230619Y19677000D01*
X41268714Y19629381D01*
X42030619Y18724619D02*
X41573476Y18724619D01*
X41802047Y18724619D02*
X41802047Y19724619D01*
X41725857Y19581762D01*
X41649666Y19486524D01*
X41573476Y19438905D01*
X42487762Y19296048D02*
X42411571Y19343667D01*
X42373476Y19391286D01*
X42335381Y19486524D01*
X42335381Y19534143D01*
X42373476Y19629381D01*
X42411571Y19677000D01*
X42487762Y19724619D01*
X42640143Y19724619D01*
X42716333Y19677000D01*
X42754429Y19629381D01*
X42792524Y19534143D01*
X42792524Y19486524D01*
X42754429Y19391286D01*
X42716333Y19343667D01*
X42640143Y19296048D01*
X42487762Y19296048D01*
X42411571Y19248429D01*
X42373476Y19200810D01*
X42335381Y19105571D01*
X42335381Y18915095D01*
X42373476Y18819857D01*
X42411571Y18772238D01*
X42487762Y18724619D01*
X42640143Y18724619D01*
X42716333Y18772238D01*
X42754429Y18819857D01*
X42792524Y18915095D01*
X42792524Y19105571D01*
X42754429Y19200810D01*
X42716333Y19248429D01*
X42640143Y19296048D01*
X40379714Y10564857D02*
X40341619Y10517238D01*
X40227333Y10469619D01*
X40151143Y10469619D01*
X40036857Y10517238D01*
X39960666Y10612476D01*
X39922571Y10707714D01*
X39884476Y10898190D01*
X39884476Y11041048D01*
X39922571Y11231524D01*
X39960666Y11326762D01*
X40036857Y11422000D01*
X40151143Y11469619D01*
X40227333Y11469619D01*
X40341619Y11422000D01*
X40379714Y11374381D01*
X41141619Y10469619D02*
X40684476Y10469619D01*
X40913047Y10469619D02*
X40913047Y11469619D01*
X40836857Y11326762D01*
X40760666Y11231524D01*
X40684476Y11183905D01*
X41522571Y10469619D02*
X41674952Y10469619D01*
X41751143Y10517238D01*
X41789238Y10564857D01*
X41865429Y10707714D01*
X41903524Y10898190D01*
X41903524Y11279143D01*
X41865429Y11374381D01*
X41827333Y11422000D01*
X41751143Y11469619D01*
X41598762Y11469619D01*
X41522571Y11422000D01*
X41484476Y11374381D01*
X41446381Y11279143D01*
X41446381Y11041048D01*
X41484476Y10945810D01*
X41522571Y10898190D01*
X41598762Y10850571D01*
X41751143Y10850571D01*
X41827333Y10898190D01*
X41865429Y10945810D01*
X41903524Y11041048D01*
X41014714Y2182857D02*
X40976619Y2135238D01*
X40862333Y2087619D01*
X40786143Y2087619D01*
X40671857Y2135238D01*
X40595666Y2230476D01*
X40557571Y2325714D01*
X40519476Y2516190D01*
X40519476Y2659048D01*
X40557571Y2849524D01*
X40595666Y2944762D01*
X40671857Y3040000D01*
X40786143Y3087619D01*
X40862333Y3087619D01*
X40976619Y3040000D01*
X41014714Y2992381D01*
X41319476Y2992381D02*
X41357571Y3040000D01*
X41433762Y3087619D01*
X41624238Y3087619D01*
X41700428Y3040000D01*
X41738524Y2992381D01*
X41776619Y2897143D01*
X41776619Y2801905D01*
X41738524Y2659048D01*
X41281381Y2087619D01*
X41776619Y2087619D01*
X42271857Y3087619D02*
X42348048Y3087619D01*
X42424238Y3040000D01*
X42462333Y2992381D01*
X42500429Y2897143D01*
X42538524Y2706667D01*
X42538524Y2468571D01*
X42500429Y2278095D01*
X42462333Y2182857D01*
X42424238Y2135238D01*
X42348048Y2087619D01*
X42271857Y2087619D01*
X42195667Y2135238D01*
X42157571Y2182857D01*
X42119476Y2278095D01*
X42081381Y2468571D01*
X42081381Y2706667D01*
X42119476Y2897143D01*
X42157571Y2992381D01*
X42195667Y3040000D01*
X42271857Y3087619D01*
X42030714Y4976857D02*
X41992619Y4929238D01*
X41878333Y4881619D01*
X41802143Y4881619D01*
X41687857Y4929238D01*
X41611666Y5024476D01*
X41573571Y5119714D01*
X41535476Y5310190D01*
X41535476Y5453048D01*
X41573571Y5643524D01*
X41611666Y5738762D01*
X41687857Y5834000D01*
X41802143Y5881619D01*
X41878333Y5881619D01*
X41992619Y5834000D01*
X42030714Y5786381D01*
X42335476Y5786381D02*
X42373571Y5834000D01*
X42449762Y5881619D01*
X42640238Y5881619D01*
X42716428Y5834000D01*
X42754524Y5786381D01*
X42792619Y5691143D01*
X42792619Y5595905D01*
X42754524Y5453048D01*
X42297381Y4881619D01*
X42792619Y4881619D01*
X43554524Y4881619D02*
X43097381Y4881619D01*
X43325952Y4881619D02*
X43325952Y5881619D01*
X43249762Y5738762D01*
X43173571Y5643524D01*
X43097381Y5595905D01*
X45205714Y18819857D02*
X45167619Y18772238D01*
X45053333Y18724619D01*
X44977143Y18724619D01*
X44862857Y18772238D01*
X44786666Y18867476D01*
X44748571Y18962714D01*
X44710476Y19153190D01*
X44710476Y19296048D01*
X44748571Y19486524D01*
X44786666Y19581762D01*
X44862857Y19677000D01*
X44977143Y19724619D01*
X45053333Y19724619D01*
X45167619Y19677000D01*
X45205714Y19629381D01*
X45510476Y19629381D02*
X45548571Y19677000D01*
X45624762Y19724619D01*
X45815238Y19724619D01*
X45891428Y19677000D01*
X45929524Y19629381D01*
X45967619Y19534143D01*
X45967619Y19438905D01*
X45929524Y19296048D01*
X45472381Y18724619D01*
X45967619Y18724619D01*
X46272381Y19629381D02*
X46310476Y19677000D01*
X46386667Y19724619D01*
X46577143Y19724619D01*
X46653333Y19677000D01*
X46691429Y19629381D01*
X46729524Y19534143D01*
X46729524Y19438905D01*
X46691429Y19296048D01*
X46234286Y18724619D01*
X46729524Y18724619D01*
X57888143Y12566714D02*
X57935762Y12528619D01*
X57983381Y12414333D01*
X57983381Y12338143D01*
X57935762Y12223857D01*
X57840524Y12147666D01*
X57745286Y12109571D01*
X57554810Y12071476D01*
X57411952Y12071476D01*
X57221476Y12109571D01*
X57126238Y12147666D01*
X57031000Y12223857D01*
X56983381Y12338143D01*
X56983381Y12414333D01*
X57031000Y12528619D01*
X57078619Y12566714D01*
X57078619Y12871476D02*
X57031000Y12909571D01*
X56983381Y12985762D01*
X56983381Y13176238D01*
X57031000Y13252428D01*
X57078619Y13290524D01*
X57173857Y13328619D01*
X57269095Y13328619D01*
X57411952Y13290524D01*
X57983381Y12833381D01*
X57983381Y13328619D01*
X56983381Y13595286D02*
X56983381Y14090524D01*
X57364333Y13823857D01*
X57364333Y13938143D01*
X57411952Y14014333D01*
X57459571Y14052429D01*
X57554810Y14090524D01*
X57792905Y14090524D01*
X57888143Y14052429D01*
X57935762Y14014333D01*
X57983381Y13938143D01*
X57983381Y13709571D01*
X57935762Y13633381D01*
X57888143Y13595286D01*
X49142714Y2309857D02*
X49104619Y2262238D01*
X48990333Y2214619D01*
X48914143Y2214619D01*
X48799857Y2262238D01*
X48723666Y2357476D01*
X48685571Y2452714D01*
X48647476Y2643190D01*
X48647476Y2786048D01*
X48685571Y2976524D01*
X48723666Y3071762D01*
X48799857Y3167000D01*
X48914143Y3214619D01*
X48990333Y3214619D01*
X49104619Y3167000D01*
X49142714Y3119381D01*
X49447476Y3119381D02*
X49485571Y3167000D01*
X49561762Y3214619D01*
X49752238Y3214619D01*
X49828428Y3167000D01*
X49866524Y3119381D01*
X49904619Y3024143D01*
X49904619Y2928905D01*
X49866524Y2786048D01*
X49409381Y2214619D01*
X49904619Y2214619D01*
X50590333Y2881286D02*
X50590333Y2214619D01*
X50399857Y3262238D02*
X50209381Y2547952D01*
X50704619Y2547952D01*
X40235143Y12820714D02*
X40282762Y12782619D01*
X40330381Y12668333D01*
X40330381Y12592143D01*
X40282762Y12477857D01*
X40187524Y12401666D01*
X40092286Y12363571D01*
X39901810Y12325476D01*
X39758952Y12325476D01*
X39568476Y12363571D01*
X39473238Y12401666D01*
X39378000Y12477857D01*
X39330381Y12592143D01*
X39330381Y12668333D01*
X39378000Y12782619D01*
X39425619Y12820714D01*
X39425619Y13125476D02*
X39378000Y13163571D01*
X39330381Y13239762D01*
X39330381Y13430238D01*
X39378000Y13506428D01*
X39425619Y13544524D01*
X39520857Y13582619D01*
X39616095Y13582619D01*
X39758952Y13544524D01*
X40330381Y13087381D01*
X40330381Y13582619D01*
X39330381Y14306429D02*
X39330381Y13925476D01*
X39806571Y13887381D01*
X39758952Y13925476D01*
X39711333Y14001667D01*
X39711333Y14192143D01*
X39758952Y14268333D01*
X39806571Y14306429D01*
X39901810Y14344524D01*
X40139905Y14344524D01*
X40235143Y14306429D01*
X40282762Y14268333D01*
X40330381Y14192143D01*
X40330381Y14001667D01*
X40282762Y13925476D01*
X40235143Y13887381D01*
X69081714Y3452857D02*
X69043619Y3405238D01*
X68929333Y3357619D01*
X68853143Y3357619D01*
X68738857Y3405238D01*
X68662666Y3500476D01*
X68624571Y3595714D01*
X68586476Y3786190D01*
X68586476Y3929048D01*
X68624571Y4119524D01*
X68662666Y4214762D01*
X68738857Y4310000D01*
X68853143Y4357619D01*
X68929333Y4357619D01*
X69043619Y4310000D01*
X69081714Y4262381D01*
X69386476Y4262381D02*
X69424571Y4310000D01*
X69500762Y4357619D01*
X69691238Y4357619D01*
X69767428Y4310000D01*
X69805524Y4262381D01*
X69843619Y4167143D01*
X69843619Y4071905D01*
X69805524Y3929048D01*
X69348381Y3357619D01*
X69843619Y3357619D01*
X70529333Y4357619D02*
X70376952Y4357619D01*
X70300762Y4310000D01*
X70262667Y4262381D01*
X70186476Y4119524D01*
X70148381Y3929048D01*
X70148381Y3548095D01*
X70186476Y3452857D01*
X70224571Y3405238D01*
X70300762Y3357619D01*
X70453143Y3357619D01*
X70529333Y3405238D01*
X70567429Y3452857D01*
X70605524Y3548095D01*
X70605524Y3786190D01*
X70567429Y3881429D01*
X70529333Y3929048D01*
X70453143Y3976667D01*
X70300762Y3976667D01*
X70224571Y3929048D01*
X70186476Y3881429D01*
X70148381Y3786190D01*
X63620714Y3833857D02*
X63582619Y3786238D01*
X63468333Y3738619D01*
X63392143Y3738619D01*
X63277857Y3786238D01*
X63201666Y3881476D01*
X63163571Y3976714D01*
X63125476Y4167190D01*
X63125476Y4310048D01*
X63163571Y4500524D01*
X63201666Y4595762D01*
X63277857Y4691000D01*
X63392143Y4738619D01*
X63468333Y4738619D01*
X63582619Y4691000D01*
X63620714Y4643381D01*
X63925476Y4643381D02*
X63963571Y4691000D01*
X64039762Y4738619D01*
X64230238Y4738619D01*
X64306428Y4691000D01*
X64344524Y4643381D01*
X64382619Y4548143D01*
X64382619Y4452905D01*
X64344524Y4310048D01*
X63887381Y3738619D01*
X64382619Y3738619D01*
X64649286Y4738619D02*
X65182619Y4738619D01*
X64839762Y3738619D01*
X58667714Y19073857D02*
X58629619Y19026238D01*
X58515333Y18978619D01*
X58439143Y18978619D01*
X58324857Y19026238D01*
X58248666Y19121476D01*
X58210571Y19216714D01*
X58172476Y19407190D01*
X58172476Y19550048D01*
X58210571Y19740524D01*
X58248666Y19835762D01*
X58324857Y19931000D01*
X58439143Y19978619D01*
X58515333Y19978619D01*
X58629619Y19931000D01*
X58667714Y19883381D01*
X58972476Y19883381D02*
X59010571Y19931000D01*
X59086762Y19978619D01*
X59277238Y19978619D01*
X59353428Y19931000D01*
X59391524Y19883381D01*
X59429619Y19788143D01*
X59429619Y19692905D01*
X59391524Y19550048D01*
X58934381Y18978619D01*
X59429619Y18978619D01*
X59886762Y19550048D02*
X59810571Y19597667D01*
X59772476Y19645286D01*
X59734381Y19740524D01*
X59734381Y19788143D01*
X59772476Y19883381D01*
X59810571Y19931000D01*
X59886762Y19978619D01*
X60039143Y19978619D01*
X60115333Y19931000D01*
X60153429Y19883381D01*
X60191524Y19788143D01*
X60191524Y19740524D01*
X60153429Y19645286D01*
X60115333Y19597667D01*
X60039143Y19550048D01*
X59886762Y19550048D01*
X59810571Y19502429D01*
X59772476Y19454810D01*
X59734381Y19359571D01*
X59734381Y19169095D01*
X59772476Y19073857D01*
X59810571Y19026238D01*
X59886762Y18978619D01*
X60039143Y18978619D01*
X60115333Y19026238D01*
X60153429Y19073857D01*
X60191524Y19169095D01*
X60191524Y19359571D01*
X60153429Y19454810D01*
X60115333Y19502429D01*
X60039143Y19550048D01*
X26460524Y23296619D02*
X26460524Y24296619D01*
X26651000Y24296619D01*
X26765286Y24249000D01*
X26841477Y24153762D01*
X26879572Y24058524D01*
X26917667Y23868048D01*
X26917667Y23725190D01*
X26879572Y23534714D01*
X26841477Y23439476D01*
X26765286Y23344238D01*
X26651000Y23296619D01*
X26460524Y23296619D01*
X27679572Y23296619D02*
X27222429Y23296619D01*
X27451000Y23296619D02*
X27451000Y24296619D01*
X27374810Y24153762D01*
X27298619Y24058524D01*
X27222429Y24010905D01*
X59144286Y18105429D02*
X58877619Y18105429D01*
X58877619Y17581619D02*
X58877619Y18581619D01*
X59258572Y18581619D01*
X59525238Y17867333D02*
X59906190Y17867333D01*
X59449047Y17581619D02*
X59715714Y18581619D01*
X59982381Y17581619D01*
X60249047Y18581619D02*
X60249047Y17772095D01*
X60287142Y17676857D01*
X60325238Y17629238D01*
X60401428Y17581619D01*
X60553809Y17581619D01*
X60630000Y17629238D01*
X60668095Y17676857D01*
X60706190Y17772095D01*
X60706190Y18581619D01*
X61468095Y17581619D02*
X61087142Y17581619D01*
X61087142Y18581619D01*
X61620475Y18581619D02*
X62077618Y18581619D01*
X61849047Y17581619D02*
X61849047Y18581619D01*
X62153809Y17486381D02*
X62763333Y17486381D01*
X62953809Y17581619D02*
X62953809Y18581619D01*
X63144285Y18581619D01*
X63258571Y18534000D01*
X63334762Y18438762D01*
X63372857Y18343524D01*
X63410952Y18153048D01*
X63410952Y18010190D01*
X63372857Y17819714D01*
X63334762Y17724476D01*
X63258571Y17629238D01*
X63144285Y17581619D01*
X62953809Y17581619D01*
X63753809Y17581619D02*
X63753809Y18581619D01*
X64210952Y17581619D01*
X64210952Y18581619D01*
X64553809Y17629238D02*
X64668095Y17581619D01*
X64858571Y17581619D01*
X64934761Y17629238D01*
X64972857Y17676857D01*
X65010952Y17772095D01*
X65010952Y17867333D01*
X64972857Y17962571D01*
X64934761Y18010190D01*
X64858571Y18057810D01*
X64706190Y18105429D01*
X64629999Y18153048D01*
X64591904Y18200667D01*
X64553809Y18295905D01*
X64553809Y18391143D01*
X64591904Y18486381D01*
X64629999Y18534000D01*
X64706190Y18581619D01*
X64896666Y18581619D01*
X65010952Y18534000D01*
X65239523Y18581619D02*
X65696666Y18581619D01*
X65468095Y17581619D02*
X65468095Y18581619D01*
X27902286Y16835429D02*
X27635619Y16835429D01*
X27635619Y16311619D02*
X27635619Y17311619D01*
X28016572Y17311619D01*
X28283238Y16597333D02*
X28664190Y16597333D01*
X28207047Y16311619D02*
X28473714Y17311619D01*
X28740381Y16311619D01*
X29007047Y17311619D02*
X29007047Y16502095D01*
X29045142Y16406857D01*
X29083238Y16359238D01*
X29159428Y16311619D01*
X29311809Y16311619D01*
X29388000Y16359238D01*
X29426095Y16406857D01*
X29464190Y16502095D01*
X29464190Y17311619D01*
X30226095Y16311619D02*
X29845142Y16311619D01*
X29845142Y17311619D01*
X30378475Y17311619D02*
X30835618Y17311619D01*
X30607047Y16311619D02*
X30607047Y17311619D01*
X30911809Y16216381D02*
X31521333Y16216381D01*
X31711809Y17311619D02*
X31711809Y16502095D01*
X31749904Y16406857D01*
X31788000Y16359238D01*
X31864190Y16311619D01*
X32016571Y16311619D01*
X32092762Y16359238D01*
X32130857Y16406857D01*
X32168952Y16502095D01*
X32168952Y17311619D01*
X32549904Y16311619D02*
X32549904Y17311619D01*
X32854666Y17311619D01*
X32930857Y17264000D01*
X32968952Y17216381D01*
X33007047Y17121143D01*
X33007047Y16978286D01*
X32968952Y16883048D01*
X32930857Y16835429D01*
X32854666Y16787810D01*
X32549904Y16787810D01*
X33311809Y16359238D02*
X33426095Y16311619D01*
X33616571Y16311619D01*
X33692761Y16359238D01*
X33730857Y16406857D01*
X33768952Y16502095D01*
X33768952Y16597333D01*
X33730857Y16692571D01*
X33692761Y16740190D01*
X33616571Y16787810D01*
X33464190Y16835429D01*
X33387999Y16883048D01*
X33349904Y16930667D01*
X33311809Y17025905D01*
X33311809Y17121143D01*
X33349904Y17216381D01*
X33387999Y17264000D01*
X33464190Y17311619D01*
X33654666Y17311619D01*
X33768952Y17264000D01*
X33997523Y17311619D02*
X34454666Y17311619D01*
X34226095Y16311619D02*
X34226095Y17311619D01*
X46553381Y7061524D02*
X45553381Y7061524D01*
X46553381Y7442476D02*
X45553381Y7442476D01*
X45553381Y7632952D01*
X45601000Y7747238D01*
X45696238Y7823429D01*
X45791476Y7861524D01*
X45981952Y7899619D01*
X46124810Y7899619D01*
X46315286Y7861524D01*
X46410524Y7823429D01*
X46505762Y7747238D01*
X46553381Y7632952D01*
X46553381Y7442476D01*
X46648619Y8052000D02*
X46648619Y8661524D01*
X46553381Y8852000D02*
X45553381Y8852000D01*
X45553381Y9042476D01*
X45601000Y9156762D01*
X45696238Y9232953D01*
X45791476Y9271048D01*
X45981952Y9309143D01*
X46124810Y9309143D01*
X46315286Y9271048D01*
X46410524Y9232953D01*
X46505762Y9156762D01*
X46553381Y9042476D01*
X46553381Y8852000D01*
X46553381Y9652000D02*
X45553381Y9652000D01*
X46553381Y10109143D01*
X45553381Y10109143D01*
X46505762Y10452000D02*
X46553381Y10566286D01*
X46553381Y10756762D01*
X46505762Y10832952D01*
X46458143Y10871048D01*
X46362905Y10909143D01*
X46267667Y10909143D01*
X46172429Y10871048D01*
X46124810Y10832952D01*
X46077190Y10756762D01*
X46029571Y10604381D01*
X45981952Y10528190D01*
X45934333Y10490095D01*
X45839095Y10452000D01*
X45743857Y10452000D01*
X45648619Y10490095D01*
X45601000Y10528190D01*
X45553381Y10604381D01*
X45553381Y10794857D01*
X45601000Y10909143D01*
X45553381Y11137714D02*
X45553381Y11594857D01*
X46553381Y11366286D02*
X45553381Y11366286D01*
X46553381Y12280572D02*
X46553381Y11823429D01*
X46553381Y12052000D02*
X45553381Y12052000D01*
X45696238Y11975810D01*
X45791476Y11899619D01*
X45839095Y11823429D01*
X51379381Y6096381D02*
X50379381Y6096381D01*
X51379381Y6477333D02*
X50379381Y6477333D01*
X50379381Y6667809D01*
X50427000Y6782095D01*
X50522238Y6858286D01*
X50617476Y6896381D01*
X50807952Y6934476D01*
X50950810Y6934476D01*
X51141286Y6896381D01*
X51236524Y6858286D01*
X51331762Y6782095D01*
X51379381Y6667809D01*
X51379381Y6477333D01*
X51474619Y7086857D02*
X51474619Y7696381D01*
X50855571Y8153524D02*
X50903190Y8267810D01*
X50950810Y8305905D01*
X51046048Y8344000D01*
X51188905Y8344000D01*
X51284143Y8305905D01*
X51331762Y8267810D01*
X51379381Y8191619D01*
X51379381Y7886857D01*
X50379381Y7886857D01*
X50379381Y8153524D01*
X50427000Y8229714D01*
X50474619Y8267810D01*
X50569857Y8305905D01*
X50665095Y8305905D01*
X50760333Y8267810D01*
X50807952Y8229714D01*
X50855571Y8153524D01*
X50855571Y7886857D01*
X50379381Y8839238D02*
X50379381Y8991619D01*
X50427000Y9067810D01*
X50522238Y9144000D01*
X50712714Y9182095D01*
X51046048Y9182095D01*
X51236524Y9144000D01*
X51331762Y9067810D01*
X51379381Y8991619D01*
X51379381Y8839238D01*
X51331762Y8763048D01*
X51236524Y8686857D01*
X51046048Y8648762D01*
X50712714Y8648762D01*
X50522238Y8686857D01*
X50427000Y8763048D01*
X50379381Y8839238D01*
X51093667Y9486857D02*
X51093667Y9867809D01*
X51379381Y9410666D02*
X50379381Y9677333D01*
X51379381Y9944000D01*
X51379381Y10667809D02*
X50903190Y10401142D01*
X51379381Y10210666D02*
X50379381Y10210666D01*
X50379381Y10515428D01*
X50427000Y10591619D01*
X50474619Y10629714D01*
X50569857Y10667809D01*
X50712714Y10667809D01*
X50807952Y10629714D01*
X50855571Y10591619D01*
X50903190Y10515428D01*
X50903190Y10210666D01*
X51379381Y11010666D02*
X50379381Y11010666D01*
X50379381Y11201142D01*
X50427000Y11315428D01*
X50522238Y11391619D01*
X50617476Y11429714D01*
X50807952Y11467809D01*
X50950810Y11467809D01*
X51141286Y11429714D01*
X51236524Y11391619D01*
X51331762Y11315428D01*
X51379381Y11201142D01*
X51379381Y11010666D01*
X50379381Y11963047D02*
X50379381Y12039238D01*
X50427000Y12115428D01*
X50474619Y12153523D01*
X50569857Y12191619D01*
X50760333Y12229714D01*
X50998429Y12229714D01*
X51188905Y12191619D01*
X51284143Y12153523D01*
X51331762Y12115428D01*
X51379381Y12039238D01*
X51379381Y11963047D01*
X51331762Y11886857D01*
X51284143Y11848761D01*
X51188905Y11810666D01*
X50998429Y11772571D01*
X50760333Y11772571D01*
X50569857Y11810666D01*
X50474619Y11848761D01*
X50427000Y11886857D01*
X50379381Y11963047D01*
X49728381Y6096381D02*
X48728381Y6096381D01*
X49728381Y6477333D02*
X48728381Y6477333D01*
X48728381Y6667809D01*
X48776000Y6782095D01*
X48871238Y6858286D01*
X48966476Y6896381D01*
X49156952Y6934476D01*
X49299810Y6934476D01*
X49490286Y6896381D01*
X49585524Y6858286D01*
X49680762Y6782095D01*
X49728381Y6667809D01*
X49728381Y6477333D01*
X49823619Y7086857D02*
X49823619Y7696381D01*
X49204571Y8153524D02*
X49252190Y8267810D01*
X49299810Y8305905D01*
X49395048Y8344000D01*
X49537905Y8344000D01*
X49633143Y8305905D01*
X49680762Y8267810D01*
X49728381Y8191619D01*
X49728381Y7886857D01*
X48728381Y7886857D01*
X48728381Y8153524D01*
X48776000Y8229714D01*
X48823619Y8267810D01*
X48918857Y8305905D01*
X49014095Y8305905D01*
X49109333Y8267810D01*
X49156952Y8229714D01*
X49204571Y8153524D01*
X49204571Y7886857D01*
X48728381Y8839238D02*
X48728381Y8991619D01*
X48776000Y9067810D01*
X48871238Y9144000D01*
X49061714Y9182095D01*
X49395048Y9182095D01*
X49585524Y9144000D01*
X49680762Y9067810D01*
X49728381Y8991619D01*
X49728381Y8839238D01*
X49680762Y8763048D01*
X49585524Y8686857D01*
X49395048Y8648762D01*
X49061714Y8648762D01*
X48871238Y8686857D01*
X48776000Y8763048D01*
X48728381Y8839238D01*
X49442667Y9486857D02*
X49442667Y9867809D01*
X49728381Y9410666D02*
X48728381Y9677333D01*
X49728381Y9944000D01*
X49728381Y10667809D02*
X49252190Y10401142D01*
X49728381Y10210666D02*
X48728381Y10210666D01*
X48728381Y10515428D01*
X48776000Y10591619D01*
X48823619Y10629714D01*
X48918857Y10667809D01*
X49061714Y10667809D01*
X49156952Y10629714D01*
X49204571Y10591619D01*
X49252190Y10515428D01*
X49252190Y10210666D01*
X49728381Y11010666D02*
X48728381Y11010666D01*
X48728381Y11201142D01*
X48776000Y11315428D01*
X48871238Y11391619D01*
X48966476Y11429714D01*
X49156952Y11467809D01*
X49299810Y11467809D01*
X49490286Y11429714D01*
X49585524Y11391619D01*
X49680762Y11315428D01*
X49728381Y11201142D01*
X49728381Y11010666D01*
X49728381Y12229714D02*
X49728381Y11772571D01*
X49728381Y12001142D02*
X48728381Y12001142D01*
X48871238Y11924952D01*
X48966476Y11848761D01*
X49014095Y11772571D01*
X48204381Y6096381D02*
X47204381Y6096381D01*
X48204381Y6477333D02*
X47204381Y6477333D01*
X47204381Y6667809D01*
X47252000Y6782095D01*
X47347238Y6858286D01*
X47442476Y6896381D01*
X47632952Y6934476D01*
X47775810Y6934476D01*
X47966286Y6896381D01*
X48061524Y6858286D01*
X48156762Y6782095D01*
X48204381Y6667809D01*
X48204381Y6477333D01*
X48299619Y7086857D02*
X48299619Y7696381D01*
X47680571Y8153524D02*
X47728190Y8267810D01*
X47775810Y8305905D01*
X47871048Y8344000D01*
X48013905Y8344000D01*
X48109143Y8305905D01*
X48156762Y8267810D01*
X48204381Y8191619D01*
X48204381Y7886857D01*
X47204381Y7886857D01*
X47204381Y8153524D01*
X47252000Y8229714D01*
X47299619Y8267810D01*
X47394857Y8305905D01*
X47490095Y8305905D01*
X47585333Y8267810D01*
X47632952Y8229714D01*
X47680571Y8153524D01*
X47680571Y7886857D01*
X47204381Y8839238D02*
X47204381Y8991619D01*
X47252000Y9067810D01*
X47347238Y9144000D01*
X47537714Y9182095D01*
X47871048Y9182095D01*
X48061524Y9144000D01*
X48156762Y9067810D01*
X48204381Y8991619D01*
X48204381Y8839238D01*
X48156762Y8763048D01*
X48061524Y8686857D01*
X47871048Y8648762D01*
X47537714Y8648762D01*
X47347238Y8686857D01*
X47252000Y8763048D01*
X47204381Y8839238D01*
X47918667Y9486857D02*
X47918667Y9867809D01*
X48204381Y9410666D02*
X47204381Y9677333D01*
X48204381Y9944000D01*
X48204381Y10667809D02*
X47728190Y10401142D01*
X48204381Y10210666D02*
X47204381Y10210666D01*
X47204381Y10515428D01*
X47252000Y10591619D01*
X47299619Y10629714D01*
X47394857Y10667809D01*
X47537714Y10667809D01*
X47632952Y10629714D01*
X47680571Y10591619D01*
X47728190Y10515428D01*
X47728190Y10210666D01*
X48204381Y11010666D02*
X47204381Y11010666D01*
X47204381Y11201142D01*
X47252000Y11315428D01*
X47347238Y11391619D01*
X47442476Y11429714D01*
X47632952Y11467809D01*
X47775810Y11467809D01*
X47966286Y11429714D01*
X48061524Y11391619D01*
X48156762Y11315428D01*
X48204381Y11201142D01*
X48204381Y11010666D01*
X47299619Y11772571D02*
X47252000Y11810666D01*
X47204381Y11886857D01*
X47204381Y12077333D01*
X47252000Y12153523D01*
X47299619Y12191619D01*
X47394857Y12229714D01*
X47490095Y12229714D01*
X47632952Y12191619D01*
X48204381Y11734476D01*
X48204381Y12229714D01*
X15565381Y6934524D02*
X14565381Y6934524D01*
X15565381Y7315476D02*
X14565381Y7315476D01*
X14565381Y7505952D01*
X14613000Y7620238D01*
X14708238Y7696429D01*
X14803476Y7734524D01*
X14993952Y7772619D01*
X15136810Y7772619D01*
X15327286Y7734524D01*
X15422524Y7696429D01*
X15517762Y7620238D01*
X15565381Y7505952D01*
X15565381Y7315476D01*
X15660619Y7925000D02*
X15660619Y8534524D01*
X14565381Y8725000D02*
X15374905Y8725000D01*
X15470143Y8763095D01*
X15517762Y8801191D01*
X15565381Y8877381D01*
X15565381Y9029762D01*
X15517762Y9105953D01*
X15470143Y9144048D01*
X15374905Y9182143D01*
X14565381Y9182143D01*
X15565381Y9563095D02*
X14565381Y9563095D01*
X14565381Y9867857D01*
X14613000Y9944048D01*
X14660619Y9982143D01*
X14755857Y10020238D01*
X14898714Y10020238D01*
X14993952Y9982143D01*
X15041571Y9944048D01*
X15089190Y9867857D01*
X15089190Y9563095D01*
X15517762Y10325000D02*
X15565381Y10439286D01*
X15565381Y10629762D01*
X15517762Y10705952D01*
X15470143Y10744048D01*
X15374905Y10782143D01*
X15279667Y10782143D01*
X15184429Y10744048D01*
X15136810Y10705952D01*
X15089190Y10629762D01*
X15041571Y10477381D01*
X14993952Y10401190D01*
X14946333Y10363095D01*
X14851095Y10325000D01*
X14755857Y10325000D01*
X14660619Y10363095D01*
X14613000Y10401190D01*
X14565381Y10477381D01*
X14565381Y10667857D01*
X14613000Y10782143D01*
X14565381Y11010714D02*
X14565381Y11467857D01*
X15565381Y11239286D02*
X14565381Y11239286D01*
X15565381Y12153572D02*
X15565381Y11696429D01*
X15565381Y11925000D02*
X14565381Y11925000D01*
X14708238Y11848810D01*
X14803476Y11772619D01*
X14851095Y11696429D01*
X20264381Y5969381D02*
X19264381Y5969381D01*
X20264381Y6350333D02*
X19264381Y6350333D01*
X19264381Y6540809D01*
X19312000Y6655095D01*
X19407238Y6731286D01*
X19502476Y6769381D01*
X19692952Y6807476D01*
X19835810Y6807476D01*
X20026286Y6769381D01*
X20121524Y6731286D01*
X20216762Y6655095D01*
X20264381Y6540809D01*
X20264381Y6350333D01*
X20359619Y6959857D02*
X20359619Y7569381D01*
X19740571Y8026524D02*
X19788190Y8140810D01*
X19835810Y8178905D01*
X19931048Y8217000D01*
X20073905Y8217000D01*
X20169143Y8178905D01*
X20216762Y8140810D01*
X20264381Y8064619D01*
X20264381Y7759857D01*
X19264381Y7759857D01*
X19264381Y8026524D01*
X19312000Y8102714D01*
X19359619Y8140810D01*
X19454857Y8178905D01*
X19550095Y8178905D01*
X19645333Y8140810D01*
X19692952Y8102714D01*
X19740571Y8026524D01*
X19740571Y7759857D01*
X19264381Y8712238D02*
X19264381Y8864619D01*
X19312000Y8940810D01*
X19407238Y9017000D01*
X19597714Y9055095D01*
X19931048Y9055095D01*
X20121524Y9017000D01*
X20216762Y8940810D01*
X20264381Y8864619D01*
X20264381Y8712238D01*
X20216762Y8636048D01*
X20121524Y8559857D01*
X19931048Y8521762D01*
X19597714Y8521762D01*
X19407238Y8559857D01*
X19312000Y8636048D01*
X19264381Y8712238D01*
X19978667Y9359857D02*
X19978667Y9740809D01*
X20264381Y9283666D02*
X19264381Y9550333D01*
X20264381Y9817000D01*
X20264381Y10540809D02*
X19788190Y10274142D01*
X20264381Y10083666D02*
X19264381Y10083666D01*
X19264381Y10388428D01*
X19312000Y10464619D01*
X19359619Y10502714D01*
X19454857Y10540809D01*
X19597714Y10540809D01*
X19692952Y10502714D01*
X19740571Y10464619D01*
X19788190Y10388428D01*
X19788190Y10083666D01*
X20264381Y10883666D02*
X19264381Y10883666D01*
X19264381Y11074142D01*
X19312000Y11188428D01*
X19407238Y11264619D01*
X19502476Y11302714D01*
X19692952Y11340809D01*
X19835810Y11340809D01*
X20026286Y11302714D01*
X20121524Y11264619D01*
X20216762Y11188428D01*
X20264381Y11074142D01*
X20264381Y10883666D01*
X19264381Y11836047D02*
X19264381Y11912238D01*
X19312000Y11988428D01*
X19359619Y12026523D01*
X19454857Y12064619D01*
X19645333Y12102714D01*
X19883429Y12102714D01*
X20073905Y12064619D01*
X20169143Y12026523D01*
X20216762Y11988428D01*
X20264381Y11912238D01*
X20264381Y11836047D01*
X20216762Y11759857D01*
X20169143Y11721761D01*
X20073905Y11683666D01*
X19883429Y11645571D01*
X19645333Y11645571D01*
X19454857Y11683666D01*
X19359619Y11721761D01*
X19312000Y11759857D01*
X19264381Y11836047D01*
X18740381Y5969381D02*
X17740381Y5969381D01*
X18740381Y6350333D02*
X17740381Y6350333D01*
X17740381Y6540809D01*
X17788000Y6655095D01*
X17883238Y6731286D01*
X17978476Y6769381D01*
X18168952Y6807476D01*
X18311810Y6807476D01*
X18502286Y6769381D01*
X18597524Y6731286D01*
X18692762Y6655095D01*
X18740381Y6540809D01*
X18740381Y6350333D01*
X18835619Y6959857D02*
X18835619Y7569381D01*
X18216571Y8026524D02*
X18264190Y8140810D01*
X18311810Y8178905D01*
X18407048Y8217000D01*
X18549905Y8217000D01*
X18645143Y8178905D01*
X18692762Y8140810D01*
X18740381Y8064619D01*
X18740381Y7759857D01*
X17740381Y7759857D01*
X17740381Y8026524D01*
X17788000Y8102714D01*
X17835619Y8140810D01*
X17930857Y8178905D01*
X18026095Y8178905D01*
X18121333Y8140810D01*
X18168952Y8102714D01*
X18216571Y8026524D01*
X18216571Y7759857D01*
X17740381Y8712238D02*
X17740381Y8864619D01*
X17788000Y8940810D01*
X17883238Y9017000D01*
X18073714Y9055095D01*
X18407048Y9055095D01*
X18597524Y9017000D01*
X18692762Y8940810D01*
X18740381Y8864619D01*
X18740381Y8712238D01*
X18692762Y8636048D01*
X18597524Y8559857D01*
X18407048Y8521762D01*
X18073714Y8521762D01*
X17883238Y8559857D01*
X17788000Y8636048D01*
X17740381Y8712238D01*
X18454667Y9359857D02*
X18454667Y9740809D01*
X18740381Y9283666D02*
X17740381Y9550333D01*
X18740381Y9817000D01*
X18740381Y10540809D02*
X18264190Y10274142D01*
X18740381Y10083666D02*
X17740381Y10083666D01*
X17740381Y10388428D01*
X17788000Y10464619D01*
X17835619Y10502714D01*
X17930857Y10540809D01*
X18073714Y10540809D01*
X18168952Y10502714D01*
X18216571Y10464619D01*
X18264190Y10388428D01*
X18264190Y10083666D01*
X18740381Y10883666D02*
X17740381Y10883666D01*
X17740381Y11074142D01*
X17788000Y11188428D01*
X17883238Y11264619D01*
X17978476Y11302714D01*
X18168952Y11340809D01*
X18311810Y11340809D01*
X18502286Y11302714D01*
X18597524Y11264619D01*
X18692762Y11188428D01*
X18740381Y11074142D01*
X18740381Y10883666D01*
X18740381Y12102714D02*
X18740381Y11645571D01*
X18740381Y11874142D02*
X17740381Y11874142D01*
X17883238Y11797952D01*
X17978476Y11721761D01*
X18026095Y11645571D01*
X17216381Y5969381D02*
X16216381Y5969381D01*
X17216381Y6350333D02*
X16216381Y6350333D01*
X16216381Y6540809D01*
X16264000Y6655095D01*
X16359238Y6731286D01*
X16454476Y6769381D01*
X16644952Y6807476D01*
X16787810Y6807476D01*
X16978286Y6769381D01*
X17073524Y6731286D01*
X17168762Y6655095D01*
X17216381Y6540809D01*
X17216381Y6350333D01*
X17311619Y6959857D02*
X17311619Y7569381D01*
X16692571Y8026524D02*
X16740190Y8140810D01*
X16787810Y8178905D01*
X16883048Y8217000D01*
X17025905Y8217000D01*
X17121143Y8178905D01*
X17168762Y8140810D01*
X17216381Y8064619D01*
X17216381Y7759857D01*
X16216381Y7759857D01*
X16216381Y8026524D01*
X16264000Y8102714D01*
X16311619Y8140810D01*
X16406857Y8178905D01*
X16502095Y8178905D01*
X16597333Y8140810D01*
X16644952Y8102714D01*
X16692571Y8026524D01*
X16692571Y7759857D01*
X16216381Y8712238D02*
X16216381Y8864619D01*
X16264000Y8940810D01*
X16359238Y9017000D01*
X16549714Y9055095D01*
X16883048Y9055095D01*
X17073524Y9017000D01*
X17168762Y8940810D01*
X17216381Y8864619D01*
X17216381Y8712238D01*
X17168762Y8636048D01*
X17073524Y8559857D01*
X16883048Y8521762D01*
X16549714Y8521762D01*
X16359238Y8559857D01*
X16264000Y8636048D01*
X16216381Y8712238D01*
X16930667Y9359857D02*
X16930667Y9740809D01*
X17216381Y9283666D02*
X16216381Y9550333D01*
X17216381Y9817000D01*
X17216381Y10540809D02*
X16740190Y10274142D01*
X17216381Y10083666D02*
X16216381Y10083666D01*
X16216381Y10388428D01*
X16264000Y10464619D01*
X16311619Y10502714D01*
X16406857Y10540809D01*
X16549714Y10540809D01*
X16644952Y10502714D01*
X16692571Y10464619D01*
X16740190Y10388428D01*
X16740190Y10083666D01*
X17216381Y10883666D02*
X16216381Y10883666D01*
X16216381Y11074142D01*
X16264000Y11188428D01*
X16359238Y11264619D01*
X16454476Y11302714D01*
X16644952Y11340809D01*
X16787810Y11340809D01*
X16978286Y11302714D01*
X17073524Y11264619D01*
X17168762Y11188428D01*
X17216381Y11074142D01*
X17216381Y10883666D01*
X16311619Y11645571D02*
X16264000Y11683666D01*
X16216381Y11759857D01*
X16216381Y11950333D01*
X16264000Y12026523D01*
X16311619Y12064619D01*
X16406857Y12102714D01*
X16502095Y12102714D01*
X16644952Y12064619D01*
X17216381Y11607476D01*
X17216381Y12102714D01*
X785905Y1198619D02*
X785905Y2198619D01*
X1166858Y2198619D01*
X1262096Y2151000D01*
X1309715Y2103381D01*
X1357334Y2008143D01*
X1357334Y1865286D01*
X1309715Y1770048D01*
X1262096Y1722429D01*
X1166858Y1674810D01*
X785905Y1674810D01*
X2309715Y1198619D02*
X1738286Y1198619D01*
X2024000Y1198619D02*
X2024000Y2198619D01*
X1928762Y2055762D01*
X1833524Y1960524D01*
X1738286Y1912905D01*
X69259524Y19359619D02*
X69259524Y20359619D01*
X69564286Y20359619D01*
X69640477Y20312000D01*
X69678572Y20264381D01*
X69716667Y20169143D01*
X69716667Y20026286D01*
X69678572Y19931048D01*
X69640477Y19883429D01*
X69564286Y19835810D01*
X69259524Y19835810D01*
X70021429Y20264381D02*
X70059524Y20312000D01*
X70135715Y20359619D01*
X70326191Y20359619D01*
X70402381Y20312000D01*
X70440477Y20264381D01*
X70478572Y20169143D01*
X70478572Y20073905D01*
X70440477Y19931048D01*
X69983334Y19359619D01*
X70478572Y19359619D01*
X6548381Y23615667D02*
X6072190Y23349000D01*
X6548381Y23158524D02*
X5548381Y23158524D01*
X5548381Y23463286D01*
X5596000Y23539477D01*
X5643619Y23577572D01*
X5738857Y23615667D01*
X5881714Y23615667D01*
X5976952Y23577572D01*
X6024571Y23539477D01*
X6072190Y23463286D01*
X6072190Y23158524D01*
X6548381Y24377572D02*
X6548381Y23920429D01*
X6548381Y24149000D02*
X5548381Y24149000D01*
X5691238Y24072810D01*
X5786476Y23996619D01*
X5834095Y23920429D01*
X26233381Y5802334D02*
X25757190Y5469000D01*
X26233381Y5230905D02*
X25233381Y5230905D01*
X25233381Y5611858D01*
X25281000Y5707096D01*
X25328619Y5754715D01*
X25423857Y5802334D01*
X25566714Y5802334D01*
X25661952Y5754715D01*
X25709571Y5707096D01*
X25757190Y5611858D01*
X25757190Y5230905D01*
X25328619Y6183286D02*
X25281000Y6230905D01*
X25233381Y6326143D01*
X25233381Y6564239D01*
X25281000Y6659477D01*
X25328619Y6707096D01*
X25423857Y6754715D01*
X25519095Y6754715D01*
X25661952Y6707096D01*
X26233381Y6135667D01*
X26233381Y6754715D01*
X24250667Y16184619D02*
X23984000Y16660810D01*
X23793524Y16184619D02*
X23793524Y17184619D01*
X24098286Y17184619D01*
X24174477Y17137000D01*
X24212572Y17089381D01*
X24250667Y16994143D01*
X24250667Y16851286D01*
X24212572Y16756048D01*
X24174477Y16708429D01*
X24098286Y16660810D01*
X23793524Y16660810D01*
X24517334Y17184619D02*
X25012572Y17184619D01*
X24745905Y16803667D01*
X24860191Y16803667D01*
X24936381Y16756048D01*
X24974477Y16708429D01*
X25012572Y16613190D01*
X25012572Y16375095D01*
X24974477Y16279857D01*
X24936381Y16232238D01*
X24860191Y16184619D01*
X24631619Y16184619D01*
X24555429Y16232238D01*
X24517334Y16279857D01*
X26028667Y20629619D02*
X25762000Y21105810D01*
X25571524Y20629619D02*
X25571524Y21629619D01*
X25876286Y21629619D01*
X25952477Y21582000D01*
X25990572Y21534381D01*
X26028667Y21439143D01*
X26028667Y21296286D01*
X25990572Y21201048D01*
X25952477Y21153429D01*
X25876286Y21105810D01*
X25571524Y21105810D01*
X26714381Y21296286D02*
X26714381Y20629619D01*
X26523905Y21677238D02*
X26333429Y20962952D01*
X26828667Y20962952D01*
X20059667Y17708619D02*
X19793000Y18184810D01*
X19602524Y17708619D02*
X19602524Y18708619D01*
X19907286Y18708619D01*
X19983477Y18661000D01*
X20021572Y18613381D01*
X20059667Y18518143D01*
X20059667Y18375286D01*
X20021572Y18280048D01*
X19983477Y18232429D01*
X19907286Y18184810D01*
X19602524Y18184810D01*
X20783477Y18708619D02*
X20402524Y18708619D01*
X20364429Y18232429D01*
X20402524Y18280048D01*
X20478715Y18327667D01*
X20669191Y18327667D01*
X20745381Y18280048D01*
X20783477Y18232429D01*
X20821572Y18137190D01*
X20821572Y17899095D01*
X20783477Y17803857D01*
X20745381Y17756238D01*
X20669191Y17708619D01*
X20478715Y17708619D01*
X20402524Y17756238D01*
X20364429Y17803857D01*
X27503381Y10661667D02*
X27027190Y10395000D01*
X27503381Y10204524D02*
X26503381Y10204524D01*
X26503381Y10509286D01*
X26551000Y10585477D01*
X26598619Y10623572D01*
X26693857Y10661667D01*
X26836714Y10661667D01*
X26931952Y10623572D01*
X26979571Y10585477D01*
X27027190Y10509286D01*
X27027190Y10204524D01*
X26503381Y11347381D02*
X26503381Y11195000D01*
X26551000Y11118810D01*
X26598619Y11080715D01*
X26741476Y11004524D01*
X26931952Y10966429D01*
X27312905Y10966429D01*
X27408143Y11004524D01*
X27455762Y11042619D01*
X27503381Y11118810D01*
X27503381Y11271191D01*
X27455762Y11347381D01*
X27408143Y11385477D01*
X27312905Y11423572D01*
X27074810Y11423572D01*
X26979571Y11385477D01*
X26931952Y11347381D01*
X26884333Y11271191D01*
X26884333Y11118810D01*
X26931952Y11042619D01*
X26979571Y11004524D01*
X27074810Y10966429D01*
X14852667Y2214619D02*
X14586000Y2690810D01*
X14395524Y2214619D02*
X14395524Y3214619D01*
X14700286Y3214619D01*
X14776477Y3167000D01*
X14814572Y3119381D01*
X14852667Y3024143D01*
X14852667Y2881286D01*
X14814572Y2786048D01*
X14776477Y2738429D01*
X14700286Y2690810D01*
X14395524Y2690810D01*
X15119334Y3214619D02*
X15652667Y3214619D01*
X15309810Y2214619D01*
X14852667Y309619D02*
X14586000Y785810D01*
X14395524Y309619D02*
X14395524Y1309619D01*
X14700286Y1309619D01*
X14776477Y1262000D01*
X14814572Y1214381D01*
X14852667Y1119143D01*
X14852667Y976286D01*
X14814572Y881048D01*
X14776477Y833429D01*
X14700286Y785810D01*
X14395524Y785810D01*
X15309810Y881048D02*
X15233619Y928667D01*
X15195524Y976286D01*
X15157429Y1071524D01*
X15157429Y1119143D01*
X15195524Y1214381D01*
X15233619Y1262000D01*
X15309810Y1309619D01*
X15462191Y1309619D01*
X15538381Y1262000D01*
X15576477Y1214381D01*
X15614572Y1119143D01*
X15614572Y1071524D01*
X15576477Y976286D01*
X15538381Y928667D01*
X15462191Y881048D01*
X15309810Y881048D01*
X15233619Y833429D01*
X15195524Y785810D01*
X15157429Y690571D01*
X15157429Y500095D01*
X15195524Y404857D01*
X15233619Y357238D01*
X15309810Y309619D01*
X15462191Y309619D01*
X15538381Y357238D01*
X15576477Y404857D01*
X15614572Y500095D01*
X15614572Y690571D01*
X15576477Y785810D01*
X15538381Y833429D01*
X15462191Y881048D01*
X56967381Y5835667D02*
X56491190Y5569000D01*
X56967381Y5378524D02*
X55967381Y5378524D01*
X55967381Y5683286D01*
X56015000Y5759477D01*
X56062619Y5797572D01*
X56157857Y5835667D01*
X56300714Y5835667D01*
X56395952Y5797572D01*
X56443571Y5759477D01*
X56491190Y5683286D01*
X56491190Y5378524D01*
X56967381Y6216619D02*
X56967381Y6369000D01*
X56919762Y6445191D01*
X56872143Y6483286D01*
X56729286Y6559477D01*
X56538810Y6597572D01*
X56157857Y6597572D01*
X56062619Y6559477D01*
X56015000Y6521381D01*
X55967381Y6445191D01*
X55967381Y6292810D01*
X56015000Y6216619D01*
X56062619Y6178524D01*
X56157857Y6140429D01*
X56395952Y6140429D01*
X56491190Y6178524D01*
X56538810Y6216619D01*
X56586429Y6292810D01*
X56586429Y6445191D01*
X56538810Y6521381D01*
X56491190Y6559477D01*
X56395952Y6597572D01*
X59175714Y16057619D02*
X58909047Y16533810D01*
X58718571Y16057619D02*
X58718571Y17057619D01*
X59023333Y17057619D01*
X59099524Y17010000D01*
X59137619Y16962381D01*
X59175714Y16867143D01*
X59175714Y16724286D01*
X59137619Y16629048D01*
X59099524Y16581429D01*
X59023333Y16533810D01*
X58718571Y16533810D01*
X59937619Y16057619D02*
X59480476Y16057619D01*
X59709047Y16057619D02*
X59709047Y17057619D01*
X59632857Y16914762D01*
X59556666Y16819524D01*
X59480476Y16771905D01*
X60432857Y17057619D02*
X60509048Y17057619D01*
X60585238Y17010000D01*
X60623333Y16962381D01*
X60661429Y16867143D01*
X60699524Y16676667D01*
X60699524Y16438571D01*
X60661429Y16248095D01*
X60623333Y16152857D01*
X60585238Y16105238D01*
X60509048Y16057619D01*
X60432857Y16057619D01*
X60356667Y16105238D01*
X60318571Y16152857D01*
X60280476Y16248095D01*
X60242381Y16438571D01*
X60242381Y16676667D01*
X60280476Y16867143D01*
X60318571Y16962381D01*
X60356667Y17010000D01*
X60432857Y17057619D01*
X40379714Y16946619D02*
X40113047Y17422810D01*
X39922571Y16946619D02*
X39922571Y17946619D01*
X40227333Y17946619D01*
X40303524Y17899000D01*
X40341619Y17851381D01*
X40379714Y17756143D01*
X40379714Y17613286D01*
X40341619Y17518048D01*
X40303524Y17470429D01*
X40227333Y17422810D01*
X39922571Y17422810D01*
X41141619Y16946619D02*
X40684476Y16946619D01*
X40913047Y16946619D02*
X40913047Y17946619D01*
X40836857Y17803762D01*
X40760666Y17708524D01*
X40684476Y17660905D01*
X41903524Y16946619D02*
X41446381Y16946619D01*
X41674952Y16946619D02*
X41674952Y17946619D01*
X41598762Y17803762D01*
X41522571Y17708524D01*
X41446381Y17660905D01*
X50412714Y17708619D02*
X50146047Y18184810D01*
X49955571Y17708619D02*
X49955571Y18708619D01*
X50260333Y18708619D01*
X50336524Y18661000D01*
X50374619Y18613381D01*
X50412714Y18518143D01*
X50412714Y18375286D01*
X50374619Y18280048D01*
X50336524Y18232429D01*
X50260333Y18184810D01*
X49955571Y18184810D01*
X51174619Y17708619D02*
X50717476Y17708619D01*
X50946047Y17708619D02*
X50946047Y18708619D01*
X50869857Y18565762D01*
X50793666Y18470524D01*
X50717476Y18422905D01*
X51479381Y18613381D02*
X51517476Y18661000D01*
X51593667Y18708619D01*
X51784143Y18708619D01*
X51860333Y18661000D01*
X51898429Y18613381D01*
X51936524Y18518143D01*
X51936524Y18422905D01*
X51898429Y18280048D01*
X51441286Y17708619D01*
X51936524Y17708619D01*
X58110381Y10026714D02*
X57634190Y9760047D01*
X58110381Y9569571D02*
X57110381Y9569571D01*
X57110381Y9874333D01*
X57158000Y9950524D01*
X57205619Y9988619D01*
X57300857Y10026714D01*
X57443714Y10026714D01*
X57538952Y9988619D01*
X57586571Y9950524D01*
X57634190Y9874333D01*
X57634190Y9569571D01*
X58110381Y10788619D02*
X58110381Y10331476D01*
X58110381Y10560047D02*
X57110381Y10560047D01*
X57253238Y10483857D01*
X57348476Y10407666D01*
X57396095Y10331476D01*
X57110381Y11055286D02*
X57110381Y11550524D01*
X57491333Y11283857D01*
X57491333Y11398143D01*
X57538952Y11474333D01*
X57586571Y11512429D01*
X57681810Y11550524D01*
X57919905Y11550524D01*
X58015143Y11512429D01*
X58062762Y11474333D01*
X58110381Y11398143D01*
X58110381Y11169571D01*
X58062762Y11093381D01*
X58015143Y11055286D01*
X53079714Y563619D02*
X52813047Y1039810D01*
X52622571Y563619D02*
X52622571Y1563619D01*
X52927333Y1563619D01*
X53003524Y1516000D01*
X53041619Y1468381D01*
X53079714Y1373143D01*
X53079714Y1230286D01*
X53041619Y1135048D01*
X53003524Y1087429D01*
X52927333Y1039810D01*
X52622571Y1039810D01*
X53841619Y563619D02*
X53384476Y563619D01*
X53613047Y563619D02*
X53613047Y1563619D01*
X53536857Y1420762D01*
X53460666Y1325524D01*
X53384476Y1277905D01*
X54527333Y1230286D02*
X54527333Y563619D01*
X54336857Y1611238D02*
X54146381Y896952D01*
X54641619Y896952D01*
X55238714Y3484619D02*
X54972047Y3960810D01*
X54781571Y3484619D02*
X54781571Y4484619D01*
X55086333Y4484619D01*
X55162524Y4437000D01*
X55200619Y4389381D01*
X55238714Y4294143D01*
X55238714Y4151286D01*
X55200619Y4056048D01*
X55162524Y4008429D01*
X55086333Y3960810D01*
X54781571Y3960810D01*
X56000619Y3484619D02*
X55543476Y3484619D01*
X55772047Y3484619D02*
X55772047Y4484619D01*
X55695857Y4341762D01*
X55619666Y4246524D01*
X55543476Y4198905D01*
X56724429Y4484619D02*
X56343476Y4484619D01*
X56305381Y4008429D01*
X56343476Y4056048D01*
X56419667Y4103667D01*
X56610143Y4103667D01*
X56686333Y4056048D01*
X56724429Y4008429D01*
X56762524Y3913190D01*
X56762524Y3675095D01*
X56724429Y3579857D01*
X56686333Y3532238D01*
X56610143Y3484619D01*
X56419667Y3484619D01*
X56343476Y3532238D01*
X56305381Y3579857D01*
X58794714Y20629619D02*
X58528047Y21105810D01*
X58337571Y20629619D02*
X58337571Y21629619D01*
X58642333Y21629619D01*
X58718524Y21582000D01*
X58756619Y21534381D01*
X58794714Y21439143D01*
X58794714Y21296286D01*
X58756619Y21201048D01*
X58718524Y21153429D01*
X58642333Y21105810D01*
X58337571Y21105810D01*
X59556619Y20629619D02*
X59099476Y20629619D01*
X59328047Y20629619D02*
X59328047Y21629619D01*
X59251857Y21486762D01*
X59175666Y21391524D01*
X59099476Y21343905D01*
X60242333Y21629619D02*
X60089952Y21629619D01*
X60013762Y21582000D01*
X59975667Y21534381D01*
X59899476Y21391524D01*
X59861381Y21201048D01*
X59861381Y20820095D01*
X59899476Y20724857D01*
X59937571Y20677238D01*
X60013762Y20629619D01*
X60166143Y20629619D01*
X60242333Y20677238D01*
X60280429Y20724857D01*
X60318524Y20820095D01*
X60318524Y21058190D01*
X60280429Y21153429D01*
X60242333Y21201048D01*
X60166143Y21248667D01*
X60013762Y21248667D01*
X59937571Y21201048D01*
X59899476Y21153429D01*
X59861381Y21058190D01*
X34271095Y23804619D02*
X34004428Y24280810D01*
X33813952Y23804619D02*
X33813952Y24804619D01*
X34118714Y24804619D01*
X34194905Y24757000D01*
X34233000Y24709381D01*
X34271095Y24614143D01*
X34271095Y24471286D01*
X34233000Y24376048D01*
X34194905Y24328429D01*
X34118714Y24280810D01*
X33813952Y24280810D01*
X34613952Y24328429D02*
X34880619Y24328429D01*
X34994905Y23804619D02*
X34613952Y23804619D01*
X34613952Y24804619D01*
X34994905Y24804619D01*
X35299667Y23852238D02*
X35413953Y23804619D01*
X35604429Y23804619D01*
X35680619Y23852238D01*
X35718715Y23899857D01*
X35756810Y23995095D01*
X35756810Y24090333D01*
X35718715Y24185571D01*
X35680619Y24233190D01*
X35604429Y24280810D01*
X35452048Y24328429D01*
X35375857Y24376048D01*
X35337762Y24423667D01*
X35299667Y24518905D01*
X35299667Y24614143D01*
X35337762Y24709381D01*
X35375857Y24757000D01*
X35452048Y24804619D01*
X35642524Y24804619D01*
X35756810Y24757000D01*
X36099667Y24328429D02*
X36366334Y24328429D01*
X36480620Y23804619D02*
X36099667Y23804619D01*
X36099667Y24804619D01*
X36480620Y24804619D01*
X36709191Y24804619D02*
X37166334Y24804619D01*
X36937763Y23804619D02*
X36937763Y24804619D01*
X7239095Y3595619D02*
X7239095Y2786095D01*
X7286714Y2690857D01*
X7334333Y2643238D01*
X7429571Y2595619D01*
X7620048Y2595619D01*
X7715286Y2643238D01*
X7762905Y2690857D01*
X7810524Y2786095D01*
X7810524Y3595619D01*
X8810524Y2595619D02*
X8239095Y2595619D01*
X8524809Y2595619D02*
X8524809Y3595619D01*
X8429571Y3452762D01*
X8334333Y3357524D01*
X8239095Y3309905D01*
X39141476Y1944619D02*
X39141476Y1135095D01*
X39179571Y1039857D01*
X39217667Y992238D01*
X39293857Y944619D01*
X39446238Y944619D01*
X39522429Y992238D01*
X39560524Y1039857D01*
X39598619Y1135095D01*
X39598619Y1944619D01*
X39903381Y1944619D02*
X40398619Y1944619D01*
X40131952Y1563667D01*
X40246238Y1563667D01*
X40322428Y1516048D01*
X40360524Y1468429D01*
X40398619Y1373190D01*
X40398619Y1135095D01*
X40360524Y1039857D01*
X40322428Y992238D01*
X40246238Y944619D01*
X40017666Y944619D01*
X39941476Y992238D01*
X39903381Y1039857D01*
X68032381Y1041476D02*
X68841905Y1041476D01*
X68937143Y1079571D01*
X68984762Y1117667D01*
X69032381Y1193857D01*
X69032381Y1346238D01*
X68984762Y1422429D01*
X68937143Y1460524D01*
X68841905Y1498619D01*
X68032381Y1498619D01*
X68032381Y2260524D02*
X68032381Y1879571D01*
X68508571Y1841476D01*
X68460952Y1879571D01*
X68413333Y1955762D01*
X68413333Y2146238D01*
X68460952Y2222428D01*
X68508571Y2260524D01*
X68603810Y2298619D01*
X68841905Y2298619D01*
X68937143Y2260524D01*
X68984762Y2222428D01*
X69032381Y2146238D01*
X69032381Y1955762D01*
X68984762Y1879571D01*
X68937143Y1841476D01*
X10414048Y24153810D02*
X10414048Y23677619D01*
X10147381Y24677619D02*
X10414048Y24153810D01*
X10680715Y24677619D01*
X11366429Y23677619D02*
X10909286Y23677619D01*
X11137857Y23677619D02*
X11137857Y24677619D01*
X11061667Y24534762D01*
X10985476Y24439524D01*
X10909286Y24391905D01*
X41656048Y24026810D02*
X41656048Y23550619D01*
X41389381Y24550619D02*
X41656048Y24026810D01*
X41922715Y24550619D01*
X42151286Y24455381D02*
X42189381Y24503000D01*
X42265572Y24550619D01*
X42456048Y24550619D01*
X42532238Y24503000D01*
X42570334Y24455381D01*
X42608429Y24360143D01*
X42608429Y24264905D01*
X42570334Y24122048D01*
X42113191Y23550619D01*
X42608429Y23550619D01*
X21361476Y6643619D02*
X21361476Y5834095D01*
X21399571Y5738857D01*
X21437667Y5691238D01*
X21513857Y5643619D01*
X21666238Y5643619D01*
X21742429Y5691238D01*
X21780524Y5738857D01*
X21818619Y5834095D01*
X21818619Y6643619D01*
X22161476Y6548381D02*
X22199571Y6596000D01*
X22275762Y6643619D01*
X22466238Y6643619D01*
X22542428Y6596000D01*
X22580524Y6548381D01*
X22618619Y6453143D01*
X22618619Y6357905D01*
X22580524Y6215048D01*
X22123381Y5643619D01*
X22618619Y5643619D01*
X52095476Y6516619D02*
X52095476Y5707095D01*
X52133571Y5611857D01*
X52171667Y5564238D01*
X52247857Y5516619D01*
X52400238Y5516619D01*
X52476429Y5564238D01*
X52514524Y5611857D01*
X52552619Y5707095D01*
X52552619Y6516619D01*
X53276428Y6183286D02*
X53276428Y5516619D01*
X53085952Y6564238D02*
X52895476Y5849952D01*
X53390714Y5849952D01*
X57582143Y1182619D02*
X57582143Y468333D01*
X57544047Y325476D01*
X57467857Y230238D01*
X57353571Y182619D01*
X57277381Y182619D01*
X57848809Y1182619D02*
X58305952Y1182619D01*
X58077381Y182619D02*
X58077381Y1182619D01*
X58534524Y468333D02*
X58915476Y468333D01*
X58458333Y182619D02*
X58725000Y1182619D01*
X58991667Y182619D01*
X59677381Y1135000D02*
X59601190Y1182619D01*
X59486905Y1182619D01*
X59372619Y1135000D01*
X59296428Y1039762D01*
X59258333Y944524D01*
X59220238Y754048D01*
X59220238Y611190D01*
X59258333Y420714D01*
X59296428Y325476D01*
X59372619Y230238D01*
X59486905Y182619D01*
X59563095Y182619D01*
X59677381Y230238D01*
X59715476Y277857D01*
X59715476Y611190D01*
X59563095Y611190D01*
X59867857Y87381D02*
X60477381Y87381D01*
X60667857Y182619D02*
X60667857Y1182619D01*
X60858333Y1182619D01*
X60972619Y1135000D01*
X61048810Y1039762D01*
X61086905Y944524D01*
X61125000Y754048D01*
X61125000Y611190D01*
X61086905Y420714D01*
X61048810Y325476D01*
X60972619Y230238D01*
X60858333Y182619D01*
X60667857Y182619D01*
X61467857Y182619D02*
X61467857Y1182619D01*
X61925000Y182619D01*
X61925000Y1182619D01*
X62267857Y230238D02*
X62382143Y182619D01*
X62572619Y182619D01*
X62648809Y230238D01*
X62686905Y277857D01*
X62725000Y373095D01*
X62725000Y468333D01*
X62686905Y563571D01*
X62648809Y611190D01*
X62572619Y658810D01*
X62420238Y706429D01*
X62344047Y754048D01*
X62305952Y801667D01*
X62267857Y896905D01*
X62267857Y992143D01*
X62305952Y1087381D01*
X62344047Y1135000D01*
X62420238Y1182619D01*
X62610714Y1182619D01*
X62725000Y1135000D01*
X62953571Y1182619D02*
X63410714Y1182619D01*
X63182143Y182619D02*
X63182143Y1182619D01*
X26721143Y1182619D02*
X26721143Y468333D01*
X26683047Y325476D01*
X26606857Y230238D01*
X26492571Y182619D01*
X26416381Y182619D01*
X26987809Y1182619D02*
X27444952Y1182619D01*
X27216381Y182619D02*
X27216381Y1182619D01*
X27673524Y468333D02*
X28054476Y468333D01*
X27597333Y182619D02*
X27864000Y1182619D01*
X28130667Y182619D01*
X28816381Y1135000D02*
X28740190Y1182619D01*
X28625905Y1182619D01*
X28511619Y1135000D01*
X28435428Y1039762D01*
X28397333Y944524D01*
X28359238Y754048D01*
X28359238Y611190D01*
X28397333Y420714D01*
X28435428Y325476D01*
X28511619Y230238D01*
X28625905Y182619D01*
X28702095Y182619D01*
X28816381Y230238D01*
X28854476Y277857D01*
X28854476Y611190D01*
X28702095Y611190D01*
X29006857Y87381D02*
X29616381Y87381D01*
X29806857Y1182619D02*
X29806857Y373095D01*
X29844952Y277857D01*
X29883048Y230238D01*
X29959238Y182619D01*
X30111619Y182619D01*
X30187810Y230238D01*
X30225905Y277857D01*
X30264000Y373095D01*
X30264000Y1182619D01*
X30644952Y182619D02*
X30644952Y1182619D01*
X30949714Y1182619D01*
X31025905Y1135000D01*
X31064000Y1087381D01*
X31102095Y992143D01*
X31102095Y849286D01*
X31064000Y754048D01*
X31025905Y706429D01*
X30949714Y658810D01*
X30644952Y658810D01*
X31406857Y230238D02*
X31521143Y182619D01*
X31711619Y182619D01*
X31787809Y230238D01*
X31825905Y277857D01*
X31864000Y373095D01*
X31864000Y468333D01*
X31825905Y563571D01*
X31787809Y611190D01*
X31711619Y658810D01*
X31559238Y706429D01*
X31483047Y754048D01*
X31444952Y801667D01*
X31406857Y896905D01*
X31406857Y992143D01*
X31444952Y1087381D01*
X31483047Y1135000D01*
X31559238Y1182619D01*
X31749714Y1182619D01*
X31864000Y1135000D01*
X32092571Y1182619D02*
X32549714Y1182619D01*
X32321143Y182619D02*
X32321143Y1182619D01*
X6802381Y16173524D02*
X5802381Y16173524D01*
X5802381Y16478286D01*
X5850000Y16554477D01*
X5897619Y16592572D01*
X5992857Y16630667D01*
X6135714Y16630667D01*
X6230952Y16592572D01*
X6278571Y16554477D01*
X6326190Y16478286D01*
X6326190Y16173524D01*
X5802381Y16897334D02*
X5802381Y17392572D01*
X6183333Y17125905D01*
X6183333Y17240191D01*
X6230952Y17316381D01*
X6278571Y17354477D01*
X6373810Y17392572D01*
X6611905Y17392572D01*
X6707143Y17354477D01*
X6754762Y17316381D01*
X6802381Y17240191D01*
X6802381Y17011619D01*
X6754762Y16935429D01*
X6707143Y16897334D01*
M02*
