G04 #@! TF.FileFunction,Legend,Bot*
%FSLAX46Y46*%
G04 Gerber Fmt 4.6, Leading zero omitted, Abs format (unit mm)*
G04 Created by KiCad (PCBNEW (2015-10-16 BZR 6271)-product) date Sun 01 Nov 2015 17:02:17 NZDT*
%MOMM*%
G01*
G04 APERTURE LIST*
%ADD10C,0.100000*%
%ADD11C,0.150000*%
%ADD12C,0.200000*%
%ADD13C,0.300000*%
%ADD14C,0.400000*%
G04 APERTURE END LIST*
D10*
D11*
X29697478Y17073619D02*
X29697478Y18073619D01*
X29507002Y18073619D01*
X29392716Y18026000D01*
X29316525Y17930762D01*
X29278430Y17835524D01*
X29240335Y17645048D01*
X29240335Y17502190D01*
X29278430Y17311714D01*
X29316525Y17216476D01*
X29392716Y17121238D01*
X29507002Y17073619D01*
X29697478Y17073619D01*
X28592716Y17121238D02*
X28668906Y17073619D01*
X28821287Y17073619D01*
X28897478Y17121238D01*
X28935573Y17216476D01*
X28935573Y17597429D01*
X28897478Y17692667D01*
X28821287Y17740286D01*
X28668906Y17740286D01*
X28592716Y17692667D01*
X28554621Y17597429D01*
X28554621Y17502190D01*
X28935573Y17406952D01*
X28249859Y17121238D02*
X28173669Y17073619D01*
X28021288Y17073619D01*
X27945097Y17121238D01*
X27907002Y17216476D01*
X27907002Y17264095D01*
X27945097Y17359333D01*
X28021288Y17406952D01*
X28135573Y17406952D01*
X28211764Y17454571D01*
X28249859Y17549810D01*
X28249859Y17597429D01*
X28211764Y17692667D01*
X28135573Y17740286D01*
X28021288Y17740286D01*
X27945097Y17692667D01*
X27564145Y17073619D02*
X27564145Y17740286D01*
X27564145Y18073619D02*
X27602240Y18026000D01*
X27564145Y17978381D01*
X27526050Y18026000D01*
X27564145Y18073619D01*
X27564145Y17978381D01*
X26840336Y17740286D02*
X26840336Y16930762D01*
X26878431Y16835524D01*
X26916526Y16787905D01*
X26992717Y16740286D01*
X27107002Y16740286D01*
X27183193Y16787905D01*
X26840336Y17121238D02*
X26916526Y17073619D01*
X27068907Y17073619D01*
X27145098Y17121238D01*
X27183193Y17168857D01*
X27221288Y17264095D01*
X27221288Y17549810D01*
X27183193Y17645048D01*
X27145098Y17692667D01*
X27068907Y17740286D01*
X26916526Y17740286D01*
X26840336Y17692667D01*
X26459383Y17740286D02*
X26459383Y17073619D01*
X26459383Y17645048D02*
X26421288Y17692667D01*
X26345097Y17740286D01*
X26230811Y17740286D01*
X26154621Y17692667D01*
X26116526Y17597429D01*
X26116526Y17073619D01*
X25430811Y17121238D02*
X25507001Y17073619D01*
X25659382Y17073619D01*
X25735573Y17121238D01*
X25773668Y17216476D01*
X25773668Y17597429D01*
X25735573Y17692667D01*
X25659382Y17740286D01*
X25507001Y17740286D01*
X25430811Y17692667D01*
X25392716Y17597429D01*
X25392716Y17502190D01*
X25773668Y17406952D01*
X24707002Y17073619D02*
X24707002Y18073619D01*
X24707002Y17121238D02*
X24783192Y17073619D01*
X24935573Y17073619D01*
X25011764Y17121238D01*
X25049859Y17168857D01*
X25087954Y17264095D01*
X25087954Y17549810D01*
X25049859Y17645048D01*
X25011764Y17692667D01*
X24935573Y17740286D01*
X24783192Y17740286D01*
X24707002Y17692667D01*
X23068906Y17073619D02*
X23107001Y17073619D01*
X23183191Y17121238D01*
X23297477Y17264095D01*
X23487953Y17549810D01*
X23564144Y17692667D01*
X23602239Y17835524D01*
X23602239Y17930762D01*
X23564144Y18026000D01*
X23487953Y18073619D01*
X23449858Y18073619D01*
X23373668Y18026000D01*
X23335572Y17930762D01*
X23335572Y17883143D01*
X23373668Y17787905D01*
X23411763Y17740286D01*
X23640334Y17549810D01*
X23678430Y17502190D01*
X23716525Y17406952D01*
X23716525Y17264095D01*
X23678430Y17168857D01*
X23640334Y17121238D01*
X23564144Y17073619D01*
X23449858Y17073619D01*
X23373668Y17121238D01*
X23335572Y17168857D01*
X23221287Y17359333D01*
X23183191Y17502190D01*
X23183191Y17597429D01*
X21773668Y17073619D02*
X21773668Y17597429D01*
X21811763Y17692667D01*
X21887953Y17740286D01*
X22040334Y17740286D01*
X22116525Y17692667D01*
X21773668Y17121238D02*
X21849858Y17073619D01*
X22040334Y17073619D01*
X22116525Y17121238D01*
X22154620Y17216476D01*
X22154620Y17311714D01*
X22116525Y17406952D01*
X22040334Y17454571D01*
X21849858Y17454571D01*
X21773668Y17502190D01*
X21430810Y17121238D02*
X21354620Y17073619D01*
X21202239Y17073619D01*
X21126048Y17121238D01*
X21087953Y17216476D01*
X21087953Y17264095D01*
X21126048Y17359333D01*
X21202239Y17406952D01*
X21316524Y17406952D01*
X21392715Y17454571D01*
X21430810Y17549810D01*
X21430810Y17597429D01*
X21392715Y17692667D01*
X21316524Y17740286D01*
X21202239Y17740286D01*
X21126048Y17692667D01*
X20783191Y17121238D02*
X20707001Y17073619D01*
X20554620Y17073619D01*
X20478429Y17121238D01*
X20440334Y17216476D01*
X20440334Y17264095D01*
X20478429Y17359333D01*
X20554620Y17406952D01*
X20668905Y17406952D01*
X20745096Y17454571D01*
X20783191Y17549810D01*
X20783191Y17597429D01*
X20745096Y17692667D01*
X20668905Y17740286D01*
X20554620Y17740286D01*
X20478429Y17692667D01*
X19792715Y17121238D02*
X19868905Y17073619D01*
X20021286Y17073619D01*
X20097477Y17121238D01*
X20135572Y17216476D01*
X20135572Y17597429D01*
X20097477Y17692667D01*
X20021286Y17740286D01*
X19868905Y17740286D01*
X19792715Y17692667D01*
X19754620Y17597429D01*
X19754620Y17502190D01*
X20135572Y17406952D01*
X19411763Y17073619D02*
X19411763Y17740286D01*
X19411763Y17645048D02*
X19373668Y17692667D01*
X19297477Y17740286D01*
X19183191Y17740286D01*
X19107001Y17692667D01*
X19068906Y17597429D01*
X19068906Y17073619D01*
X19068906Y17597429D02*
X19030810Y17692667D01*
X18954620Y17740286D01*
X18840334Y17740286D01*
X18764144Y17692667D01*
X18726049Y17597429D01*
X18726049Y17073619D01*
X18345096Y17073619D02*
X18345096Y18073619D01*
X18345096Y17692667D02*
X18268905Y17740286D01*
X18116524Y17740286D01*
X18040334Y17692667D01*
X18002239Y17645048D01*
X17964143Y17549810D01*
X17964143Y17264095D01*
X18002239Y17168857D01*
X18040334Y17121238D01*
X18116524Y17073619D01*
X18268905Y17073619D01*
X18345096Y17121238D01*
X17507000Y17073619D02*
X17583191Y17121238D01*
X17621286Y17216476D01*
X17621286Y18073619D01*
X16897476Y17121238D02*
X16973666Y17073619D01*
X17126047Y17073619D01*
X17202238Y17121238D01*
X17240333Y17216476D01*
X17240333Y17597429D01*
X17202238Y17692667D01*
X17126047Y17740286D01*
X16973666Y17740286D01*
X16897476Y17692667D01*
X16859381Y17597429D01*
X16859381Y17502190D01*
X17240333Y17406952D01*
X16173667Y17073619D02*
X16173667Y18073619D01*
X16173667Y17121238D02*
X16249857Y17073619D01*
X16402238Y17073619D01*
X16478429Y17121238D01*
X16516524Y17168857D01*
X16554619Y17264095D01*
X16554619Y17549810D01*
X16516524Y17645048D01*
X16478429Y17692667D01*
X16402238Y17740286D01*
X16249857Y17740286D01*
X16173667Y17692667D01*
X15183190Y17073619D02*
X15183190Y17740286D01*
X15183190Y18073619D02*
X15221285Y18026000D01*
X15183190Y17978381D01*
X15145095Y18026000D01*
X15183190Y18073619D01*
X15183190Y17978381D01*
X14802238Y17740286D02*
X14802238Y17073619D01*
X14802238Y17645048D02*
X14764143Y17692667D01*
X14687952Y17740286D01*
X14573666Y17740286D01*
X14497476Y17692667D01*
X14459381Y17597429D01*
X14459381Y17073619D01*
X13468904Y17073619D02*
X13468904Y18073619D01*
X13011761Y17073619D01*
X13011761Y18073619D01*
X12326047Y17121238D02*
X12402237Y17073619D01*
X12554618Y17073619D01*
X12630809Y17121238D01*
X12668904Y17216476D01*
X12668904Y17597429D01*
X12630809Y17692667D01*
X12554618Y17740286D01*
X12402237Y17740286D01*
X12326047Y17692667D01*
X12287952Y17597429D01*
X12287952Y17502190D01*
X12668904Y17406952D01*
X12021285Y17740286D02*
X11868904Y17073619D01*
X11716523Y17549810D01*
X11564142Y17073619D01*
X11411761Y17740286D01*
X10573666Y18073619D02*
X10040333Y18073619D01*
X10573666Y17073619D01*
X10040333Y17073619D01*
X9430809Y17121238D02*
X9506999Y17073619D01*
X9659380Y17073619D01*
X9735571Y17121238D01*
X9773666Y17216476D01*
X9773666Y17597429D01*
X9735571Y17692667D01*
X9659380Y17740286D01*
X9506999Y17740286D01*
X9430809Y17692667D01*
X9392714Y17597429D01*
X9392714Y17502190D01*
X9773666Y17406952D01*
X8707000Y17073619D02*
X8707000Y17597429D01*
X8745095Y17692667D01*
X8821285Y17740286D01*
X8973666Y17740286D01*
X9049857Y17692667D01*
X8707000Y17121238D02*
X8783190Y17073619D01*
X8973666Y17073619D01*
X9049857Y17121238D01*
X9087952Y17216476D01*
X9087952Y17311714D01*
X9049857Y17406952D01*
X8973666Y17454571D01*
X8783190Y17454571D01*
X8707000Y17502190D01*
X8211761Y17073619D02*
X8287952Y17121238D01*
X8326047Y17216476D01*
X8326047Y18073619D01*
X7564142Y17073619D02*
X7564142Y17597429D01*
X7602237Y17692667D01*
X7678427Y17740286D01*
X7830808Y17740286D01*
X7906999Y17692667D01*
X7564142Y17121238D02*
X7640332Y17073619D01*
X7830808Y17073619D01*
X7906999Y17121238D01*
X7945094Y17216476D01*
X7945094Y17311714D01*
X7906999Y17406952D01*
X7830808Y17454571D01*
X7640332Y17454571D01*
X7564142Y17502190D01*
X7183189Y17740286D02*
X7183189Y17073619D01*
X7183189Y17645048D02*
X7145094Y17692667D01*
X7068903Y17740286D01*
X6954617Y17740286D01*
X6878427Y17692667D01*
X6840332Y17597429D01*
X6840332Y17073619D01*
X6116522Y17073619D02*
X6116522Y18073619D01*
X6116522Y17121238D02*
X6192712Y17073619D01*
X6345093Y17073619D01*
X6421284Y17121238D01*
X6459379Y17168857D01*
X6497474Y17264095D01*
X6497474Y17549810D01*
X6459379Y17645048D01*
X6421284Y17692667D01*
X6345093Y17740286D01*
X6192712Y17740286D01*
X6116522Y17692667D01*
D12*
X29037142Y20133429D02*
X29037142Y18919143D01*
X29094285Y18776286D01*
X29151428Y18704857D01*
X29265713Y18633429D01*
X29437142Y18633429D01*
X29551428Y18704857D01*
X29037142Y19204857D02*
X29151428Y19133429D01*
X29379999Y19133429D01*
X29494285Y19204857D01*
X29551428Y19276286D01*
X29608571Y19419143D01*
X29608571Y19847714D01*
X29551428Y19990571D01*
X29494285Y20062000D01*
X29379999Y20133429D01*
X29151428Y20133429D01*
X29037142Y20062000D01*
X28465714Y19133429D02*
X28465714Y20133429D01*
X28465714Y20633429D02*
X28522857Y20562000D01*
X28465714Y20490571D01*
X28408571Y20562000D01*
X28465714Y20633429D01*
X28465714Y20490571D01*
X28065713Y20133429D02*
X27608570Y20133429D01*
X27894285Y20633429D02*
X27894285Y19347714D01*
X27837142Y19204857D01*
X27722856Y19133429D01*
X27608570Y19133429D01*
X27208571Y19133429D02*
X27208571Y20633429D01*
X26694285Y19133429D02*
X26694285Y19919143D01*
X26751428Y20062000D01*
X26865714Y20133429D01*
X27037142Y20133429D01*
X27151428Y20062000D01*
X27208571Y19990571D01*
X25608571Y20133429D02*
X25608571Y19133429D01*
X26122857Y20133429D02*
X26122857Y19347714D01*
X26065714Y19204857D01*
X25951428Y19133429D01*
X25780000Y19133429D01*
X25665714Y19204857D01*
X25608571Y19276286D01*
X25037143Y19133429D02*
X25037143Y20633429D01*
X25037143Y20062000D02*
X24922857Y20133429D01*
X24694286Y20133429D01*
X24580000Y20062000D01*
X24522857Y19990571D01*
X24465714Y19847714D01*
X24465714Y19419143D01*
X24522857Y19276286D01*
X24580000Y19204857D01*
X24694286Y19133429D01*
X24922857Y19133429D01*
X25037143Y19204857D01*
X23951429Y19276286D02*
X23894286Y19204857D01*
X23951429Y19133429D01*
X24008572Y19204857D01*
X23951429Y19276286D01*
X23951429Y19133429D01*
X22865714Y19204857D02*
X22980000Y19133429D01*
X23208571Y19133429D01*
X23322857Y19204857D01*
X23380000Y19276286D01*
X23437143Y19419143D01*
X23437143Y19847714D01*
X23380000Y19990571D01*
X23322857Y20062000D01*
X23208571Y20133429D01*
X22980000Y20133429D01*
X22865714Y20062000D01*
X22180000Y19133429D02*
X22294286Y19204857D01*
X22351429Y19276286D01*
X22408572Y19419143D01*
X22408572Y19847714D01*
X22351429Y19990571D01*
X22294286Y20062000D01*
X22180000Y20133429D01*
X22008572Y20133429D01*
X21894286Y20062000D01*
X21837143Y19990571D01*
X21780000Y19847714D01*
X21780000Y19419143D01*
X21837143Y19276286D01*
X21894286Y19204857D01*
X22008572Y19133429D01*
X22180000Y19133429D01*
X21265715Y19133429D02*
X21265715Y20133429D01*
X21265715Y19990571D02*
X21208572Y20062000D01*
X21094286Y20133429D01*
X20922858Y20133429D01*
X20808572Y20062000D01*
X20751429Y19919143D01*
X20751429Y19133429D01*
X20751429Y19919143D02*
X20694286Y20062000D01*
X20580000Y20133429D01*
X20408572Y20133429D01*
X20294286Y20062000D01*
X20237143Y19919143D01*
X20237143Y19133429D01*
X18808572Y20704857D02*
X19837143Y18776286D01*
X18408572Y19133429D02*
X18408572Y20133429D01*
X18408572Y19847714D02*
X18351429Y19990571D01*
X18294286Y20062000D01*
X18180000Y20133429D01*
X18065715Y20133429D01*
X17494286Y19133429D02*
X17608572Y19204857D01*
X17665715Y19276286D01*
X17722858Y19419143D01*
X17722858Y19847714D01*
X17665715Y19990571D01*
X17608572Y20062000D01*
X17494286Y20133429D01*
X17322858Y20133429D01*
X17208572Y20062000D01*
X17151429Y19990571D01*
X17094286Y19847714D01*
X17094286Y19419143D01*
X17151429Y19276286D01*
X17208572Y19204857D01*
X17322858Y19133429D01*
X17494286Y19133429D01*
X16580001Y19133429D02*
X16580001Y20633429D01*
X16580001Y20062000D02*
X16465715Y20133429D01*
X16237144Y20133429D01*
X16122858Y20062000D01*
X16065715Y19990571D01*
X16008572Y19847714D01*
X16008572Y19419143D01*
X16065715Y19276286D01*
X16122858Y19204857D01*
X16237144Y19133429D01*
X16465715Y19133429D01*
X16580001Y19204857D01*
X15037144Y19204857D02*
X15151430Y19133429D01*
X15380001Y19133429D01*
X15494287Y19204857D01*
X15551430Y19347714D01*
X15551430Y19919143D01*
X15494287Y20062000D01*
X15380001Y20133429D01*
X15151430Y20133429D01*
X15037144Y20062000D01*
X14980001Y19919143D01*
X14980001Y19776286D01*
X15551430Y19633429D01*
X14465716Y19133429D02*
X14465716Y20133429D01*
X14465716Y19847714D02*
X14408573Y19990571D01*
X14351430Y20062000D01*
X14237144Y20133429D01*
X14122859Y20133429D01*
X13894287Y20133429D02*
X13437144Y20133429D01*
X13722859Y20633429D02*
X13722859Y19347714D01*
X13665716Y19204857D01*
X13551430Y19133429D01*
X13437144Y19133429D01*
X13208573Y20133429D02*
X12751430Y20133429D01*
X13037145Y19133429D02*
X13037145Y20419143D01*
X12980002Y20562000D01*
X12865716Y20633429D01*
X12751430Y20633429D01*
X12351431Y19133429D02*
X12351431Y20133429D01*
X12351431Y20633429D02*
X12408574Y20562000D01*
X12351431Y20490571D01*
X12294288Y20562000D01*
X12351431Y20633429D01*
X12351431Y20490571D01*
X11837145Y19204857D02*
X11722859Y19133429D01*
X11494287Y19133429D01*
X11380002Y19204857D01*
X11322859Y19347714D01*
X11322859Y19419143D01*
X11380002Y19562000D01*
X11494287Y19633429D01*
X11665716Y19633429D01*
X11780002Y19704857D01*
X11837145Y19847714D01*
X11837145Y19919143D01*
X11780002Y20062000D01*
X11665716Y20133429D01*
X11494287Y20133429D01*
X11380002Y20062000D01*
X10808573Y19133429D02*
X10808573Y20633429D01*
X10694287Y19704857D02*
X10351430Y19133429D01*
X10351430Y20133429D02*
X10808573Y19562000D01*
X8980001Y20704857D02*
X10008572Y18776286D01*
X8065715Y20133429D02*
X8065715Y19133429D01*
X8580001Y20133429D02*
X8580001Y19347714D01*
X8522858Y19204857D01*
X8408572Y19133429D01*
X8237144Y19133429D01*
X8122858Y19204857D01*
X8065715Y19276286D01*
X7551430Y19204857D02*
X7437144Y19133429D01*
X7208572Y19133429D01*
X7094287Y19204857D01*
X7037144Y19347714D01*
X7037144Y19419143D01*
X7094287Y19562000D01*
X7208572Y19633429D01*
X7380001Y19633429D01*
X7494287Y19704857D01*
X7551430Y19847714D01*
X7551430Y19919143D01*
X7494287Y20062000D01*
X7380001Y20133429D01*
X7208572Y20133429D01*
X7094287Y20062000D01*
X6008572Y20133429D02*
X6008572Y18919143D01*
X6065715Y18776286D01*
X6122858Y18704857D01*
X6237143Y18633429D01*
X6408572Y18633429D01*
X6522858Y18704857D01*
X6008572Y19204857D02*
X6122858Y19133429D01*
X6351429Y19133429D01*
X6465715Y19204857D01*
X6522858Y19276286D01*
X6580001Y19419143D01*
X6580001Y19847714D01*
X6522858Y19990571D01*
X6465715Y20062000D01*
X6351429Y20133429D01*
X6122858Y20133429D01*
X6008572Y20062000D01*
D13*
X29551859Y23701238D02*
X29551859Y22082190D01*
X29475668Y21891714D01*
X29399478Y21796476D01*
X29247097Y21701238D01*
X28942335Y21701238D01*
X28789954Y21796476D01*
X28713763Y21891714D01*
X28637573Y22082190D01*
X28637573Y23701238D01*
X27951859Y21796476D02*
X27723288Y21701238D01*
X27342335Y21701238D01*
X27189954Y21796476D01*
X27113764Y21891714D01*
X27037573Y22082190D01*
X27037573Y22272667D01*
X27113764Y22463143D01*
X27189954Y22558381D01*
X27342335Y22653619D01*
X27647097Y22748857D01*
X27799478Y22844095D01*
X27875669Y22939333D01*
X27951859Y23129810D01*
X27951859Y23320286D01*
X27875669Y23510762D01*
X27799478Y23606000D01*
X27647097Y23701238D01*
X27266145Y23701238D01*
X27037573Y23606000D01*
X25513763Y23606000D02*
X25666144Y23701238D01*
X25894716Y23701238D01*
X26123287Y23606000D01*
X26275668Y23415524D01*
X26351859Y23225048D01*
X26428049Y22844095D01*
X26428049Y22558381D01*
X26351859Y22177429D01*
X26275668Y21986952D01*
X26123287Y21796476D01*
X25894716Y21701238D01*
X25742335Y21701238D01*
X25513763Y21796476D01*
X25437573Y21891714D01*
X25437573Y22558381D01*
X25742335Y22558381D01*
X23685192Y23034571D02*
X23304239Y21701238D01*
X22923287Y23034571D01*
X21475667Y21701238D02*
X22389953Y21701238D01*
X21932810Y21701238D02*
X21932810Y23701238D01*
X22085191Y23415524D01*
X22237572Y23225048D01*
X22389953Y23129810D01*
X20789953Y21891714D02*
X20713762Y21796476D01*
X20789953Y21701238D01*
X20866143Y21796476D01*
X20789953Y21891714D01*
X20789953Y21701238D01*
X19723286Y23701238D02*
X19570905Y23701238D01*
X19418524Y23606000D01*
X19342333Y23510762D01*
X19266143Y23320286D01*
X19189952Y22939333D01*
X19189952Y22463143D01*
X19266143Y22082190D01*
X19342333Y21891714D01*
X19418524Y21796476D01*
X19570905Y21701238D01*
X19723286Y21701238D01*
X19875667Y21796476D01*
X19951857Y21891714D01*
X20028048Y22082190D01*
X20104238Y22463143D01*
X20104238Y22939333D01*
X20028048Y23320286D01*
X19951857Y23510762D01*
X19875667Y23606000D01*
X19723286Y23701238D01*
X17285190Y21701238D02*
X17285190Y23701238D01*
X17285190Y22939333D02*
X17132809Y23034571D01*
X16828047Y23034571D01*
X16675666Y22939333D01*
X16599475Y22844095D01*
X16523285Y22653619D01*
X16523285Y22082190D01*
X16599475Y21891714D01*
X16675666Y21796476D01*
X16828047Y21701238D01*
X17132809Y21701238D01*
X17285190Y21796476D01*
X15228047Y21796476D02*
X15380428Y21701238D01*
X15685190Y21701238D01*
X15837571Y21796476D01*
X15913761Y21986952D01*
X15913761Y22748857D01*
X15837571Y22939333D01*
X15685190Y23034571D01*
X15380428Y23034571D01*
X15228047Y22939333D01*
X15151856Y22748857D01*
X15151856Y22558381D01*
X15913761Y22367905D01*
X14694713Y23034571D02*
X14085189Y23034571D01*
X14466142Y23701238D02*
X14466142Y21986952D01*
X14389951Y21796476D01*
X14237570Y21701238D01*
X14085189Y21701238D01*
X12866141Y21701238D02*
X12866141Y22748857D01*
X12942332Y22939333D01*
X13094713Y23034571D01*
X13399475Y23034571D01*
X13551856Y22939333D01*
X12866141Y21796476D02*
X13018522Y21701238D01*
X13399475Y21701238D01*
X13551856Y21796476D01*
X13628046Y21986952D01*
X13628046Y22177429D01*
X13551856Y22367905D01*
X13399475Y22463143D01*
X13018522Y22463143D01*
X12866141Y22558381D01*
D12*
X35623500Y15430500D02*
X40322500Y15430500D01*
X40322500Y15430500D02*
X39687500Y14795500D01*
X40322500Y15430500D02*
X39687500Y16065500D01*
X30607000Y15494000D02*
X31242000Y14859000D01*
X30607000Y15494000D02*
X31242000Y16129000D01*
X35306000Y15494000D02*
X30607000Y15494000D01*
D13*
X38115762Y14400952D02*
X36115762Y14400952D01*
X36115762Y14019999D01*
X36211000Y13791428D01*
X36401476Y13639047D01*
X36591952Y13562856D01*
X36972905Y13486666D01*
X37258619Y13486666D01*
X37639571Y13562856D01*
X37830048Y13639047D01*
X38020524Y13791428D01*
X38115762Y14019999D01*
X38115762Y14400952D01*
X38115762Y12572380D02*
X38020524Y12724761D01*
X37925286Y12800952D01*
X37734810Y12877142D01*
X37163381Y12877142D01*
X36972905Y12800952D01*
X36877667Y12724761D01*
X36782429Y12572380D01*
X36782429Y12343809D01*
X36877667Y12191428D01*
X36972905Y12115237D01*
X37163381Y12039047D01*
X37734810Y12039047D01*
X37925286Y12115237D01*
X38020524Y12191428D01*
X38115762Y12343809D01*
X38115762Y12572380D01*
X36782429Y11505714D02*
X38115762Y11200952D01*
X37163381Y10896190D01*
X38115762Y10591428D01*
X36782429Y10286666D01*
X36782429Y9677143D02*
X38115762Y9677143D01*
X36972905Y9677143D02*
X36877667Y9600952D01*
X36782429Y9448571D01*
X36782429Y9220000D01*
X36877667Y9067619D01*
X37068143Y8991428D01*
X38115762Y8991428D01*
X38020524Y8305714D02*
X38115762Y8153333D01*
X38115762Y7848571D01*
X38020524Y7696190D01*
X37830048Y7620000D01*
X37734810Y7620000D01*
X37544333Y7696190D01*
X37449095Y7848571D01*
X37449095Y8077143D01*
X37353857Y8229524D01*
X37163381Y8305714D01*
X37068143Y8305714D01*
X36877667Y8229524D01*
X36782429Y8077143D01*
X36782429Y7848571D01*
X36877667Y7696190D01*
X36782429Y7162857D02*
X36782429Y6553333D01*
X36115762Y6934286D02*
X37830048Y6934286D01*
X38020524Y6858095D01*
X38115762Y6705714D01*
X38115762Y6553333D01*
X38115762Y6020000D02*
X36782429Y6020000D01*
X37163381Y6020000D02*
X36972905Y5943809D01*
X36877667Y5867619D01*
X36782429Y5715238D01*
X36782429Y5562857D01*
X38020524Y4420000D02*
X38115762Y4572381D01*
X38115762Y4877143D01*
X38020524Y5029524D01*
X37830048Y5105714D01*
X37068143Y5105714D01*
X36877667Y5029524D01*
X36782429Y4877143D01*
X36782429Y4572381D01*
X36877667Y4420000D01*
X37068143Y4343809D01*
X37258619Y4343809D01*
X37449095Y5105714D01*
X38115762Y2972380D02*
X37068143Y2972380D01*
X36877667Y3048571D01*
X36782429Y3200952D01*
X36782429Y3505714D01*
X36877667Y3658095D01*
X38020524Y2972380D02*
X38115762Y3124761D01*
X38115762Y3505714D01*
X38020524Y3658095D01*
X37830048Y3734285D01*
X37639571Y3734285D01*
X37449095Y3658095D01*
X37353857Y3505714D01*
X37353857Y3124761D01*
X37258619Y2972380D01*
X38115762Y2210476D02*
X36782429Y2210476D01*
X36972905Y2210476D02*
X36877667Y2134285D01*
X36782429Y1981904D01*
X36782429Y1753333D01*
X36877667Y1600952D01*
X37068143Y1524761D01*
X38115762Y1524761D01*
X37068143Y1524761D02*
X36877667Y1448571D01*
X36782429Y1296190D01*
X36782429Y1067618D01*
X36877667Y915238D01*
X37068143Y839047D01*
X38115762Y839047D01*
X32305762Y14401143D02*
X33924810Y14401143D01*
X34115286Y14324952D01*
X34210524Y14248762D01*
X34305762Y14096381D01*
X34305762Y13791619D01*
X34210524Y13639238D01*
X34115286Y13563047D01*
X33924810Y13486857D01*
X32305762Y13486857D01*
X32972429Y12724953D02*
X34972429Y12724953D01*
X33067667Y12724953D02*
X32972429Y12572572D01*
X32972429Y12267810D01*
X33067667Y12115429D01*
X33162905Y12039238D01*
X33353381Y11963048D01*
X33924810Y11963048D01*
X34115286Y12039238D01*
X34210524Y12115429D01*
X34305762Y12267810D01*
X34305762Y12572572D01*
X34210524Y12724953D01*
X34210524Y11353524D02*
X34305762Y11201143D01*
X34305762Y10896381D01*
X34210524Y10744000D01*
X34020048Y10667810D01*
X33924810Y10667810D01*
X33734333Y10744000D01*
X33639095Y10896381D01*
X33639095Y11124953D01*
X33543857Y11277334D01*
X33353381Y11353524D01*
X33258143Y11353524D01*
X33067667Y11277334D01*
X32972429Y11124953D01*
X32972429Y10896381D01*
X33067667Y10744000D01*
X32972429Y10210667D02*
X32972429Y9601143D01*
X32305762Y9982096D02*
X34020048Y9982096D01*
X34210524Y9905905D01*
X34305762Y9753524D01*
X34305762Y9601143D01*
X34305762Y9067810D02*
X32972429Y9067810D01*
X33353381Y9067810D02*
X33162905Y8991619D01*
X33067667Y8915429D01*
X32972429Y8763048D01*
X32972429Y8610667D01*
X34210524Y7467810D02*
X34305762Y7620191D01*
X34305762Y7924953D01*
X34210524Y8077334D01*
X34020048Y8153524D01*
X33258143Y8153524D01*
X33067667Y8077334D01*
X32972429Y7924953D01*
X32972429Y7620191D01*
X33067667Y7467810D01*
X33258143Y7391619D01*
X33448619Y7391619D01*
X33639095Y8153524D01*
X34305762Y6020190D02*
X33258143Y6020190D01*
X33067667Y6096381D01*
X32972429Y6248762D01*
X32972429Y6553524D01*
X33067667Y6705905D01*
X34210524Y6020190D02*
X34305762Y6172571D01*
X34305762Y6553524D01*
X34210524Y6705905D01*
X34020048Y6782095D01*
X33829571Y6782095D01*
X33639095Y6705905D01*
X33543857Y6553524D01*
X33543857Y6172571D01*
X33448619Y6020190D01*
X34305762Y5258286D02*
X32972429Y5258286D01*
X33162905Y5258286D02*
X33067667Y5182095D01*
X32972429Y5029714D01*
X32972429Y4801143D01*
X33067667Y4648762D01*
X33258143Y4572571D01*
X34305762Y4572571D01*
X33258143Y4572571D02*
X33067667Y4496381D01*
X32972429Y4344000D01*
X32972429Y4115428D01*
X33067667Y3963048D01*
X33258143Y3886857D01*
X34305762Y3886857D01*
D14*
X35433000Y24511000D02*
X35433000Y508000D01*
D11*
X13190220Y10264140D02*
X12829540Y8793480D01*
X12829540Y8793480D02*
X12550140Y9855200D01*
X12550140Y9855200D02*
X12240260Y8783320D01*
X12240260Y8783320D02*
X11899900Y10233660D01*
X14610080Y9573260D02*
X13820140Y9583420D01*
X13820140Y9583420D02*
X13809980Y9573260D01*
X13809980Y9573260D02*
X13809980Y9583420D01*
X13769340Y10294620D02*
X13769340Y8752840D01*
X14658340Y10304780D02*
X14658340Y8735060D01*
X14658340Y8735060D02*
X14648180Y8745220D01*
X15209520Y10203180D02*
X15560040Y10284460D01*
X15560040Y10284460D02*
X15880080Y10294620D01*
X15880080Y10294620D02*
X16118840Y10093960D01*
X16118840Y10093960D02*
X16149320Y9824720D01*
X16149320Y9824720D02*
X15908020Y9583420D01*
X15908020Y9583420D02*
X15519400Y9453880D01*
X15519400Y9453880D02*
X15339060Y9293860D01*
X15339060Y9293860D02*
X15298420Y8994140D01*
X15298420Y8994140D02*
X15529560Y8773160D01*
X15529560Y8773160D02*
X15849600Y8745220D01*
X15849600Y8745220D02*
X16200120Y8854440D01*
X17238980Y10304780D02*
X17487900Y10284460D01*
X17487900Y10284460D02*
X17729200Y10043160D01*
X17729200Y10043160D02*
X17818100Y9552940D01*
X17818100Y9552940D02*
X17790160Y9204960D01*
X17790160Y9204960D02*
X17589500Y8884920D01*
X17589500Y8884920D02*
X17338040Y8763000D01*
X17338040Y8763000D02*
X17028160Y8834120D01*
X17028160Y8834120D02*
X16809720Y9014460D01*
X16809720Y9014460D02*
X16738600Y9474200D01*
X16738600Y9474200D02*
X16789400Y9883140D01*
X16789400Y9883140D02*
X16898620Y10165080D01*
X16898620Y10165080D02*
X17259300Y10294620D01*
X16639540Y12024360D02*
X16898620Y11463020D01*
X16898620Y11463020D02*
X16360140Y10944860D01*
X16360140Y10944860D02*
X15839440Y11214100D01*
X15839440Y11214100D02*
X15560040Y11054080D01*
X14119860Y11074400D02*
X13789660Y11264900D01*
X13789660Y11264900D02*
X13350240Y10934700D01*
X13350240Y10934700D02*
X12877800Y11424920D01*
X12877800Y11424920D02*
X13159740Y11904980D01*
X13159740Y11904980D02*
X12969240Y12374880D01*
X12969240Y12374880D02*
X12359640Y12562840D01*
X12359640Y12562840D02*
X12359640Y13243560D01*
X12359640Y13243560D02*
X12918440Y13383260D01*
X12918440Y13383260D02*
X13119100Y13954760D01*
X13119100Y13954760D02*
X12849860Y14424660D01*
X12849860Y14424660D02*
X13319760Y14935200D01*
X13319760Y14935200D02*
X13837920Y14673580D01*
X13837920Y14673580D02*
X14307820Y14874240D01*
X14307820Y14874240D02*
X14478000Y15415260D01*
X14478000Y15415260D02*
X15168880Y15433040D01*
X15168880Y15433040D02*
X15379700Y14884400D01*
X15379700Y14884400D02*
X15798800Y14714220D01*
X15798800Y14714220D02*
X16349980Y14983460D01*
X16349980Y14983460D02*
X16868140Y14455140D01*
X16868140Y14455140D02*
X16619220Y13914120D01*
X16619220Y13914120D02*
X16789400Y13434060D01*
X16789400Y13434060D02*
X17338040Y13335000D01*
X17338040Y13335000D02*
X17348200Y12633960D01*
X17348200Y12633960D02*
X16789400Y12433300D01*
X16789400Y12433300D02*
X16649700Y12034520D01*
X14508480Y12054840D02*
X14208760Y12204700D01*
X14208760Y12204700D02*
X14008100Y12402820D01*
X14008100Y12402820D02*
X13858240Y12804140D01*
X13858240Y12804140D02*
X13858240Y13202920D01*
X13858240Y13202920D02*
X14008100Y13553440D01*
X14008100Y13553440D02*
X14460220Y13903960D01*
X14460220Y13903960D02*
X14909800Y13954760D01*
X14909800Y13954760D02*
X15308580Y13853160D01*
X15308580Y13853160D02*
X15709900Y13505180D01*
X15709900Y13505180D02*
X15859760Y13053060D01*
X15859760Y13053060D02*
X15808960Y12555220D01*
X15808960Y12555220D02*
X15560040Y12252960D01*
X15560040Y12252960D02*
X15209520Y12054840D01*
X15209520Y12054840D02*
X15560040Y11054080D01*
X14508480Y12054840D02*
X14109700Y11054080D01*
M02*
