M48
;DRILL file {KiCad (2015-10-16 BZR 6271)-product} date Sun 01 Nov 2015 14:42:12 NZDT
;FORMAT={-:-/ absolute / inch / decimal}
FMAT,2
INCH,TZ
T1C0.016
T2C0.020
T3C0.022
T4C0.026
T5C0.035
T6C0.039
T7C0.043
T8C0.091
%
G90
G05
M72
T1
X0.05Y0.81
X0.085Y0.43
X0.085Y0.395
X0.105Y0.26
X0.105Y0.225
X0.215Y0.95
X0.245Y0.715
X0.245Y0.685
X0.25Y0.05
X0.26Y0.505
X0.295Y0.505
X0.33Y0.11
X0.34Y0.835
X0.345Y0.21
X0.345Y0.18
X0.375Y0.285
X0.385Y0.715
X0.4Y0.43
X0.42Y0.17
X0.425Y0.62
X0.44Y0.34
X0.485Y0.17
X0.52Y0.645
X0.565Y0.525
X0.605Y0.75
X0.61Y0.32
X0.685Y0.32
X0.685Y0.145
X0.76Y0.39
X0.775Y0.445
X0.785Y0.415
X0.81Y0.46
X0.825Y0.49
X0.84Y0.76
X0.855Y0.5675
X0.855Y0.13
X0.945Y0.75
X0.95Y0.145
X1.005Y0.145
X1.015Y0.27
X1.025Y0.85
X1.06Y0.54
X1.06Y0.365
X1.18Y0.81
X1.18Y0.74
X1.215Y0.695
X1.225Y0.61
X1.26Y0.39
X1.265Y0.545
X1.265Y0.31
X1.265Y0.23
X1.34Y0.59
X1.34Y0.285
X1.34Y0.255
X1.385Y0.375
X1.385Y0.305
X1.41Y0.245
X1.455Y0.77
X1.46Y0.19
X1.465Y0.64
X1.485Y0.51
X1.515Y0.51
X1.545Y0.16
X1.55Y0.35
X1.585Y0.275
X1.635Y0.565
X1.645Y0.715
X1.665Y0.17
X1.77Y0.54
X1.77Y0.505
X1.77Y0.47
X1.77Y0.43
X1.775Y0.39
X1.845Y0.74
X1.85Y0.405
X1.885Y0.835
X1.94Y0.405
X1.96Y0.835
X2.025Y0.13
X2.03Y0.23
X2.035Y0.51
X2.06Y0.715
X2.145Y0.23
X2.17Y0.74
X2.245Y0.495
X2.25Y0.28
X2.28Y0.365
X2.34Y0.92
X2.395Y0.86
X2.445Y0.935
X2.46Y0.155
X2.605Y0.93
X2.685Y0.355
X2.69Y0.105
X2.735Y0.045
X2.74Y0.845
X2.74Y0.6
X2.74Y0.49
X2.755Y0.13
T4
X1.14Y0.39
X1.14Y0.34
X1.14Y0.29
X1.14Y0.24
X1.14Y0.19
X1.19Y0.39
X1.19Y0.34
X1.19Y0.29
X1.19Y0.24
X1.19Y0.19
X2.35Y0.39
X2.35Y0.34
X2.35Y0.29
X2.35Y0.24
X2.35Y0.19
X2.4Y0.39
X2.4Y0.34
X2.4Y0.29
X2.4Y0.24
X2.4Y0.19
T6
X1.267Y0.8986
X1.267Y0.7214
X1.523Y0.8986
X1.523Y0.7214
X2.535Y0.6306
X2.535Y0.5322
X2.535Y0.4534
X2.535Y0.355
T7
X0.17Y0.4256
X0.17Y0.2444
T8
X2.6417Y0.7515
X2.6417Y0.2341
T2
X0.0574Y0.9428G85X0.083Y0.9428
G05
X0.0574Y0.6672G85X0.083Y0.6672
G05
T3
X0.1765Y0.9094G85X0.1765Y0.8976
G05
X0.1765Y0.7125G85X0.1765Y0.7007
G05
T5
X0.2015Y0.5594G85X0.1385Y0.5594
G05
X0.2015Y0.1106G85X0.1385Y0.1106
G05
T0
M30
